<?xml version="1.0" encoding="UTF-8" standalone="no"?>
<!-- Generator: Adobe Illustrator 26.0.1, SVG Export Plug-In . SVG Version: 6.00 Build 0)  -->

<svg
   version="1.1"
   id="Camada_1"
   x="0px"
   y="0px"
   viewBox="0 0 595.3 595.29997"
   xml:space="preserve"
   width="595.29999"
   height="595.29999"
   xmlns:xlink="http://www.w3.org/1999/xlink"
   xmlns="http://www.w3.org/2000/svg"
   xmlns:svg="http://www.w3.org/2000/svg"><defs
   id="defs65" />
<style
   type="text/css"
   id="style2">
	.st0{clip-path:url(#SVGID_00000108272406629017081700000016418454257334757779_);}
	.st1{fill-rule:evenodd;clip-rule:evenodd;fill:#80CDE9;}
	.st2{fill-rule:evenodd;clip-rule:evenodd;fill:#BCE2F0;}
	
		.st3{fill-rule:evenodd;clip-rule:evenodd;fill:#FEFEFE;stroke:#FEFEFE;stroke-width:2.4245;stroke-linejoin:round;stroke-miterlimit:22.9256;}
	
		.st4{fill-rule:evenodd;clip-rule:evenodd;fill:#FEFEFE;stroke:#FEFEFE;stroke-width:0.9533;stroke-linejoin:round;stroke-miterlimit:22.9256;}
	
		.st5{fill-rule:evenodd;clip-rule:evenodd;fill:#FEFEFE;stroke:#FEFEFE;stroke-width:1.3215;stroke-linejoin:round;stroke-miterlimit:22.9256;}
	
		.st6{fill-rule:evenodd;clip-rule:evenodd;fill:#FBFCF9;stroke:#FEFEFE;stroke-width:1.3215;stroke-linejoin:round;stroke-miterlimit:22.9256;}
	
		.st7{fill-rule:evenodd;clip-rule:evenodd;fill:#FEFEFE;stroke:#FEFEFE;stroke-width:0.4405;stroke-linejoin:round;stroke-miterlimit:22.9256;}
	.st8{fill-rule:evenodd;clip-rule:evenodd;fill:#56ABB5;}
	.st9{fill-rule:evenodd;clip-rule:evenodd;fill:#FCF5C7;}
	.st10{fill-rule:evenodd;clip-rule:evenodd;fill:#FBF5C7;}
	.st11{fill-rule:evenodd;clip-rule:evenodd;fill:#BDD46B;}
	.st12{fill-rule:evenodd;clip-rule:evenodd;fill:#96C456;}
	
		.st13{fill-rule:evenodd;clip-rule:evenodd;fill:none;stroke:#2B2A29;stroke-width:0.5669;stroke-linecap:round;stroke-linejoin:round;stroke-miterlimit:22.9256;}
</style>
<g
   id="g58">
	<defs
   id="defs5">
		<rect
   id="SVGID_1_"
   x="-0.2"
   y="0"
   width="595.29999"
   height="841.90002" />
	</defs>
	<clipPath
   id="SVGID_00000162348735284424825640000014540562433278785210_">
		<use
   xlink:href="#SVGID_1_"
   style="overflow:visible"
   id="use7"
   x="0"
   y="0"
   width="100%"
   height="100%" />
	</clipPath>
	<g
   clip-path="url(#SVGID_00000162348735284424825640000014540562433278785210_)"
   id="g56">
		<rect
   x="-24"
   y="-116.8"
   class="st1"
   width="632"
   height="542.90002"
   id="rect10" />
		<g
   id="g32">
			<path
   class="st2"
   d="m -36.6,264.1 c 2.6,2.2 5.5,7.8 7.1,12.4 0,0 -1.1,1.3 1.3,1.1 3.6,-0.3 6.7,-5.4 10.3,-5.7 10.7,-0.9 16.6,11.6 16.9,15.1 0.3,3.5 -1.3,12 -1.8,19.2 l 14.3,-0.1 c -1.1,-11.8 13.7,-20.3 20.8,-20.9 10.7,-1 30.6,7.9 32,22.1 0.2,2.4 -3.7,12.2 -5.4,19.5 3.6,-0.3 7.1,-0.6 10.9,1.4 1.8,-6.1 7.5,-10.2 12.5,-7.1 0.2,-10.7 7.8,-19.7 18.4,-20.7 14.3,-1.3 31.2,13.9 30.5,31.8 7.1,-0.7 23.4,7.4 30.4,17.5 -1.2,0.1 -7.9,38.1 -7.9,38.1 L -58,402 -57,250.4 c 6,-0.5 16.1,5.7 20.4,13.7 z"
   id="path12" />
			<path
   class="st3"
   d="m -33.2,351.2 151.9,-8.1 -0.3,-5.3 C 109,325.9 109,325.9 98.5,326.4 c -5.3,0.3 -7.1,-1.4 -18.8,9.9 -8.9,-35.1 -26.4,-35.9 -45.6,-34.9 -24.3,1.4 -53.3,15.3 -67.3,49.8 z"
   id="path14" />
			<path
   class="st4"
   d="m 408,375.3 c 4.9,0 14.7,17.3 14.7,25 v 4.3 h -98.9 v -3.5 c 1.2,-1.7 3.1,-3.5 4.9,-3.5 1.2,0 3.1,1.7 4.9,1.7 4.9,0 3.7,-9.5 10.4,-9.5 2.5,0 9.2,4.3 11.1,9.5 1.2,-7.8 3.7,-8.6 6.8,-8.6 2.4,0 3.7,0 6.1,4.3 2.5,-6.9 6.1,-9.5 8.6,-9.5 3.1,0 7.4,3.5 8.6,8.7 4.9,-16.4 8.6,-19 17.8,-19 h 5 z"
   id="path16" />
			<path
   class="st2"
   d="m 643,98 c 18,0 54.1,-50.9 54.1,-73.8 V 11.5 H 334 v 10.2 c 4.5,5.1 11.3,10.2 18,10.2 4.5,0 11.3,-5.1 18,-5.1 18,0 13.5,28 38.3,28 9,0 33.8,-12.7 40.6,-28 4.5,22.9 13.5,25.4 24.8,25.4 9,0 13.5,0 22.6,-12.7 9,20.4 22.5,28 31.6,28 11.3,0 27.1,-10.2 31.6,-25.4 C 577.6,90.3 591.1,98 625,98 Z"
   id="path18" />
			<path
   class="st2"
   d="m 515.5,360.8 c 0,0 -2.3,-10.9 4.4,-11.3 6.7,-0.4 11.4,4.3 14.5,1.7 3.1,-2.6 -2.8,-5.8 1.6,-14.7 4.4,-8.9 11.1,-8.1 16.5,-5.6 5.4,2.4 6.6,-4.7 10.9,-5.1 4.3,-0.4 4.8,-0.6 4.8,-0.6 0,0 -9.5,-12.8 4,-23.2 13.5,-10.4 22.9,9.6 22.9,9.6 0,0 -1.3,-10.5 3.2,-10.7 4.6,-0.2 4.8,0.6 4.8,0.6 l 4.8,81.9 c 0,0 -98.5,32.8 -109.8,11.3 -11.1,-21.4 17.4,-33.9 17.4,-33.9 z"
   id="path20" />
			<path
   class="st5"
   d="m 467.5,67.3 c 9.6,0 28.8,-24.1 28.8,-34.9 L 542,-19.3 c -42.9,2.9 -265.7,-43.8 -255.2,29.4 0.5,3.4 13.1,26.6 25.7,25.9 2.4,0 6,-2.4 9.6,-2.4 9.6,0 7.2,13.3 20.4,13.3 4.8,0 18,-6 21.6,-13.3 2.4,10.8 7.2,12 13.2,12 4.8,0 7.2,0 12,-6 4.8,9.6 12,13.3 16.8,13.3 6,0 14.4,-4.8 16.8,-12 9.6,22.9 16.8,26.5 34.8,26.5 h 9.8 z"
   id="path22" />
			<path
   class="st6"
   d="M 437.4,59.7 429,6.5 c 27.2,7.6 96.9,-14.8 123.3,-12 31.4,3.3 51.7,-16.1 49.9,27.9 -2.7,6.6 -17.4,15.2 -27.8,11.9 0.1,8.7 -8.8,15 -12.4,15.6 -7.2,1.2 -14.4,-5.2 -20.4,-11.6 0.4,2.4 -12.3,8.2 -13.5,8.4 -4.8,0.8 -13.9,-1.5 -18.2,-5.8 -3.3,10.4 -6.3,14.6 -13.6,15.8 -2.4,0.4 -6.4,-1.5 -9.2,-3.5 -2.2,1.6 -3.9,6.8 -6.1,8.4 -3,4.2 -9.3,4 -12.9,4.5 -10.9,1.7 -15.7,2.4 -30.7,-6.4 z"
   id="path24" />
			<path
   class="st2"
   d="m 179.9,40.8 c 0,0 2.5,17.3 -11.9,15.9 -14.5,-1.4 -23.6,-10 -30.7,-6.9 -7.2,3.1 4.8,9.7 -6.6,21.9 C 119.3,83.9 105,80.7 94,75.4 83,70.1 78.9,80.6 69.6,79.9 60.1,79.3 59,79.4 59,79.4 c 0,0 17.7,22.4 -13.7,34.1 C 14,125.3 -1.9,92 -1.9,92 c 0,0 0.6,16.5 -9.2,15.4 -9.8,-1.1 -10.3,-2.3 -10.3,-2.3 L -14,-21.3 176.4,3.4 Z"
   id="path26" />
			<path
   class="st7"
   d="m -1,88.8 c 1.3,-1.3 2.6,-4.5 3.2,-7.1 0,0 -0.6,-0.7 0.7,-0.7 1.9,0 3.9,2.6 5.8,2.6 5.8,0 8.4,-7.1 8.4,-9.1 0,-1.9 -1.3,-6.5 -1.9,-10.3 L 23,63.5 c 0,6.6 8.4,10.5 12.3,10.5 5.8,0 16.2,-5.8 16.2,-13.6 0,-1.3 -2.6,-6.5 -3.9,-10.3 1.9,0 3.9,0 5.8,-1.3 1.3,3.2 4.6,5.2 7.1,3.2 0.6,5.8 5.2,10.4 11,10.4 7.8,0 16.2,-9 14.9,-18.8 3.9,0 12.3,-5.2 15.6,-11 -0.6,0 -8.2,-42.9 -8.2,-42.9 l -102.4,2.5 -2.7,105 c 3.2,0 8.4,-3.8 10.3,-8.4 z"
   id="path28" />
			<path
   class="st6"
   d="m 89.3,42 v -54 c 25.7,11.8 98.1,0.6 123.8,7.5 30.5,8.2 44.8,-6.4 44.9,35.4 -3.7,6.1 -19.6,12.3 -29.4,7.3 -1.2,8.6 -11,13.5 -14.7,13.5 -7.3,0 -13.5,-7.3 -18.3,-14.7 0,2.4 -13.5,6.1 -14.7,6.1 -4.9,0 -13.5,-3.7 -17.1,-8.6 -4.9,9.8 -8.6,13.5 -15.9,13.5 -2.4,0 -6.1,-2.5 -8.6,-4.9 -2.4,1.2 -4.9,6.1 -7.3,7.4 -3.7,3.7 -9.8,2.4 -13.4,2.4 C 107.7,53 102.8,53 89.3,42 Z"
   id="path30" />
		</g>
		<g
   id="g40">
			<path
   class="st8"
   d="m 521.2,324 c 0.5,-0.9 1.2,-2.1 2.5,-1.6 17.8,2.2 35.6,4.4 53.3,6.8 12.5,4 24.9,8.3 37.4,12.1 -2.9,-5.7 -6,-11.3 -8.9,-17 2.8,-4.6 5.7,-9.1 8.5,-13.8 l 21.2,39.8 c -17.1,1.8 -34.2,3.9 -51.1,6.9 -10.2,15 -137.2,62.7 -177.3,43.1 13.4,-9.3 27,-18.5 40.6,-27.5 19.1,-6.2 37.9,-13.3 56.9,-19.7 1.4,-0.7 3.4,-0.8 4,-2.5 4.4,-8.8 8.6,-17.7 12.9,-26.6 z"
   id="path34" />
			<path
   class="st9"
   d="m 453.5,368.5 c 20.8,-14.1 41.7,-28.1 62.5,-42.2 1.6,-1 3.2,-2.3 5.2,-2.3 -4.3,8.9 -8.5,17.8 -12.9,26.6 -0.6,1.7 -2.6,1.8 -4,2.5 -19,6.4 -37.8,13.5 -56.9,19.7 2,-1.5 4,-3 6.1,-4.3 z"
   id="path36" />
			<path
   class="st9"
   d="m 577.1,329.2 c 10.7,-9.2 22,-17.6 32.8,-26.6 l 4.2,7.9 c -2.8,4.6 -5.7,9.1 -8.5,13.8 2.9,5.7 6.1,11.3 8.9,17 -12.5,-3.9 -24.9,-8.1 -37.4,-12.1 z"
   id="path38" />
		</g>
		<g
   id="g48">
			<path
   class="st8"
   d="m 157.6,304.2 c 0.4,-0.2 1.1,-0.7 1.4,-0.9 3.9,2.8 8,5.3 12,8 53.3,35 106.6,70 159.9,105 2.4,1.6 4.9,3.2 7.2,4.9 -3,-0.5 -6.1,-1.1 -9,-1.8 -41.3,-8.9 -83,-15.9 -125.1,-20.4 -76.8,-8.1 -155.1,-8.6 -233.2,3.6 l 15.8,-54.2 c 3.4,0.6 6.9,1.2 10.4,1.4 -2.7,-2.7 -5.7,-5.1 -8.6,-7.6 L 3.7,289.6 c 1.4,1.2 3,2.2 4.4,3.2 24.6,17.1 49,34.5 73.6,51.5 16.8,10.1 33.7,19.8 50.5,29.9 1.1,0.6 2.2,1.1 3.4,1.6 -8.4,-10.7 -17.3,-20.8 -25.8,-31.4 10.1,-1.9 20.2,-2.4 30.3,-4.3 -1.3,-4.1 -2.7,-8.2 -3.7,-12.4 0.9,-1.9 2.6,-3.1 3.9,-4.6 5.7,-6.3 11.8,-12.3 17.3,-18.9 z"
   id="path42" />
			<path
   class="st9"
   d="m 150.2,307.6 c 2.4,-1.4 4.9,-2.6 7.4,-3.4 -5.5,6.6 -11.6,12.6 -17.3,19 -1.3,1.5 -3,2.7 -3.9,4.6 1.1,4.2 2.5,8.3 3.7,12.4 -10.1,1.8 -20.2,2.4 -30.3,4.3 8.4,10.6 17.4,20.7 25.8,31.4 -1.1,-0.5 -2.3,-1 -3.4,-1.6 -16.8,-10.1 -33.7,-19.8 -50.5,-29.9 1,-0.7 2,-1.4 3,-2 21.9,-11.7 43.7,-23.2 65.5,-34.8 z"
   id="path44" />
			<path
   class="st10"
   d="m -11.6,342.2 c 2.9,2.5 5.8,4.9 8.6,7.6 -3.5,-0.3 -6.9,-0.9 -10.4,-1.4 z"
   id="path46" />
		</g>
		<g
   id="g54">
			<path
   class="st11"
   d="m -8.9,395.2 c 0,0 157,-35.7 311,-1.8 154,33.9 319.9,-62.8 319.9,-62.8 l -17,190.8 -616,-74 z"
   id="path50" />
			<path
   class="st12"
   d="m -5.8,398.2 c 0,0 127.1,-29.2 281,4.7 154,33.9 340.7,-45 340.7,-45 L 608,878.1 H -14.4 Z"
   id="path52" />
		</g>
	</g>
</g>

</svg>
