<svg version="1.1" viewBox="0 0 595.28 595.28" xml:space="preserve" xmlns="http://www.w3.org/2000/svg" xmlns:xlink="http://www.w3.org/1999/xlink">
<style type="text/css">
	.st0{clip-path:url(#SVGID_2_);}
	.st1{fill-rule:evenodd;clip-rule:evenodd;fill:#80CDE9;}
	.st2{fill-rule:evenodd;clip-rule:evenodd;fill:#BCE2F0;}
	
		.st3{fill-rule:evenodd;clip-rule:evenodd;fill:#FEFEFE;stroke:#FEFEFE;stroke-width:2.4245;stroke-linejoin:round;stroke-miterlimit:22.9256;}
	
		.st4{fill-rule:evenodd;clip-rule:evenodd;fill:#FEFEFE;stroke:#FEFEFE;stroke-width:0.9533;stroke-linejoin:round;stroke-miterlimit:22.9256;}
	
		.st5{fill-rule:evenodd;clip-rule:evenodd;fill:#FEFEFE;stroke:#FEFEFE;stroke-width:1.3215;stroke-linejoin:round;stroke-miterlimit:22.9256;}
	
		.st6{fill-rule:evenodd;clip-rule:evenodd;fill:#FBFCF9;stroke:#FEFEFE;stroke-width:1.3215;stroke-linejoin:round;stroke-miterlimit:22.9256;}
	
		.st7{fill-rule:evenodd;clip-rule:evenodd;fill:#FEFEFE;stroke:#FEFEFE;stroke-width:0.4405;stroke-linejoin:round;stroke-miterlimit:22.9256;}
	.st8{fill-rule:evenodd;clip-rule:evenodd;fill:#56ABB5;}
	.st9{fill-rule:evenodd;clip-rule:evenodd;fill:#FCF5C7;}
	.st10{fill-rule:evenodd;clip-rule:evenodd;fill:#FBF5C7;}
	.st11{fill-rule:evenodd;clip-rule:evenodd;fill:#BDD46B;}
	.st12{fill-rule:evenodd;clip-rule:evenodd;fill:#96C456;}
	.st13{fill-rule:evenodd;clip-rule:evenodd;fill:#2F2A25;}
	
		.st14{fill-rule:evenodd;clip-rule:evenodd;fill:none;stroke:#2B2A29;stroke-width:0.5669;stroke-linecap:round;stroke-linejoin:round;stroke-miterlimit:22.9256;}
</style>

	<defs>
		<rect id="SVGID_1_" x="-.2" y=".01" width="595.28" height="841.89"/>
	</defs>
	<clipPath id="SVGID_2_">
		<use width="100%" height="100%" xlink:href="#SVGID_1_"/>
	</clipPath>
	<g class="st0" clip-path="url(#SVGID_2_)">
		<rect class="st1" x="-24" y="-116.84" width="632" height="542.88"/>
		
			<path class="st2" d="m-36.56 264.06c2.6 2.15 5.53 7.83 7.14 12.44 0 0-1.07 1.29 1.29 1.07 3.56-0.32 6.71-5.37 10.27-5.68 10.66-0.96 16.62 11.58 16.94 15.11 0.32 3.54-1.29 12.02-1.82 19.19l14.33-0.08c-1.07-11.81 13.7-20.25 20.82-20.88 10.67-0.98 30.64 7.93 31.96 22.07 0.21 2.38-3.67 12.22-5.38 19.5 3.56-0.31 7.1-0.64 10.88 1.41 1.85-6.1 7.46-10.19 12.52-7.08 0.21-10.71 7.77-19.69 18.44-20.67 14.26-1.25 31.2 13.87 30.46 31.77 7.14-0.66 23.44 7.39 30.36 17.47-1.21 0.09-7.86 38.15-7.86 38.15l-211.71 14.22 0.96-151.65c5.93-0.55 16.09 5.68 20.4 13.64z"/>
			<path class="st3" d="m-33.18 351.25 151.94-8.08-0.27-5.32c-9.4-11.93-9.4-11.93-19.87-11.39-5.25 0.27-7.07-1.38-18.75 9.91-8.85-35.09-26.4-35.94-45.63-34.89-24.45 1.28-53.48 15.25-67.42 49.77z"/>
			<path class="st4" d="m408.01 375.27c4.9 0 14.74 17.28 14.74 25.04v4.33h-98.9v-3.46c1.23-1.72 3.06-3.46 4.91-3.46 1.24 0 3.08 1.74 4.92 1.74 4.91 0 3.69-9.51 10.44-9.51 2.46 0 9.22 4.33 11.06 9.51 1.24-7.79 3.69-8.64 6.77-8.64 2.44 0 3.68 0 6.13 4.31 2.46-6.9 6.15-9.51 8.61-9.51 3.06 0 7.37 3.46 8.6 8.67 4.92-16.43 8.61-19.02 17.82-19.02z"/>
			<path class="st2" d="m642.97 97.97c18.04 0 54.13-50.88 54.13-73.78v-12.7h-363.06v10.17c4.49 5.1 11.28 10.17 18.04 10.17 4.5 0 11.28-5.07 18.04-5.07 18.04 0 13.52 27.97 38.32 27.97 9.02 0 33.83-12.7 40.59-27.97 4.52 22.87 13.55 25.44 24.81 25.44 9.02 0 13.54 0 22.56-12.73 9.02 20.37 22.55 27.97 31.57 27.97 11.28 0 27.06-10.17 31.56-25.41 18.04 48.31 31.59 55.94 65.42 55.94z"/>
			<path class="st2" d="m515.53 360.84s-2.28-10.92 4.42-11.3 11.39 4.33 14.47 1.69-2.82-5.84 1.61-14.69c4.42-8.85 11.12-8.1 16.48-5.65s6.57-4.71 10.86-5.09 4.82-0.57 4.82-0.57-9.51-12.8 4.02-23.16c13.54-10.36 22.91 9.61 22.91 9.61s-1.34-10.55 3.22-10.74 4.83 0.57 4.83 0.57l4.82 81.92s-98.5 32.77-109.76 11.3c-11.25-21.46 17.3-33.89 17.3-33.89z"/>
			<path class="st5" d="m467.55 67.31c9.62 0 28.83-24.1 28.83-34.95l45.67-51.69c-42.87 2.94-265.68-43.79-255.2 29.43 0.48 3.37 13.14 26.56 25.74 25.88 2.39 0 6-2.41 9.6-2.41 9.62 0 7.21 13.25 20.43 13.25 4.79 0 18.01-6.02 21.62-13.25 2.39 10.85 7.2 12.04 13.2 12.04 4.81 0 7.21 0 12.02-6.02 4.81 9.64 12 13.25 16.81 13.25 6 0 14.41-4.81 16.81-12.04 9.62 22.89 16.82 26.5 34.84 26.5h9.63z"/>
			<path class="st6" d="m437.37 59.75-8.39-53.23c27.2 7.58 96.9-14.76 123.33-12.01 31.4 3.29 51.66-16.07 49.85 27.92-2.66 6.63-17.38 15.16-27.81 11.86 0.13 8.66-8.76 15.03-12.39 15.6-7.23 1.16-14.41-5.16-20.38-11.64 0.37 2.42-12.32 8.15-13.53 8.35-4.83 0.75-13.86-1.52-18.23-5.8-3.3 10.44-6.35 14.65-13.6 15.8-2.41 0.39-6.41-1.47-9.2-3.51-2.22 1.6-3.87 6.83-6.11 8.41-3.05 4.2-9.27 3.97-12.89 4.54-10.85 1.73-15.66 2.5-30.65-6.29z"/>
			<path class="st2" d="m179.87 40.82s2.53 17.35-11.95 15.91c-14.48-1.41-23.55-10-30.75-6.9s4.79 9.75-6.63 21.94c-11.42 12.17-25.66 9.03-36.66 3.69-10.99-5.34-15.14 5.21-24.43 4.52-9.31-0.72-10.5-0.59-10.5-0.59s17.68 22.38-13.66 34.14c-31.32 11.74-47.16-21.52-47.16-21.52s0.61 16.5-9.23 15.42c-9.84-1.07-10.26-2.29-10.26-2.29l7.38-126.44 190.36 24.71z"/>
			<path class="st7" d="m-0.99 88.83c1.3-1.28 2.59-4.53 3.23-7.1 0 0-0.64-0.66 0.66-0.66 1.95 0 3.89 2.59 5.84 2.59 5.84 0 8.42-7.1 8.42-9.05 0-1.94-1.3-6.46-1.94-10.33l7.78-0.66c0 6.48 8.43 10.35 12.32 10.35 5.84 0 16.21-5.82 16.21-13.58 0-1.29-2.59-6.46-3.89-10.33 1.95 0 3.89 0 5.84-1.3 1.3 3.23 4.55 5.18 7.14 3.23 0.64 5.82 5.19 10.35 11.03 10.35 7.78 0 16.21-9.05 14.9-18.76 3.89 0 12.32-5.16 15.57-10.98-0.64 0-8.18-42.88-8.18-42.88l-102.56 2.48-2.74 105.05c3.23-0.01 8.42-3.88 10.37-8.42z"/>
			<path class="st6" d="m89.34 41.96v-53.97c25.72 11.77 98.07 0.6 123.79 7.49 30.52 8.17 44.76-6.35 44.93 35.45-3.67 6.13-19.57 12.26-29.35 7.34-1.21 8.59-11 13.49-14.67 13.49-7.34 0-13.46-7.34-18.34-14.7 0 2.44-13.45 6.13-14.67 6.13-4.9 0-13.46-3.69-17.13-8.59-4.88 9.82-8.55 13.49-15.89 13.49-2.44 0-6.11-2.46-8.55-4.9-2.44 1.23-4.88 6.13-7.34 7.36-3.67 3.67-9.78 2.44-13.44 2.44-11.01 0-15.89 0-29.34-11.03z"/>
		
		
			<path class="st8" d="m521.22 323.99c0.52-0.88 1.21-2.14 2.52-1.58 17.76 2.25 35.56 4.41 53.32 6.76 12.49 3.98 24.9 8.28 37.45 12.08-2.88-5.73-6.02-11.32-8.93-17.02 2.77-4.64 5.73-9.15 8.49-13.79l21.17 39.83c-17.09 1.76-34.19 3.86-51.09 6.93-10.2 14.97-137.22 62.7-177.31 43.14 13.44-9.32 26.99-18.5 40.62-27.52 19.08-6.22 37.87-13.29 56.88-19.72 1.38-0.67 3.38-0.84 3.99-2.51 4.38-8.81 8.6-17.72 12.89-26.6z"/>
			<path class="st9" d="m453.54 368.5c20.81-14.09 41.69-28.09 62.5-42.19 1.6-0.99 3.18-2.32 5.18-2.31-4.28 8.88-8.51 17.78-12.89 26.6-0.6 1.68-2.61 1.85-3.99 2.51-19 6.43-37.8 13.5-56.88 19.72 1.96-1.54 3.97-3 6.08-4.33z"/>
			<path class="st9" d="m577.06 329.17c10.69-9.17 21.97-17.64 32.8-26.64l4.2 7.91c-2.77 4.64-5.73 9.15-8.49 13.79 2.92 5.7 6.06 11.29 8.93 17.02-12.54-3.8-24.95-8.09-37.44-12.08z"/>
		
		
			<path class="st8" d="m157.61 304.16c0.36-0.24 1.08-0.7 1.43-0.94 3.95 2.75 7.98 5.34 11.99 7.97 53.31 35 106.59 70.02 159.9 105.02 2.45 1.58 4.88 3.19 7.23 4.94-3.04-0.47-6.05-1.1-9.04-1.8-41.26-8.92-83-15.9-125.13-20.38-76.84-8.1-155.14-8.62-233.22 3.57l15.79-54.19c3.43 0.57 6.87 1.16 10.36 1.44-2.73-2.71-5.69-5.09-8.56-7.61l15.34-52.64c1.43 1.16 2.95 2.18 4.44 3.24 24.59 17.11 49 34.5 73.65 51.52 16.77 10.08 33.7 19.84 50.48 29.91 1.09 0.62 2.23 1.11 3.37 1.65-8.39-10.67-17.33-20.78-25.77-31.4 10.06-1.92 20.2-2.43 30.26-4.28-1.26-4.14-2.67-8.19-3.73-12.42 0.87-1.9 2.62-3.09 3.88-4.63 5.76-6.34 11.79-12.37 17.33-18.97z"/>
			<path class="st9" d="m150.17 307.61c2.4-1.43 4.89-2.55 7.44-3.45-5.54 6.59-11.57 12.63-17.32 18.98-1.26 1.54-3.02 2.72-3.88 4.63 1.06 4.22 2.47 8.28 3.73 12.42-10.06 1.85-20.21 2.36-30.26 4.28 8.44 10.62 17.39 20.72 25.77 31.4-1.14-0.54-2.28-1.03-3.37-1.65-16.78-10.07-33.72-19.83-50.48-29.91 0.97-0.73 1.96-1.39 2.99-1.98 21.79-11.59 43.58-23.17 65.38-34.72z"/>
			<path class="st10" d="m-11.64 342.19c2.86 2.52 5.83 4.9 8.56 7.61-3.49-0.28-6.93-0.86-10.36-1.44z"/>
		
		
			<path class="st11" d="m-8.86 395.22s157.05-35.68 311-1.81 319.87-62.76 319.87-62.76l-17.02 190.78-616.03-74.05z"/>
			<path class="st12" d="m-5.76 398.16s127.07-29.19 281.02 4.67c153.95 33.87 340.67-45.02 340.67-45.02l-7.93 520.25h-622.44z"/>
		
		<path class="st13" d="m488.48 322.71c1.34-0.38 2.72-0.7 4.09-0.96-1.27 0.68-2.72 0.8-4.09 0.96z"/>
	</g>

<rect class="st14" x="-.2" y=".01" width="595.28" height="841.89"/>
</svg>
