<?xml version="1.0" encoding="UTF-8" standalone="no"?>
<!-- Generator: Adobe Illustrator 26.0.1, SVG Export Plug-In . SVG Version: 6.00 Build 0)  -->

<svg
   version="1.1"
   id="Layer_1"
   x="0px"
   y="0px"
   viewBox="0 0 330.88251 281.38247"
   xml:space="preserve"
   width="330.88251"
   height="281.38248"
   xmlns="http://www.w3.org/2000/svg"
   xmlns:svg="http://www.w3.org/2000/svg"><defs
   id="defs433" />
<style
   type="text/css"
   id="style262">
	.st0{fill-rule:evenodd;clip-rule:evenodd;fill:#FEFEFE;}
	
		.st1{fill-rule:evenodd;clip-rule:evenodd;fill:#D2CD0B;stroke:#FEFEFE;stroke-width:1.165;stroke-linejoin:round;stroke-miterlimit:22.9256;}
	
		.st2{fill-rule:evenodd;clip-rule:evenodd;fill:#9B982E;stroke:#FEFEFE;stroke-width:1.165;stroke-linejoin:round;stroke-miterlimit:22.9256;}
	
		.st3{fill-rule:evenodd;clip-rule:evenodd;fill:#FAEA26;stroke:#FEFEFE;stroke-width:1.165;stroke-linejoin:round;stroke-miterlimit:22.9256;}
	.st4{fill-rule:evenodd;clip-rule:evenodd;}
	.st5{opacity:0.3;fill-rule:evenodd;clip-rule:evenodd;fill:#252523;}
	
		.st6{fill-rule:evenodd;clip-rule:evenodd;fill:#CA2627;stroke:#FEFEFE;stroke-width:1.165;stroke-linejoin:round;stroke-miterlimit:22.9256;}
	
		.st7{fill-rule:evenodd;clip-rule:evenodd;fill:#892723;stroke:#FEFEFE;stroke-width:1.165;stroke-linejoin:round;stroke-miterlimit:22.9256;}
	
		.st8{fill-rule:evenodd;clip-rule:evenodd;fill:#E42424;stroke:#FEFEFE;stroke-width:1.165;stroke-linejoin:round;stroke-miterlimit:22.9256;}
	
		.st9{fill-rule:evenodd;clip-rule:evenodd;fill:#4A60A8;stroke:#FEFEFE;stroke-width:1.165;stroke-linejoin:round;stroke-miterlimit:22.9256;}
	
		.st10{fill-rule:evenodd;clip-rule:evenodd;fill:#444F9B;stroke:#FEFEFE;stroke-width:1.165;stroke-linejoin:round;stroke-miterlimit:22.9256;}
	
		.st11{fill-rule:evenodd;clip-rule:evenodd;fill:#4A74B8;stroke:#FEFEFE;stroke-width:1.165;stroke-linejoin:round;stroke-miterlimit:22.9256;}
	
		.st12{fill-rule:evenodd;clip-rule:evenodd;fill:#D6D5D4;stroke:#FEFEFE;stroke-width:1.165;stroke-linejoin:round;stroke-miterlimit:22.9256;}
	
		.st13{fill-rule:evenodd;clip-rule:evenodd;fill:#A4A1A0;stroke:#FEFEFE;stroke-width:1.165;stroke-linejoin:round;stroke-miterlimit:22.9256;}
	
		.st14{fill-rule:evenodd;clip-rule:evenodd;fill:#F8F8F9;stroke:#FEFEFE;stroke-width:1.165;stroke-linejoin:round;stroke-miterlimit:22.9256;}
	
		.st15{fill-rule:evenodd;clip-rule:evenodd;fill:#33312F;stroke:#FEFEFE;stroke-width:1.165;stroke-linejoin:round;stroke-miterlimit:22.9256;}
	
		.st16{fill-rule:evenodd;clip-rule:evenodd;fill:#252523;stroke:#FEFEFE;stroke-width:1.165;stroke-linejoin:round;stroke-miterlimit:22.9256;}
	
		.st17{fill-rule:evenodd;clip-rule:evenodd;fill:#464240;stroke:#FEFEFE;stroke-width:1.165;stroke-linejoin:round;stroke-miterlimit:22.9256;}
	.st18{display:none;}
	.st19{display:inline;}
	
		.st20{fill-rule:evenodd;clip-rule:evenodd;fill:none;stroke:#138DDA;stroke-width:3.9994;stroke-linecap:round;stroke-linejoin:round;stroke-miterlimit:22.9256;}
	.st21{fill-rule:evenodd;clip-rule:evenodd;fill:#9AE933;}
	.st22{fill-rule:evenodd;clip-rule:evenodd;fill:#138DDA;}
	
		.st23{display:inline;fill-rule:evenodd;clip-rule:evenodd;fill:#FEFEFE;stroke:#2B2A29;stroke-width:1.6673;stroke-miterlimit:22.9256;}
</style>
<g
   id="g428"
   transform="translate(-132.3,-252.1)">
	<g
   id="g392">
		<g
   id="g390">
			<path
   class="st0"
   d="m 133,391.1 v 53.5 l 53.2,-12.9 21.3,7.3 0.1,2.7 41.4,-10 21.3,7.3 0.1,2.7 41.4,-10 21.3,7.3 0.1,3.2 43.8,-10.6 21.3,7.3 0.1,2.7 41.4,-10 20,6.9 v -47.6 c 0,-0.9 -0.9,-1.4 -2.4,-1.4 h -322 c -1.5,0.3 -2.4,0.8 -2.4,1.6 z"
   id="path264" />
			<g
   id="g276">
				<path
   class="st1"
   d="m 152.5,461.2 c -0.6,0 55,-12.8 55,-12.8 l 1.8,66.1 -55,18.4 c 0,-0.1 -1.2,-71.7 -1.8,-71.7 z"
   id="path266" />
				<polygon
   class="st2"
   points="154.3,532.8 134.8,521.8 133,453.8 152.5,461.2 "
   id="polygon268" />
				<polygon
   class="st3"
   points="207.5,448.3 152.5,461.2 133,453.8 186.2,441 "
   id="polygon270" />
				<path
   class="st2"
   d="m 165.1,486.4 c 1.9,-12 10,-20.5 18.1,-19.3 0.6,0.1 7.9,2.9 8.4,3.1 7.1,2.3 5,9.4 3.6,20.6 -1.4,11.1 -2.9,22.3 -10.5,23 -0.8,0.1 -6.9,-2.5 -7.7,-2.7 -8.4,-1.2 -13.8,-12.4 -11.9,-24.7 z"
   id="path272" />
				<path
   class="st1"
   d="m 173.7,490.1 c 1.8,-12.2 9.9,-21.3 18,-20.1 8.1,1.2 13.1,12.1 11.2,24.3 -1.9,12.1 -9.9,20.9 -17.9,19.8 -8,-1.2 -13.1,-11.8 -11.3,-24 z"
   id="path274" />
			</g>
			<g
   id="g292">
				<path
   class="st0"
   d="m 150.6,261.7 h -5.8 v 13.4 h 5.8 c 2.2,0 4,-0.2 5.4,-0.7 1.4,-0.4 2.5,-1.2 3.2,-2.1 0.7,-1 1.1,-2.3 1.1,-3.9 0,-1.9 -0.6,-3.5 -1.7,-4.7 -1.2,-1.4 -3.9,-2 -8,-2 z m 2.3,22 v 0 h -8.2 v 13 c 0,2.1 -0.5,3.8 -1.5,4.9 -1,1.2 -2.3,1.7 -3.9,1.7 -1.7,0 -3,-0.6 -4,-1.7 -1,-1.1 -1.5,-2.8 -1.5,-4.9 v -37.1 c 0,-2.3 0.5,-4 1.6,-5 1.1,-1.1 2.8,-1.6 5.1,-1.6 h 12.4 c 3.7,0 6.6,0.3 8.6,0.9 2.1,0.6 3.8,1.5 5.4,2.9 1.5,1.3 2.6,3 3.4,4.9 0.8,1.9 1.1,4 1.1,6.4 0,5.1 -1.6,9 -4.7,11.6 -3.1,2.7 -7.7,4 -13.8,4 z"
   id="path278" />
				<path
   class="st0"
   d="M 192.1,282.4 H 205 l -6.5,-18.5 z m 17.9,14.5 v 0 l -2.2,-5.9 h -18.4 l -2.1,5.8 c -0.9,2.5 -1.7,4.2 -2.4,5.2 -0.7,1 -1.9,1.4 -3.5,1.4 -1.4,0 -2.6,-0.5 -3.7,-1.5 -1.1,-1 -1.6,-2.2 -1.6,-3.6 0,-0.7 0.1,-1.4 0.3,-2.1 0.2,-0.7 0.6,-1.7 1.1,-3 l 12.2,-31.3 1.3,-3.3 c 0.5,-1.3 1,-2.4 1.6,-3.2 0.6,-0.9 1.4,-1.6 2.4,-2.2 1,-0.6 2.2,-0.9 3.7,-0.9 1.5,0 2.7,0.3 3.7,0.9 1,0.6 1.8,1.3 2.4,2.2 0.6,0.9 1.1,1.7 1.4,2.6 0.3,0.9 0.8,2.1 1.4,3.5 l 12.6,31.4 c 1,2.5 1.5,4.2 1.5,5.4 0,1.3 -0.5,2.5 -1.6,3.6 -1.1,1.1 -2.3,1.6 -3.8,1.6 -0.9,0 -1.6,-0.2 -2.3,-0.5 -0.6,-0.3 -1.1,-0.7 -1.6,-1.3 -0.4,-0.5 -0.9,-1.3 -1.3,-2.4 -0.5,-1.2 -0.8,-2 -1.1,-2.4 z"
   id="path280" />
				<path
   class="st0"
   d="m 248.6,261.7 h -8.3 v 11.9 h 8 c 2.3,0 4.1,-0.2 5.6,-0.6 1.5,-0.4 2.6,-1 3.3,-1.9 0.8,-0.9 1.1,-2.1 1.1,-3.6 0,-1.2 -0.3,-2.2 -0.9,-3.1 -0.6,-0.9 -1.4,-1.6 -2.5,-2 -0.9,-0.5 -3.1,-0.7 -6.3,-0.7 z m -5.5,20.2 v 0 h -2.7 v 14.8 c 0,2.2 -0.5,3.9 -1.5,5 -1,1.1 -2.3,1.6 -4,1.6 -1.8,0 -3.1,-0.6 -4.1,-1.7 -0.9,-1.2 -1.4,-2.8 -1.4,-4.9 v -37.1 c 0,-2.3 0.5,-3.9 1.6,-5 1.1,-1.1 2.7,-1.6 5,-1.6 h 15.7 c 2.2,0 4.1,0.1 5.7,0.3 1.6,0.2 3.1,0.6 4.6,1.3 1.4,0.6 2.7,1.5 3.9,2.8 1.2,1.2 2.1,2.7 2.7,4.3 0.6,1.6 0.9,3.4 0.9,5.2 0,3.8 -1.1,6.8 -3.2,9.1 -2.1,2.3 -5.1,3.7 -9,4.4 1.6,0.4 3.2,1.5 4.7,3.4 1.6,1.8 3,3.8 4.2,5.8 1.2,2.1 2.2,3.9 2.9,5.6 0.7,1.7 1.1,2.9 1.1,3.6 0,0.8 -0.2,1.5 -0.7,2.2 -0.5,0.7 -1.1,1.3 -1.9,1.7 -0.8,0.4 -1.7,0.6 -2.7,0.6 -1.2,0 -2.3,-0.3 -3.1,-0.9 -0.8,-0.6 -1.5,-1.3 -2.1,-2.1 -0.5,-0.8 -1.3,-2 -2.2,-3.6 l -4,-7.3 c -1.3,-1.8 -2.5,-3.3 -3.5,-4.5 -1,-1.2 -2.1,-2 -3.1,-2.4 -0.9,-0.3 -2.2,-0.6 -3.8,-0.6 z"
   id="path282" />
				<path
   class="st0"
   d="m 311.5,261.8 h -21.1 v 10.6 h 19.4 c 1.7,0 2.9,0.4 3.8,1.2 0.9,0.8 1.3,1.8 1.3,3.1 0,1.3 -0.4,2.3 -1.3,3.2 -0.9,0.8 -2.1,1.2 -3.8,1.2 h -19.4 v 12.4 h 21.8 c 1.7,0 3,0.4 3.9,1.3 0.9,0.8 1.4,1.9 1.4,3.3 0,1.3 -0.5,2.4 -1.4,3.3 -0.9,0.8 -2.2,1.3 -3.9,1.3 H 286 c -2.3,0 -4,-0.5 -5,-1.6 -1.1,-1.1 -1.6,-2.8 -1.6,-5.1 v -36.2 c 0,-1.5 0.2,-2.7 0.7,-3.7 0.5,-1 1.2,-1.7 2.2,-2.2 1,-0.5 2.2,-0.7 3.7,-0.7 h 25.5 c 1.7,0 3,0.4 3.9,1.2 0.9,0.8 1.3,1.8 1.3,3.1 0,1.3 -0.4,2.4 -1.3,3.2 -0.8,0.7 -2.1,1.1 -3.9,1.1 z"
   id="path284" />
				<path
   class="st0"
   d="m 336.1,262 v 31.4 h 6.7 c 1.6,0 2.8,0 3.7,-0.1 0.9,-0.1 1.7,-0.3 2.6,-0.6 0.9,-0.3 1.6,-0.7 2.1,-1.1 3.2,-2.8 4.9,-7.5 4.9,-14.1 0,-4.6 -0.7,-8.1 -2,-10.3 -1.4,-2.2 -3,-3.7 -5,-4.3 -2,-0.6 -4.4,-0.9 -7.3,-0.9 z m -4.4,-8.9 v 0 h 12.6 c 3.3,0 6.2,0.3 8.6,1 2.4,0.6 4.7,2 6.8,4.2 5,4 7.4,10.5 7.4,19.5 0,2.9 -0.3,5.6 -0.8,8.1 -0.5,2.5 -1.3,4.7 -2.4,6.7 -1.1,2 -2.4,3.6 -3.9,4.9 -1.5,1.5 -3,2.6 -4.6,3.3 -1.6,0.7 -3.2,1.2 -5,1.5 -1.8,0.3 -3.8,0.4 -6.1,0.4 h -12.6 c -1.9,0 -3.3,-0.3 -4.3,-0.9 -1,-0.6 -1.7,-1.5 -2,-2.5 -0.3,-1.1 -0.4,-2.4 -0.4,-4.1 v -35.3 c 0,-2.3 0.5,-3.9 1.6,-5 1.1,-1.3 2.8,-1.8 5.1,-1.8 z"
   id="path286" />
				<path
   class="st0"
   d="m 408.6,261.8 h -21.1 v 10.6 h 19.4 c 1.6,0 2.9,0.4 3.8,1.2 0.9,0.8 1.3,1.8 1.3,3.1 0,1.3 -0.4,2.3 -1.3,3.2 -0.9,0.8 -2.1,1.2 -3.8,1.2 h -19.4 v 12.4 h 21.8 c 1.7,0 3,0.4 3.9,1.3 0.9,0.8 1.4,1.9 1.4,3.3 0,1.3 -0.5,2.4 -1.4,3.3 -0.9,0.8 -2.2,1.3 -3.9,1.3 H 383 c -2.3,0 -4,-0.5 -5,-1.6 -1.1,-1.1 -1.6,-2.8 -1.6,-5.1 v -36.2 c 0,-1.5 0.2,-2.7 0.7,-3.7 0.5,-1 1.2,-1.7 2.2,-2.2 1,-0.5 2.2,-0.7 3.7,-0.7 h 25.5 c 1.7,0 3,0.4 3.9,1.2 0.9,0.8 1.3,1.8 1.3,3.1 0,1.3 -0.5,2.4 -1.3,3.2 -0.7,0.7 -2,1.1 -3.8,1.1 z"
   id="path288" />
				<path
   class="st0"
   d="m 459.7,287.4 c 0,3 -0.8,5.8 -2.3,8.2 -1.6,2.4 -3.8,4.3 -6.8,5.7 -3,1.4 -6.5,2 -10.5,2 -4.8,0 -8.8,-0.9 -12,-2.8 -2.3,-1.4 -4.1,-3.2 -5.5,-5.4 -1.4,-2.3 -2.1,-4.5 -2.1,-6.7 0,-1.3 0.5,-2.5 1.4,-3.5 0.9,-1 2.1,-1.5 3.6,-1.5 1.2,0 2.2,0.4 3,1.1 0.8,0.8 1.5,1.8 2,3.2 0.6,1.5 1.2,2.7 1.9,3.7 0.7,1 1.6,1.8 2.8,2.4 1.2,0.6 2.7,0.9 4.7,0.9 2.7,0 4.9,-0.6 6.5,-1.9 1.7,-1.2 2.5,-2.8 2.5,-4.6 0,-1.4 -0.4,-2.6 -1.3,-3.4 -0.9,-0.9 -2,-1.6 -3.5,-2.1 -1.5,-0.5 -3.5,-1.1 -6,-1.6 -3.5,-0.8 -6.4,-1.8 -8.8,-2.9 -2.4,-1.1 -4.3,-2.7 -5.7,-4.6 -1.4,-2 -2.1,-4.5 -2.1,-7.4 0,-2.8 0.8,-5.2 2.2,-7.4 1.5,-2.2 3.7,-3.8 6.5,-5 2.8,-1.2 6.1,-1.7 9.9,-1.7 3,0 5.6,0.4 7.8,1.2 2.2,0.8 4.1,1.8 5.5,3.1 1.5,1.3 2.6,2.6 3.3,4 0.7,1.4 1,2.8 1,4.2 0,1.3 -0.5,2.5 -1.4,3.6 -0.9,1.1 -2.1,1.6 -3.5,1.6 -1.3,0 -2.3,-0.3 -2.9,-1 -0.7,-0.7 -1.3,-1.7 -2.1,-3 -0.8,-1.7 -1.8,-3.1 -2.9,-4 -1.1,-0.9 -3,-1.4 -5.5,-1.4 -2.3,0 -4.2,0.5 -5.6,1.5 -1.4,1 -2.1,2.2 -2.1,3.5 0,0.9 0.2,1.6 0.7,2.2 0.4,0.6 1.1,1.2 2,1.6 0.9,0.5 1.7,0.8 2.6,1.1 0.9,0.3 2.5,0.7 4.7,1.3 2.6,0.6 5,1.3 7.2,2.1 2.2,0.8 4.1,1.7 5.7,2.9 1.6,1.1 2.8,2.6 3.7,4.4 1,1.8 1.4,3.9 1.4,6.4 z"
   id="path290" />
			</g>
			<g
   id="g314">
				<path
   class="st4"
   d="M 157.6,405.1 H 148 v 6.5 h 8.1 c 0.8,0 1.3,0.2 1.7,0.5 0.4,0.3 0.5,0.8 0.5,1.4 0,0.6 -0.2,1.1 -0.5,1.4 -0.4,0.3 -0.9,0.5 -1.7,0.5 H 148 v 8.3 c 0,1.1 -0.2,1.9 -0.7,2.4 -0.4,0.5 -1,0.8 -1.8,0.8 -0.7,0 -1.3,-0.3 -1.8,-0.8 -0.4,-0.5 -0.7,-1.3 -0.7,-2.4 v -19.5 c 0,-0.7 0.1,-1.3 0.3,-1.8 0.2,-0.5 0.5,-0.8 1,-1 0.4,-0.2 1,-0.3 1.7,-0.3 h 11.5 c 0.8,0 1.4,0.2 1.7,0.5 0.4,0.4 0.6,0.8 0.6,1.4 0,0.6 -0.2,1.1 -0.6,1.4 -0.3,0.5 -0.8,0.7 -1.6,0.7 z"
   id="path294" />
				<path
   class="st4"
   d="m 175,416.5 h 7.2 L 178.6,406 Z m 9.6,7.1 v 0 l -1.2,-3.2 h -9.8 l -1.2,3.3 c -0.4,1.3 -0.8,2.1 -1.2,2.6 -0.3,0.5 -0.8,0.7 -1.6,0.7 -0.6,0 -1.2,-0.2 -1.6,-0.7 -0.5,-0.5 -0.7,-1 -0.7,-1.6 0,-0.3 0.1,-0.7 0.2,-1.1 0.1,-0.4 0.3,-0.9 0.5,-1.5 l 6.2,-16.5 0.6,-1.7 c 0.2,-0.7 0.5,-1.2 0.8,-1.7 0.3,-0.4 0.7,-0.8 1.1,-1.1 0.4,-0.3 1,-0.4 1.7,-0.4 0.7,0 1.2,0.1 1.7,0.4 0.4,0.3 0.8,0.6 1.1,1 0.3,0.4 0.5,0.9 0.7,1.4 0.2,0.5 0.4,1.1 0.7,2 l 6.3,16.3 c 0.5,1.2 0.8,2.2 0.8,2.7 0,0.6 -0.2,1.1 -0.7,1.6 -0.5,0.5 -1,0.7 -1.7,0.7 -0.4,0 -0.7,-0.1 -1,-0.2 -0.3,-0.1 -0.5,-0.3 -0.7,-0.6 -0.2,-0.2 -0.4,-0.6 -0.6,-1.1 z"
   id="path296" />
				<path
   class="st4"
   d="m 205.9,403.8 9.4,14.9 v -15.1 c 0,-1 0.2,-1.7 0.6,-2.2 0.4,-0.5 0.9,-0.7 1.6,-0.7 0.7,0 1.3,0.2 1.7,0.7 0.4,0.5 0.6,1.2 0.6,2.2 v 19.9 c 0,2.2 -0.9,3.3 -2.6,3.3 -0.4,0 -0.8,-0.1 -1.2,-0.2 -0.4,-0.1 -0.7,-0.3 -1,-0.6 -0.3,-0.3 -0.6,-0.6 -0.9,-1 l -0.8,-1.2 -9.2,-14.8 v 14.8 c 0,1 -0.2,1.7 -0.6,2.2 -0.4,0.5 -1,0.7 -1.6,0.7 -0.7,0 -1.3,-0.2 -1.7,-0.8 -0.4,-0.5 -0.6,-1.2 -0.6,-2.2 v -19.5 c 0,-0.8 0.1,-1.5 0.3,-2 0.2,-0.5 0.6,-0.9 1,-1.3 0.5,-0.3 1,-0.5 1.6,-0.5 0.4,0 0.8,0.1 1.1,0.2 0.3,0.2 0.6,0.4 0.8,0.6 0.2,0.3 0.5,0.6 0.7,1 z"
   id="path298" />
				<path
   class="st4"
   d="m 262.9,422.4 -3.9,-15.2 -4,15.2 c -0.3,1.2 -0.5,2 -0.7,2.5 -0.2,0.5 -0.5,1 -0.9,1.3 -0.4,0.4 -1.1,0.6 -1.8,0.6 -0.6,0 -1.1,-0.1 -1.5,-0.3 -0.4,-0.2 -0.7,-0.6 -0.9,-1 -0.2,-0.4 -0.5,-1 -0.6,-1.6 l -0.4,-1.6 -4,-17.1 c -0.2,-1 -0.4,-1.8 -0.4,-2.3 0,-0.7 0.2,-1.2 0.7,-1.7 0.4,-0.4 1,-0.7 1.6,-0.7 0.9,0 1.5,0.3 1.8,0.9 0.3,0.6 0.6,1.5 0.8,2.6 l 3.2,14.8 3.6,-13.8 c 0.3,-1.1 0.5,-1.9 0.7,-2.4 0.2,-0.5 0.6,-1 1,-1.4 0.5,-0.4 1.1,-0.6 1.9,-0.6 0.8,0 1.5,0.2 1.9,0.6 0.5,0.4 0.8,0.9 0.9,1.4 0.2,0.5 0.4,1.3 0.7,2.5 l 3.6,13.8 3.2,-14.8 c 0.1,-0.8 0.3,-1.4 0.4,-1.8 0.1,-0.4 0.4,-0.8 0.7,-1.2 0.3,-0.4 0.8,-0.5 1.5,-0.5 0.6,0 1.2,0.2 1.6,0.7 0.4,0.4 0.7,1 0.7,1.7 0,0.5 -0.1,1.2 -0.4,2.3 l -4,17.1 c -0.3,1.2 -0.5,2 -0.7,2.5 -0.2,0.5 -0.5,1 -0.9,1.4 -0.4,0.4 -1,0.6 -1.8,0.6 -0.8,0 -1.3,-0.2 -1.8,-0.6 -0.4,-0.4 -0.8,-0.8 -0.9,-1.3 -0.3,-0.5 -0.5,-1.4 -0.9,-2.6 z"
   id="path300" />
				<path
   class="st4"
   d="m 299.4,405.1 h -11 v 6.2 h 10.1 c 0.8,0 1.3,0.2 1.7,0.5 0.4,0.3 0.6,0.8 0.6,1.4 0,0.6 -0.2,1.1 -0.5,1.4 -0.4,0.4 -0.9,0.5 -1.7,0.5 h -10.1 v 7.2 h 11.4 c 0.8,0 1.3,0.2 1.7,0.6 0.4,0.4 0.6,0.9 0.6,1.5 0,0.6 -0.2,1.1 -0.6,1.5 -0.4,0.4 -1,0.6 -1.7,0.6 h -13.3 c -1.1,0 -1.8,-0.2 -2.3,-0.7 -0.5,-0.5 -0.7,-1.3 -0.7,-2.4 v -19 c 0,-0.7 0.1,-1.3 0.3,-1.8 0.2,-0.5 0.5,-0.8 1,-1 0.4,-0.2 1,-0.3 1.7,-0.3 h 12.9 c 0.8,0 1.4,0.2 1.7,0.5 0.4,0.4 0.6,0.8 0.6,1.4 0,0.6 -0.2,1.1 -0.6,1.4 -0.5,0.3 -1.1,0.5 -1.8,0.5 z"
   id="path302" />
				<path
   class="st4"
   d="m 328.3,405.1 h -11 v 6.2 h 10.2 c 0.8,0 1.3,0.2 1.7,0.5 0.4,0.3 0.5,0.8 0.5,1.4 0,0.6 -0.2,1.1 -0.5,1.4 -0.4,0.4 -0.9,0.5 -1.7,0.5 h -10.2 v 7.2 h 11.4 c 0.8,0 1.3,0.2 1.7,0.6 0.4,0.4 0.6,0.9 0.6,1.5 0,0.6 -0.2,1.1 -0.6,1.5 -0.4,0.4 -1,0.6 -1.7,0.6 h -13.3 c -1.1,0 -1.8,-0.2 -2.3,-0.7 -0.5,-0.5 -0.7,-1.3 -0.7,-2.4 v -19 c 0,-0.7 0.1,-1.3 0.3,-1.8 0.2,-0.5 0.5,-0.8 1,-1 0.4,-0.2 1,-0.3 1.7,-0.3 h 12.9 c 0.8,0 1.4,0.2 1.7,0.5 0.4,0.4 0.6,0.8 0.6,1.4 0,0.6 -0.2,1.1 -0.6,1.4 -0.4,0.3 -0.9,0.5 -1.7,0.5 z"
   id="path304" />
				<path
   class="st4"
   d="m 346.2,403.8 v 8.9 l 9.6,-10.5 c 0.5,-0.5 0.8,-0.9 1.2,-1.1 0.3,-0.2 0.8,-0.4 1.3,-0.4 0.7,0 1.3,0.2 1.7,0.6 0.4,0.4 0.7,1 0.7,1.6 0,0.8 -0.4,1.5 -1.1,2.2 l -6,5.9 6.9,10.3 c 0.5,0.7 0.9,1.3 1.1,1.9 0.2,0.5 0.4,1.1 0.4,1.6 0,0.6 -0.2,1.1 -0.6,1.5 -0.4,0.4 -1,0.6 -1.7,0.6 -0.7,0 -1.2,-0.1 -1.7,-0.4 -0.4,-0.3 -0.8,-0.7 -1.1,-1.2 l -0.8,-1.4 -5.8,-9.3 -4,4 v 5.2 c 0,1.1 -0.2,1.9 -0.7,2.4 -0.5,0.5 -1.1,0.8 -1.8,0.8 -0.4,0 -0.8,-0.1 -1.2,-0.3 -0.4,-0.2 -0.7,-0.5 -0.9,-0.9 -0.1,-0.3 -0.2,-0.7 -0.3,-1.1 0,-0.4 -0.1,-1 -0.1,-1.9 V 404 c 0,-1 0.2,-1.8 0.7,-2.3 0.4,-0.5 1,-0.8 1.8,-0.8 0.7,0 1.3,0.3 1.8,0.8 0.4,0.3 0.6,1 0.6,2.1 z"
   id="path306" />
				<path
   class="st4"
   d="m 387.6,405.1 h -11 v 6.2 h 10.1 c 0.8,0 1.3,0.2 1.7,0.5 0.4,0.3 0.5,0.8 0.5,1.4 0,0.6 -0.2,1.1 -0.5,1.4 -0.4,0.4 -0.9,0.5 -1.7,0.5 h -10.1 v 7.2 H 388 c 0.8,0 1.4,0.2 1.7,0.6 0.4,0.4 0.6,0.9 0.6,1.5 0,0.6 -0.2,1.1 -0.6,1.5 -0.4,0.4 -1,0.6 -1.7,0.6 h -13.3 c -1.1,0 -1.8,-0.2 -2.3,-0.7 -0.5,-0.5 -0.7,-1.3 -0.7,-2.4 v -19 c 0,-0.7 0.1,-1.3 0.3,-1.8 0.2,-0.5 0.5,-0.8 1,-1 0.4,-0.2 1,-0.3 1.7,-0.3 h 12.9 c 0.8,0 1.4,0.2 1.7,0.5 0.4,0.4 0.6,0.8 0.6,1.4 0,0.6 -0.2,1.1 -0.6,1.4 -0.4,0.3 -0.9,0.5 -1.7,0.5 z"
   id="path308" />
				<path
   class="st4"
   d="m 407,403.8 9.4,14.9 v -15.1 c 0,-1 0.2,-1.7 0.6,-2.2 0.4,-0.5 0.9,-0.7 1.6,-0.7 0.7,0 1.3,0.2 1.7,0.7 0.4,0.5 0.6,1.2 0.6,2.2 v 19.9 c 0,2.2 -0.9,3.3 -2.6,3.3 -0.5,0 -0.8,-0.1 -1.2,-0.2 -0.4,-0.1 -0.7,-0.3 -1,-0.6 -0.3,-0.3 -0.6,-0.6 -0.9,-1 l -0.8,-1.2 -9.2,-14.8 v 14.8 c 0,1 -0.2,1.7 -0.6,2.2 -0.4,0.5 -1,0.7 -1.6,0.7 -0.7,0 -1.3,-0.2 -1.7,-0.8 -0.4,-0.5 -0.6,-1.2 -0.6,-2.2 v -19.5 c 0,-0.8 0.1,-1.5 0.3,-2 0.2,-0.5 0.6,-0.9 1,-1.3 0.5,-0.3 1,-0.5 1.6,-0.5 0.4,0 0.8,0.1 1.1,0.2 0.3,0.2 0.6,0.4 0.8,0.6 0.2,0.3 0.5,0.6 0.7,1 z"
   id="path310" />
				<path
   class="st4"
   d="m 437.3,405.2 v 17.2 h 3.7 c 0.8,0 1.4,0 1.9,-0.1 0.5,0 0.9,-0.2 1.4,-0.4 0.5,-0.2 0.9,-0.4 1.3,-0.8 1.6,-1.4 2.5,-4 2.5,-7.5 0,-2.5 -0.3,-4.4 -1.1,-5.6 -0.7,-1.2 -1.6,-2 -2.7,-2.4 -1.1,-0.3 -2.3,-0.5 -3.8,-0.5 h -3.2 z m -1.9,-4.1 v 0 h 6.4 c 1.6,0 3.1,0.2 4.3,0.5 1.2,0.3 2.3,0.9 3.2,1.8 2.5,2.3 3.8,5.7 3.8,10.3 0,1.5 -0.1,2.9 -0.4,4.2 -0.3,1.3 -0.6,2.4 -1.2,3.4 -0.5,1 -1.2,1.9 -2,2.7 -0.6,0.6 -1.4,1.1 -2.1,1.5 -0.8,0.4 -1.6,0.6 -2.5,0.8 -0.9,0.2 -1.9,0.2 -3,0.2 h -6.4 c -0.9,0 -1.6,-0.1 -2,-0.4 -0.5,-0.3 -0.8,-0.7 -0.9,-1.2 -0.1,-0.5 -0.2,-1.2 -0.2,-2 v -18.6 c 0,-1.1 0.2,-1.9 0.7,-2.4 0.5,-0.6 1.3,-0.8 2.3,-0.8 z"
   id="path312" />
			</g>
			<g
   id="g326">
				<path
   class="st0"
   d="m 223.4,354.5 c 0,1.8 -0.4,3.7 -1.3,5.8 -0.9,2.1 -2.2,4.1 -4,6.1 -1.8,2 -4.1,3.6 -6.9,4.8 -2.8,1.2 -6,1.8 -9.8,1.8 -2.8,0 -5.4,-0.3 -7.7,-0.8 -2.3,-0.5 -4.4,-1.4 -6.3,-2.6 -1.9,-1.2 -3.7,-3 -5.4,-5.4 -1.3,-1.2 -2.4,-2.8 -3.4,-5 -1,-2.1 -1.7,-4.4 -2.2,-6.8 -0.5,-2.4 -0.7,-4.9 -0.7,-7.7 0,-4.4 0.6,-8.3 1.9,-11.8 1.2,-3.5 3,-6.4 5.4,-8.9 2.3,-2.5 5.1,-4.4 8.2,-5.7 3.1,-1.3 6.5,-2 10,-2 4.3,0 8.2,0.9 11.6,2.7 3.4,1.8 6,4 7.8,6.6 1.8,2.6 2.7,5.2 2.7,7.5 0,1.5 -0.5,2.7 -1.5,3.8 -1,1.1 -2.2,1.6 -3.6,1.6 -1.5,0 -2.7,-0.4 -3.5,-1.1 -0.8,-0.8 -1.6,-2 -2.5,-3.6 -1.3,-2.5 -2.8,-4.4 -4.6,-5.6 -1.7,-1.2 -3.9,-1.8 -6.4,-1.8 -4.1,0 -7.3,1.6 -9.7,4.8 -2.4,3.2 -3.7,7.8 -3.7,13.8 0,4.1 0.5,7.4 1.6,10.1 1.1,2.6 2.6,4.6 4.5,5.9 2,1.3 4.2,1.9 6.9,1.9 2.9,0 5.3,-0.7 7.2,-2.2 2,-1.4 3.5,-3.7 4.5,-6.7 0.4,-1.3 1,-2.5 1.8,-3.5 0.8,-1 2,-1.5 3.7,-1.5 1.4,0 2.7,0.5 3.7,1.6 1.2,1.2 1.7,2.4 1.7,3.9 z"
   id="path316" />
				<path
   class="st0"
   d="m 272.9,344.6 c 0,-3.8 -0.6,-7 -1.8,-9.8 -1.2,-2.7 -2.9,-4.8 -5,-6.2 -2.2,-1.4 -4.6,-2.1 -7.4,-2.1 -2,0 -3.8,0.4 -5.5,1.2 -1.7,0.8 -3.1,1.9 -4.4,3.3 -1.2,1.5 -2.2,3.4 -2.9,5.7 -0.7,2.3 -1.1,5 -1.1,7.9 0,3 0.4,5.6 1.1,8 0.7,2.4 1.7,4.3 3,5.9 1.3,1.5 2.8,2.7 4.4,3.4 1.7,0.8 3.5,1.1 5.5,1.1 2.6,0 4.9,-0.6 7,-2 2.1,-1.3 3.8,-3.3 5.1,-6.1 1.3,-2.7 2,-6.2 2,-10.3 z m -14.2,-28.1 v 0 c 5.5,0 10.2,1.2 14.2,3.5 4,2.3 7,5.6 9,9.8 2,4.2 3.1,9.2 3.1,14.8 0,4.2 -0.6,8 -1.7,11.5 -1.1,3.5 -2.8,6.5 -5,9 -2.2,2.6 -5,4.5 -8.2,5.9 -3.3,1.3 -7,2 -11.1,2 -4.2,0 -7.9,-0.7 -11.2,-2.1 -3.3,-1.4 -6,-3.3 -8.3,-5.9 -2.2,-2.5 -3.9,-5.6 -5,-9.1 -1.1,-3.5 -1.7,-7.3 -1.7,-11.4 0,-4.2 0.6,-8 1.8,-11.5 1.2,-3.5 2.9,-6.5 5.1,-8.9 2.2,-2.5 5,-4.4 8.2,-5.7 3.1,-1.2 6.7,-1.9 10.8,-1.9 z"
   id="path318" />
				<path
   class="st0"
   d="m 296.9,349.3 v -25.6 c 0,-2.3 0.5,-4.1 1.6,-5.4 1.1,-1.2 2.5,-1.9 4.3,-1.9 1.9,0 3.3,0.6 4.4,1.9 1.1,1.2 1.6,3 1.6,5.3 v 26.2 c 0,2.9 0.3,5.3 0.9,7.2 0.6,1.9 1.7,3.3 3.2,4.3 1.5,1 3.7,1.5 6.5,1.5 3.8,0 6.6,-1 8.1,-3.1 1.6,-2.1 2.4,-5.3 2.4,-9.7 v -26.4 c 0,-2.4 0.5,-4.1 1.6,-5.4 1.1,-1.2 2.5,-1.8 4.3,-1.8 1.8,0 3.2,0.6 4.3,1.8 1.1,1.2 1.7,3 1.7,5.4 v 25.6 c 0,4.2 -0.4,7.8 -1.2,10.7 -0.8,2.9 -2.4,5.4 -4.6,7.7 -2,1.9 -4.3,3.2 -6.8,4.1 -2.6,0.9 -5.6,1.3 -9,1.3 -4.1,0 -7.6,-0.5 -10.6,-1.4 -3,-0.9 -5.4,-2.3 -7.3,-4.3 -1.9,-1.9 -3.3,-4.4 -4.2,-7.4 -0.7,-2.9 -1.2,-6.4 -1.2,-10.6 z"
   id="path320" />
				<path
   class="st0"
   d="m 376.6,327 h -9 v 13.2 h 8.7 c 2.5,0 4.5,-0.2 6.1,-0.6 1.6,-0.4 2.8,-1.1 3.6,-2.1 0.8,-1 1.2,-2.3 1.2,-4 0,-1.3 -0.3,-2.5 -1,-3.5 -0.6,-1 -1.6,-1.7 -2.7,-2.3 -1.1,-0.5 -3.4,-0.7 -6.9,-0.7 z m -6.1,22.4 v 0 h -2.9 v 16.3 c 0,2.4 -0.6,4.3 -1.7,5.5 -1.1,1.2 -2.5,1.8 -4.3,1.8 -1.9,0 -3.4,-0.6 -4.4,-1.9 -1,-1.3 -1.6,-3.1 -1.6,-5.4 v -41 c 0,-2.5 0.6,-4.3 1.7,-5.5 1.2,-1.2 3,-1.8 5.5,-1.8 h 17.1 c 2.3,0 4.4,0.1 6.2,0.3 1.8,0.2 3.4,0.7 5,1.4 1.6,0.7 3,1.7 4.3,3.1 1.3,1.4 2.3,3 3,4.8 0.7,1.8 1,3.7 1,5.7 0,4.2 -1.2,7.5 -3.5,10 -2.3,2.5 -5.5,4.1 -9.7,4.9 1.7,0.5 3.4,1.7 5.1,3.7 1.7,2 3.3,4.2 4.6,6.4 1.4,2.3 2.4,4.3 3.2,6.2 0.8,1.9 1.2,3.2 1.2,3.9 0,0.9 -0.2,1.7 -0.8,2.5 -0.5,0.8 -1.2,1.4 -2.1,1.9 -0.9,0.5 -1.9,0.7 -3,0.7 -1.3,0 -2.5,-0.3 -3.4,-1 -0.9,-0.6 -1.6,-1.4 -2.2,-2.3 -0.6,-0.9 -1.4,-2.2 -2.4,-4 l -4.3,-8.1 c -1.4,-2 -2.7,-3.6 -3.9,-4.9 -1.1,-1.3 -2.3,-2.2 -3.4,-2.7 -1.1,-0.3 -2.5,-0.5 -4.3,-0.5 z"
   id="path322" />
				<path
   class="st0"
   d="m 425.5,349.8 h 14 l -7.1,-20.5 z m 19.5,16.1 v 0 l -2.4,-6.5 h -20 l -2.3,6.4 c -1,2.7 -1.9,4.7 -2.6,5.7 -0.8,1.1 -2.1,1.6 -3.9,1.6 -1.5,0 -2.9,-0.6 -4,-1.7 -1.2,-1.1 -1.7,-2.4 -1.7,-3.9 0,-0.8 0.1,-1.6 0.3,-2.4 0.3,-0.8 0.7,-1.9 1.2,-3.4 l 13.3,-34.6 1.4,-3.6 c 0.5,-1.4 1.1,-2.6 1.8,-3.6 0.6,-1 1.5,-1.8 2.6,-2.4 1.1,-0.6 2.4,-1 4,-1 1.6,0 2.9,0.3 4,1 1.1,0.6 2,1.4 2.6,2.4 0.6,1 1.2,1.9 1.5,2.9 0.4,1 0.9,2.3 1.5,3.9 l 13.7,34.7 c 1.1,2.7 1.6,4.7 1.6,6 0,1.4 -0.6,2.8 -1.7,3.9 -1.1,1.2 -2.5,1.8 -4.1,1.8 -1,0 -1.8,-0.2 -2.5,-0.5 -0.7,-0.4 -1.3,-0.8 -1.7,-1.4 -0.5,-0.6 -0.9,-1.5 -1.4,-2.7 -0.6,-1.3 -1,-2.2 -1.2,-2.6 z"
   id="path324" />
			</g>
			<g
   id="g332">
				<path
   class="st0"
   d="m 137.3,366.3 h 21.1 v -4.8 c 0,-1.1 0,-1.9 -0.1,-2.5 0,-0.6 -0.2,-1.2 -0.4,-1.9 -0.2,-0.7 -0.5,-1.2 -1,-1.7 -1.8,-2.1 -4.8,-3.2 -9.2,-3.2 -3.1,0 -5.4,0.5 -6.9,1.4 -1.5,0.9 -2.5,2.1 -2.9,3.5 -0.4,1.4 -0.6,3 -0.6,5 z m -5,2.5 v 0 -8.3 c 0,-2.2 0.2,-4 0.6,-5.6 0.4,-1.5 1.1,-3 2.2,-4.2 2.8,-3.3 7,-4.9 12.6,-4.9 1.9,0 3.6,0.2 5.1,0.5 1.5,0.3 2.9,0.8 4.2,1.5 1.2,0.7 2.3,1.6 3.3,2.6 0.7,0.9 1.4,1.8 1.8,2.8 0.4,1 0.8,2.1 1,3.2 0.2,1.2 0.3,2.4 0.3,3.9 v 8.3 c 0,1.2 -0.2,2 -0.5,2.6 -0.3,0.6 -0.8,1 -1.5,1.1 -0.6,0.2 -1.4,0.3 -2.4,0.3 h -22.8 c -1.4,0 -2.3,-0.3 -2.9,-0.9 -0.7,-0.6 -1,-1.6 -1,-2.9 z"
   id="path328" />
				<path
   class="st0"
   d="M 137.2,319.7 V 334 h 7.6 v -13.2 c 0,-1 0.2,-1.7 0.7,-2.2 0.4,-0.5 1,-0.7 1.7,-0.7 0.7,0 1.3,0.2 1.7,0.7 0.4,0.5 0.7,1.2 0.7,2.2 V 334 h 8.9 v -14.9 c 0,-1 0.2,-1.7 0.7,-2.3 0.5,-0.5 1.1,-0.8 1.8,-0.8 0.7,0 1.3,0.3 1.8,0.8 0.5,0.5 0.7,1.3 0.7,2.3 v 17.3 c 0,1.4 -0.3,2.4 -0.9,3 -0.6,0.6 -1.6,0.9 -2.9,0.9 h -23.4 c -0.9,0 -1.6,-0.1 -2.2,-0.4 -0.6,-0.3 -1,-0.7 -1.2,-1.3 -0.3,-0.6 -0.4,-1.3 -0.4,-2.2 v -16.8 c 0,-1 0.2,-1.8 0.7,-2.3 0.4,-0.5 1,-0.7 1.8,-0.7 0.7,0 1.3,0.2 1.8,0.7 0.2,0.6 0.4,1.4 0.4,2.4 z"
   id="path330" />
			</g>
			<path
   class="st5"
   d="m 216.9,530.5 -33.2,-9.9 2.7,-8.4 c -1.1,-0.2 -3,-1.5 -3,-1.5 l 7.6,-41.3 2.8,0.4 1.7,-14.2 z"
   id="path334" />
			<g
   id="g346">
				<path
   class="st6"
   d="m 215.2,461.2 c -0.6,0 55,-12.8 55,-12.8 l 1.8,66.1 -55,18.4 c 0,-0.1 -1.2,-71.7 -1.8,-71.7 z"
   id="path336" />
				<polygon
   class="st7"
   points="217,532.8 197.5,521.8 195.7,453.8 215.2,461.2 "
   id="polygon338" />
				<polygon
   class="st8"
   points="270.2,448.3 215.2,461.2 195.7,453.8 248.9,441 "
   id="polygon340" />
				<path
   class="st7"
   d="m 227.9,486.4 c 1.9,-12 10,-20.5 18.1,-19.3 0.6,0.1 7.9,2.9 8.5,3.1 7.1,2.3 5,9.4 3.6,20.6 -1.4,11.1 -2.9,22.3 -10.5,23 -0.8,0.1 -6.9,-2.5 -7.7,-2.7 -8.6,-1.2 -13.9,-12.4 -12,-24.7 z"
   id="path342" />
				<path
   class="st6"
   d="m 236.4,490.1 c 1.8,-12.2 9.9,-21.3 18,-20.1 8.1,1.2 13.1,12.1 11.2,24.3 -1.9,12.1 -9.9,20.9 -17.9,19.8 -8,-1.2 -13.1,-11.8 -11.3,-24 z"
   id="path344" />
			</g>
			<path
   class="st5"
   d="m 277.9,530.5 -33.2,-9.9 2.7,-8.4 c -1.1,-0.2 -3.1,-1.5 -3.1,-1.5 l 7.6,-41.3 2.8,0.4 1.7,-14.2 z"
   id="path348" />
			<g
   id="g360">
				<path
   class="st9"
   d="m 278,461.2 c -0.6,0 55,-12.8 55,-12.8 l 1.8,66.1 -55,18.4 c -0.1,-0.1 -1.2,-71.7 -1.8,-71.7 z"
   id="path350" />
				<polygon
   class="st10"
   points="279.7,532.8 260.2,521.8 258.5,453.8 278,461.2 "
   id="polygon352" />
				<polygon
   class="st11"
   points="332.9,448.3 278,461.2 258.5,453.8 311.7,441 "
   id="polygon354" />
				<path
   class="st10"
   d="m 290.6,486.4 c 1.8,-12 9.9,-20.5 18.1,-19.3 0.6,0.1 7.9,2.9 8.4,3.1 7.1,2.3 5,9.4 3.6,20.6 -1.4,11.1 -2.9,22.3 -10.5,23 -0.8,0.1 -6.9,-2.5 -7.7,-2.7 -8.5,-1.2 -13.8,-12.4 -11.9,-24.7 z"
   id="path356" />
				<path
   class="st9"
   d="m 299.1,490.1 c 1.8,-12.2 9.9,-21.3 18,-20.1 8.1,1.2 13.1,12.1 11.2,24.3 -1.9,12.1 -9.9,20.9 -17.9,19.8 -7.9,-1.2 -13,-11.8 -11.3,-24 z"
   id="path358" />
			</g>
			<path
   class="st5"
   d="m 343.5,530.5 -33.2,-9.9 2.7,-8.4 c -1.1,-0.2 -3.1,-1.5 -3.1,-1.5 l 7.6,-41.3 2.8,0.4 1.7,-14.2 z"
   id="path362" />
			<g
   id="g374">
				<path
   class="st12"
   d="m 343.1,461.2 c -0.6,0 54.9,-12.8 54.9,-12.8 l 1.8,66.1 -55,18.4 c 0.1,-0.1 -1.1,-71.7 -1.7,-71.7 z"
   id="path364" />
				<polygon
   class="st13"
   points="344.9,532.8 325.4,521.8 323.6,453.8 343.1,461.2 "
   id="polygon366" />
				<polygon
   class="st14"
   points="398,448.3 343.1,461.2 323.6,453.8 376.8,441 "
   id="polygon368" />
				<path
   class="st13"
   d="m 355.7,486.4 c 1.8,-12 9.9,-20.5 18.1,-19.3 0.6,0.1 7.9,2.9 8.5,3.1 7.1,2.3 5,9.4 3.6,20.6 -1.4,11.1 -2.9,22.3 -10.5,23 -0.8,0.1 -6.9,-2.5 -7.7,-2.7 -8.5,-1.2 -13.9,-12.4 -12,-24.7 z"
   id="path370" />
				<path
   class="st12"
   d="m 364.3,490.1 c 1.8,-12.2 9.9,-21.3 18,-20.1 8.1,1.2 13.1,12.1 11.2,24.3 -1.9,12.1 -9.9,20.9 -17.9,19.8 -8,-1.2 -13.1,-11.8 -11.3,-24 z"
   id="path372" />
			</g>
			<path
   class="st5"
   d="m 407.6,530.5 -33.2,-9.9 2.7,-8.4 C 376,512 374,510.7 374,510.7 l 7.6,-41.3 2.8,0.4 1.7,-14.2 z"
   id="path376" />
			<g
   id="g388">
				<path
   class="st15"
   d="m 405.8,461.2 c -0.6,0 55,-12.8 55,-12.8 l 1.8,66.1 -55,18.4 c 0,-0.1 -1.2,-71.7 -1.8,-71.7 z"
   id="path378" />
				<polygon
   class="st16"
   points="407.6,532.8 388.1,521.8 386.3,453.8 405.8,461.2 "
   id="polygon380" />
				<polygon
   class="st17"
   points="460.8,448.3 405.8,461.2 386.3,453.8 439.5,441 "
   id="polygon382" />
				<path
   class="st16"
   d="m 418.5,486.4 c 1.9,-12 9.9,-20.5 18.1,-19.3 0.6,0.1 7.9,2.9 8.4,3.1 7.1,2.3 5,9.4 3.6,20.6 -1.4,11.1 -2.9,22.3 -10.5,23 -0.8,0.1 -6.9,-2.5 -7.7,-2.7 -8.5,-1.2 -13.8,-12.4 -11.9,-24.7 z"
   id="path384" />
				<path
   class="st15"
   d="m 427,490.1 c 1.8,-12.2 9.8,-21.3 18,-20.1 8.1,1.2 13.1,12.1 11.2,24.3 -1.9,12.1 -9.9,20.9 -17.9,19.8 -8,-1.2 -13.1,-11.8 -11.3,-24 z"
   id="path386" />
			</g>
		</g>
	</g>
	<g
   class="st18"
   id="g426">
		<g
   class="st19"
   id="g422">
			<g
   id="g400">
				<path
   class="st20"
   d="m 144.7,554.1 c 2.3,-0.8 4.8,-1 7.2,-0.5 2.2,0.4 4.3,1.3 6.1,2.7 0,0.6 0,1.2 0,1.8 0.1,-0.6 0,-1.2 0,-1.7 3.9,2.8 6.2,7.6 5.9,12.4 -0.1,4.6 -2.5,9.2 -6.3,11.9 -2.8,2 -6.3,2.9 -9.7,2.6 -3.4,-0.3 -6.7,-1.9 -9.1,-4.4 -2.1,-2.1 -3.5,-4.9 -4,-7.9 -0.1,-1 -0.3,-2 -0.2,-3 -0.1,-2.5 0.6,-4.9 1.8,-7 1.4,-2.4 3.4,-4.4 5.8,-5.8 0.9,-0.5 1.7,-0.8 2.5,-1.1 z"
   id="path394" />
				<path
   class="st21"
   d="m 144.7,554.1 c 2.3,-0.8 4.8,-1 7.2,-0.5 -0.3,0.3 -0.7,0.6 -1,1 -0.3,1.3 -0.6,2.6 -0.9,3.8 -0.7,0.3 -1.3,0.6 -2,0.8 -0.5,0.6 -0.7,1.3 -1.2,1.9 -0.3,-0.9 -0.9,-1.8 -0.4,-2.7 0.3,-0.6 0.7,-1.3 0.9,-2 -0.2,-0.2 -0.4,-0.4 -0.6,-0.6 -0.2,-0.6 0.3,-1.1 0.1,-1.6 -0.2,0 -0.4,0 -0.6,-0.1 -0.2,0.4 -0.4,0.8 -0.6,1.3 -0.2,-0.1 -0.5,-0.1 -0.8,-0.2 0,-0.4 0,-0.8 -0.1,-1.1 z m -8.2,6.8 c -1.2,2.1 -1.9,4.6 -1.8,7 0.4,0.6 0.7,1.1 1.1,1.7 0.3,0.5 0.9,0.7 1.4,1 1.1,0.5 2.2,1.2 3.4,1.6 -0.1,0.6 -0.4,1.3 -0.5,1.9 0.4,0.5 1.1,0.9 1.5,1.4 0.5,0.5 1.1,0.8 1.4,1.5 0.4,1.1 0.8,2.2 1.2,3.3 0.2,0.5 0.3,0.9 0.5,1.4 0.4,0.1 0.7,0.2 1.1,0.2 -0.1,-1.6 0.2,-3.2 0.4,-4.8 0.3,-0.1 0.7,-0.3 0.9,-0.5 0,-1 0.1,-1.9 0.3,-2.9 -1.5,-0.9 -3,-1.7 -4.5,-2.6 -0.5,-0.3 -1.1,-0.2 -1.6,0 -0.7,0.1 -1.4,0.1 -1.9,-0.3 -0.1,-0.2 -0.1,-0.6 -0.2,-0.8 -0.3,-0.1 -0.7,-0.2 -1,-0.3 -0.3,-0.1 -0.6,-0.1 -0.9,-0.2 0,-0.7 0,-1.3 0.1,-2 0.5,-0.1 1,-0.2 1.5,-0.2 0.1,0.4 0.3,0.7 0.4,1 0.1,0 0.3,0 0.4,0 0.3,-0.5 0.1,-1.2 0.3,-1.7 0.2,-0.4 0.6,-0.6 1,-0.9 0.4,-0.3 0.8,-0.7 1.2,-0.9 0.5,-0.2 1.1,-0.3 1.6,-0.4 0,-0.1 0,-0.2 0,-0.3 -0.3,-0.4 -0.6,-0.8 -0.8,-1.2 0.4,0 0.8,0 1.1,0 0,-0.5 0.1,-1 0.2,-1.5 -0.4,-0.5 -0.8,-1 -1.3,-1.5 -0.5,0.3 -1,0.7 -1.5,1 -0.3,-0.4 -0.7,-0.8 -1.1,-1.1 0,-0.1 0,-0.3 0,-0.3 0.5,-0.3 1,-0.7 1.5,-0.9 0.3,-0.1 0.7,0 1,0 0.2,-0.5 0.5,-0.9 0.7,-1.4 0.3,0.2 0.5,0.4 0.7,0.6 -0.4,0.4 -0.7,0.8 -1,1.2 0.3,0.3 0.7,0.7 1,1 0.4,-0.7 0.9,-1.4 1.1,-2.2 -0.2,-0.7 -0.5,-1.4 -0.9,-2.1 -0.6,0 -1.2,-0.1 -1.8,-0.2 -0.4,0.6 -0.9,1.2 -1.3,1.9 -0.3,0.2 -0.6,-0.2 -0.9,-0.2 0.4,-0.7 1.1,-1.2 1.6,-1.8 0,-0.1 0,-0.3 0,-0.4 -2.2,1.5 -4.3,3.4 -5.6,5.9 z m 21.5,-4.6 c 0,0.6 0,1.2 0,1.7 -0.1,0.1 -0.3,0.3 -0.4,0.4 -0.1,0 -0.3,0 -0.4,0 -0.5,-0.3 -1,-0.7 -1.5,-1 -0.2,-0.1 -0.3,-0.2 -0.5,-0.2 -0.3,0.2 -0.6,0.4 -0.9,0.6 -0.1,0.2 -0.1,0.3 -0.2,0.5 -0.1,0.6 -0.2,1.2 -0.5,1.8 -0.6,0.3 -0.2,0.2 -0.3,0.4 -0.1,0.3 -0.1,0.6 0,0.9 0.4,0.1 0.8,0.2 1.2,0.3 0.4,-0.8 0.4,-1.7 0.4,-2.6 0.2,0 0.4,0 0.6,0 -0.1,0.5 -0.2,1 -0.2,1.5 0.2,0.1 0.5,0.2 0.7,0.2 -0.3,0.4 -0.5,0.9 -0.8,1.3 -0.6,0.1 -1.1,0.2 -1.7,0.2 -0.3,0.2 -0.6,0.5 -0.8,0.7 -0.1,-0.6 -0.4,-1.2 -0.6,-1.7 -0.3,0 -0.6,0 -0.9,0 0,0.7 0,1.3 0.1,2 0.4,0 0.7,0 1.1,0 -0.2,0.1 -0.3,0.3 -0.4,0.5 -0.1,0.3 0.1,0.6 0.3,0.9 -0.3,0 -0.6,0 -1,0 -0.2,0.3 -0.4,0.7 -0.5,1.1 0.5,0.3 1,0.4 1.5,0.3 0.3,-0.4 0.6,-0.9 1,-1.2 0.3,0 0.7,0.2 0.9,0.4 0.2,0.2 0.1,0.6 0.2,0.9 0.6,0 1.2,0 1.8,0 0,-0.1 0,-0.4 0,-0.6 0.5,0.1 1,0.3 1.6,0.5 -0.1,0.4 -0.1,0.7 -0.2,1.1 -0.7,-0.2 -1.3,-0.3 -2,-0.4 -0.1,0.2 -0.2,0.3 -0.2,0.5 -0.3,0 -0.5,-0.1 -0.8,-0.1 -0.3,-0.3 -0.5,-0.7 -0.6,-1.1 -0.4,0 -0.9,0.1 -1.3,0.2 -0.3,0.1 -0.6,0.3 -0.9,0.3 -0.5,0.4 -0.8,0.9 -1.1,1.5 -0.3,0.5 -0.6,0.9 -0.8,1.4 0,0.4 0.1,0.8 0.1,1.3 0.4,0.5 0.9,0.9 1.3,1.5 0.6,0 1.1,-0.2 1.7,-0.3 0.5,-0.1 0.9,0.2 1.3,0.3 0.2,1 0.1,2 0.2,2.9 0.1,0.6 0.1,1.2 0.3,1.7 0.3,0.6 0.5,1.3 0.7,2 0.6,-0.2 1.4,-0.3 1.8,-0.9 0.6,-1 1.1,-2.1 1.8,-3 -0.1,-0.4 -0.2,-0.9 -0.2,-1.3 0.6,-0.9 1.5,-1.7 1.9,-2.8 -0.4,0 -0.9,0 -1.3,0 -0.2,-0.2 -0.3,-0.4 -0.4,-0.7 -0.4,-0.8 -0.8,-1.6 -1.2,-2.4 0.1,-0.1 0.4,-0.2 0.6,-0.3 0.5,0.9 0.9,1.9 1.3,2.9 1,-0.4 1.7,-1.1 2.6,-1.7 -0.8,-0.5 -1.5,-1 -2.3,-1.5 1,0.2 2,0.5 2.9,0.8 0.4,0.2 0.8,0.5 1.1,0.9 0.1,-5 -2.2,-9.8 -6.1,-12.6 z"
   id="path396" />
				<path
   class="st22"
   d="m 151.9,553.6 c 2.2,0.4 4.3,1.3 6.1,2.7 0,0.6 0,1.2 0,1.8 -0.1,0.1 -0.3,0.3 -0.4,0.4 -0.1,0 -0.3,0 -0.4,0 -0.5,-0.3 -1,-0.7 -1.5,-1 -0.2,-0.1 -0.3,-0.2 -0.5,-0.2 -0.3,0.2 -0.6,0.4 -0.9,0.6 -0.1,0.2 -0.1,0.3 -0.2,0.5 -0.1,0.6 -0.2,1.2 -0.5,1.8 -0.1,0.1 -0.2,0.2 -0.3,0.4 -0.1,0.3 -0.1,0.6 0,0.9 0.4,0.1 0.8,0.2 1.2,0.3 0.4,-0.8 0.4,-1.7 0.4,-2.6 0.2,0 0.4,0 0.6,0 -0.1,0.5 -0.2,1 -0.2,1.5 0.2,0.1 0.5,0.2 0.7,0.2 -0.3,0.4 -0.5,0.9 -0.8,1.3 -0.6,0.1 -1.1,0.2 -1.7,0.2 -0.3,0.2 -0.6,0.5 -0.8,0.7 -0.1,-0.6 -0.4,-1.2 -0.6,-1.7 -0.3,0 -0.6,0 -0.9,0 0,0.7 0,1.3 0.1,2 0.4,0 0.7,0 1.1,0 -0.2,0.1 -0.3,0.3 -0.4,0.5 -0.1,0.3 0.1,0.6 0.3,0.9 -0.3,0 -0.6,0 -1,0 -0.2,0.3 -0.4,0.7 -0.5,1.1 0.5,0.3 1,0.4 1.5,0.3 0.3,-0.4 0.6,-0.9 1,-1.2 0.3,0 0.7,0.2 0.9,0.4 0.2,0.2 0.1,0.6 0.2,0.9 0.6,0 1.2,0 1.8,0 0,-0.1 0,-0.4 0,-0.6 0.5,0.1 1,0.3 1.6,0.5 -0.1,0.4 -0.1,0.7 -0.2,1.1 -0.7,-0.2 -1.3,-0.3 -2,-0.4 -0.1,0.2 -0.2,0.3 -0.2,0.5 -0.3,0 -0.5,-0.1 -0.8,-0.1 -0.3,-0.3 -0.5,-0.7 -0.6,-1.1 -0.4,0 -0.9,0.1 -1.3,0.2 -0.3,0.1 -0.6,0.3 -0.9,0.3 -0.5,0.4 -0.8,0.9 -1.1,1.5 -0.3,0.5 -0.6,0.9 -0.8,1.4 0,0.4 0.1,0.8 0.1,1.3 0.4,0.5 0.9,0.9 1.3,1.5 0.6,0 1.1,-0.2 1.7,-0.3 0.5,-0.1 0.9,0.2 1.3,0.3 0.2,1 0.1,2 0.2,2.9 0.1,0.6 0.1,1.2 0.3,1.7 0.3,0.6 0.5,1.3 0.7,2 0.6,-0.2 1.4,-0.3 1.8,-0.9 0.6,-1 1.1,-2.1 1.8,-3 -0.1,-0.4 -0.2,-0.9 -0.2,-1.3 0.6,-0.9 1.5,-1.7 1.9,-2.8 -0.4,0 -0.9,0 -1.3,0 -0.2,-0.2 -0.3,-0.4 -0.4,-0.7 -0.4,-0.8 -0.8,-1.6 -1.2,-2.4 0.1,-0.1 0.4,-0.2 0.6,-0.3 0.5,0.9 0.9,1.9 1.3,2.9 1,-0.4 1.7,-1.1 2.6,-1.7 -0.8,-0.5 -1.5,-1 -2.3,-1.5 1,0.2 2,0.5 2.9,0.8 0.4,0.2 0.8,0.5 1.1,0.9 -0.1,4.6 -2.5,9.2 -6.3,11.9 -2.8,2 -6.3,2.9 -9.7,2.6 -3.4,-0.3 -6.7,-1.9 -9.1,-4.4 -2.1,-2.1 -3.5,-4.9 -4,-7.9 -0.1,-1 -0.3,-2 -0.2,-3 0.4,0.6 0.7,1.1 1.1,1.7 0.3,0.5 0.9,0.7 1.4,1 1.1,0.5 2.2,1.2 3.4,1.6 -0.1,0.6 -0.4,1.3 -0.5,1.9 0.4,0.5 1.1,0.9 1.5,1.4 0.5,0.5 1.1,0.8 1.4,1.5 0.4,1.1 0.8,2.2 1.2,3.3 0.2,0.5 0.3,0.9 0.5,1.4 0.4,0.1 0.7,0.2 1.1,0.2 -0.1,-1.6 0.2,-3.2 0.4,-4.8 0.3,-0.1 0.7,-0.3 0.9,-0.5 0,-1 0.1,-1.9 0.3,-2.9 -1.5,-0.9 -3,-1.7 -4.5,-2.6 -0.5,-0.3 -1.1,-0.2 -1.6,0 -0.7,0.1 -1.4,0.1 -1.9,-0.3 -0.1,-0.2 -0.1,-0.6 -0.2,-0.8 -0.3,-0.1 -0.7,-0.2 -1,-0.3 -0.3,-0.1 -0.6,-0.1 -0.9,-0.2 0,-0.7 0,-1.3 0.1,-2 0.5,-0.1 1,-0.2 1.5,-0.2 0.1,0.4 0.3,0.7 0.4,1 0.1,0 0.3,0 0.4,0 0.3,-0.5 0.1,-1.2 0.3,-1.7 0.2,-0.4 0.6,-0.6 1,-0.9 0.4,-0.3 0.8,-0.7 1.2,-0.9 0.5,-0.2 1.1,-0.3 1.6,-0.4 0,-0.1 0,-0.2 0,-0.3 -0.3,-0.4 -0.6,-0.8 -0.8,-1.2 0.4,0 0.8,0 1.1,0 0,-0.5 0.1,-1 0.2,-1.5 -0.4,-0.5 -0.8,-1 -1.3,-1.5 -0.5,0.3 -1,0.7 -1.5,1 -0.3,-0.4 -0.7,-0.8 -1.1,-1.1 0,-0.1 0,-0.3 0,-0.3 0.5,-0.3 1,-0.7 1.5,-0.9 0.3,-0.1 0.7,0 1,0 0.2,-0.5 0.5,-0.9 0.7,-1.4 0.3,0.2 0.5,0.4 0.7,0.6 -0.4,0.4 -0.7,0.8 -1,1.2 0.3,0.3 0.7,0.7 1,1 0.4,-0.7 0.9,-1.4 1.1,-2.2 -0.2,-0.7 -0.5,-1.4 -0.9,-2.1 -0.6,0 -1.2,-0.1 -1.8,-0.2 -0.4,0.6 -0.9,1.2 -1.3,1.9 -0.3,0.2 -0.6,-0.2 -0.9,-0.2 0.4,-0.7 1.1,-1.2 1.6,-1.8 0,-0.1 0,-0.3 0,-0.4 0.8,-0.4 1.5,-0.7 2.3,-1 0.1,0.3 0.2,0.7 0.2,1 0.2,0.1 0.5,0.1 0.8,0.2 0.2,-0.4 0.4,-0.8 0.6,-1.3 0.2,0 0.4,0 0.6,0.1 0.2,0.6 -0.4,1.1 -0.1,1.6 0.2,0.2 0.4,0.4 0.6,0.6 -0.2,0.7 -0.6,1.3 -0.9,2 -0.5,0.9 0.2,1.8 0.4,2.7 0.4,-0.6 0.7,-1.4 1.2,-1.9 0.7,-0.2 1.4,-0.5 2,-0.8 0.3,-1.3 0.6,-2.6 0.9,-3.8 0.4,-0.5 0.7,-0.8 1.1,-1.1 z"
   id="path398" />
			</g>
			<path
   class="st22"
   d="m 199.4,583.4 h -8.7 v -16.6 c 0,-4.6 -1.6,-6.9 -4.7,-6.9 -1.5,0 -2.8,0.6 -3.7,1.8 -1,1.2 -1.5,2.8 -1.5,4.7 v 17 H 172 v -29.9 h 8.7 v 4.7 h 0.1 c 2.1,-3.6 5.1,-5.5 9.1,-5.5 6.3,0 9.4,4.1 9.4,12.3 v 18.4 z"
   id="path402" />
			<rect
   x="206.3"
   y="539.20001"
   class="st22"
   width="8.6999998"
   height="44.200001"
   id="rect404" />
			<path
   class="st22"
   d="m 226.9,548.8 c -1.5,0 -2.7,-0.5 -3.6,-1.4 -0.9,-0.9 -1.4,-2.1 -1.4,-3.4 0,-1.4 0.5,-2.5 1.4,-3.4 0.9,-0.9 2.1,-1.3 3.6,-1.3 1.5,0 2.7,0.4 3.7,1.3 0.9,0.9 1.4,2 1.4,3.4 0,1.4 -0.5,2.5 -1.4,3.4 -1,1 -2.2,1.4 -3.7,1.4 z m 4.3,34.6 h -8.7 v -29.9 h 8.7 z"
   id="path406" />
			<path
   class="st22"
   d="m 265.9,583.4 h -8.7 v -16.6 c 0,-4.6 -1.6,-6.9 -4.7,-6.9 -1.5,0 -2.8,0.6 -3.7,1.8 -1,1.2 -1.5,2.8 -1.5,4.7 v 17 h -8.7 v -29.9 h 8.7 v 4.7 h 0.1 c 2.1,-3.6 5.1,-5.5 9.1,-5.5 6.3,0 9.4,4.1 9.4,12.3 z"
   id="path408" />
			<path
   class="st22"
   d="m 298.4,571.1 h -18.5 c 0.3,4.3 2.9,6.5 7.8,6.5 3.1,0 5.9,-0.8 8.2,-2.3 v 6.6 c -2.6,1.5 -6,2.2 -10.2,2.2 -4.6,0 -8.1,-1.3 -10.7,-4 -2.5,-2.7 -3.8,-6.4 -3.8,-11.2 0,-5 1.4,-8.9 4.1,-11.8 2.7,-2.9 6.1,-4.3 10.1,-4.3 4.1,0 7.3,1.3 9.6,3.9 2.3,2.6 3.4,6.1 3.4,10.5 z m -8.1,-5.7 c 0,-4.3 -1.6,-6.4 -4.9,-6.4 -1.4,0 -2.6,0.6 -3.6,1.8 -1,1.2 -1.6,2.8 -1.9,4.6 z"
   id="path410" />
			<path
   class="st22"
   d="m 344.6,571.1 h -18.5 c 0.3,4.3 2.9,6.5 7.8,6.5 3.1,0 5.9,-0.8 8.2,-2.3 v 6.6 c -2.6,1.5 -6,2.2 -10.2,2.2 -4.6,0 -8.1,-1.3 -10.7,-4 -2.5,-2.7 -3.8,-6.4 -3.8,-11.2 0,-5 1.4,-8.9 4.1,-11.8 2.7,-2.9 6.1,-4.3 10.1,-4.3 4.1,0 7.3,1.3 9.6,3.9 2.3,2.6 3.4,6.1 3.4,10.5 z m -8.1,-5.7 c 0,-4.3 -1.6,-6.4 -4.9,-6.4 -1.4,0 -2.6,0.6 -3.6,1.8 -1,1.2 -1.6,2.8 -1.9,4.6 z"
   id="path412" />
			<path
   class="st22"
   d="m 376.8,553.6 -10.6,29.9 h -10 l -10.1,-29.9 h 9.4 l 4.9,18.4 c 0.6,2.1 0.9,3.8 1,5.3 h 0.1 c 0.1,-1.4 0.5,-3.1 1,-5.1 l 5,-18.6 z"
   id="path414" />
			<path
   class="st22"
   d="M 405.5,571.1 H 387 c 0.3,4.3 2.9,6.5 7.8,6.5 3.1,0 5.9,-0.8 8.2,-2.3 v 6.6 c -2.6,1.5 -6,2.2 -10.2,2.2 -4.6,0 -8.1,-1.3 -10.7,-4 -2.5,-2.7 -3.8,-6.4 -3.8,-11.2 0,-5 1.4,-8.9 4.1,-11.8 2.7,-2.9 6.1,-4.3 10.1,-4.3 4.1,0 7.3,1.3 9.6,3.9 2.3,2.6 3.4,6.1 3.4,10.5 z m -8.1,-5.7 c 0,-4.3 -1.6,-6.4 -4.9,-6.4 -1.4,0 -2.6,0.6 -3.6,1.8 -1,1.2 -1.6,2.8 -1.9,4.6 z"
   id="path416" />
			<path
   class="st22"
   d="m 438.1,583.4 h -8.7 v -16.6 c 0,-4.6 -1.6,-6.9 -4.7,-6.9 -1.5,0 -2.8,0.6 -3.7,1.8 -1,1.2 -1.5,2.8 -1.5,4.7 v 17 h -8.7 v -29.9 h 8.7 v 4.7 h 0.1 c 2.1,-3.6 5.1,-5.5 9.1,-5.5 6.3,0 9.4,4.1 9.4,12.3 z"
   id="path418" />
			<path
   class="st22"
   d="m 462.2,583.1 c -1.3,0.7 -3.2,1.1 -5.8,1.1 -6.2,0 -9.3,-3.4 -9.3,-10.1 v -13.7 h -4.6 v -6.8 h 4.6 v -6.4 l 8.7,-2.6 v 9.1 h 6.4 v 6.8 h -6.4 v 12.1 c 0,3.1 1.2,4.7 3.5,4.7 0.9,0 1.9,-0.3 2.9,-0.8 z"
   id="path420" />
		</g>
		<path
   class="st23"
   d="m 153,567.9 15.1,15.1 c 0.2,0.2 0.3,0.5 0.1,0.7 -0.1,0.3 -0.4,0.4 -0.6,0.4 H 162 l 1.3,2.7 c 0.2,0.3 0,0.7 -0.3,0.9 l -3.4,1.8 c -0.2,0.1 -0.4,0.1 -0.5,0.1 -0.2,-0.1 -0.3,-0.2 -0.4,-0.3 l -1.8,-3.4 -4,3.5 c -0.1,0.1 -0.3,0.2 -0.5,0.2 -0.1,0 -0.2,0 -0.3,-0.1 -0.2,-0.1 -0.4,-0.4 -0.4,-0.6 v -20.6 c 0,-0.3 0.2,-0.5 0.4,-0.6 0.4,-0.1 0.7,0 0.9,0.2 z"
   id="path424" />
	</g>
</g>
</svg>
