<svg version="1.1" viewBox="0 0 330.86 338.31" xml:space="preserve" xmlns="http://www.w3.org/2000/svg">
<style type="text/css">
	.st0{fill-rule:evenodd;clip-rule:evenodd;fill:#FEFEFE;}
	
		.st1{fill-rule:evenodd;clip-rule:evenodd;fill:#D2CD0B;stroke:#FEFEFE;stroke-width:1.165;stroke-linejoin:round;stroke-miterlimit:22.9256;}
	
		.st2{fill-rule:evenodd;clip-rule:evenodd;fill:#9B982E;stroke:#FEFEFE;stroke-width:1.165;stroke-linejoin:round;stroke-miterlimit:22.9256;}
	
		.st3{fill-rule:evenodd;clip-rule:evenodd;fill:#FAEA26;stroke:#FEFEFE;stroke-width:1.165;stroke-linejoin:round;stroke-miterlimit:22.9256;}
	.st4{fill-rule:evenodd;clip-rule:evenodd;}
	.st5{opacity:0.3;fill-rule:evenodd;clip-rule:evenodd;fill:#252523;}
	
		.st6{fill-rule:evenodd;clip-rule:evenodd;fill:#CA2627;stroke:#FEFEFE;stroke-width:1.165;stroke-linejoin:round;stroke-miterlimit:22.9256;}
	
		.st7{fill-rule:evenodd;clip-rule:evenodd;fill:#892723;stroke:#FEFEFE;stroke-width:1.165;stroke-linejoin:round;stroke-miterlimit:22.9256;}
	
		.st8{fill-rule:evenodd;clip-rule:evenodd;fill:#E42424;stroke:#FEFEFE;stroke-width:1.165;stroke-linejoin:round;stroke-miterlimit:22.9256;}
	
		.st9{fill-rule:evenodd;clip-rule:evenodd;fill:#4A60A8;stroke:#FEFEFE;stroke-width:1.165;stroke-linejoin:round;stroke-miterlimit:22.9256;}
	
		.st10{fill-rule:evenodd;clip-rule:evenodd;fill:#444F9B;stroke:#FEFEFE;stroke-width:1.165;stroke-linejoin:round;stroke-miterlimit:22.9256;}
	
		.st11{fill-rule:evenodd;clip-rule:evenodd;fill:#4A74B8;stroke:#FEFEFE;stroke-width:1.165;stroke-linejoin:round;stroke-miterlimit:22.9256;}
	
		.st12{fill-rule:evenodd;clip-rule:evenodd;fill:#D6D5D4;stroke:#FEFEFE;stroke-width:1.165;stroke-linejoin:round;stroke-miterlimit:22.9256;}
	
		.st13{fill-rule:evenodd;clip-rule:evenodd;fill:#A4A1A0;stroke:#FEFEFE;stroke-width:1.165;stroke-linejoin:round;stroke-miterlimit:22.9256;}
	
		.st14{fill-rule:evenodd;clip-rule:evenodd;fill:#F8F8F9;stroke:#FEFEFE;stroke-width:1.165;stroke-linejoin:round;stroke-miterlimit:22.9256;}
	
		.st15{fill-rule:evenodd;clip-rule:evenodd;fill:#33312F;stroke:#FEFEFE;stroke-width:1.165;stroke-linejoin:round;stroke-miterlimit:22.9256;}
	
		.st16{fill-rule:evenodd;clip-rule:evenodd;fill:#252523;stroke:#FEFEFE;stroke-width:1.165;stroke-linejoin:round;stroke-miterlimit:22.9256;}
	
		.st17{fill-rule:evenodd;clip-rule:evenodd;fill:#464240;stroke:#FEFEFE;stroke-width:1.165;stroke-linejoin:round;stroke-miterlimit:22.9256;}
	
		.st18{fill-rule:evenodd;clip-rule:evenodd;fill:none;stroke:#138DDA;stroke-width:3.9994;stroke-linecap:round;stroke-linejoin:round;stroke-miterlimit:22.9256;}
	.st19{fill-rule:evenodd;clip-rule:evenodd;fill:#9AE933;}
	.st20{fill-rule:evenodd;clip-rule:evenodd;fill:#138DDA;}
	.st21{fill-rule:evenodd;clip-rule:evenodd;fill:#FEFEFE;stroke:#2B2A29;stroke-width:1.6673;stroke-miterlimit:22.9256;}
</style>
<g transform="translate(-132.29,-252.22)">
	
		
			<path class="st0" d="m133 391.13v53.54l53.18-12.86 21.27 7.34 0.07 2.66 41.4-10.01 21.28 7.34 0.07 2.66 41.39-10.01 21.27 7.34 0.09 3.23 43.77-10.57 21.26 7.34 0.07 2.66 41.4-10.01 20 6.9v-47.58c0-0.86-0.89-1.38-2.37-1.38h-321.78c-1.47 0.03-2.37 0.55-2.37 1.41z"/>
			
				<path class="st1" d="m152.5 461.18c-0.59 0 54.96-12.84 54.96-12.84l1.78 66.08-54.96 18.36s-1.19-71.6-1.78-71.6z"/>
				<polygon class="st2" points="154.28 532.78 134.76 521.76 133 453.84 152.5 461.18"/>
				<polygon class="st3" points="207.45 448.34 152.5 461.18 133 453.84 186.18 441"/>
				<path class="st2" d="m165.12 486.4c1.85-12 9.95-20.55 18.09-19.35 0.6 0.08 7.88 2.93 8.45 3.12 7.15 2.33 4.98 9.44 3.59 20.6-1.37 11.06-2.9 22.26-10.45 23-0.83 0.07-6.86-2.55-7.71-2.68-8.52-1.2-13.86-12.38-11.97-24.69z"/>
				<path class="st1" d="m173.66 490.11c1.79-12.25 9.86-21.3 18-20.1 8.12 1.2 13.12 12.13 11.21 24.33-1.88 12.08-9.88 20.88-17.88 19.76-8.01-1.15-13.1-11.82-11.33-23.99z"/>
			
			
				<path class="st0" d="m150.6 261.7h-5.83v13.38h5.83c2.2 0 4.01-0.22 5.42-0.67 1.43-0.45 2.5-1.16 3.23-2.14 0.72-1 1.08-2.3 1.08-3.95 0-1.94-0.56-3.5-1.69-4.71-1.23-1.27-3.92-1.91-8.04-1.91zm2.35 22.03h-8.17v12.99c0 2.13-0.51 3.78-1.55 4.92-1.03 1.16-2.34 1.72-3.93 1.72-1.65 0-2.99-0.56-4.01-1.7-1-1.13-1.5-2.75-1.5-4.86v-37.13c0-2.32 0.55-3.99 1.65-5.03 1.11-1.05 2.82-1.58 5.14-1.58h12.38c3.72 0 6.6 0.3 8.63 0.89 2.07 0.57 3.85 1.53 5.35 2.87 1.48 1.34 2.63 2.98 3.4 4.89s1.14 4.05 1.14 6.42c0 5.12-1.56 9-4.7 11.64-3.13 2.64-7.75 3.96-13.83 3.96z"/>
				<path class="st0" d="m192.14 282.35h12.89l-6.51-18.53zm17.91 14.55-2.21-5.9h-18.44l-2.11 5.75c-0.93 2.49-1.74 4.21-2.45 5.17-0.71 0.95-1.9 1.43-3.54 1.43-1.41 0-2.65-0.51-3.7-1.53-1.07-1.03-1.61-2.21-1.61-3.56 0-0.72 0.11-1.45 0.33-2.14 0.22-0.71 0.6-1.72 1.12-3.04l12.19-31.28 1.26-3.27c0.49-1.27 1.04-2.36 1.63-3.24 0.58-0.88 1.38-1.61 2.39-2.19s2.24-0.87 3.69-0.87c1.46 0 2.69 0.29 3.69 0.87 1.01 0.58 1.81 1.3 2.4 2.17 0.59 0.88 1.07 1.75 1.43 2.6 0.35 0.87 0.79 2.05 1.35 3.54l12.59 31.4c1.01 2.46 1.51 4.25 1.51 5.39 0 1.3-0.53 2.49-1.58 3.56-1.05 1.06-2.33 1.59-3.82 1.59-0.88 0-1.64-0.16-2.27-0.48-0.62-0.32-1.14-0.74-1.56-1.27s-0.85-1.35-1.3-2.44c-0.46-1.1-0.78-1.85-0.99-2.26z"/>
				<path class="st0" d="m248.6 261.7h-8.26v11.94h7.99c2.26 0 4.14-0.19 5.61-0.57 1.49-0.38 2.6-1 3.34-1.87 0.75-0.86 1.11-2.09 1.11-3.65 0-1.18-0.29-2.22-0.9-3.13-0.59-0.91-1.43-1.59-2.5-2.04-1.02-0.45-3.16-0.68-6.39-0.68zm-5.54 20.25h-2.72v14.78c0 2.21-0.51 3.86-1.52 4.97-1.03 1.1-2.34 1.65-3.96 1.65-1.75 0-3.11-0.58-4.08-1.72-0.95-1.15-1.44-2.79-1.44-4.9v-37.07c0-2.27 0.54-3.93 1.59-5 1.06-1.07 2.74-1.6 5.02-1.6h15.72c2.17 0 4.05 0.1 5.67 0.3 1.61 0.19 3.14 0.62 4.59 1.29 1.42 0.61 2.74 1.54 3.95 2.78 1.2 1.24 2.13 2.69 2.75 4.34 0.62 1.64 0.94 3.37 0.94 5.17 0 3.77-1.07 6.8-3.19 9.07-2.11 2.27-5.1 3.74-8.95 4.41 1.58 0.42 3.15 1.53 4.74 3.37 1.58 1.82 2.99 3.76 4.24 5.82s2.21 3.93 2.92 5.63c0.72 1.7 1.07 2.89 1.07 3.56 0 0.75-0.23 1.5-0.71 2.24-0.47 0.74-1.1 1.32-1.89 1.72-0.8 0.42-1.71 0.62-2.72 0.62-1.25 0-2.27-0.29-3.1-0.87-0.83-0.57-1.52-1.25-2.05-2.07-0.55-0.81-1.28-2.01-2.24-3.6l-3.96-7.35c-1.32-1.81-2.5-3.3-3.55-4.47-1.04-1.19-2.08-2-3.12-2.42-1.06-0.43-2.39-0.65-4-0.65z"/>
				<path class="st0" d="m311.53 261.85h-21.09v10.56h19.36c1.66 0 2.92 0.4 3.79 1.18 0.85 0.8 1.29 1.82 1.29 3.08 0 1.29-0.42 2.34-1.27 3.15-0.86 0.83-2.11 1.23-3.8 1.23h-19.36v12.42h21.83c1.7 0 3.01 0.42 3.92 1.26 0.9 0.82 1.36 1.93 1.36 3.27 0 1.35-0.46 2.43-1.36 3.27-0.91 0.84-2.22 1.25-3.92 1.25h-26.25c-2.28 0-3.96-0.54-5-1.6-1.05-1.09-1.58-2.76-1.58-5.06v-36.2c0-1.49 0.23-2.73 0.69-3.73 0.46-0.99 1.19-1.72 2.19-2.18s2.24-0.69 3.7-0.69h25.51c1.72 0 3.02 0.41 3.9 1.22s1.33 1.85 1.33 3.14c0 1.33-0.45 2.4-1.33 3.22-0.88 0.8-2.19 1.21-3.91 1.21z"/>
				<path class="st0" d="m336.12 262.05v31.43h6.66c1.62 0 2.85-0.04 3.69-0.11 0.85-0.09 1.71-0.29 2.63-0.63 0.91-0.32 1.62-0.69 2.14-1.13 3.24-2.79 4.86-7.49 4.86-14.06 0-4.62-0.68-8.05-2.02-10.3-1.35-2.24-3.01-3.68-4.99-4.28-1.97-0.62-4.4-0.93-7.26-0.93h-5.71zm-4.42-9h12.6c3.3 0 6.18 0.32 8.64 0.97 2.44 0.64 4.73 2.01 6.84 4.15 4.96 4.03 7.45 10.51 7.45 19.45 0 2.92-0.26 5.61-0.77 8.07-0.52 2.46-1.3 4.68-2.39 6.66-1.06 1.98-2.37 3.63-3.9 4.95-1.49 1.46-3.02 2.56-4.6 3.28s-3.24 1.23-5.02 1.52c-1.77 0.29-3.79 0.43-6.06 0.43h-12.59c-1.87 0-3.34-0.3-4.35-0.92-1.03-0.61-1.7-1.46-2-2.54-0.31-1.09-0.45-2.45-0.45-4.08v-35.32c0-2.27 0.53-3.93 1.57-5 1.08-1.08 2.75-1.62 5.03-1.62z"/>
				<path class="st0" d="m408.64 261.85h-21.09v10.56h19.37c1.65 0 2.92 0.4 3.78 1.18 0.86 0.8 1.29 1.82 1.29 3.08 0 1.29-0.42 2.34-1.27 3.15-0.86 0.83-2.11 1.23-3.79 1.23h-19.37v12.42h21.85c1.68 0 3 0.42 3.89 1.26 0.91 0.82 1.36 1.93 1.36 3.27 0 1.35-0.46 2.43-1.36 3.27-0.91 0.84-2.21 1.25-3.89 1.25h-26.26c-2.3 0-3.97-0.54-5.02-1.6-1.06-1.09-1.57-2.76-1.57-5.06v-36.2c0-1.49 0.23-2.73 0.69-3.73 0.46-0.99 1.18-1.72 2.18-2.18s2.25-0.69 3.72-0.69h25.5c1.72 0 3.02 0.41 3.9 1.22s1.33 1.85 1.33 3.14c0 1.33-0.45 2.4-1.33 3.22-0.89 0.8-2.19 1.21-3.91 1.21z"/>
				<path class="st0" d="m459.72 287.42c0 3.03-0.78 5.77-2.34 8.21-1.56 2.43-3.83 4.34-6.78 5.69-2.96 1.36-6.46 2.04-10.49 2.04-4.84 0-8.84-0.92-12-2.76-2.26-1.36-4.1-3.15-5.5-5.41s-2.11-4.47-2.11-6.65c0-1.35 0.47-2.49 1.41-3.47 0.93-0.97 2.13-1.46 3.59-1.46 1.18 0 2.18 0.39 2.99 1.14s1.47 1.81 1.99 3.17c0.6 1.52 1.24 2.75 1.9 3.71 0.66 0.97 1.57 1.76 2.75 2.37 1.17 0.61 2.74 0.92 4.72 0.92 2.71 0 4.87-0.62 6.52-1.86 1.65-1.25 2.48-2.78 2.48-4.6 0-1.4-0.44-2.56-1.29-3.44-0.87-0.9-2.03-1.6-3.51-2.1-1.46-0.51-3.46-1.06-6.03-1.63-3.49-0.84-6.4-1.81-8.77-2.93-2.36-1.11-4.25-2.66-5.7-4.64-1.43-1.98-2.15-4.46-2.15-7.39 0-2.76 0.76-5.24 2.24-7.39 1.5-2.17 3.66-3.82 6.49-4.98 2.82-1.16 6.12-1.74 9.86-1.74 3 0 5.59 0.39 7.83 1.16 2.21 0.75 4.06 1.78 5.54 3.05 1.47 1.27 2.56 2.62 3.25 4.04 0.67 1.42 1.02 2.79 1.02 4.15 0 1.33-0.46 2.54-1.4 3.61-0.93 1.07-2.11 1.61-3.53 1.61-1.29 0-2.27-0.34-2.93-0.99-0.67-0.66-1.35-1.65-2.05-2.99-0.82-1.73-1.81-3.07-2.92-3.99-1.13-0.94-2.96-1.4-5.47-1.4-2.35 0-4.2 0.49-5.6 1.49-1.37 1-2.07 2.16-2.07 3.47 0 0.85 0.23 1.58 0.68 2.19 0.44 0.62 1.1 1.15 1.95 1.61 0.85 0.48 1.73 0.85 2.62 1.12 0.88 0.28 2.47 0.69 4.73 1.27 2.6 0.62 5.02 1.32 7.24 2.11 2.23 0.78 4.14 1.73 5.73 2.88 1.59 1.14 2.84 2.6 3.75 4.37 0.9 1.78 1.36 3.92 1.36 6.44z"/>
			
			
				<path class="st4" d="m157.59 405.06h-9.65v6.48h8.06c0.75 0 1.32 0.19 1.68 0.54 0.37 0.35 0.55 0.83 0.55 1.41 0 0.59-0.19 1.05-0.55 1.4-0.38 0.35-0.94 0.52-1.68 0.52h-8.06v8.35c0 1.05-0.23 1.85-0.69 2.36-0.45 0.52-1.04 0.77-1.75 0.77-0.72 0-1.32-0.26-1.78-0.77-0.45-0.52-0.68-1.3-0.68-2.36v-19.5c0-0.74 0.1-1.35 0.32-1.81 0.2-0.46 0.53-0.81 0.98-1.03 0.44-0.21 1.01-0.32 1.71-0.32h11.54c0.78 0 1.36 0.19 1.73 0.55 0.38 0.36 0.58 0.84 0.58 1.43s-0.2 1.08-0.58 1.44c-0.37 0.37-0.95 0.54-1.73 0.54z"/>
				<path class="st4" d="m174.95 416.54h7.22l-3.65-10.46zm9.7 7.03-1.16-3.18h-9.82l-1.16 3.26c-0.45 1.27-0.84 2.12-1.15 2.56-0.32 0.45-0.84 0.67-1.56 0.67-0.62 0-1.16-0.24-1.63-0.71-0.47-0.46-0.71-0.99-0.71-1.6 0-0.35 0.06-0.69 0.16-1.07 0.11-0.36 0.3-0.88 0.55-1.53l6.19-16.46 0.64-1.7c0.25-0.66 0.5-1.21 0.78-1.66 0.29-0.43 0.65-0.78 1.11-1.06 0.45-0.28 1.01-0.4 1.69-0.4s1.24 0.13 1.7 0.4c0.45 0.28 0.83 0.62 1.1 1.04 0.28 0.43 0.52 0.88 0.71 1.38 0.19 0.49 0.44 1.14 0.74 1.97l6.3 16.34c0.51 1.24 0.75 2.16 0.75 2.72 0 0.58-0.23 1.13-0.71 1.62-0.46 0.48-1.03 0.73-1.69 0.73-0.38 0-0.71-0.08-0.98-0.21-0.27-0.15-0.51-0.34-0.69-0.58-0.19-0.25-0.39-0.64-0.59-1.14z"/>
				<path class="st4" d="m205.94 403.76 9.41 14.94v-15.09c0-0.98 0.2-1.71 0.61-2.2 0.39-0.49 0.94-0.74 1.62-0.74 0.69 0 1.26 0.24 1.66 0.74 0.41 0.47 0.61 1.22 0.61 2.2v19.93c0 2.23-0.88 3.33-2.63 3.33-0.44 0-0.84-0.06-1.19-0.19-0.36-0.14-0.68-0.35-1-0.63-0.3-0.29-0.6-0.62-0.85-1.02l-0.79-1.18-9.19-14.76v14.84c0 0.97-0.2 1.7-0.64 2.19s-0.99 0.74-1.65 0.74c-0.7 0-1.26-0.25-1.68-0.75-0.42-0.49-0.62-1.23-0.62-2.18v-19.54c0-0.84 0.09-1.49 0.26-1.95 0.22-0.52 0.57-0.94 1.05-1.27 0.49-0.33 1.01-0.49 1.58-0.49 0.43 0 0.81 0.07 1.12 0.21 0.3 0.16 0.58 0.37 0.83 0.61 0.23 0.26 0.47 0.59 0.72 0.98z"/>
				<path class="st4" d="m262.95 422.44-3.91-15.19-3.96 15.19c-0.31 1.16-0.55 1.98-0.74 2.49-0.17 0.5-0.49 0.95-0.94 1.34-0.45 0.4-1.06 0.59-1.81 0.59-0.59 0-1.1-0.12-1.49-0.35s-0.71-0.58-0.94-1c-0.25-0.43-0.45-0.95-0.59-1.55l-0.42-1.64-4.02-17.05c-0.24-1-0.37-1.75-0.37-2.27 0-0.65 0.22-1.2 0.65-1.67 0.45-0.45 0.98-0.66 1.63-0.66 0.9 0 1.49 0.3 1.81 0.89 0.31 0.59 0.57 1.47 0.79 2.61l3.17 14.79 3.55-13.84c0.26-1.06 0.49-1.87 0.71-2.42 0.2-0.55 0.55-1.02 1.01-1.43 0.48-0.4 1.13-0.61 1.94-0.61 0.82 0 1.46 0.2 1.93 0.62 0.45 0.44 0.77 0.89 0.94 1.38 0.17 0.5 0.42 1.31 0.71 2.46l3.58 13.84 3.17-14.79c0.15-0.77 0.31-1.38 0.44-1.81 0.14-0.43 0.37-0.83 0.71-1.17 0.33-0.35 0.82-0.52 1.46-0.52 0.63 0 1.19 0.21 1.62 0.66 0.45 0.45 0.68 1 0.68 1.67 0 0.48-0.13 1.23-0.38 2.27l-4.02 17.05c-0.27 1.16-0.5 1.99-0.68 2.53s-0.48 1.02-0.92 1.42c-0.43 0.39-1.04 0.59-1.84 0.59-0.75 0-1.35-0.19-1.81-0.58-0.45-0.4-0.75-0.84-0.94-1.33-0.16-0.48-0.4-1.3-0.72-2.51z"/>
				<path class="st4" d="m299.37 405.06h-11.03v6.23h10.15c0.75 0 1.31 0.18 1.67 0.54 0.37 0.35 0.55 0.8 0.55 1.37 0 0.58-0.17 1.05-0.53 1.42-0.38 0.36-0.92 0.54-1.7 0.54h-10.15v7.22h11.41c0.77 0 1.34 0.19 1.74 0.56 0.39 0.38 0.59 0.87 0.59 1.49 0 0.61-0.21 1.09-0.59 1.46-0.39 0.38-0.97 0.57-1.74 0.57h-13.3c-1.07 0-1.84-0.25-2.3-0.74-0.48-0.5-0.71-1.3-0.71-2.42v-19.05c0-0.74 0.1-1.35 0.32-1.81 0.2-0.46 0.54-0.81 0.98-1.03 0.43-0.21 1.01-0.32 1.71-0.32h12.93c0.78 0 1.36 0.19 1.74 0.55s0.56 0.84 0.56 1.43-0.18 1.08-0.56 1.44c-0.38 0.38-0.96 0.55-1.74 0.55z"/>
				<path class="st4" d="m328.3 405.06h-11.04v6.23h10.16c0.75 0 1.32 0.18 1.68 0.54 0.36 0.35 0.55 0.8 0.55 1.37 0 0.58-0.17 1.05-0.53 1.42-0.38 0.36-0.93 0.54-1.7 0.54h-10.16v7.22h11.42c0.76 0 1.34 0.19 1.73 0.56 0.39 0.38 0.59 0.87 0.59 1.49 0 0.61-0.2 1.09-0.59 1.46-0.39 0.38-0.97 0.57-1.73 0.57h-13.31c-1.07 0-1.84-0.25-2.3-0.74-0.48-0.5-0.71-1.3-0.71-2.42v-19.05c0-0.74 0.1-1.35 0.31-1.81s0.54-0.81 0.98-1.03c0.43-0.21 1.02-0.32 1.71-0.32h12.93c0.78 0 1.35 0.19 1.74 0.55 0.37 0.36 0.56 0.84 0.56 1.43s-0.19 1.08-0.56 1.44c-0.38 0.38-0.95 0.55-1.73 0.55z"/>
				<path class="st4" d="m346.22 403.78v8.9l9.62-10.51c0.46-0.5 0.85-0.88 1.17-1.13 0.33-0.25 0.77-0.36 1.3-0.36 0.71 0 1.27 0.21 1.71 0.65s0.65 0.96 0.65 1.58c0 0.75-0.36 1.49-1.1 2.23l-5.96 5.92 6.85 10.3c0.5 0.71 0.86 1.34 1.1 1.88 0.23 0.54 0.36 1.06 0.36 1.56 0 0.57-0.21 1.05-0.63 1.46-0.42 0.42-1 0.62-1.72 0.62-0.68 0-1.24-0.15-1.67-0.45s-0.79-0.71-1.1-1.23l-0.79-1.37-5.79-9.33-4 4.02v5.24c0 1.05-0.24 1.85-0.7 2.36-0.46 0.52-1.06 0.77-1.78 0.77-0.42 0-0.82-0.12-1.2-0.35-0.39-0.22-0.68-0.54-0.9-0.92-0.14-0.32-0.24-0.7-0.28-1.13-0.03-0.42-0.06-1.04-0.06-1.85v-18.84c0-1.04 0.24-1.82 0.67-2.32 0.44-0.52 1.01-0.78 1.77-0.78 0.74 0 1.33 0.26 1.79 0.76 0.45 0.5 0.69 1.28 0.69 2.32z"/>
				<path class="st4" d="m387.59 405.06h-11.03v6.23h10.15c0.75 0 1.32 0.18 1.69 0.54 0.36 0.35 0.55 0.8 0.55 1.37 0 0.58-0.17 1.05-0.54 1.42-0.38 0.36-0.93 0.54-1.69 0.54h-10.15v7.22h11.41c0.77 0 1.35 0.19 1.73 0.56 0.39 0.38 0.6 0.87 0.6 1.49 0 0.61-0.21 1.09-0.6 1.46-0.38 0.38-0.96 0.57-1.73 0.57h-13.31c-1.07 0-1.83-0.25-2.3-0.74-0.47-0.5-0.7-1.3-0.7-2.42v-19.05c0-0.74 0.1-1.35 0.31-1.81s0.54-0.81 0.99-1.03c0.42-0.21 1.01-0.32 1.7-0.32h12.93c0.78 0 1.36 0.19 1.73 0.55s0.56 0.84 0.56 1.43-0.19 1.08-0.56 1.44c-0.38 0.38-0.96 0.55-1.74 0.55z"/>
				<path class="st4" d="m406.98 403.76 9.41 14.94v-15.09c0-0.98 0.21-1.71 0.6-2.2 0.4-0.49 0.94-0.74 1.62-0.74 0.7 0 1.26 0.24 1.66 0.74 0.4 0.47 0.6 1.22 0.6 2.2v19.93c0 2.23-0.88 3.33-2.63 3.33-0.45 0-0.84-0.06-1.19-0.19-0.36-0.14-0.68-0.35-1-0.63-0.31-0.29-0.6-0.62-0.86-1.02l-0.79-1.18-9.19-14.76v14.84c0 0.97-0.2 1.7-0.63 2.19s-0.98 0.74-1.65 0.74c-0.7 0-1.26-0.25-1.68-0.75-0.41-0.49-0.62-1.23-0.62-2.18v-19.54c0-0.84 0.08-1.49 0.26-1.95 0.21-0.52 0.56-0.94 1.04-1.27 0.49-0.33 1.01-0.49 1.58-0.49 0.43 0 0.82 0.07 1.13 0.21 0.3 0.16 0.57 0.37 0.83 0.61 0.23 0.26 0.47 0.59 0.72 0.98z"/>
				<path class="st4" d="m437.33 405.17v17.2h3.72c0.8 0 1.44-0.02 1.91-0.06 0.46-0.04 0.94-0.16 1.43-0.35 0.51-0.18 0.93-0.45 1.29-0.78 1.65-1.45 2.46-3.95 2.46-7.51 0-2.5-0.35-4.36-1.07-5.62-0.72-1.24-1.62-2.02-2.67-2.37-1.05-0.34-2.33-0.51-3.81-0.51zm-1.9-4.08h6.4c1.65 0 3.08 0.16 4.27 0.49 1.18 0.32 2.27 0.93 3.23 1.82 2.52 2.26 3.78 5.68 3.78 10.3 0 1.52-0.12 2.91-0.37 4.17s-0.65 2.4-1.17 3.4c-0.53 1.02-1.21 1.91-2.04 2.71-0.65 0.63-1.36 1.1-2.12 1.47s-1.59 0.62-2.49 0.77c-0.88 0.16-1.87 0.23-2.99 0.23h-6.38c-0.9 0-1.56-0.15-2.01-0.42-0.45-0.29-0.76-0.68-0.88-1.2-0.15-0.51-0.22-1.18-0.22-2v-18.58c0-1.11 0.24-1.91 0.73-2.4 0.45-0.51 1.21-0.76 2.26-0.76z"/>
			
			
				<path class="st0" d="m223.38 354.54c0 1.78-0.44 3.72-1.29 5.78-0.85 2.07-2.18 4.09-3.99 6.08-1.82 1.97-4.12 3.56-6.93 4.78-2.79 1.24-6.04 1.84-9.76 1.84-2.82 0-5.37-0.26-7.65-0.81-2.29-0.55-4.38-1.4-6.29-2.57s-3.71-2.98-5.4-5.41c-1.27-1.17-2.42-2.82-3.41-4.96-1-2.14-1.75-4.41-2.24-6.8-0.5-2.4-0.74-4.95-0.74-7.67 0-4.38 0.62-8.3 1.85-11.76 1.24-3.46 3.03-6.42 5.35-8.9 2.33-2.49 5.06-4.38 8.21-5.69 3.14-1.3 6.5-1.95 10.04-1.95 4.32 0 8.17 0.88 11.55 2.66 3.39 1.78 5.99 3.98 7.81 6.62 1.82 2.65 2.74 5.15 2.74 7.52 0 1.45-0.5 2.71-1.48 3.81-1 1.1-2.2 1.65-3.62 1.65-1.55 0-2.72-0.37-3.47-1.11-0.77-0.76-1.59-1.96-2.46-3.64-1.31-2.53-2.83-4.42-4.58-5.64-1.74-1.23-3.88-1.85-6.44-1.85-4.06 0-7.31 1.61-9.74 4.8-2.44 3.19-3.66 7.81-3.66 13.84 0 4.08 0.55 7.45 1.64 10.08 1.08 2.63 2.6 4.58 4.54 5.86 1.95 1.27 4.24 1.91 6.88 1.91 2.85 0 5.25-0.72 7.2-2.17 1.97-1.45 3.49-3.66 4.54-6.65 0.42-1.32 1.02-2.47 1.77-3.5 0.76-1.01 1.99-1.52 3.72-1.52 1.45 0 2.7 0.52 3.75 1.56 1.04 1.05 1.56 2.32 1.56 3.81z"/>
				<path class="st0" d="m272.89 344.59c0-3.79-0.6-7.05-1.76-9.79-1.19-2.73-2.86-4.8-5.01-6.19-2.17-1.39-4.64-2.08-7.43-2.08-2.01 0-3.85 0.39-5.52 1.16-1.69 0.76-3.14 1.88-4.35 3.34s-2.18 3.36-2.91 5.69c-0.71 2.32-1.07 4.96-1.07 7.88 0 2.96 0.36 5.64 1.08 8.01 0.73 2.38 1.73 4.34 3.01 5.88 1.3 1.53 2.76 2.66 4.41 3.41 1.66 0.75 3.49 1.13 5.48 1.13 2.56 0 4.9-0.65 7.01-1.96 2.13-1.3 3.84-3.34 5.12-6.11 1.28-2.81 1.94-6.25 1.94-10.37zm-14.21-28.08c5.5 0 10.24 1.16 14.23 3.47 3.97 2.31 7 5.6 9.02 9.83 2.04 4.24 3.05 9.18 3.05 14.84 0 4.18-0.57 8.01-1.68 11.47-1.12 3.47-2.79 6.48-5.03 9.03-2.24 2.56-4.99 4.51-8.25 5.86-3.25 1.34-6.97 2.01-11.15 2.01-4.17 0-7.9-0.68-11.2-2.07-3.29-1.37-6.04-3.32-8.27-5.85-2.22-2.53-3.89-5.57-5.02-9.1s-1.69-7.33-1.69-11.41c0-4.17 0.59-8 1.75-11.49 1.17-3.47 2.88-6.46 5.12-8.93s4.98-4.37 8.19-5.69c3.23-1.32 6.87-1.97 10.93-1.97z"/>
				<path class="st0" d="m296.94 349.35v-25.62c0-2.34 0.53-4.12 1.62-5.36 1.08-1.23 2.52-1.85 4.29-1.85 1.85 0 3.33 0.63 4.42 1.87 1.08 1.25 1.63 3.02 1.63 5.35v26.2c0 2.93 0.3 5.33 0.91 7.23 0.61 1.88 1.68 3.33 3.18 4.33 1.52 1.02 3.69 1.52 6.51 1.52 3.85 0 6.57-1.04 8.15-3.12s2.37-5.33 2.37-9.74v-26.41c0-2.36 0.53-4.15 1.6-5.38s2.51-1.84 4.33-1.84c1.79 0 3.24 0.61 4.35 1.84 1.12 1.23 1.68 3.02 1.68 5.38v25.62c0 4.22-0.41 7.78-1.23 10.67s-2.37 5.44-4.65 7.65c-1.97 1.86-4.25 3.22-6.83 4.08-2.59 0.85-5.61 1.27-9.01 1.27-4.08 0-7.59-0.45-10.56-1.36-2.95-0.92-5.4-2.34-7.3-4.28-1.89-1.94-3.28-4.4-4.16-7.39-0.87-3-1.3-6.54-1.3-10.66z"/>
				<path class="st0" d="m376.56 326.99h-8.97v13.19h8.68c2.46 0 4.49-0.2 6.12-0.62 1.6-0.42 2.82-1.12 3.63-2.07s1.21-2.3 1.21-4.03c0-1.32-0.34-2.47-0.99-3.47s-1.55-1.75-2.72-2.26c-1.13-0.5-3.45-0.74-6.96-0.74zm-6.03 22.37h-2.94v16.34c0 2.45-0.56 4.27-1.66 5.49-1.11 1.22-2.55 1.83-4.3 1.83-1.9 0-3.37-0.64-4.44-1.9-1.03-1.27-1.56-3.08-1.56-5.44v-40.97c0-2.5 0.56-4.34 1.71-5.52 1.15-1.17 2.97-1.76 5.46-1.76h17.1c2.34 0 4.39 0.1 6.16 0.32 1.75 0.22 3.42 0.69 4.97 1.43 1.55 0.66 2.99 1.69 4.3 3.07 1.3 1.37 2.3 2.98 2.97 4.78 0.69 1.82 1.03 3.73 1.03 5.73 0 4.16-1.15 7.51-3.45 10.02-2.3 2.5-5.55 4.12-9.72 4.87 1.69 0.46 3.41 1.7 5.13 3.72 1.74 2.02 3.27 4.17 4.61 6.44 1.36 2.27 2.42 4.34 3.19 6.22 0.78 1.88 1.15 3.19 1.15 3.92 0 0.85-0.25 1.68-0.77 2.48-0.5 0.81-1.2 1.44-2.06 1.91-0.85 0.46-1.86 0.68-2.95 0.68-1.35 0-2.46-0.32-3.38-0.95-0.89-0.64-1.62-1.4-2.22-2.29s-1.41-2.23-2.43-3.98l-4.32-8.14c-1.43-1.98-2.72-3.63-3.85-4.93-1.14-1.3-2.27-2.2-3.41-2.66-1.11-0.48-2.56-0.71-4.32-0.71z"/>
				<path class="st0" d="m425.53 349.81h14l-7.07-20.48zm19.46 16.08-2.41-6.53h-20.04l-2.3 6.37c-0.98 2.74-1.88 4.65-2.65 5.71-0.77 1.05-2.05 1.58-3.86 1.58-1.54 0-2.87-0.57-4.02-1.69-1.16-1.13-1.73-2.44-1.73-3.93 0-0.81 0.12-1.61 0.34-2.37 0.25-0.78 0.66-1.9 1.22-3.36l13.27-34.58 1.37-3.6c0.54-1.42 1.11-2.6 1.76-3.59 0.64-0.98 1.51-1.79 2.6-2.43s2.41-0.95 4-0.95 2.93 0.32 4.01 0.95c1.1 0.64 1.97 1.43 2.62 2.4 0.64 0.97 1.15 1.92 1.53 2.88 0.4 0.95 0.89 2.26 1.5 3.92l13.67 34.69c1.1 2.72 1.64 4.71 1.64 5.96 0 1.44-0.57 2.76-1.72 3.93-1.14 1.19-2.53 1.77-4.15 1.77-0.96 0-1.76-0.18-2.46-0.52-0.68-0.36-1.25-0.83-1.71-1.42s-0.93-1.49-1.42-2.69c-0.47-1.21-0.83-2.05-1.06-2.5z"/>
			
			
				<path class="st0" d="m137.29 366.28h21.1v-4.83c0-1.06-0.03-1.88-0.09-2.48-0.04-0.61-0.19-1.23-0.42-1.87-0.23-0.65-0.55-1.2-0.95-1.68-1.78-2.12-4.85-3.19-9.2-3.19-3.08 0-5.36 0.46-6.9 1.4-1.53 0.94-2.5 2.1-2.92 3.47-0.42 1.38-0.62 3.03-0.62 4.98zm-4.99 2.48v-8.32c0-2.15 0.19-4.01 0.6-5.56 0.39-1.55 1.15-2.95 2.23-4.21 2.78-3.28 6.99-4.92 12.64-4.92 1.86 0 3.57 0.18 5.11 0.49 1.54 0.33 2.92 0.84 4.17 1.53 1.23 0.68 2.34 1.56 3.31 2.63 0.75 0.86 1.36 1.76 1.81 2.78 0.45 1 0.77 2.07 0.96 3.23 0.17 1.15 0.27 2.44 0.27 3.89v8.31c0 1.16-0.17 2.03-0.52 2.62-0.35 0.58-0.84 0.97-1.47 1.14-0.62 0.19-1.43 0.28-2.44 0.28h-22.8c-1.36 0-2.34-0.31-2.95-0.92-0.61-0.6-0.92-1.6-0.92-2.97z"/>
				<path class="st0" d="m137.16 319.7v14.35h7.64v-13.22c0-0.97 0.22-1.69 0.65-2.17s1-0.72 1.7-0.72 1.27 0.23 1.72 0.71c0.43 0.48 0.66 1.2 0.66 2.18v13.22h8.85v-14.85c0-1 0.23-1.75 0.69-2.26 0.46-0.5 1.07-0.77 1.82-0.77 0.74 0 1.33 0.26 1.8 0.77 0.46 0.51 0.7 1.26 0.7 2.26v17.33c0 1.39-0.31 2.39-0.91 2.99-0.61 0.61-1.59 0.91-2.95 0.91h-23.38c-0.91 0-1.65-0.14-2.23-0.4-0.56-0.28-0.98-0.71-1.24-1.28-0.26-0.58-0.39-1.32-0.39-2.22v-16.83c0-1.03 0.22-1.78 0.67-2.27s1.03-0.74 1.75-0.74c0.74 0 1.33 0.24 1.78 0.74 0.46 0.49 0.67 1.24 0.67 2.27z"/>
			
			<path class="st5" d="m216.91 530.48-33.18-9.94 2.66-8.42c-1.14-0.19-3.05-1.53-3.05-1.53l7.64-41.29 2.82 0.44 1.75-14.21z"/>
			
				<path class="st6" d="m215.24 461.18c-0.59 0 54.96-12.84 54.96-12.84l1.76 66.08-54.96 18.36s-1.17-71.6-1.76-71.6z"/>
				<polygon class="st7" points="217 532.78 197.51 521.76 195.74 453.84 215.24 461.18"/>
				<polygon class="st8" points="270.2 448.34 215.24 461.18 195.74 453.84 248.92 441"/>
				<path class="st7" d="m227.86 486.4c1.86-12 9.95-20.55 18.09-19.35 0.6 0.08 7.88 2.93 8.45 3.12 7.14 2.33 4.97 9.44 3.59 20.6-1.38 11.06-2.92 22.26-10.46 23-0.82 0.07-6.86-2.55-7.71-2.68-8.51-1.2-13.86-12.38-11.96-24.69z"/>
				<path class="st6" d="m236.39 490.11c1.78-12.25 9.85-21.3 17.99-20.1 8.13 1.2 13.13 12.13 11.22 24.33-1.9 12.08-9.88 20.88-17.88 19.76-8-1.15-13.09-11.82-11.33-23.99z"/>
			
			<path class="st5" d="m277.94 530.48-33.19-9.94 2.67-8.42c-1.14-0.19-3.05-1.53-3.05-1.53l7.63-41.29 2.83 0.44 1.74-14.21z"/>
			
				<path class="st9" d="m277.98 461.18c-0.59 0 54.96-12.84 54.96-12.84l1.77 66.08-54.96 18.36c-0.01 0-1.18-71.6-1.77-71.6z"/>
				<polygon class="st10" points="279.74 532.78 260.25 521.76 258.47 453.84 277.98 461.18"/>
				<polygon class="st11" points="332.94 448.34 277.98 461.18 258.47 453.84 311.66 441"/>
				<path class="st10" d="m290.6 486.4c1.85-12 9.95-20.55 18.09-19.35 0.59 0.08 7.88 2.93 8.44 3.12 7.13 2.33 4.97 9.44 3.59 20.6-1.37 11.06-2.92 22.26-10.46 23-0.83 0.07-6.87-2.55-7.7-2.68-8.52-1.2-13.87-12.38-11.96-24.69z"/>
				<path class="st9" d="m299.14 490.11c1.78-12.25 9.85-21.3 18-20.1 8.12 1.2 13.13 12.13 11.22 24.33-1.89 12.08-9.88 20.88-17.88 19.76-8.01-1.15-13.11-11.82-11.34-23.99z"/>
			
			<path class="st5" d="m343.55 530.48-33.18-9.94 2.66-8.42c-1.14-0.19-3.05-1.53-3.05-1.53l7.63-41.29 2.83 0.44 1.75-14.21z"/>
			
				<path class="st12" d="m343.11 461.18c-0.6 0 54.94-12.84 54.94-12.84l1.78 66.08-54.96 18.36s-1.19-71.6-1.76-71.6z"/>
				<polygon class="st13" points="344.87 532.78 325.38 521.76 323.59 453.84 343.11 461.18"/>
				<polygon class="st14" points="398.05 448.34 343.11 461.18 323.59 453.84 376.79 441"/>
				<path class="st13" d="m355.73 486.4c1.85-12 9.94-20.55 18.09-19.35 0.59 0.08 7.88 2.93 8.45 3.12 7.13 2.33 4.96 9.44 3.59 20.6-1.38 11.06-2.93 22.26-10.46 23-0.84 0.07-6.87-2.55-7.71-2.68-8.52-1.2-13.87-12.38-11.96-24.69z"/>
				<path class="st12" d="m364.26 490.11c1.78-12.25 9.86-21.3 18-20.1 8.12 1.2 13.13 12.13 11.22 24.33-1.89 12.08-9.88 20.88-17.88 19.76-8.02-1.15-13.1-11.82-11.34-23.99z"/>
			
			<path class="st5" d="m407.64 530.48-33.19-9.94 2.67-8.42c-1.14-0.19-3.05-1.53-3.05-1.53l7.64-41.29 2.82 0.44 1.75-14.21z"/>
			
				<path class="st15" d="m405.83 461.18c-0.58 0 54.96-12.84 54.96-12.84l1.78 66.08-54.96 18.36s-1.18-71.6-1.78-71.6z"/>
				<polygon class="st16" points="407.61 532.78 388.11 521.76 386.33 453.84 405.83 461.18"/>
				<polygon class="st17" points="460.79 448.34 405.83 461.18 386.33 453.84 439.52 441"/>
				<path class="st16" d="m418.46 486.4c1.87-12 9.95-20.55 18.1-19.35 0.6 0.08 7.87 2.93 8.43 3.12 7.15 2.33 4.98 9.44 3.61 20.6-1.38 11.06-2.93 22.26-10.46 23-0.84 0.07-6.87-2.55-7.71-2.68-8.52-1.2-13.87-12.38-11.97-24.69z"/>
				<path class="st15" d="m427.01 490.11c1.77-12.25 9.85-21.3 17.99-20.1 8.11 1.2 13.14 12.13 11.22 24.33-1.89 12.08-9.89 20.88-17.89 19.76-8.02-1.15-13.1-11.82-11.32-23.99z"/>
			
		
	
	
		
			
				<path class="st18" d="m144.66 554.07c2.31-0.79 4.82-0.97 7.22-0.52 2.21 0.4 4.3 1.34 6.1 2.67-0.02 0.59-0.01 1.17-0.02 1.76 0.07-0.57 0.01-1.15 0.04-1.73 3.87 2.81 6.22 7.61 5.92 12.41-0.07 4.64-2.47 9.19-6.27 11.86-2.78 1.98-6.29 2.95-9.69 2.6-3.41-0.3-6.68-1.89-9.06-4.35-2.11-2.14-3.5-4.95-4.02-7.9-0.12-0.98-0.3-1.96-0.2-2.95-0.06-2.45 0.61-4.9 1.8-7.04 1.35-2.43 3.43-4.42 5.85-5.76 0.74-0.41 1.53-0.75 2.33-1.05z"/>
				<path class="st19" d="m144.66 554.07c2.31-0.79 4.82-0.97 7.22-0.52-0.34 0.33-0.69 0.65-1.05 0.96-0.32 1.27-0.56 2.56-0.89 3.83-0.66 0.29-1.31 0.58-2.01 0.78-0.5 0.57-0.75 1.3-1.16 1.93-0.26-0.86-0.95-1.82-0.43-2.71 0.32-0.64 0.71-1.26 0.9-1.95-0.19-0.2-0.39-0.39-0.55-0.63-0.22-0.55 0.31-1.07 0.14-1.63-0.2-0.02-0.41-0.03-0.61-0.05-0.19 0.42-0.4 0.84-0.6 1.26-0.25-0.09-0.53-0.1-0.75-0.23-0.04-0.36-0.11-0.7-0.21-1.04zm-8.19 6.8c-1.19 2.13-1.87 4.58-1.8 7.04 0.36 0.58 0.74 1.14 1.11 1.71 0.3 0.53 0.93 0.68 1.43 0.96 1.14 0.53 2.24 1.18 3.41 1.65-0.14 0.65-0.39 1.27-0.54 1.91 0.45 0.54 1.05 0.91 1.54 1.4 0.49 0.48 1.15 0.85 1.36 1.54 0.38 1.12 0.83 2.21 1.23 3.32 0.18 0.47 0.35 0.94 0.52 1.41 0.37 0.09 0.74 0.17 1.11 0.24-0.12-1.63 0.22-3.23 0.4-4.85 0.34-0.11 0.65-0.29 0.94-0.51-0.04-0.96 0.13-1.91 0.26-2.85-1.48-0.87-2.97-1.71-4.45-2.57-0.49-0.3-1.11-0.15-1.64-0.01-0.67 0.13-1.37 0.08-1.95-0.31-0.08-0.25-0.07-0.55-0.24-0.76-0.34-0.13-0.69-0.21-1.03-0.3-0.31-0.08-0.62-0.14-0.94-0.19-0.02-0.65-0.02-1.32 0.15-1.96 0.49-0.11 0.99-0.19 1.5-0.23 0.12 0.35 0.27 0.7 0.44 1.03 0.14 0 0.29 0 0.43 0.01 0.32-0.53 0.14-1.18 0.3-1.75 0.25-0.37 0.64-0.61 0.98-0.88 0.4-0.3 0.77-0.66 1.24-0.86 0.54-0.15 1.09-0.25 1.62-0.42-0.01-0.07-0.04-0.22-0.05-0.29-0.3-0.38-0.58-0.77-0.85-1.17 0.38-0.01 0.75-0.02 1.13-0.03 0.04-0.5 0.08-1.01 0.24-1.49-0.43-0.49-0.85-0.99-1.26-1.5-0.51 0.32-1.01 0.67-1.52 0.99-0.34-0.41-0.71-0.79-1.12-1.13-0.01-0.08-0.02-0.25-0.03-0.34 0.53-0.29 1-0.68 1.54-0.95 0.35-0.05 0.7-0.01 1.05 0 0.24-0.47 0.46-0.94 0.68-1.42 0.25 0.18 0.49 0.39 0.71 0.61-0.36 0.38-0.68 0.8-0.97 1.23 0.33 0.35 0.67 0.68 1.02 1.01 0.36-0.73 0.89-1.41 1.07-2.21-0.2-0.73-0.52-1.42-0.86-2.1-0.6-0.03-1.2-0.12-1.79-0.21-0.44 0.61-0.86 1.23-1.28 1.86-0.3 0.21-0.62-0.16-0.93-0.2 0.43-0.71 1.1-1.21 1.65-1.81l0.04-0.36c-2.43 1.32-4.5 3.32-5.85 5.74zm21.52-4.62c-0.02 0.58 0.03 1.16-0.04 1.73l-0.42 0.39c-0.13-0.01-0.27-0.01-0.4-0.02-0.47-0.34-0.96-0.65-1.46-0.96-0.17-0.09-0.33-0.23-0.53-0.22-0.31 0.17-0.59 0.39-0.88 0.6-0.07 0.16-0.14 0.32-0.22 0.48-0.1 0.61-0.25 1.2-0.5 1.77-0.61 0.33-0.21 0.23-0.3 0.36-0.08 0.29-0.07 0.57 0.02 0.86 0.4 0.12 0.82 0.21 1.24 0.26 0.36-0.83 0.4-1.73 0.41-2.62 0.21 0 0.42 0.01 0.63 0.01-0.13 0.48-0.19 0.97-0.21 1.46 0.25 0.08 0.5 0.16 0.74 0.24-0.28 0.44-0.55 0.89-0.82 1.34-0.56 0.13-1.13 0.21-1.71 0.22-0.28 0.22-0.56 0.45-0.83 0.69-0.13-0.6-0.36-1.18-0.6-1.75-0.29 0.01-0.58 0.02-0.87 0.03 0.01 0.67 0.04 1.34 0.08 2.01 0.35 0.01 0.7 0.02 1.05 0.01-0.15 0.15-0.31 0.3-0.44 0.47-0.07 0.33 0.13 0.63 0.26 0.91-0.32-0.01-0.65-0.03-0.97-0.04-0.24 0.32-0.39 0.7-0.49 1.09 0.46 0.3 1 0.37 1.54 0.33 0.3-0.42 0.59-0.86 0.96-1.23 0.34 0.01 0.66 0.17 0.95 0.35 0.18 0.24 0.14 0.57 0.2 0.85 0.61 0.01 1.22-0.01 1.83-0.02 0-0.14 0.01-0.43 0.01-0.57 0.53 0.15 1.05 0.34 1.56 0.54-0.06 0.36-0.14 0.72-0.21 1.07-0.67-0.16-1.34-0.31-2.03-0.39-0.08 0.17-0.17 0.33-0.25 0.5-0.26-0.03-0.51-0.05-0.76-0.07-0.31-0.29-0.5-0.67-0.64-1.07-0.45 0.05-0.89 0.12-1.33 0.21-0.29 0.14-0.59 0.25-0.9 0.34-0.52 0.35-0.76 0.95-1.07 1.47-0.26 0.48-0.59 0.93-0.79 1.45-0.03 0.42 0.08 0.84 0.13 1.25 0.45 0.47 0.89 0.94 1.28 1.47 0.58-0.05 1.13-0.23 1.7-0.33 0.46-0.11 0.87 0.17 1.28 0.32 0.21 0.97 0.08 1.97 0.21 2.95 0.07 0.57 0.13 1.15 0.31 1.7 0.29 0.63 0.52 1.3 0.72 1.96 0.62-0.2 1.42-0.27 1.78-0.89 0.6-0.99 1.09-2.05 1.75-3-0.06-0.45-0.15-0.88-0.23-1.33 0.63-0.92 1.46-1.73 1.86-2.79-0.43 0.01-0.86 0.04-1.28 0-0.2-0.18-0.29-0.44-0.42-0.67-0.38-0.8-0.83-1.57-1.23-2.37 0.14-0.07 0.41-0.21 0.55-0.28 0.47 0.94 0.88 1.91 1.29 2.89 0.96-0.43 1.74-1.15 2.63-1.71-0.76-0.47-1.47-1.03-2.26-1.47 0.99 0.21 1.98 0.45 2.95 0.75 0.45 0.17 0.8 0.52 1.08 0.9 0.31-4.81-2.03-9.62-5.91-12.43z"/>
				<path class="st20" d="m151.88 553.55c2.21 0.4 4.3 1.35 6.1 2.67-0.02 0.59-0.01 1.17-0.02 1.76l-0.42 0.39c-0.13-0.01-0.27-0.01-0.4-0.02-0.47-0.34-0.96-0.65-1.46-0.96-0.17-0.09-0.33-0.23-0.53-0.22-0.31 0.17-0.59 0.39-0.88 0.6-0.07 0.16-0.14 0.32-0.22 0.48-0.1 0.61-0.25 1.2-0.5 1.77-0.14 0.08-0.25 0.2-0.3 0.36-0.09 0.3-0.07 0.57 0.02 0.86 0.4 0.12 0.82 0.21 1.24 0.26 0.36-0.83 0.4-1.73 0.41-2.62 0.21 0 0.42 0.01 0.63 0.01-0.13 0.48-0.19 0.97-0.21 1.46 0.25 0.08 0.5 0.16 0.74 0.24-0.28 0.44-0.55 0.89-0.82 1.34-0.56 0.13-1.13 0.21-1.71 0.22-0.28 0.22-0.56 0.45-0.83 0.69-0.13-0.6-0.36-1.18-0.6-1.75-0.29 0.01-0.58 0.02-0.87 0.03 0.01 0.67 0.04 1.34 0.08 2.01 0.35 0.01 0.7 0.02 1.05 0.01-0.15 0.15-0.31 0.3-0.44 0.47-0.07 0.33 0.13 0.63 0.26 0.91-0.32-0.01-0.65-0.03-0.97-0.04-0.24 0.32-0.39 0.7-0.49 1.09 0.46 0.3 1 0.37 1.54 0.33 0.3-0.42 0.59-0.86 0.96-1.23 0.34 0.01 0.66 0.17 0.95 0.35 0.18 0.24 0.14 0.57 0.2 0.85 0.61 0.01 1.22-0.01 1.83-0.02 0-0.14 0.01-0.43 0.01-0.57 0.53 0.15 1.05 0.34 1.56 0.54-0.06 0.36-0.14 0.72-0.21 1.07-0.67-0.16-1.34-0.31-2.03-0.39-0.08 0.17-0.17 0.33-0.25 0.5-0.26-0.03-0.51-0.05-0.76-0.07-0.31-0.29-0.5-0.67-0.64-1.07-0.45 0.05-0.89 0.12-1.33 0.21-0.29 0.14-0.59 0.25-0.9 0.34-0.52 0.35-0.76 0.95-1.07 1.47-0.26 0.48-0.59 0.93-0.79 1.45-0.03 0.42 0.08 0.84 0.13 1.25 0.45 0.47 0.89 0.94 1.28 1.47 0.58-0.05 1.13-0.23 1.7-0.33 0.46-0.11 0.87 0.17 1.28 0.32 0.21 0.97 0.08 1.97 0.21 2.95 0.07 0.57 0.13 1.15 0.31 1.7 0.29 0.63 0.52 1.3 0.72 1.96 0.62-0.2 1.42-0.27 1.78-0.89 0.6-0.99 1.09-2.05 1.75-3-0.06-0.45-0.15-0.88-0.23-1.33 0.63-0.92 1.46-1.73 1.86-2.79-0.43 0.01-0.86 0.04-1.28 0-0.2-0.18-0.29-0.44-0.42-0.67-0.38-0.8-0.83-1.57-1.23-2.37 0.14-0.07 0.41-0.21 0.55-0.28 0.47 0.94 0.88 1.91 1.29 2.89 0.96-0.43 1.74-1.15 2.63-1.71-0.76-0.47-1.47-1.03-2.26-1.47 0.99 0.21 1.98 0.45 2.95 0.75 0.45 0.17 0.8 0.52 1.08 0.9-0.07 4.65-2.47 9.19-6.27 11.86-2.78 1.98-6.29 2.95-9.69 2.6-3.41-0.3-6.68-1.89-9.06-4.35-2.11-2.14-3.5-4.95-4.02-7.9-0.12-0.98-0.3-1.96-0.2-2.95 0.36 0.58 0.74 1.14 1.11 1.71 0.3 0.53 0.93 0.68 1.43 0.96 1.14 0.53 2.24 1.18 3.41 1.65-0.14 0.65-0.39 1.27-0.54 1.91 0.45 0.54 1.05 0.91 1.54 1.4 0.49 0.48 1.15 0.85 1.36 1.54 0.38 1.12 0.83 2.21 1.23 3.32 0.18 0.47 0.35 0.94 0.52 1.41 0.37 0.09 0.74 0.17 1.11 0.24-0.12-1.63 0.22-3.23 0.4-4.85 0.34-0.11 0.65-0.29 0.94-0.51-0.04-0.96 0.13-1.91 0.26-2.85-1.48-0.87-2.97-1.71-4.45-2.57-0.49-0.3-1.11-0.15-1.64-0.01-0.67 0.13-1.37 0.08-1.95-0.31-0.08-0.25-0.07-0.55-0.24-0.76-0.34-0.13-0.69-0.21-1.03-0.3-0.31-0.08-0.62-0.14-0.94-0.19-0.02-0.65-0.02-1.32 0.15-1.96 0.49-0.11 0.99-0.19 1.5-0.23 0.12 0.35 0.27 0.7 0.44 1.03 0.14 0 0.29 0 0.43 0.01 0.32-0.53 0.14-1.18 0.3-1.75 0.25-0.37 0.64-0.61 0.98-0.88 0.4-0.3 0.77-0.66 1.24-0.86 0.54-0.15 1.09-0.25 1.62-0.42-0.01-0.07-0.04-0.22-0.05-0.29-0.3-0.38-0.58-0.77-0.85-1.17 0.38-0.01 0.75-0.02 1.13-0.03 0.04-0.5 0.08-1.01 0.24-1.49-0.43-0.49-0.85-0.99-1.26-1.5-0.51 0.32-1.01 0.67-1.52 0.99-0.34-0.41-0.71-0.79-1.12-1.13-0.01-0.08-0.02-0.25-0.03-0.34 0.53-0.29 1-0.68 1.54-0.95 0.35-0.05 0.7-0.01 1.05 0 0.24-0.47 0.46-0.94 0.68-1.42 0.25 0.18 0.49 0.39 0.71 0.61-0.36 0.38-0.68 0.8-0.97 1.23 0.33 0.35 0.67 0.68 1.02 1.01 0.36-0.73 0.89-1.41 1.07-2.21-0.2-0.73-0.52-1.42-0.86-2.1-0.6-0.03-1.2-0.12-1.79-0.21-0.44 0.61-0.86 1.23-1.28 1.86-0.3 0.21-0.62-0.16-0.93-0.2 0.43-0.71 1.1-1.21 1.65-1.81l0.04-0.36c0.76-0.4 1.54-0.74 2.34-1.04 0.1 0.34 0.17 0.68 0.21 1.03 0.22 0.13 0.51 0.14 0.75 0.23 0.21-0.42 0.41-0.84 0.6-1.26 0.2 0.02 0.41 0.03 0.61 0.05 0.16 0.56-0.36 1.08-0.14 1.63 0.16 0.23 0.36 0.42 0.55 0.63-0.19 0.7-0.58 1.31-0.9 1.95-0.51 0.89 0.18 1.85 0.43 2.71 0.41-0.63 0.66-1.36 1.16-1.93 0.69-0.19 1.35-0.49 2.01-0.78 0.33-1.27 0.57-2.56 0.89-3.83 0.36-0.35 0.71-0.67 1.05-1z"/>
			
			<path class="st20" d="m199.38 583.41h-8.73v-16.59c0-4.63-1.57-6.94-4.71-6.94-1.51 0-2.76 0.61-3.74 1.83s-1.48 2.79-1.48 4.67v17.03h-8.75v-29.86h8.75v4.73h0.11c2.09-3.64 5.13-5.45 9.12-5.45 6.28 0 9.42 4.1 9.42 12.3v18.28z"/>
			<rect class="st20" x="206.31" y="539.21" width="8.75" height="44.21"/>
			<path class="st20" d="m226.86 548.82c-1.48 0-2.69-0.46-3.62-1.38-0.95-0.93-1.42-2.05-1.42-3.39 0-1.38 0.47-2.51 1.42-3.38 0.94-0.88 2.15-1.31 3.62-1.31 1.5 0 2.71 0.44 3.65 1.31 0.93 0.88 1.4 2 1.4 3.38 0 1.39-0.47 2.55-1.4 3.44-0.94 0.88-2.15 1.33-3.65 1.33zm4.32 34.59h-8.75v-29.86h8.75z"/>
			<path class="st20" d="m265.95 583.41h-8.73v-16.59c0-4.63-1.57-6.94-4.71-6.94-1.51 0-2.76 0.61-3.74 1.83s-1.48 2.79-1.48 4.67v17.03h-8.75v-29.86h8.75v4.73h0.11c2.09-3.64 5.13-5.45 9.12-5.45 6.28 0 9.42 4.1 9.42 12.3v18.28z"/>
			<path class="st20" d="m298.37 571.11h-18.51c0.29 4.33 2.89 6.5 7.78 6.5 3.12 0 5.86-0.78 8.23-2.33v6.65c-2.62 1.47-6.02 2.21-10.22 2.21-4.58 0-8.13-1.33-10.67-4.01-2.52-2.67-3.79-6.4-3.79-11.18 0-4.96 1.36-8.89 4.1-11.79 2.73-2.9 6.09-4.34 10.08-4.34 4.13 0 7.34 1.29 9.6 3.87 2.26 2.59 3.39 6.1 3.39 10.53v3.89zm-8.12-5.66c0-4.27-1.65-6.41-4.94-6.41-1.4 0-2.62 0.61-3.64 1.83-1.03 1.22-1.65 2.76-1.87 4.58z"/>
			<path class="st20" d="m344.61 571.11h-18.51c0.29 4.33 2.89 6.5 7.78 6.5 3.12 0 5.86-0.78 8.23-2.33v6.65c-2.62 1.47-6.02 2.21-10.22 2.21-4.58 0-8.13-1.33-10.67-4.01-2.52-2.67-3.79-6.4-3.79-11.18 0-4.96 1.36-8.89 4.1-11.79 2.73-2.9 6.09-4.34 10.08-4.34 4.13 0 7.34 1.29 9.6 3.87 2.26 2.59 3.39 6.1 3.39 10.53v3.89zm-8.11-5.66c0-4.27-1.65-6.41-4.94-6.41-1.4 0-2.62 0.61-3.64 1.83-1.03 1.22-1.65 2.76-1.87 4.58z"/>
			<path class="st20" d="m376.83 553.55-10.55 29.86h-9.98l-10.05-29.86h9.36l4.93 18.41c0.56 2.08 0.88 3.84 0.97 5.31h0.11c0.12-1.38 0.47-3.1 1.02-5.14l5.04-18.57h9.15z"/>
			<path class="st20" d="m405.5 571.11h-18.51c0.29 4.33 2.89 6.5 7.78 6.5 3.12 0 5.86-0.78 8.23-2.33v6.65c-2.62 1.47-6.02 2.21-10.22 2.21-4.58 0-8.13-1.33-10.67-4.01-2.52-2.67-3.79-6.4-3.79-11.18 0-4.96 1.36-8.89 4.1-11.79 2.73-2.9 6.09-4.34 10.08-4.34 4.13 0 7.34 1.29 9.6 3.87 2.26 2.59 3.4 6.1 3.4 10.53zm-8.11-5.66c0-4.27-1.65-6.41-4.94-6.41-1.4 0-2.62 0.61-3.64 1.83-1.03 1.22-1.65 2.76-1.87 4.58z"/>
			<path class="st20" d="m438.11 583.41h-8.73v-16.59c0-4.63-1.57-6.94-4.71-6.94-1.51 0-2.76 0.61-3.74 1.83s-1.48 2.79-1.48 4.67v17.03h-8.75v-29.86h8.75v4.73h0.11c2.09-3.64 5.13-5.45 9.12-5.45 6.28 0 9.42 4.1 9.42 12.3v18.28z"/>
			<path class="st20" d="m462.18 583.06c-1.3 0.72-3.24 1.08-5.84 1.08-6.17 0-9.26-3.37-9.26-10.11v-13.68h-4.6v-6.8h4.6v-6.44l8.73-2.63v9.07h6.37v6.8h-6.37v12.07c0 3.11 1.17 4.66 3.52 4.66 0.93 0 1.88-0.28 2.86-0.85v6.83z"/>
		
		<path class="st21" d="m152.98 567.88 15.14 15.14c0.2 0.2 0.26 0.49 0.15 0.75s-0.36 0.42-0.64 0.42h-5.57l1.25 2.71c0.15 0.33 0.02 0.72-0.3 0.89l-3.36 1.82c-0.16 0.09-0.35 0.11-0.53 0.05-0.18-0.05-0.32-0.17-0.41-0.33l-1.8-3.36-3.97 3.55c-0.13 0.11-0.29 0.17-0.46 0.17-0.1 0-0.19-0.02-0.28-0.06-0.25-0.11-0.41-0.36-0.41-0.63v-20.64c0-0.28 0.17-0.53 0.42-0.64 0.28-0.1 0.57-0.04 0.77 0.16z"/>
	
</g>
</svg>
