<svg xmlns="http://www.w3.org/2000/svg" xmlns:xlink="http://www.w3.org/1999/xlink" width="1692.843" height="1357.845" viewBox="1754 161 24740.405 20746.3" version="1" id="svg2">
    <style id="style4371">
        .airport-label{font-size:1742.9831543px;-inkscape-font-specification:sans-serif;fill-opacity:1;font-weight:400;stroke:none;font-stretch:normal;font-variant:normal;font-family:sans-serif;font-style:normal;fill:#666}
    </style>
    <g transform="translate(95609.666 -68564.349)" id="main" fill="none">
        <path d="M-90183.963 86119.579c-107.467-836.146-329.375-939.351 220.634-1627.322 100.956-119.701 42.726-333.362 150.68-413.578 35.985-26.742 999.83-217.923 692.952-570.772-76.719-88.212-246.144 104.71-355.349 62.978-112.705-61.472-120.953-222.905-181.43-334.355-60.477-111.454-84.968-249.645-181.429-334.358-26.739-35.985-138.192 24.492-145.189-14.992 34.733-148.688 155.43-271.889 190.163-420.578 76.467-257.893-227.655-20.739 58.972-356.601 254.138-289.383 655.969-319.876 604.484-840.157-6.998-39.483-427.575-229.648-534.532-373.585-163.936-235.648-99.219-674.716-106.217-714.201-23.241-16.241-447.57-572.253-451.07-591.994-26.739-35.986 62.724 9.244 102.208 2.246 188.172 27.738 310.121 26.486 494.793 34.48 475.053 37.977 580.757 59.965 737.185-436.079 178.417-601.751-82.722-351.852-215.422-755.93-125.703-364.597 517.778-295.384 488.537-575.266-15.245-200.916-200.915 15.247-124.452-242.646 12.746-42.984 91.713-56.979 100.956-119.703 34.736-148.688 10.244-286.88 5.491-428.571-8.248-161.43 82.212-340.358 34.479-494.793l-261.647-442.312c48.728-69.721 207.913 24.237 279.883-29.242l337.601-507.792c268.134-210.415 817.403-328.124 898.364-790.431 48.471-415.828-457.814-285.374-599.505-280.625-102.207-2.247-57.488-783.92-143.453-809.409-410.081-130.939-457.555 60.733-943.105-36.471-85.965-25.487-101.211-226.404-257.893-76.464-32.487 46.483 63.974 131.195 31.489 177.675-234.397 285.886-579.506 61.984-661.972 56.237-85.963-25.489-167.18 90.714-233.402 61.727-42.98-12.744 107.953-80.218 61.474-112.701-33.738-75.469-135.944-77.718-214.911-63.723-121.949 1.253-253.144 65.228-375.094 66.478-23.237-16.241 9.246-62.724 2.249-102.206-3.498-19.742 2.248-102.208-13.995-78.967-95.208 37.236-283.127 355.605-481.797 268.644-533.278-251.635 380.586-495.048 101.7-689.962-46.482-32.487-118.449 20.993-164.932-11.494-26.738-35.984 57.972-132.445 14.994-145.187-369.348-15.988-841.897 189.932-1110.031 400.348-4.495 204.414-480.542 390.594-330.603 547.276 96.461 84.712 326.364 3.244 386.839 114.697 56.978 91.709-220.657 18.743-265.886 108.207-86.961 198.668 83.23 1044.062 161.201 1254.223 10.496 59.225 112.703 61.473 126.698 140.439 39.738 339.108-63.463 561.016-152.672 861.892-38.232 128.946-249.391 431.072-114.697 386.838 131.192-63.974 78.71-360.098 209.905-424.075 95.211-37.234 189.425 149.687 163.935 235.649-74.216 155.686-361.096 145.445-431.814 320.872-96.206 261.393-126.19 551.772-242.137 816.662-41.73 109.206-149.684 189.424-112.447 284.632 17.495 98.71 202.166 106.704 259.143 198.414 26.739 35.986-119.701-100.956-171.927-50.976-88.214 76.72-99.705 241.651-157.68 374.095-141.436 350.856-288.617 784.178-476.533 1102.545-45.23 89.464-160.181 130.199-221.654 242.903-16.242 23.241 112.702 61.473 76.72 88.211-150.937 67.475-372.846-35.728-454.061 80.473-81.214 116.204 124.453 242.648 105.963 368.094-24.238 207.914-469.537 1142.032-375.325 1328.95 63.977 131.195 183.677 232.15 287.137 356.347 256.898 300.62 205.92 472.549 205.92 472.549 164.93 11.492 339.107-39.738 493.543-87.47 78.967-13.996 100.956-119.701 183.422-113.956 78.964-13.995 139.443 97.457 241.648 99.705 62.725 9.246 13.74-267.139 63.72-214.911 76.721 88.212 2.503 243.898 55.982 315.868 73.221 68.47 356.602 58.969 284.633 112.449-487.54 351.107-290.634-376.09-714.455-239.891-114.95 40.736 169.682 153.183 226.659 244.895 40.737 114.952 45.484 256.643 50.233 398.332 6.005 263.639-287.62 560.02-252.632 757.436 13.996 78.967 142.942 117.199 156.938 196.167 44.234 134.694-127.44 429.821 17.75 444.814 39.484-6.998 167.18-90.715 134.693-44.234-28.987 66.222-154.434 47.732-183.422 113.956-63.72 214.911 37.491 441.314-26.228 656.225-50.977 171.928-409.316 907.375-331.346 1117.537 33.739 75.469 143.937-106.958 222.904-120.954 114.951-40.734 240.4-22.243 355.351-62.978 59.225-10.497 107.953-80.218 170.677-70.973 329.862 22.987 1475.392 512.264 1610.083 468.03 59.227-10.497 618.735-415.085 654.72-441.825l256.641-45.485z" class="eu europe" id="pt" stroke="#fff" stroke-width="111.916" fill="#ccc"/>
        <path id="es" d="M-71771.627 72247.864c148.689 34.732 313.619 46.224 426.323 107.697 46.482 32.486 104.709 246.146 219.663 205.411 154.432-47.733 275.131-170.932 452.806-202.422 197.418-34.988 603.001 300.367 789.922 206.153 75.469-33.738-31.49-177.676 20.738-227.656 261.137-249.9 647.975-135.203 977.84-112.217l78.967-13.996c116.2 81.215 212.662 165.928 194.172 291.375-11.494 164.93-275.131 170.932-356.348 287.134-64.97 92.963 331.37 491.042 193.434 861.637-60.223 234.654-849.634 720.71-1069.04 861.407-203.163 117.454-524.776 255.899-658.219 422.082-104.455 99.96-229.646 427.575-400.324 498.548-636.229 316.375-1864.964 391.612-2321.015 920.398-117.2 142.942-376.088 290.635-305.116 461.313 83.717 127.696 376.344 55.47 381.095 197.16 10.496 59.226-577.004 305.882-612.99 332.62-205.411 219.661-224.897 569.265-387.325 801.671-451.301 670.474-1083.778 1352.7-1309.67 2146.121-105.45 324.117 279.651 1233.228 502.81 1458.381 73.222 68.471 877.139 353.589 720.456 503.528-117.198 142.942-445.808 241.907-566.507 365.106-32.485 46.482-14.991 145.19-50.974 171.93-32.487 46.48-102.208-2.248-141.692 4.75-150.937 67.474-325.114 118.705-445.811 241.905-48.729 69.721 15.249 200.916-53.223 274.136-52.226 49.981-164.93-11.492-197.417 34.988-61.471 112.706 25.744 260.14-19.485 349.604-64.972 92.963-236.902 41.987-278.633 151.191-57.972 132.445 91.966 289.127 53.734 418.076-87.957 422.822-523.78 31.742-431.559 666.976 27.991 157.934 354.354 161.178 339.363 306.365-34.733 148.689-255.391 167.437-416.823 175.684-98.709 17.493-214.913-63.721-317.118-65.967-435.569-44.974-894.124 239.914-1207.487 539.791-542.015 503.298-405.561 1273.223-981.314 1701.054-212.408 180.175-406.836-457.304-971.096-194.406-111.452 60.478-142.687 228.907-273.881 292.883-167.179 90.715-641.233-171.42-822.408-159.672-247.398-17.239-479.545 166.438-743.186 172.44-145.19-14.993-245.15-119.447-390.338-134.439-274.136-53.223-1470.385-24.469-1680.547 53.503-226.404 101.211-292.371 418.329-492.036 555.524-294.872 174.433-752.686-110.943-1148.516 183.191-323.859 240.655-256.387 391.589-388.577 679.72-16.243 23.242-155.686-74.215-224.157-.994-100.955 119.7-171.673 295.128-319.11 382.344-55.725 30.237-80.216-107.954-146.442-136.941-89.461-45.229-211.41-43.978-281.131-92.708-96.462-84.713-140.696-219.406-253.399-280.876-69.721-48.729-177.675 31.489-247.397-17.239-162.684-113.701-475.562-730.19-550.033-920.607-3.499-19.742 345.108 223.9 274.137 53.223-10.496-59.225-118.451 20.992-145.19-14.991-26.74-35.985 64.972-92.963 38.232-128.947-118.705-325.112-344.854 122.205-426.579-453.803 0 0 706.947-491.805 522.274-499.8-164.932-11.492-204.159 341.608-369.092 330.118-141.689 4.749-124.45-242.648-204.668-350.601s-176.679-192.667-273.14-277.38l-623.995-418.814-6.997-39.485c-12.744 42.983-28.988 66.224-68.471 73.221-114.951 40.735-202.167-106.701-311.372-148.434-85.964-25.488-451.81-21.734-708.452 23.751-107.469-836.146-329.377-939.35 220.632-1627.321 100.957-119.702 42.728-333.363 150.681-413.579 35.985-26.742 999.829-217.923 692.952-570.772-76.72-88.212-246.145 104.71-355.35 62.978-112.704-61.472-120.953-222.905-181.43-334.355-60.476-111.453-84.968-249.645-181.429-334.358-26.738-35.986-138.192 24.492-145.189-14.992 34.734-148.688 155.431-271.889 190.163-420.577 76.467-257.894-227.654-20.739 58.972-356.601 254.138-289.383 655.969-319.876 604.484-840.157-6.997-39.484-427.575-229.648-534.532-373.586-163.935-235.648-99.219-674.716-106.217-714.2-23.24-16.242-447.57-572.254-451.07-591.995-26.738-35.985 62.724 9.245 102.208 2.247 188.172 27.737 310.121 26.485 494.793 34.48 475.053 37.976 580.758 59.964 737.185-436.08 178.418-601.751-82.722-351.852-215.422-755.93-125.703-364.596 517.778-295.384 488.537-575.265-15.245-200.917-200.915 15.246-124.452-242.647 12.746-42.984 91.713-56.979 100.956-119.703 34.736-148.688 10.244-286.88 5.492-428.571-8.248-161.43 82.211-340.358 34.478-494.792l-261.647-442.313c48.729-69.721 207.914 24.237 279.883-29.242l337.601-507.791c268.134-210.415 817.403-328.125 898.364-790.432 48.471-415.828-457.814-285.374-599.505-280.624-102.207-2.248-57.488-783.92-143.452-809.409-410.082-130.94-457.556 60.732-943.106-36.471-85.965-25.488-101.211-226.404-257.893-76.465-32.486 46.484 63.975 131.195 31.489 177.676-234.397 285.885-579.506 61.983-661.972 56.236-85.963-25.488-167.179 90.715-233.402 61.728-42.979-12.745 107.953-80.218 61.474-112.702-33.738-75.469-135.943-77.718-214.911-63.723-121.949 1.254-253.143 65.229-375.092 66.478-23.239-16.24 9.245-62.724 2.248-102.205-3.499-19.743 2.248-102.209-13.996-78.968-95.208 37.236-283.127 355.605-481.795 268.644-533.28-251.635 380.584-495.047 101.698-689.962-46.482-32.486-118.449 20.993-164.932-11.493-26.738-35.985 57.975-132.445 14.994-145.188-369.348-15.988-841.897 189.932-1110.031 400.349 11.493-164.933-230.159-264.638-258.148-422.57-30.239-55.725 112.703 61.473 145.19 14.991 35.984-26.738-56.978-91.71-44.234-134.693 7.994-184.673 314.616-177.93 431.812-320.872 35.987-26.739 97.459-139.443 41.734-109.205-114.953 40.736-212.41 180.179-327.361 220.912-95.208 37.236-166.181-133.441-101.21-226.403 104.453-99.961 371.592-86.218 386.585-231.408-1.253-121.949-249.645 84.967-355.351 62.979-85.964-25.491-162.684-113.7-196.42-189.169-54.731-193.919 188.171 27.736 204.415 4.496 25.488-85.965-31.489-177.675 13.74-267.139 41.731-109.206 215.906-160.436 214.657-282.383-72.737-984.84-666.469 260.648-992.348-658.961-233.911-630.483 353.846-531.033 356.093-633.24 9.247-62.724-157.934 27.991-224.156-.997-26.74-35.984 45.229-89.462 64.971-92.962 210.163-77.971 339.109-39.739 493.542-87.471 506.287-130.453 1120.273-687.229 1559.083-968.617 163.681-110.457 315.612-402.087 514.281-315.126 89.463 45.229-65.968 317.118 36.238 319.366 161.434-8.248 211.157-302.127 369.091-330.118 533.027-94.468 657.988 840.389 1172.523 871.368 102.207 2.248 103.203-221.909 205.411-219.661 577.258 40.225 284.633 112.448 851.395 93.448 141.69-4.749 387.835-109.459 509.784-110.711 125.447 18.492 205.666 126.445 324.117 105.452 157.933-27.992 261.137-249.9 426.066-238.408 145.191 14.993 206.918 248.393 342.863 326.108 135.945 77.717 351.852-82.72 491.293 14.737 46.481 32.486-61.473 112.704-18.488 125.447 49.978 52.229 143.936-106.957 210.159-77.969 553.023 248.137 1948.194 652.448 2564.683 339.569 35.983-26.74 21.987-105.704 57.972-132.446 75.468-33.737 157.934-27.99 236.901-41.985 161.432-8.248 569.009-121.209 729.444 94.698 3.5 19.742-9.244 62.724-25.487 85.966 164.933 11.493 672.723 349.095 830.658 321.104 59.224-10.496-63.974-131.195-31.49-177.675 28.987-66.223 104.455-99.961 179.923-133.698 558.512-180.431 193.919-54.729 479.803 179.667 92.96 64.972 229.901-81.467 319.365-36.238 128.947 38.231 212.663 165.927 321.868 207.657 281.134 92.707 830.402-25.001 1188-190.189 139.442 97.458 391.589 256.388 391.589 256.388 42.983 12.745 5.746-82.465 25.489-85.965 102.207 2.248 227.655 20.74 300.875 89.209 212.662 165.927-317.86 504.293-40.224 577.259 125.448 18.49 205.411-219.662 251.892-187.175 26.739 35.984-14.992 145.188 31.489 177.675 321.869 207.657 738.692 31.975 1030.32 183.908 23.241 16.243 301.131 435.312 320.874 431.814 291.629 151.932 485.293-248.903 803.662-60.987 159.185 93.959 105.961 368.096 362.603 322.61 121.949-1.25 179.923-133.699 301.872-134.948 121.95-1.251 205.665 126.446 327.614 125.192 59.225-10.497 38.232-128.947 97.457-139.443 193.918-54.731 399.585 71.714 620.243 52.97 0 0-179.184-436.565 64.714-439.068 346.106-.255 585.51 201.658 837.654 360.586 23.242 16.243 78.968-13.996 118.451-20.993 102.209 2.248 220.658-18.745 290.38 29.983 112.703 61.473 84.968 249.646 194.172 291.376l3.499 19.742c-63.72 214.909-54.219 498.291 526.283 212.154z" fill="#ececec" stroke="#fff" stroke-width="111.916"/>
        <text class="airport-label" x="-91714.984" y="72702.203" id="text-vigo">
            <tspan id="tspan10544-5" x="-91714.984" y="72702.203" style="-inkscape-font-specification:sans-serif" font-size="601.443" fill="#666" font-family="sans-serif" font-weight="400">Vigo</tspan>
        </text>
        <text class="airport-label" id="text-santiago" y="70735.031" x="-90973.586">
            <tspan id="tspan3425" style="-inkscape-font-specification:sans-serif" y="70735.031" x="-90973.586" font-size="601.443" fill="#666" font-family="sans-serif" font-weight="400">Santiago de </tspan><tspan id="tspan3429" style="-inkscape-font-specification:sans-serif" y="71486.836" x="-90973.586" font-size="601.443" fill="#666" font-family="sans-serif" font-weight="400">Compostela</tspan>
        </text>
        <text class="airport-label" x="-91855.914" y="75506.594" id="text-porto">
            <tspan id="tspan10544" x="-91855.914" y="75506.594" style="-inkscape-font-specification:sans-serif" font-size="601.443" fill="#666" font-family="sans-serif" font-weight="400">Porto</tspan>
        </text>
        <text class="airport-label" id="text-lisbon" y="81852.922" x="-93302.094">
            <tspan style="-inkscape-font-specification:sans-serif" y="81852.922" x="-93302.094" id="tspan7819" font-size="601.443" fill="#666" font-family="sans-serif" font-weight="400">Lisboa</tspan>
        </text>
        <path d="M-93298.507 81573.618c23.157 98.552-19.52 207.891-102.771 265.536-81.28 58.95-197.438 63.294-282.676 10.238-85.606-50.242-135.552-153.105-122.395-251.367 11.329-101.335 88.744-191.319 187.695-217.075 95.621-27.64 204.919 7.161 267.356 84.336 25.914 31.23 44.118 68.712 52.791 108.332z" id="path3469" fill="#666" fill-rule="evenodd" stroke-width="8"/>
        <path id="path4561" style="line-height:125%" d="M-93470.044 81516.348q93.035-93.034 103-63.129 6.643 19.937-69.774 96.354l9.966 73.097 16.617-9.971q4.985-4.985 9.968 0 8.307 8.306 1.66 14.953l-24.918 24.918 8.308 48.175 14.948-11.625q6.646-3.324 11.63 1.66 6.645 6.645 0 13.292l-23.257 26.58 6.646 49.836q1.661 8.307-3.324 13.293l-18.272 18.271-46.513-119.614q-11.633-34.882-29.907-53.156-13.29-13.29-29.9 3.32-33.227 33.227-79.739 69.771l9.966 73.097-19.934 26.579-34.889-68.109q-9.97 6.647-18.278 11.633 4.985-8.308 11.633-18.278l-69.771-36.551 28.241-18.273 73.097 9.967q38.205-44.851 69.771-79.739 18.271-14.949 3.32-29.9-18.274-18.274-54.818-31.568l-117.952-44.852 18.271-18.272q6.647-6.647 13.293-3.325l49.836 6.647 26.58-23.257q6.647-6.647 13.292 0 4.983 4.984 1.66 11.63l-9.964 16.609 46.513 6.647 26.58-23.257q8.308-4.985 13.292 0 4.984 4.984 0 9.969l-9.971 16.616 73.096 9.967z" font-weight="400" font-size="601.443" font-family="Sans" letter-spacing="0" word-spacing="0" fill="#ececec"/>
        <path id="drop-pin" stroke-miterlimit="10" d="M-91852.989 73671.711c-19.12-93.859-52.832-171.969-93.664-244.359-30.287-53.697-65.373-103.26-97.836-155.333-10.837-17.383-20.189-35.747-30.602-53.787-20.822-36.073-37.704-77.896-36.631-132.149 1.048-53.007 16.378-95.528 38.486-130.294 36.359-57.181 97.262-104.063 178.98-116.383 66.814-10.074 129.457 6.945 173.88 32.921 36.299 21.227 64.412 49.581 85.778 82.999 22.304 34.877 37.662 76.083 38.95 129.83.66 27.536-3.847 53.036-10.201 74.188-6.426 21.41-16.764 39.307-25.962 58.424-17.958 37.316-40.468 71.508-63.063 105.717-67.293 101.904-130.454 205.825-158.115 348.226z" clip-rule="evenodd" fill="#ff6f00" fill-rule="evenodd" stroke-width="122.231"/>
        <circle id="circle3436" cx="-91853.68" cy="73084.992" r="90.423" clip-rule="evenodd" fill="#fff" fill-rule="evenodd"/>
        <use xlink:href="#path3469" id="use9235" transform="translate(2303.542 -10686.05)" width="100%" height="100%"/>
        <use xlink:href="#path4561" id="use9225" transform="translate(2303.542 -10686.05)" width="100%" height="100%"/>
        <use xlink:href="#path3469" id="use9237" transform="translate(1446.18 -6336.495)" width="100%" height="100%"/>
        <use xlink:href="#path4561" id="use9229" transform="translate(1446.18 -6336.495)" width="100%" height="100%"/>
        <use xlink:href="#path3469" id="use9233" transform="translate(1536.01 -9138.537)" width="100%" height="100%"/>
        <use xlink:href="#path4561" id="use9231" transform="translate(1536.01 -9138.537)" width="100%" height="100%"/>
    </g>
</svg>
