<svg version="1.1" viewBox="0 0 360.84 284.1" xml:space="preserve" xmlns="http://www.w3.org/2000/svg" xmlns:xlink="http://www.w3.org/1999/xlink">
<style type="text/css">
	.st0{clip-path:url(#SVGID_2_);}
	.st1{fill-rule:evenodd;clip-rule:evenodd;fill:#5F3813;}
	.st2{fill-rule:evenodd;clip-rule:evenodd;fill:#42200A;}
	.st3{fill-rule:evenodd;clip-rule:evenodd;fill:#A4896C;}
	.st4{fill-rule:evenodd;clip-rule:evenodd;fill:#B89A79;}
	.st5{fill-rule:evenodd;clip-rule:evenodd;fill:#FFFFFF;}
	.st6{fill-rule:evenodd;clip-rule:evenodd;fill:#EBEAE6;}
	.st7{fill-rule:evenodd;clip-rule:evenodd;fill:#C0C0C0;}
	.st8{fill-rule:evenodd;clip-rule:evenodd;fill:#A3A2A2;}
	.st9{fill-rule:evenodd;clip-rule:evenodd;fill:#A48D71;}
	.st10{fill-rule:evenodd;clip-rule:evenodd;fill:#EA2325;}
	.st11{fill-rule:evenodd;clip-rule:evenodd;fill:#B6EEFC;}
	.st12{fill-rule:evenodd;clip-rule:evenodd;fill:#C92128;}
	.st13{fill-rule:evenodd;clip-rule:evenodd;fill:#333331;}
	.st14{fill-rule:evenodd;clip-rule:evenodd;fill:#251B1B;}
	.st15{fill-rule:evenodd;clip-rule:evenodd;fill:#C92027;}
	.st16{fill-rule:evenodd;clip-rule:evenodd;fill:#181818;}
	.st17{fill-rule:evenodd;clip-rule:evenodd;fill:#FFDF2A;}
	.st18{fill-rule:evenodd;clip-rule:evenodd;fill:#010202;}
	.st19{fill-rule:evenodd;clip-rule:evenodd;fill:#F7971F;}
	.st20{fill-rule:evenodd;clip-rule:evenodd;fill:#1E1E1E;}
	.st21{fill-rule:evenodd;clip-rule:evenodd;fill:#006837;}
	.st22{fill-rule:evenodd;clip-rule:evenodd;fill:#101110;}
	.st23{fill-rule:evenodd;clip-rule:evenodd;fill:#21242C;}
	.st24{fill-rule:evenodd;clip-rule:evenodd;fill:#004220;}
	.st25{fill-rule:evenodd;clip-rule:evenodd;fill:#154030;}
	.st26{fill-rule:evenodd;clip-rule:evenodd;fill:#42060E;}
	.st27{fill-rule:evenodd;clip-rule:evenodd;fill:#B0B1AC;}
	.st28{fill-rule:evenodd;clip-rule:evenodd;fill:#FFFF00;}
	.st29{fill-rule:evenodd;clip-rule:evenodd;fill:#FF0000;}
	.st30{fill-rule:evenodd;clip-rule:evenodd;fill:#0000FF;}
	.st31{fill-rule:evenodd;clip-rule:evenodd;fill:#7B7B79;}
	.st32{fill-rule:evenodd;clip-rule:evenodd;}
	.st33{fill-rule:evenodd;clip-rule:evenodd;fill:#C6B199;}
	.st34{fill-rule:evenodd;clip-rule:evenodd;fill:#00381B;}
	.st35{fill-rule:evenodd;clip-rule:evenodd;fill:#DBF8FD;}
	.st36{fill-rule:evenodd;clip-rule:evenodd;fill:#352B21;}
	.st37{fill-rule:evenodd;clip-rule:evenodd;fill:#372C21;}
	.st38{fill-rule:evenodd;clip-rule:evenodd;fill:#2F2A25;}
	
		.st39{fill-rule:evenodd;clip-rule:evenodd;fill:none;stroke:#2B2A29;stroke-width:0.5669;stroke-linecap:round;stroke-linejoin:round;stroke-miterlimit:22.9256;}
</style>
<g transform="translate(-121.75 -247.54)">
	<defs>
		<rect id="SVGID_1_" x="-88.2" y="203.01" width="595.28" height="841.89"/>
	</defs>
	<clipPath id="SVGID_2_">
		<use width="100%" height="100%" xlink:href="#SVGID_1_"/>
	</clipPath>
	<g class="st0" clip-path="url(#SVGID_2_)">
		
			
				<path class="st1" d="m184.38 254.38c3.66-3.35 8.38-5.41 13.25-6.23 4.51-0.94 9.19-0.71 13.7 0.13 7.3 1.46 14.24 4.31 20.92 7.52 0.36 1.41 0.67 2.84 0.8 4.29-2.72-1.04-5.29-2.42-8-3.46-4.31-1.72-8.74-3.21-13.31-4.05-5.84-0.94-11.98-0.97-17.63 1-3.15 1.14-6.19 2.71-8.7 4.96-5.33 4.65-8.59 11.38-9.64 18.32-0.25 1.93-0.42 3.87-0.62 5.81-0.07-0.32-0.21-0.97-0.29-1.29-0.63-4.82-0.19-9.82 1.43-14.41 1.57-4.79 4.28-9.26 8.09-12.59z"/>
				<path class="st1" d="m189.56 394.19c2.35-6.94 8.32-12.72 15.59-14.18 6.21-1.47 12.78-0.55 18.71 1.65 1.93 0.68 3.88 1.31 5.77 2.1 1.49 0.73 3.03 1.38 4.52 2.12 0.33 1.09 0.61 2.21 0.65 3.36-2.85-0.94-5.51-2.36-8.32-3.39-3.98-1.47-8.12-2.67-12.37-2.92-5.41-0.42-11.08 0.66-15.59 3.78-3.51 2.36-6.16 5.85-7.78 9.72-1.64 3.71-2.2 7.79-2.25 11.82-1.24-4.65-0.46-9.58 1.07-14.06z"/>
				<path class="st2" d="m194.1 253.58c5.65-1.96 11.78-1.93 17.63-1 4.57 0.83 9.01 2.32 13.31 4.05 2.71 1.05 5.29 2.43 8 3.46-0.39 0.59-1.02 0.94-1.65 1.22-17.06 6.89-34.1 13.84-51.14 20.78-1.56 0.67-3.12 1.42-4.81 1.7-0.07-0.28-0.22-0.84-0.29-1.11 0.2-1.94 0.37-3.88 0.62-5.81 1.05-6.94 4.31-13.67 9.64-18.32 2.5-2.26 5.54-3.83 8.69-4.97z"/>
				<path class="st2" d="m198.52 386.71c4.52-3.12 10.18-4.2 15.59-3.78 4.26 0.25 8.39 1.45 12.37 2.92 2.81 1.03 5.47 2.45 8.32 3.39-0.22 0.31-0.45 0.62-0.69 0.91-15.25 6.04-30.37 12.4-45.62 18.44v-0.34c0.04-4.03 0.61-8.11 2.25-11.82 1.62-3.88 4.27-7.37 7.78-9.72z"/>
				<path class="st2" d="m480.84 372.97c0.1-1.25-0.05-2.51-0.16-3.76 1.35 1.58 1.95 3.7 1.91 5.76-0.2 2.8-1.78 5.32-3.76 7.23-2.23 2.33-5.1 3.88-7.9 5.41-4.37 2.15-9.02 3.72-13.76 4.85-8.12 2.28-16.63 2.06-24.97 1.77 0.18-0.56 0.35-1.13 0.54-1.69 4.47-1.64 8.82-3.57 13.24-5.33 11.26-4.53 22.47-9.19 33.75-13.67 0.38-0.16 0.75-0.35 1.11-0.57z"/>
				<path class="st2" d="m122.9 445.39c1.64-1.03 3.5-1.66 5.41-1.95 2.52-0.39 5.04-0.93 7.61-0.9-3.18 1.86-6.33 3.81-9.24 6.09-0.89 0.53-1.75 1.18-2.77 1.43-1.05-0.28-2.06-1.27-1.91-2.42 0.14-0.8 0.53-1.54 0.9-2.25z"/>
				<path class="st2" d="m432.99 475.92c1.63 1.81 2.56 4.39 1.96 6.81-0.49 2.3-2.06 4.2-3.89 5.6-3.91 3.04-8.49 5.18-13.25 6.49-1.24 0.28-2.47 0.58-3.68 0.95-1.71 0.51-3.47 0.85-5.25 0.94-1.14 0.05-2.27 0.13-3.39 0.33-0.69 0.11-1.33 0.38-2 0.54-1.37-1.31-2.82-2.56-4.51-3.43 2.02-0.69 3.98-1.55 5.96-2.37 7.15-2.91 14.31-5.77 21.44-8.72 2.39-1.03 4.91-1.79 7.21-3.01v-0.96c-0.11-1.08-0.32-2.14-0.6-3.17z"/>
				<path class="st3" d="m232.25 255.8c0.28 0.1 0.5 0.26 0.66 0.49 0.12 1.19 0.09 2.43 0.56 3.55 0.4 0.54 1.02 0.84 1.59 1.15 5.85 2.75 11.65 5.6 17.47 8.43 1.37 0.64 2.74 1.32 3.95 2.24l0.29 0.22c-2.94 1.46-6.07 2.51-9.08 3.82-8.54 3.38-17 6.96-25.53 10.37-12.93 5.19-25.79 10.56-38.75 15.7-1.05-0.97-1.76-2.22-2.52-3.41-2.78-4.46-4.68-9.42-5.83-14.54-0.19-0.8-0.27-1.62-0.21-2.43 0.07 0.32 0.22 0.97 0.29 1.29 0.07 0.28 0.22 0.83 0.29 1.11 1.69-0.28 3.25-1.04 4.81-1.7 17.04-6.93 34.08-13.88 51.14-20.78 0.63-0.28 1.26-0.63 1.65-1.22-0.11-1.45-0.42-2.88-0.78-4.29z"/>
				<path class="st3" d="m268.66 291.31c5-2.13 10.09-4.05 15.08-6.22 2.88 0.85 5.43 2.47 8.13 3.74 4.99 2.37 9.9 4.9 14.9 7.22 0.66 0.27 1.16 0.8 1.59 1.35-12.21 4.8-24.26 9.98-36.48 14.72 0.22-5.2 0.42-10.4 0.76-15.59 0.02-1.16 0.17-2.46-0.54-3.46-0.99-1.41-3.33-1.22-4.34 0.06-0.52 0.93-0.53 2.03-0.62 3.06-0.14 3.08-0.25 6.15-0.42 9.23-0.19 3.09-0.15 6.19-0.63 9.26-3.93 1.29-7.65 3.08-11.5 4.58-3.37 1.31-6.68 2.75-10.09 3.96-0.45-1.7-0.85-3.41-1.11-5.14-0.69-4.47-1.61-8.9-2.14-13.4-0.13-0.83 0-1.68 0.4-2.42 9.02-3.61 17.99-7.35 27.01-10.95z"/>
				<path class="st3" d="m212.19 314.23c7.62-3.01 15.15-6.25 22.8-9.2-0.71 5.86-1.53 11.71-2.36 17.55-0.23 2.07-0.52 4.14-1.18 6.12-2.53 0.94-5 2.03-7.52 3.01-0.6 0.02-1.13-0.32-1.66-0.56-5.56-3-11.1-6.04-16.43-9.41-1.54-1-3.2-1.87-4.51-3.17 3.67-1.32 7.23-2.92 10.86-4.34z"/>
				<path class="st3" d="m326.21 314.23c3.05-1.22 6.13-2.37 9.07-3.84 0.15-0.02 0.46-0.07 0.61-0.1 1.99 0.76 3.89 1.7 5.81 2.62 14.62 6.82 29.27 13.59 44.16 19.8-1.62 4.88-2.78 9.89-3.74 14.94-0.66-0.86-1.8-0.51-2.7-0.4-3.13 0.55-6.2 1.46-9.11 2.74 0.6-3.89 1.27-7.76 1.99-11.63 0.17-1.29 0.49-2.76-0.26-3.92-0.9-1.35-3.1-1.35-4.13-0.16-0.63 0.91-0.77 2.04-0.98 3.1-0.51 3.18-1.07 6.34-1.6 9.51-0.35 1.79-0.79 3.61-0.5 5.45-5.04 2.03-10.42 3.05-15.76 3.93-4.9 0.82-9.87 1.08-14.83 0.99-1.46-0.14-2.68 0.71-3.82 1.49-1.49-1.58-2.89-3.22-4.23-4.91 3.33-2.17 6.97-3.83 10.31-5.99-1.5-1.49-3.07-3.03-4.99-3.99-2.98-0.38-6 0.06-8.98-0.38-1.37-4.72-4.13-8.91-7.49-12.45-1.66-1.72-3.91-2.67-6.05-3.64-2.87-1.29-5.89-2.26-8.99-2.81 1.88-0.31 3.64-1.06 5.36-1.83 6.93-2.88 13.91-5.65 20.85-8.52z"/>
				<path class="st3" d="m270.96 336.57c3.62-1.18 7.04-2.9 10.68-4.02-0.99 1.65-1.67 3.46-2.61 5.15-0.61 1.1-1.09 2.26-1.37 3.49-1.22 5.1-1.75 10.55-0.18 15.64-2.07-1.76-4.9-2.09-7.18-3.49 0.36-5.59 0.25-11.19 0.66-16.77z"/>
				<path class="st3" d="m251.15 344.78c4.59-1.83 9.1-3.86 13.76-5.52 0.22 1.17 0.42 2.36 0.34 3.57-0.17 2.79-0.08 5.59-0.5 8.36-4.05-1.55-7.99-3.39-11.97-5.12-0.6-0.32-1.45-0.52-1.63-1.29z"/>
				<path class="st3" d="m283.46 358.65c0.69-3.93 3.45-7.55 7.32-8.77 2.27 1.19 4.07 3.12 5.36 5.3 0.81 1.86 1.51 3.77 2.35 5.61 0.79 1.96 2.9 2.73 4.55 3.79-0.5 0.25-0.99 0.51-1.48 0.75-2.76-1.31-5.73-2.05-8.58-3.14-3.16-1.19-6.39-2.24-9.52-3.54z"/>
				<path class="st3" d="m389.45 335.01c3.53 1.01 6.82 2.69 10.24 4.02 5.65 2.23 11.26 4.58 16.96 6.71 1.05 0.41 2.06 0.9 3.08 1.37-2.73 1.48-5.68 2.51-8.51 3.78-3.75-2.3-7.88-4.42-12.37-4.56-0.06-1.36 0-2.82-0.69-4.04-0.54-0.92-1.79-1.08-2.69-0.63-2.03 0.97-3.34 2.97-5.38 3.92-1.84-3.2-1.65-7.14-0.64-10.57z"/>
				<path class="st3" d="m324.3 361.78c1.2-0.08 2.4-0.12 3.61-0.09-2.14 2.93-3.49 6.33-5.28 9.46-0.5-2.13-0.54-4.4-1.56-6.37 0.76-0.36 1.56-0.67 2.25-1.17 0.47-0.51 0.66-1.21 0.98-1.83z"/>
				<path class="st3" d="m188.49 408.59c15.25-6.04 30.37-12.41 45.62-18.44 1.19-0.23 2.44-0.21 3.53 0.38 4.19 2.04 8.35 4.13 12.56 6.13 1.13 0.62 2.62 1.11 3.04 2.47-2.99 1.38-6.1 2.47-9.11 3.78-16.38 6.55-32.66 13.36-49.06 19.87-0.69-0.29-1-1.04-1.41-1.62-2.35-3.88-4.44-8.05-5.17-12.57z"/>
				<path class="st3" d="m421.67 360.16c5.33-2.29 10.73-4.39 16.07-6.66 3.25 0.28 6.24 1.73 9.26 2.85 0.37 1.68 0.81 3.36 0.92 5.08-1 0.48-2.02 0.93-3.05 1.35-0.87-0.17-2.15-0.98-2.7 0.1-0.59 0.77-1.26 1.52-2.2 1.86-2.95 1.23-5.93 2.35-8.89 3.53-1.48-1.18-2.58-2.73-3.9-4.08-1.66-1.57-3.59-2.81-5.51-4.03z"/>
				<path class="st3" d="m471.64 365.21c3.48 1.16 5.99 3.94 8.76 6.2-0.09-1.09-0.22-2.17-0.39-3.25 0.23 0.34 0.51 0.66 0.68 1.04 0.11 1.25 0.26 2.5 0.16 3.76-0.36 0.22-0.73 0.41-1.11 0.58-11.28 4.48-22.49 9.14-33.75 13.67-4.42 1.76-8.77 3.7-13.24 5.33-0.13-0.06-0.39-0.17-0.52-0.22 0.2-1.05 0.65-2.03 1-3.03 0.79-2.11 0.94-4.39 1.54-6.54 1-0.12 2.11-0.05 3.01-0.59 1.25-1.13 1.42-3 2.63-4.17l0.64 0.16c1.23 1.04 1.8 2.68 3.1 3.64 0.91 0.37 2.24 0.01 2.5-1.05 0.51-1.72 0.32-3.54 0.32-5.31 2.28-1.01 4.61-1.89 6.9-2.86 0.83 2.27 1.37 5.05 3.67 6.34 0.89-2.54 0.2-5.23-0.14-7.81 1.97-0.78 3.94-1.58 5.9-2.41 2.77-1.18 5.65-2.09 8.34-3.48z"/>
				<path class="st3" d="m275.43 409.44c3.43 1.56 6.76 3.31 10.16 4.92 3.2 1.65 6.53 3.04 9.65 4.86-1.94 1.14-4.13 1.77-6.2 2.65-17.04 6.93-34.07 13.88-51.12 20.78-3.52 1.45-7.03 2.94-10.6 4.28-6.09-3.21-12.2-6.46-17.82-10.47 8.08-3.53 16.3-6.72 24.45-10.07 8.86-3.51 17.63-7.25 26.49-10.76 4.99-2.1 10.07-3.96 14.99-6.19z"/>
				<path class="st3" d="m297.61 437.71c6.52-2.54 12.92-5.39 19.47-7.84 1.17 0.39 2.32 0.83 3.44 1.37 4.45 2.18 8.98 4.19 13.46 6.29 2.88 1.24 5.66 2.72 8.63 3.77-0.07 3.17-0.31 6.34-0.2 9.51 0.05 5.95 0.59 11.88 0.79 17.82 0.07 1.67 0.28 3.33 0.57 4.98-1.87 0.48-3.75 1.05-5.39 2.09-2.1 1.25-3.81 3.01-5.45 4.79-2.69 1.04-5.33 2.21-8.02 3.26-0.65 0.22-1.33 0.02-1.97-0.11-4.35-1.05-8.62-2.42-12.92-3.67-4.93-1.46-9.91-2.78-14.77-4.49-4.66-1.45-9.2-3.24-13.87-4.67-5.65-2.06-11.24-4.27-16.85-6.45-5.42-2.32-10.83-4.65-16.21-7.04 2.64-0.41 5.03-1.67 7.5-2.64 13.94-5.62 27.84-11.36 41.79-16.97z"/>
				<path class="st3" d="m356.22 470.67c0.94-7.51 2.19-14.98 3.07-22.49 3.58 2 7.5 3.28 11.26 4.91 2.47 1.01 4.91 2.11 7.53 2.7 0.67 1.87 1.22 3.78 1.64 5.73-3.2 1.13-6.28 2.57-9.45 3.77-3.4 1.38-6.81 2.71-10.17 4.17-1.26 0.52-2.57 0.88-3.88 1.21z"/>
				<path class="st3" d="m399.33 464.16c4.33 1.22 8.51 2.94 12.84 4.16l0.08 0.34c-6.68 2.79-13.34 5.68-20.15 8.15-0.55-2.99-1.18-5.97-1.88-8.93 2.94-1.01 5.87-2.09 8.63-3.52 0.13-0.05 0.36-0.15 0.48-0.2z"/>
				<path class="st3" d="m358.92 480.72c7.82-3.08 15.57-6.33 23.36-9.5 0.89 2.9 1.64 5.85 2.38 8.79-6.63 2.57-13.19 5.36-19.83 7.94-0.9 0.31-1.63 0.94-2.14 1.74-0.61-3.22-1.98-6.24-3.77-8.97z"/>
				<path class="st3" d="m416.78 477.76c3.16-1.22 6.25-2.65 9.46-3.77 2.96 0.86 4.99 3.28 7.35 5.1v0.96c-2.3 1.22-4.82 1.97-7.21 3.01-7.13 2.95-14.29 5.82-21.44 8.72-1.98 0.82-3.94 1.68-5.96 2.37-1.15-0.33-2.35-0.57-3.39-1.18-0.8-1.93-0.88-4.06-1.31-6.08 7.47-3.08 15.01-6.06 22.5-9.13z"/>
				<path class="st3" d="m376.19 494.35c3.62-1.7 7.4-3.02 11.07-4.61 0.44 1.59 1.1 3.19 1.04 4.87-0.67 0.62-1.46 1.1-2.22 1.6-2.18-0.25-4.32-0.71-6.49-0.93-1.16-0.17-2.43-0.18-3.4-0.93z"/>
				<path class="st4" d="m233.46 259.83c-0.47-1.12-0.43-2.36-0.56-3.55 1.71 0.54 3.27 1.44 4.88 2.21 5.22 2.51 10.41 5.1 15.63 7.62 0.85 0.43 1.79 0.74 2.54 1.36 0.03 1.41 0.13 2.82 0.53 4.18-1.21-0.92-2.58-1.6-3.95-2.24-5.82-2.82-11.62-5.67-17.47-8.43-0.58-0.31-1.2-0.61-1.6-1.15z"/>
				<path class="st4" d="m283.42 284.93c-0.27-1.34-0.38-2.71-0.45-4.08 1.74 0.53 3.31 1.48 4.95 2.26 5.72 2.82 11.44 5.64 17.16 8.43 1.01 0.5 2.09 0.9 2.97 1.61 0.25 1.41 0.47 2.82 0.76 4.22-0.12 0-0.35 0.01-0.46 0.01-0.44-0.55-0.94-1.07-1.59-1.35-5-2.32-9.92-4.85-14.9-7.22-2.7-1.27-5.24-2.89-8.13-3.74z"/>
				<path class="st4" d="m335.9 310.29c-0.22-1.34-0.37-2.69-0.47-4.04 1.07 0.36 2.08 0.89 3.09 1.39 15.03 7.04 30.11 14 45.4 20.46 1.1 0.51 2.22 0.99 3.35 1.47-0.47 1.04-0.94 2.08-1.4 3.13-14.89-6.21-29.55-12.98-44.16-19.8-1.92-0.91-3.83-1.85-5.81-2.61z"/>
				<path class="st4" d="m390.74 331.14c1.93 0.67 3.82 1.45 5.7 2.25 7.63 3.21 15.38 6.15 23.08 9.22 0.26 1.45 0.5 2.91 0.8 4.37-0.15 0.03-0.45 0.1-0.59 0.14-1.02-0.47-2.03-0.96-3.08-1.37-5.69-2.13-11.3-4.48-16.96-6.71-3.41-1.33-6.7-3.01-10.24-4.02 0.34-1.32 0.8-2.61 1.29-3.88z"/>
				<path class="st4" d="m436.86 348.94c3.75 1.31 7.51 2.55 11.25 3.85-0.45 0.18-0.88 0.38-1.3 0.6-0.1 0.99 0.05 1.98 0.18 2.96-3.02-1.12-6.01-2.57-9.26-2.85l-0.07-0.33c-0.23-1.42-0.46-2.84-0.8-4.23z"/>
				<path class="st4" d="m234.15 385.88c5.69 2.77 11.37 5.56 17.06 8.32 0.65 0.35 1.29 0.71 1.95 1.05 0.23 1.19 0.46 2.39 0.74 3.57-0.16 0.07-0.49 0.23-0.65 0.3-0.42-1.36-1.91-1.85-3.04-2.47-4.21-2-8.37-4.08-12.56-6.13-1.09-0.59-2.35-0.61-3.53-0.38 0.24-0.29 0.47-0.6 0.69-0.91-0.05-1.14-0.33-2.26-0.66-3.35z"/>
				<path class="st4" d="m470.56 360.69c2.32 0.98 4.37 2.5 6.28 4.13 1.15 1.02 2.33 2.06 3.17 3.36 0.16 1.08 0.29 2.16 0.39 3.25-2.76-2.26-5.28-5.04-8.76-6.2-0.09-0.14-0.28-0.4-0.37-0.54-0.21-1.35-0.41-2.69-0.71-4z"/>
				<path class="st4" d="m274.7 405.8c4.06 1.88 8.02 3.94 12.05 5.89 2.81 1.4 5.67 2.71 8.43 4.22 0.15 1.04 0.33 2.08 0.3 3.14l-0.24 0.17c-3.12-1.82-6.45-3.2-9.65-4.86-3.4-1.61-6.74-3.36-10.16-4.92l-0.3-0.18c-0.15-1.16-0.28-2.31-0.43-3.46z"/>
				<path class="st4" d="m316.92 426.28c6.94 3.29 13.91 6.53 20.9 9.7 1.62 0.77 3.41 1.27 4.85 2.38 0.13 0.98 0 1.96-0.05 2.94-2.97-1.05-5.74-2.53-8.63-3.77-4.49-2.1-9.01-4.11-13.46-6.29-1.12-0.54-2.27-0.98-3.44-1.37v-0.31c0.02-1.09-0.02-2.2-0.17-3.28z"/>
				<path class="st4" d="m359.29 448.17c0.11-0.88 0.26-1.75 0.39-2.63 3.12 1.31 6.25 2.6 9.36 3.92 2.71 1.22 5.49 2.25 8.27 3.31 0.25 1 0.49 2 0.76 3.01-2.61-0.59-5.06-1.69-7.53-2.7-3.75-1.62-7.67-2.9-11.25-4.91z"/>
				<path class="st4" d="m398.69 460.89c1.46 0.49 2.97 0.81 4.44 1.27 2.68 1.4 5.71 1.9 8.46 3.12 0.22 1 0.4 2.03 0.58 3.05-4.33-1.22-8.51-2.94-12.84-4.16-0.23-1.1-0.42-2.19-0.64-3.28z"/>
				<path class="st4" d="m425.41 470.11c2.9 1.36 5.43 3.44 7.58 5.8 0.28 1.04 0.49 2.1 0.6 3.17-2.36-1.82-4.39-4.24-7.35-5.1l-0.2-0.84c-0.2-1-0.38-2.02-0.63-3.03z"/>
				<path class="st5" d="m256.47 271.65c-0.39-1.36-0.5-2.77-0.53-4.18 8.32 3.97 16.51 8.19 24.83 12.16 0.7 0.42 1.7 0.57 2.19 1.23 0.07 1.36 0.18 2.73 0.45 4.08-7.16-3.61-14.42-7.05-21.58-10.68-1.67-0.84-3.37-1.62-5.08-2.39z"/>
				<path class="st5" d="m308.06 293.17c8.75 3.99 17.28 8.46 26.05 12.4 0.44 0.21 0.9 0.41 1.32 0.69 0.09 1.35 0.24 2.7 0.47 4.04-0.15 0.03-0.46 0.07-0.61 0.1-0.91-0.54-1.81-1.1-2.76-1.58-7.94-3.72-15.82-7.57-23.7-11.42-0.3-1.41-0.52-2.83-0.77-4.23z"/>
				<path class="st5" d="m387.27 329.59c1.5-2.48 3.18-5.19 6.1-6.13-0.37 2.71-1.76 5.13-2.64 7.69-0.49 1.27-0.95 2.55-1.28 3.87-1.01 3.43-1.2 7.37 0.63 10.57 2.04-0.95 3.35-2.95 5.38-3.92 0.89-0.45 2.15-0.29 2.69 0.63 0.69 1.22 0.63 2.68 0.69 4.04-0.32 2.19-0.54 4.39-0.75 6.59-0.2 2.04-0.48 4.14 0.03 6.16 0.19 0.69 0.52 1.51 1.29 1.71 1.02 0.27 2.1-0.22 2.75-1.01 1.53-1.82 2.06-4.25 3.55-6.1 0.8-0.99 2.24-1.49 3.46-1.07 1.57 0.73 2.15 2.5 2.68 4.01 0.56 1.72 0.96 3.49 1.62 5.17 0.25 0.6 0.54 1.25 1.11 1.64 1.51 0.23 3.35-0.27 4.49 1.06 2.55 2.54 4.46 5.82 5.19 9.35l-0.11 0.34c-1.42-1.67-2.58-3.58-4.2-5.08-1.31-1.21-3.32-0.63-4.78-1.48-1.56-1.53-1.88-3.9-3.43-5.43-1.26-1.19-3.47-0.91-4.49 0.46-2.12 2.71-2.52 6.39-4.75 9.03-0.91 1.07-2.57 1.63-3.86 0.95-1.17-0.68-1.68-2.01-2.2-3.19-1.56-4.51-1.39-9.34-2.46-13.94-2.51 1.4-4.1 3.99-6.66 5.33-0.59 0.32-1.26 0.47-1.92 0.42-0.34-0.75-0.59-1.53-0.9-2.29-0.89 0.34-1.63 0.99-2.15 1.78-1.5 2.03-2.31 4.46-2.92 6.89 0.02-4.99 0.86-9.91 1.5-14.85 0.4-1.72 0.82-3.43 1.19-5.16 0.96-5.05 2.12-10.06 3.74-14.94 0.47-1.02 0.94-2.06 1.41-3.1z"/>
				<path class="st5" d="m306.42 343.66c1.49-0.66 3.42-0.77 4.76 0.29 1.44 1.13 1.75 3.23 1.13 4.88-0.89 2.25-3.07 4.09-5.57 4.1-1.81 0.12-3.62-1.23-3.91-3.04-0.45-2.58 1.24-5.23 3.59-6.23zm0.56 2.77c-1.22 1.02-1.05 3.31 0.4 4.05 1.49 0.68 3.3-0.81 3.27-2.35 0.07-0.6-0.55-0.67-0.94-0.88-0.17-0.41-0.21-0.85-0.3-1.28-0.83-0.21-1.78-0.14-2.43 0.46z"/>
				<path class="st5" d="m419.52 342.61c5.77 2.13 11.56 4.22 17.34 6.33 0.34 1.39 0.57 2.81 0.81 4.23-5.89-1.74-11.55-4.19-17.35-6.19-0.3-1.46-0.54-2.92-0.8-4.37z"/>
				<path class="st5" d="m449.59 343.23c1.89 1.86 2.95 4.36 3.91 6.78 0.65 1.62 0.9 3.4 1.75 4.93 0.78 0.57 1.74 0.82 2.66 1.1 4.29 1.32 8.63 2.6 12.65 4.65 0.3 1.31 0.5 2.65 0.71 3.99-2.84-0.89-5.55-2.14-8.38-3.01-2.24-0.7-4.42-1.62-6.74-1.99-0.1 1.44 0.13 2.88 0.32 4.3 0.34 2.38 0.53 4.77 0.93 7.14 0.33 2.57 1.02 5.26 0.14 7.81-2.29-1.28-2.84-4.07-3.67-6.34-0.63-2.49-0.97-5.05-1.67-7.53-0.46 1.57-0.64 3.2-1.23 4.73-1.43-0.03-2.75-0.64-4.14-0.93-0.7 2.15 0.08 4.41 0.15 6.6 0 1.77 0.19 3.59-0.32 5.31-0.26 1.05-1.59 1.42-2.5 1.05-1.31-0.96-1.88-2.6-3.1-3.64l-0.64-0.16c-1.22 1.16-1.39 3.03-2.63 4.17-0.9 0.54-2.01 0.47-3.01 0.59-0.43-0.14-0.85-0.28-1.27-0.42 0.27-1.11 0.51-2.23 0.78-3.34 0.63-0.57 1.33-1.08 1.82-1.78 0.67-1.21 0.57-2.75 1.48-3.84 1.57 0.2 3 0.99 4.59 1.09 1.21-0.63 1.4-2.18 1.35-3.4-0.21-2.76-1.2-5.41-1.34-8.18 0.56-1.08 1.84-0.27 2.7-0.1 0.63 0.79 1.38 2.37 2.6 1.47 0.38-0.89 0.47-1.87 0.45-2.82-0.11-1.72-0.55-3.41-0.92-5.08-0.13-0.98-0.28-1.97-0.18-2.96 0.42-0.23 0.85-0.42 1.3-0.6 0.6-0.2 1.27-0.29 1.8-0.66 0.72-0.76 0.33-1.89 0.18-2.78-0.52-2.03-1.19-4.11-0.53-6.15z"/>
				<path class="st5" d="m253.16 395.26c1.49 0.66 2.97 1.34 4.44 2.06 2.01 1.01 4.05 1.99 6.07 3 1.95 1 3.92 1.93 5.89 2.9 1.71 0.87 3.45 1.67 5.15 2.58 0.15 1.15 0.27 2.31 0.43 3.46-3.03-1.62-6.15-3.04-9.22-4.6-4.05-1.86-7.93-4.07-12.02-5.83-0.28-1.19-0.51-2.38-0.74-3.57z"/>
				<path class="st5" d="m144.9 424.89c1.13-0.34 2.25-0.72 3.37-1.06l1.08-0.2c0.34 1.11 0.52 2.26 0.72 3.4-3.56 0.98-7.07 2.14-10.58 3.28 0.05-1.24-0.24-2.71 0.43-3.79 1.6-0.71 3.33-1.06 4.98-1.63z"/>
				<path class="st5" d="m377.27 382.98c1.46 3.21 1.44 6.8 2.18 10.19 0.44 1.99 0.92 4.14 2.36 5.68 0.85 0.94 2.18-0.28 3.18 0.34 0.43 0.07 0.93 0.56 1.36 0.3 0.75-1.33 0.86-2.94 1.7-4.23 0.87-1.21 2.91-1.16 3.79 0.03 1.12 1.07 1.74 2.88 3.42 3.19-0.02-3.3-0.07-6.61 0.51-9.87 0.42-0.76 0.66-1.91 1.66-2.05 0.86-0.18 1.63 0.39 2.24 0.92 1.77 1.64 2.91 3.88 4.88 5.33 0.71 0.52 1.65 0.91 2.53 0.58 0.94-0.35 1.38-1.41 1.42-2.36 0.13-2.52-0.69-5.09 0.09-7.56 0.4-1.34 1.62-2.64 3.12-2.48 2.19 0.44 3.72 2.44 5.96 2.75 2.37-0.13 4.55-1.23 6.79-1.92 0.2 0.33 0.4 0.66 0.61 0.99-1.23 1.22-2.33 2.58-3.49 3.86-0.83 0.86-1.83 1.77-3.08 1.83-1.22-0.16-2.31-0.78-3.51-0.98-1.08 0.07-1.79 1.05-2.17 1.97-1.08 2.54-1.01 5.38-1.88 7.98-0.35 0.97-0.88 2.01-1.9 2.41-0.98 0.33-2.11 0.24-3-0.28-1.17-0.67-2.07-1.72-3.26-2.37-0.64-0.16-1.18 0.31-1.64 0.68-1.19 3.06 0.85 6.33-0.21 9.41-0.36 1.27-2.03 1.73-3.07 1.01-2.08-1.35-3.34-3.69-5.58-4.83-0.73-0.4-1.73-0.34-2.28 0.32-0.64 0.67-0.7 1.66-0.63 2.54 0.29 3.32 1.77 6.36 2.9 9.46 0.47 1.37 0.96 2.79 0.94 4.26-0.38 0.3-0.77 0.58-1.17 0.85-0.71 0.26-1.78 0.33-1.81 1.31-0.29 2.51 0.74 4.92 1.1 7.37-0.14-0.87-0.94-1.4-1.21-2.22-1.64-2.23-3.69-4.13-5.21-6.46-4.31-7.16-6.3-15.49-7.01-23.75-0.43-4.72-0.43-9.47-0.63-14.2z"/>
				<path class="st5" d="m430.46 385.01 0.37-0.16c0.86 3.06 0.65 6.3 1.38 9.38 0.27 1.01 0.5 2.12 1.23 2.92 1.05 0.68 2.35 0.83 3.43 1.47 0.56 0.51 0.87 1.22 1.28 1.85-0.4 2.08-0.93 4.15-1.7 6.13-0.82 2.34-1.89 4.81-1.29 7.33 1.53-0.45 2.83-1.46 4.38-1.84 1.02 0 1.59 1.07 1.74 1.96 0.65 3.59-2.92 6.67-1.71 10.26 1.94-0.18 3.55-1.49 4.65-3.02 0.84-1.03 1.44-2.35 2.66-2.98 0.13 0.99 0.11 2.01-0.22 2.96-1.07 3.26-3.19 6.03-5.43 8.58-2.4 2.67-5.11 5.06-8.08 7.09-1.34 0.92-2.81 1.62-4.35 2.13 1.31-2.07 3.03-3.87 4.11-6.09 0.58-1.2 1.06-2.56 0.79-3.9-0.83-0.27-1.91-0.02-2.52-0.74 0.03-3.31 3.27-5.53 3.61-8.77 0.07-0.56-0.27-1.08-0.88-0.95-1.75 0.49-3.08 1.87-4.8 2.41-0.92 0.31-1.94-0.32-2.17-1.24-0.5-1.89 0.06-3.85 0.54-5.69 0.91-3.03 2.07-5.98 2.82-9.06 0.22-0.8 0.42-1.62 0.4-2.45 0.07-1.23-1.78-1.23-1.86-2.37 0-1.33 0.37-2.63 0.75-3.89 0.64-1.65 1.3-3.37 1.24-5.17-0.07-2.06-0.41-4.1-0.37-6.15z"/>
				<path class="st5" d="m122.06 448.79c-0.76-1.12 0.02-2.55 0.84-3.4-0.37 0.71-0.76 1.44-0.89 2.25-0.15 1.15 0.86 2.14 1.91 2.42 1.02-0.25 1.88-0.9 2.77-1.43 4.52 1.28 9.15 2.16 13.71 3.28 4.86 1.21 9.81 2.01 14.71 3.04 2.7 0.53 5.45 0.85 8.08 1.7-1.15 0.83-2.26 1.71-3.3 2.67-6.44-0.68-12.81-1.89-19.09-3.45-4.56-1.26-9.07-2.69-13.6-4.03-1.99-0.43-3.94-1.38-5.14-3.05z"/>
				<path class="st5" d="m295.49 416.07 0.34 0.15c7.05 3.29 14.02 6.78 21.08 10.07 0.15 1.09 0.2 2.19 0.16 3.29-6.45-2.95-12.8-6.13-19.23-9.15-0.68-0.36-1.41-0.72-1.89-1.34-0.34-0.98-0.35-2.01-0.46-3.02z"/>
				<path class="st5" d="m388.74 460.65c-0.27-1.16-0.35-2.34-0.46-3.52 3.32 1.01 6.52 2.35 9.79 3.51 0.16 0.06 0.46 0.18 0.62 0.24 0.21 1.09 0.41 2.19 0.64 3.27l-0.48 0.2c-3.24-1.54-6.65-2.72-10.11-3.7z"/>
				<path class="st5" d="m411.59 465.27c4.62 1.55 9.36 2.81 13.81 4.84 0.25 1 0.44 2.02 0.63 3.04-2.32-0.61-4.53-1.57-6.81-2.29-2.32-0.76-4.64-1.52-6.98-2.2l-0.08-0.34c-0.17-1.02-0.35-2.04-0.57-3.05z"/>
				<path class="st6" d="m256.76 271.87c1.71 0.77 3.41 1.54 5.08 2.39 7.16 3.62 14.41 7.06 21.58 10.68l0.32 0.16c-4.99 2.17-10.07 4.08-15.08 6.22-9.03 3.59-17.99 7.33-27.01 10.94-0.73-0.59-1.46-1.16-2.22-1.69-1.12-0.85-3.04-0.43-3.59 0.9-0.49 1.13-0.64 2.37-0.85 3.57-7.64 2.95-15.18 6.19-22.8 9.2-3.63 1.41-7.19 3.01-10.86 4.33-3.26-1.97-6.25-4.39-9.08-6.92-3.19-3.05-6.57-6.05-8.84-9.88 12.95-5.14 25.81-10.51 38.75-15.7 8.53-3.41 16.99-6.99 25.53-10.37 3.01-1.32 6.13-2.37 9.07-3.83z"/>
				<path class="st6" d="m271.88 312.13c12.22-4.75 24.27-9.93 36.48-14.72 0.12 0 0.35-0.01 0.46-0.01 7.88 3.85 15.76 7.7 23.7 11.42 0.95 0.47 1.85 1.04 2.76 1.58-2.94 1.46-6.02 2.62-9.07 3.84-6.94 2.88-13.92 5.64-20.86 8.51-1.73 0.77-3.48 1.51-5.36 1.83-2.65-0.49-5.39-0.28-7.97 0.47-0.63 0.19-1.15 0.61-1.69 0.96-0.57 0.21-1.15 0.41-1.71 0.63-2.94 1.12-4.78 3.84-6.98 5.93-3.64 1.12-7.06 2.84-10.68 4.02-0.02-4.05 0.25-8.08 0.38-12.12 0.19-4.13 0.3-8.24 0.54-12.34z"/>
				<path class="st6" d="m254.58 319.26c3.85-1.5 7.57-3.29 11.5-4.58 0.07 1.36 0.13 2.72 0.06 4.07-0.26 4.45-0.37 8.91-0.57 13.37-0.14 2.39 0.13 4.85-0.67 7.15-4.66 1.66-9.17 3.69-13.76 5.52-0.83-0.18-1.66-0.35-2.48-0.56-1.39-1.89-1.45-4.31-1.86-6.52-0.8-4.82-1.9-9.61-2.31-14.48 3.41-1.22 6.73-2.66 10.09-3.97z"/>
				<path class="st6" d="m236.23 338.22c0.19-4.16 1.03-8.24 1.61-12.35l0.39-0.17c1.16 0.12 1.14 1.48 1.39 2.35 0.71 4.24 1.47 8.48 2.21 12.72-1.89-0.8-3.73-1.72-5.6-2.55z"/>
				<path class="st6" d="m223.93 331.71c2.52-0.98 4.98-2.07 7.52-3.01 0 2.16 0.24 4.6-1.14 6.42-2.2-0.97-4.4-2.03-6.38-3.41z"/>
				<path class="st6" d="m419.72 347.11c0.15-0.03 0.45-0.1 0.59-0.14 5.8 2 11.46 4.45 17.35 6.19l0.07 0.33c-5.34 2.27-10.74 4.37-16.07 6.66-0.82-0.39-1.65-0.8-2.46-1.21-2.05-3.22-4.84-5.92-8-8.06 2.85-1.26 5.79-2.28 8.52-3.77z"/>
				<path class="st6" d="m456.14 359.67c2.32 0.37 4.5 1.3 6.74 1.99 2.84 0.87 5.54 2.12 8.38 3.01 0.09 0.13 0.28 0.4 0.37 0.54-2.68 1.39-5.57 2.3-8.34 3.48-1.96 0.83-3.92 1.64-5.9 2.41-0.4-2.37-0.59-4.76-0.93-7.14-0.19-1.41-0.41-2.85-0.32-4.29z"/>
				<path class="st6" d="m444.87 362.78c1.03-0.42 2.05-0.87 3.05-1.35 0.03 0.96-0.07 1.94-0.45 2.82-1.22 0.9-1.97-0.67-2.6-1.47z"/>
				<path class="st6" d="m439.97 364.74c0.94-0.34 1.61-1.09 2.2-1.86 0.14 2.78 1.13 5.42 1.34 8.18 0.05 1.22-0.14 2.77-1.35 3.4-1.59-0.1-3.02-0.9-4.59-1.09-0.91 1.09-0.81 2.63-1.48 3.84-0.48 0.71-1.19 1.21-1.82 1.78-0.24-1.46-0.51-2.93-0.9-4.36-0.56-2.2-1.71-4.18-2.3-6.37 2.98-1.17 5.96-2.3 8.9-3.52z"/>
				<path class="st6" d="m253.9 398.83c4.09 1.76 7.97 3.97 12.02 5.83 3.06 1.56 6.19 2.98 9.22 4.6l0.3 0.18c-4.92 2.23-10 4.09-14.99 6.18-8.86 3.51-17.63 7.25-26.49 10.76-8.15 3.36-16.37 6.54-24.45 10.07-4.69-3.07-9.03-6.74-12.63-11.05-0.67-0.82-1.32-1.67-1.79-2.62 16.4-6.51 32.68-13.31 49.06-19.87 3.01-1.32 6.13-2.4 9.11-3.78 0.15-0.08 0.48-0.23 0.64-0.3z"/>
				<path class="st6" d="m450.96 369.78c0.59-1.52 0.77-3.16 1.23-4.73 0.7 2.48 1.04 5.04 1.67 7.53-2.29 0.97-4.62 1.85-6.9 2.86-0.06-2.19-0.85-4.45-0.15-6.6 1.39 0.3 2.72 0.91 4.15 0.94z"/>
				<path class="st6" d="m295.18 415.91 0.31 0.16c0.1 1.01 0.11 2.05 0.46 3.01 0.48 0.62 1.21 0.98 1.89 1.34 6.43 3.02 12.78 6.2 19.23 9.15v0.31c-6.56 2.45-12.95 5.29-19.47 7.84-13.95 5.61-27.85 11.35-41.79 16.97-2.47 0.97-4.85 2.23-7.5 2.64-3.43-1.59-6.83-3.24-10.26-4.85-3.58-1.86-7.22-3.59-10.74-5.55 3.57-1.34 7.08-2.84 10.6-4.28 17.05-6.89 34.08-13.85 51.12-20.78 2.07-0.88 4.26-1.5 6.2-2.65l0.24-0.17c0.04-1.06-0.14-2.11-0.29-3.14z"/>
				<path class="st6" d="m370.26 465.28c3.17-1.2 6.25-2.64 9.45-3.77 0.81 3.25 1.7 6.48 2.57 9.71-7.79 3.17-15.54 6.42-23.36 9.5-1.13-1.35-2.34-2.63-3.62-3.83 0.17-2.09 0.52-4.17 0.91-6.22 1.31-0.33 2.62-0.68 3.87-1.21 3.37-1.47 6.79-2.8 10.18-4.18z"/>
				<path class="st6" d="m388.74 460.65c3.46 0.98 6.87 2.16 10.11 3.71-2.77 1.43-5.69 2.51-8.63 3.52-0.57-2.39-1.02-4.81-1.48-7.23z"/>
				<path class="st6" d="m324.91 483.75c2.69-1.05 5.33-2.22 8.02-3.26-1.02 1.47-1.91 3.02-2.76 4.59-1.79-0.25-3.55-0.72-5.26-1.33z"/>
				<path class="st6" d="m392.1 476.81c6.81-2.48 13.47-5.36 20.15-8.15 2.34 0.68 4.66 1.44 6.98 2.2 2.28 0.73 4.49 1.68 6.81 2.29l0.2 0.84c-3.2 1.12-6.29 2.55-9.46 3.77-7.49 3.07-15.02 6.06-22.51 9.13-0.84-3.34-1.63-6.69-2.17-10.08z"/>
				<path class="st6" d="m364.84 487.95c6.64-2.58 13.19-5.37 19.83-7.94 0.92 3.23 1.75 6.48 2.6 9.73-3.67 1.59-7.45 2.91-11.07 4.61-0.53 0.25-1.12 0.01-1.66-0.02-3.46-0.52-6.89-1.14-10.33-1.75-1.2-0.41-1.18-1.87-1.5-2.89 0.5-0.8 1.23-1.43 2.13-1.74z"/>
				<path class="st7" d="m267.76 293.14c1.01-1.28 3.35-1.47 4.34-0.06 0.71 1 0.56 2.3 0.54 3.46-0.34 5.19-0.54 10.4-0.76 15.59-0.24 4.1-0.35 8.22-0.54 12.33-0.14 4.04-0.4 8.07-0.38 12.12-0.41 5.58-0.3 11.18-0.66 16.76-0.29 3.47-0.23 6.96-0.32 10.44-0.2 7.08-0.41 14.15-0.45 21.23 0.26 6.07-0.34 12.15 0.03 18.22-1.97-0.96-3.94-1.89-5.89-2.9 0.5-2.88 0.28-5.79 0.34-8.7 0.24-3.02 0.14-6.06 0.23-9.08 0.16-9.22 0.36-18.44 0.65-27.66 0.04-1.23-0.02-2.46-0.13-3.68 0.41-2.77 0.33-5.57 0.5-8.36 0.08-1.2-0.11-2.39-0.34-3.57 0.8-2.3 0.53-4.76 0.67-7.15 0.2-4.45 0.31-8.91 0.57-13.37 0.07-1.36 0.01-2.72-0.06-4.07 0.49-3.06 0.44-6.17 0.63-9.26 0.17-3.07 0.28-6.15 0.42-9.23 0.08-1.03 0.09-2.14 0.61-3.06z"/>
				<path class="st7" d="m244.11 352.82c1.52-1.63 3.17-3.16 4.51-4.95 2.53 13.99 5.11 27.98 7.56 41.99 0.37 2.28 0.69 4.59 1.47 6.78-0.02 0.17-0.05 0.51-0.06 0.68-1.46-0.73-2.94-1.41-4.44-2.06l-1.95-1.05c-0.03-1.01-0.05-2.02-0.2-3.01-2.25-12.81-4.59-25.59-6.89-38.38z"/>
				<path class="st8" d="m235.84 301.47c0.55-1.33 2.47-1.76 3.59-0.9 0.77 0.53 1.5 1.1 2.22 1.69-0.4 0.74-0.54 1.59-0.4 2.42 0.53 4.49 1.45 8.93 2.14 13.4 0.26 1.73 0.66 3.45 1.11 5.14 0.41 4.88 1.51 9.66 2.31 14.48 0.42 2.22 0.47 4.63 1.86 6.52-0.12 0.08-0.35 0.24-0.46 0.32-0.04 1.12 0.26 2.22 0.42 3.33-1.35 1.79-2.99 3.32-4.51 4.95-0.78-4.01-1.33-8.07-2.28-12.05-0.75-4.24-1.5-8.48-2.21-12.72-0.25-0.86-0.23-2.22-1.39-2.35 1.41-0.72 0.39-2.45 0.21-3.6-0.37 1.22-0.53 2.5-0.6 3.77-0.58 4.11-1.43 8.19-1.61 12.35-1.01 3.09-1.04 6.37-1.51 9.57-0.24 1.7-0.56 3.38-0.85 5.07-0.62 3.56-0.82 7.17-1.45 10.72-0.62 3.44-0.74 6.96-1.43 10.39-0.64 3.24-0.85 6.53-1.36 9.79-1.89-0.79-3.84-1.43-5.77-2.1 0.72-0.82 0.92-1.92 1.02-2.97 0.55-5.67 1.7-11.26 2.36-16.91 0.38-3.62 1.04-7.19 1.42-10.81 0.71-4.73 1.47-9.45 2.09-14.2 0.24-0.63-0.43-1.1-0.44-1.64 1.39-1.82 1.15-4.26 1.14-6.42 0.66-1.98 0.95-4.05 1.18-6.12 0.83-5.85 1.65-11.69 2.36-17.55 0.21-1.21 0.35-2.45 0.84-3.57z"/>
				<path class="st8" d="m367.93 334.28c1.03-1.19 3.22-1.19 4.13 0.16 0.76 1.16 0.44 2.63 0.26 3.92-0.73 3.87-1.39 7.74-1.99 11.63-1.79 0.88-3.62 1.67-5.48 2.35-0.29-1.84 0.15-3.66 0.5-5.45 0.53-3.17 1.09-6.33 1.6-9.51 0.2-1.06 0.34-2.19 0.98-3.1z"/>
				<path class="st8" d="m398.4 435.4c1.75-1.09 3.51-2.17 5.27-3.26 0.29 4.01-0.08 8.02-0.03 12.03-0.06 5.99-0.15 11.99-0.49 17.98-1.47-0.46-2.98-0.78-4.44-1.27-0.16-0.06-0.46-0.18-0.62-0.24-0.08-3.26 0-6.52 0.01-9.77 0-3.42 0.39-6.83 0.1-10.25 0-1.74 0.06-3.48 0.2-5.22z"/>
				<path class="st9" d="m237.84 325.88c0.07-1.27 0.23-2.54 0.6-3.77 0.19 1.15 1.21 2.88-0.21 3.6z"/>
				<path class="st10" d="m290.33 325.99c0.54-0.35 1.06-0.76 1.69-0.96 2.58-0.75 5.32-0.96 7.97-0.47 3.1 0.55 6.12 1.51 8.99 2.81 2.14 0.97 4.39 1.92 6.05 3.64 3.36 3.54 6.13 7.73 7.49 12.45-1.27-0.11-2.54-0.3-3.79-0.59-1.6-1.18-3.23-2.34-5.04-3.17-0.33-0.16-0.66-0.31-0.99-0.45-3.82-1.77-8.47-0.54-11.54 2.15-4.03 3.26-5.62 8.77-5.02 13.79-1.29-2.18-3.1-4.11-5.36-5.3-1.77-0.95-3.84-1.49-5.85-1.17-2.61 0.41-4.78 2.47-5.66 4.91-0.53 1.47-0.87 3.01-1.2 4.53-0.21-0.44-0.41-0.89-0.59-1.33-1.57-5.09-1.03-10.54 0.18-15.64 0.28-1.22 0.76-2.39 1.37-3.49 0.94-1.68 1.62-3.49 2.61-5.15 2.2-2.09 4.04-4.81 6.98-5.93 0.78 1.18 1.5 2.56 2.88 3.13-0.25-1.29-0.71-2.53-1.17-3.76z"/>
				<path class="st11" d="m402.74 306.93c4.25-2.4 9.07-4.01 14-3.88 1.96 0.05 3.93 0.22 5.85 0.65 1.59 0.4 3.12 1.01 4.67 1.58 3.13 1.17 5.86 3.16 8.42 5.27 3.83 3.01 6.91 6.86 9.59 10.89 2.07 2.7 3.39 5.86 5.03 8.82 2.25 5.05 4.22 10.24 5.53 15.62 0.8 3.36 1.73 6.72 2.08 10.17-0.92-0.29-1.88-0.53-2.66-1.1-0.85-1.53-1.1-3.31-1.75-4.93-0.95-2.43-2.02-4.92-3.91-6.78-0.66 2.04 0.02 4.12 0.51 6.11 0.15 0.9 0.54 2.02-0.18 2.78-0.54 0.37-1.2 0.46-1.8 0.66-3.75-1.29-7.51-2.54-11.25-3.85-5.78-2.11-11.57-4.2-17.34-6.33-7.69-3.07-15.44-6.01-23.08-9.22-1.88-0.8-3.77-1.57-5.7-2.25 0.88-2.56 2.26-4.97 2.64-7.69-2.92 0.94-4.6 3.66-6.1 6.13-1.12-0.48-2.24-0.96-3.35-1.47 1.37-3.08 3.4-5.79 5.31-8.54 3.59-5.03 7.99-9.66 13.49-12.64z"/>
				<path class="st11" d="m432.21 394.24c8.34 0.29 16.85 0.52 24.97-1.77l0.38 0.03c0.6 0.94-0.09 2.15-0.14 3.19-0.33 1.13-0.1 2.63-0.88 3.52-2.76-0.63-5.59-1.1-8.43-0.87-3.41 0.2-6.68 1.24-9.95 2.13-0.4-0.63-0.71-1.34-1.28-1.85-1.08-0.64-2.38-0.79-3.43-1.47-0.74-0.79-0.97-1.9-1.24-2.91z"/>
				<path class="st11" d="m425.11 400.75c1.49-1.48 3.04-2.89 4.48-4.42-0.38 1.27-0.75 2.56-0.75 3.89 0.09 1.14 1.93 1.14 1.86 2.37 0.02 0.83-0.18 1.65-0.4 2.45-2.43 1.46-4.56 3.33-6.89 4.92 0.68-3.05 1.48-6.08 1.7-9.21z"/>
				<path class="st11" d="m403.66 432.14c2.93-2.03 5.8-4.14 8.56-6.39-0.91 3.77-2.07 7.55-1.82 11.48 0.02 3.38 1.46 6.49 2.74 9.54-1.22 0.31-2.46-0.08-3.65-0.32-2.03-0.52-4.09-1.14-5.86-2.29-0.04-4 0.32-8.01 0.03-12.02z"/>
				<path class="st11" d="m394.71 437.83c1.16-0.91 2.4-1.71 3.69-2.43-0.13 1.74-0.2 3.49-0.21 5.23-1.28-0.78-2.43-1.74-3.48-2.8z"/>
				<path class="st12" d="m288.62 326.62c0.56-0.23 1.14-0.42 1.71-0.63 0.46 1.23 0.92 2.47 1.17 3.77-1.38-0.58-2.1-1.95-2.88-3.14z"/>
				<path class="st13" d="m301.17 341.39c3.07-2.69 7.72-3.92 11.54-2.15 0.4 1.32 0.79 2.66 1.5 3.86-0.13-1.14-0.25-2.28-0.51-3.4 1.82 0.82 3.45 1.98 5.04 3.17-0.2 0.14-0.61 0.41-0.81 0.54-0.06 2.19 0.53 4.34 0.78 6.51l0.01 0.33c-0.35 2.76-0.98 5.51-0.9 8.3 1.93 1.46 4.13 2.58 6.47 3.25-0.31 0.62-0.51 1.32-0.99 1.83-0.69 0.5-1.48 0.82-2.25 1.17-2.47-0.81-4.9-1.77-7.32-2.74-1.05-0.4-2.06-0.96-3.19-1.1-0.85 0.19-1.58 0.69-2.34 1.1-1.66 0.97-3.42 1.75-5.17 2.55-1.65-1.06-3.77-1.83-4.55-3.79-0.84-1.85-1.54-3.76-2.35-5.61-0.58-5.05 1-10.56 5.04-13.82zm5.25 2.27c-2.35 1.01-4.04 3.65-3.58 6.23 0.29 1.81 2.09 3.16 3.91 3.04 2.5-0.02 4.67-1.85 5.57-4.1 0.62-1.65 0.31-3.76-1.13-4.88-1.34-1.06-3.27-0.95-4.77-0.29zm7.98-0.28c0.2 1.99 0.52 3.98 1.11 5.9 0.3-0.65 0.08-1.38 0.01-2.05-0.22-1.26-0.4-2.54-0.82-3.76zm0.88 6.46c-0.27 1.58-0.18 3.21-0.15 4.81 0.71-1.58 0.75-3.36 0.43-5.04zm2.56 10c0.23 0.16 0.23 0.16 0 0z"/>
				<path class="st13" d="m310.33 361.49c2.11 0.41 4.03 1.42 6.03 2.16 1.61 0.67 3.35 1.1 4.81 2.09 0.42 2.07 0.39 4.24 1.13 6.25-2.47 6.72-6.97 12.91-13.3 16.44-0.14-2.53-0.05-5.07 0.05-7.6 0.1-5.14 0.37-10.27 0.49-15.41 0.06-1.32 0.06-2.75 0.79-3.93z"/>
				<path class="st14" d="m312.71 339.24c0.33 0.14 0.66 0.29 0.99 0.45 0.26 1.12 0.38 2.26 0.51 3.4-0.72-1.19-1.1-2.52-1.5-3.85z"/>
				<path class="st15" d="m279.27 353.63c0.88-2.45 3.04-4.5 5.66-4.91 2.01-0.32 4.08 0.22 5.85 1.17-3.87 1.21-6.63 4.84-7.32 8.77-0.42 0.58-0.91 1.27-1.73 1.08-1.29-0.15-3.12-0.13-3.66-1.58 0.34-1.53 0.67-3.06 1.2-4.53z"/>
				<path class="st16" d="m314.4 343.38 0.3 0.09c0.42 1.21 0.6 2.5 0.82 3.76 0.07 0.68 0.29 1.4-0.01 2.05-0.59-1.92-0.91-3.91-1.11-5.9z"/>
				<path class="st17" d="m317.93 343.41c0.2-0.13 0.6-0.4 0.81-0.54 1.24 0.29 2.51 0.49 3.79 0.59 2.98 0.45 6.01 0.01 8.98 0.38-4.27 2.01-8.38 4.39-12.79 6.07-0.26-2.16-0.85-4.31-0.79-6.5z"/>
				<path class="st17" d="m318.73 350.24c2.49 1.19 4.97 2.4 7.46 3.59 1.35 1.69 2.75 3.34 4.23 4.91 0.62 0.77 1.22 1.57 1.79 2.38-1.67-0.72-3.35-1.41-4.94-2.29-1.22-0.6-2.46-1.43-3.88-1.26-1.87 0.2-3.7 0.7-5.56 0.96-0.08-2.78 0.55-5.53 0.9-8.29z"/>
				<path class="st18" d="m306.98 346.43c0.65-0.6 1.6-0.67 2.43-0.47 0.09 0.42 0.13 0.87 0.3 1.28 0.39 0.21 1.01 0.28 0.94 0.88 0.03 1.54-1.78 3.03-3.27 2.35-1.44-0.74-1.62-3.02-0.4-4.04z"/>
				<path class="st18" d="m308.22 362.04c0.76-0.4 1.49-0.91 2.34-1.1 1.12 0.14 2.14 0.7 3.19 1.1 2.42 0.97 4.84 1.92 7.32 2.74 1.02 1.97 1.06 4.24 1.56 6.37l-0.32 0.84c-0.74-2.02-0.7-4.18-1.13-6.25-1.46-0.99-3.2-1.42-4.81-2.09-2-0.74-3.93-1.75-6.03-2.16-0.73 1.18-0.73 2.61-0.79 3.94-0.12 5.14-0.39 10.27-0.49 15.41-0.1 2.53-0.19 5.06-0.05 7.6-0.33 0.21-0.65 0.43-0.98 0.65-2.29 1.1-4.76 1.94-7.33 2.03-1.89 0.07-3.85-0.51-5.28-1.78-0.55-2.44-1.05-4.95-0.72-7.46 0.42-3.14 1.55-6.14 2.87-9.01 0.65-1.38 0.93-2.89 1.05-4.4 0.16-0.56 0.29-1.14 0.57-1.66 0.7-0.61 1.56-1.01 2.38-1.46 0.49-0.24 0.98-0.5 1.48-0.75 1.74-0.81 3.5-1.59 5.17-2.56z"/>
				<path class="st19" d="m318.71 349.91c4.42-1.68 8.52-4.06 12.79-6.07 1.91 0.96 3.48 2.5 4.99 3.99-3.34 2.16-6.97 3.82-10.31 5.99-2.49-1.19-4.97-2.4-7.46-3.59z"/>
				<path class="st19" d="m317.83 358.54c1.86-0.26 3.69-0.76 5.56-0.96 1.42-0.17 2.66 0.67 3.88 1.26 1.59 0.88 3.27 1.57 4.94 2.29 0.08 0.11 0.23 0.33 0.31 0.43-1.54 0.15-3.08 0.1-4.62 0.13-1.2-0.03-2.41 0.01-3.61 0.09-2.32-0.66-4.52-1.79-6.46-3.24z"/>
				<path class="st20" d="m315.28 349.84 0.28-0.23c0.31 1.68 0.28 3.46-0.43 5.04-0.03-1.6-0.12-3.22 0.15-4.81z"/>
				<path class="st21" d="m370.32 349.99c2.91-1.28 5.98-2.18 9.11-2.74 0.9-0.11 2.05-0.46 2.7 0.4-0.38 1.72-0.79 3.44-1.19 5.16-2.24 2.29-3.76 5.18-4.58 8.26-1.66 5.83-1.56 11.97-1.31 17.98 0.25 6.14 1.66 12.13 2.86 18.13 0.7 8.26 2.7 16.59 7.01 23.75-6.37 3.43-12.84 6.71-19.39 9.79-1.45 0.71-3.03 1.2-4.33 2.17-0.39 0.85-0.43 1.79-0.54 2.7-0.25 3.32-0.75 6.62-0.97 9.95-0.13 0.88-0.28 1.75-0.39 2.63-0.88 7.51-2.13 14.98-3.07 22.49-0.39 2.06-0.75 4.13-0.91 6.22-1.79-1.25-3.7-2.39-5.82-2.92-1.86-0.51-3.8-0.47-5.71-0.36-0.29-1.64-0.51-3.31-0.57-4.98-0.2-5.94-0.74-11.87-0.79-17.82-0.11-3.17 0.13-6.34 0.2-9.51 0.05-0.98 0.19-1.96 0.05-2.94-1.43-1.12-3.22-1.61-4.85-2.38-6.99-3.18-13.96-6.41-20.9-9.7-7.06-3.29-14.03-6.77-21.08-10.07 1.46-2.15 2.06-4.71 3.04-7.09 2.63-6.86 5.69-13.56 9.16-20.04 0.33-0.22 0.65-0.43 0.98-0.65 6.32-3.53 10.83-9.73 13.3-16.44l0.32-0.84c1.8-3.14 3.14-6.53 5.28-9.46 1.54-0.03 3.08 0.02 4.62-0.13-0.08-0.11-0.23-0.32-0.31-0.43-0.57-0.81-1.17-1.61-1.79-2.38 1.14-0.78 2.36-1.62 3.82-1.49 4.96 0.09 9.94-0.16 14.83-0.99 5.34-0.88 10.72-1.9 15.76-3.93 1.84-0.67 3.67-1.47 5.46-2.34z"/>
				<path class="st21" d="m142.8 405.98c1.03-2.35 2.92-4.41 5.38-5.27 1.62-0.6 3.47-0.51 5.02 0.24 2.9 1.32 5.03 3.78 7.04 6.17 3.48 4.22 6.74 8.64 9.56 13.34 1.25 2.01 2.57 3.98 3.72 6.05 0.51 0.86 0.95 1.79 1.72 2.46 1.69 0.23 3.37-0.23 5.04-0.39 3.31-0.37 6.58-0.96 9.86-1.55 2.27-0.46 4.63-0.61 6.73-1.63 3.6 4.31 7.94 7.98 12.63 11.05 5.61 4.01 11.72 7.26 17.82 10.47 3.52 1.96 7.16 3.69 10.74 5.55-0.94 3.41-1.42 6.91-2.11 10.38-0.47 2.32-0.85 4.65-1.28 6.98-20.72 2.77-41.61 4.23-62.52 4.07-1.9-0.04-3.82 0.17-5.69-0.27 0.27-0.73 0.62-1.43 1-2.11 2.99-5.01 5.93-10.06 9.07-14.98 3.06-4.6 6.25-9.11 9.54-13.55l-0.27-0.07c-1.33-0.32-2.68-0.49-4.04-0.58-3.8-0.24-7.59-0.61-11.39-0.82-10.21-0.46-20.44-0.31-30.63 0.47-0.42-1.33-0.38-2.74-0.42-4.11 0-1.32-0.08-2.65 0.25-3.94 3.64-1.17 7.34-2.19 10.96-3.4 0-1.17-0.25-2.33-0.45-3.48-0.2-1.14-0.38-2.29-0.72-3.4l-1.08 0.2c0.31-0.23 0.61-0.47 0.89-0.72 0.05-1.02-0.16-2.02-0.32-3.01-0.18-1.05-0.38-2.11-0.7-3.12-0.28 0.04-0.83 0.13-1.1 0.17 0.34-0.21 0.65-0.44 0.96-0.69 0.07-1.05-0.15-2.09-0.41-3.1-1.77 0.28-3.48 0.86-5.14 1.5-0.8 0.29-1.5 0.79-2.04 1.45 0.71-3.49 0.9-7.11 2.38-10.36z"/>
				<path class="st21" d="m140.78 455.87c6.28 1.56 12.66 2.77 19.09 3.45-1.92 2.58-4.09 4.97-6.13 7.45-2.19 2.59-4.29 5.25-6.49 7.84-0.73 0.86-1.45 1.74-1.98 2.74 0.35 0.26 0.72 0.51 1.1 0.75-0.27-0.02-0.8-0.07-1.06-0.09-2.27-7.2-3.34-14.71-4.53-22.14z"/>
				<path class="st22" d="m317.84 359.84"/>
				<path class="st23" d="m398.85 346.33c4.49 0.14 8.62 2.26 12.37 4.56 3.15 2.14 5.95 4.83 8 8.06-1.76-0.55-3.56-0.89-5.35-1.3-0.76-0.15-1.42-0.55-2.01-1.02-0.52-1.51-1.11-3.29-2.68-4.01-1.22-0.42-2.66 0.09-3.46 1.07-1.49 1.84-2.02 4.28-3.55 6.1-0.65 0.79-1.73 1.28-2.75 1.01-0.78-0.2-1.1-1.02-1.29-1.71-0.51-2.02-0.23-4.12-0.03-6.16 0.2-2.21 0.42-4.41 0.75-6.6z"/>
				<path class="st23" d="m376.36 361.07c0.82-3.08 2.34-5.97 4.58-8.26-0.64 4.93-1.49 9.86-1.5 14.85 0.61-2.43 1.42-4.86 2.92-6.89 0.52-0.79 1.26-1.44 2.15-1.78 0.31 0.76 0.56 1.54 0.9 2.29 0.66 0.05 1.33-0.09 1.92-0.42 2.55-1.35 4.14-3.94 6.66-5.33 1.07 4.6 0.91 9.43 2.46 13.94-0.07 1.26-0.37 2.49-0.73 3.69-0.95 3.21-1.37 6.62-0.89 9.95 0.25 1.85 0.73 3.66 0.93 5.52-0.58 3.26-0.53 6.57-0.51 9.87-1.68-0.32-2.3-2.12-3.42-3.19-0.88-1.19-2.92-1.24-3.79-0.03-0.85 1.29-0.95 2.9-1.7 4.23-0.43 0.26-0.92-0.23-1.36-0.3-1-0.62-2.33 0.6-3.18-0.34-1.44-1.53-1.92-3.68-2.36-5.68-0.74-3.39-0.72-6.99-2.18-10.19 0.2 4.73 0.21 9.48 0.64 14.2-1.2-6-2.61-12-2.86-18.13-0.25-6.02-0.34-12.16 1.32-18z"/>
				<path class="st23" d="m401.13 397.91c0.99 0.66 1.94 1.38 2.79 2.23 1.68 1.65 3.54 3.11 5.48 4.44 0.74 0.47 1.52 0.99 2.43 1 4.83-0.11 9.27-2.31 13.29-4.84-0.22 3.13-1.02 6.16-1.7 9.21-1.1 2.51-2.12 5.07-3.59 7.38-1.5 2.34-3.31 4.49-5.44 6.28-2.49 0.81-4.76 2.28-7.38 2.65-3.83 0.64-7.77-0.39-11.15-2.19-1.44-0.8-3.06-1.59-3.81-3.15 0.4-0.27 0.78-0.55 1.17-0.85 0.02-1.47-0.46-2.89-0.94-4.26-1.14-3.1-2.62-6.13-2.9-9.46-0.07-0.88-0.02-1.87 0.63-2.54 0.56-0.66 1.56-0.72 2.28-0.32 2.23 1.14 3.5 3.48 5.58 4.83 1.04 0.72 2.71 0.26 3.07-1.01 1.04-3.07-1-6.34 0.19-9.4z"/>
				<path class="st23" d="m338.38 475.7c1.64-1.04 3.52-1.61 5.39-2.09 1.9-0.1 3.85-0.15 5.71 0.36 2.13 0.53 4.04 1.67 5.82 2.92 1.28 1.2 2.49 2.48 3.62 3.83 1.79 2.73 3.16 5.76 3.78 8.97 0.32 1.02 0.3 2.48 1.5 2.89-0.4 0.26-0.6 0.62-0.61 1.09-0.03 1.71 0.15 3.41 0 5.12-0.54 6.19-2.7 12.44-7.04 17-2.75 2.97-6.51 5.13-10.6 5.41-4.74 0.5-9.4-1.85-12.48-5.34-2.65-3.16-4.66-6.9-5.4-10.98-1.57-6.59-0.75-13.67 2.11-19.79 0.85-1.58 1.75-3.12 2.76-4.59 1.64-1.79 3.35-3.55 5.44-4.8zm-2.59 14.34c-4.35 4.11-4.93 11.61-1.24 16.33 1.07 1.35 2.6 2.37 4.32 2.64 1.93 0.26 3.93-0.44 5.38-1.72 5.1-4.35 5.1-13.35-0.06-17.67-2.39-2.06-6.18-1.75-8.4 0.42z"/>
				<path class="st24" d="m287.17 371.87c2.65-1.37 5.38-2.72 8.34-3.24-0.76 1.78-1.56 3.54-2.29 5.33-1.29 3.33-1.9 7.08-0.9 10.58 0.52 1.86 1.63 3.54 3.1 4.79 1.43 1.28 3.39 1.86 5.28 1.78 2.56-0.09 5.04-0.93 7.33-2.03-3.47 6.47-6.53 13.17-9.16 20.04-0.98 2.38-1.57 4.94-3.04 7.09l-0.34-0.15-0.31-0.16c-2.76-1.51-5.62-2.82-8.43-4.22-4.02-1.95-7.99-4.01-12.05-5.89-1.69-0.91-3.43-1.72-5.15-2.58-0.37-6.07 0.23-12.14-0.03-18.22 0.07 0.19 0.21 0.56 0.28 0.74 1.57-0.93 2.75-2.35 4.07-3.6 4.05-3.88 8.41-7.5 13.3-10.26z"/>
				<path class="st24" d="m257.66 396.64c2.18-1.59 4.16-3.43 6.35-5.02-0.06 2.9 0.16 5.82-0.34 8.7-2.02-1-4.06-1.98-6.07-3 0.01-0.17 0.04-0.51 0.06-0.68z"/>
				<path class="st24" d="m235.95 462.84c0.69-3.46 1.17-6.97 2.11-10.38 3.42 1.61 6.82 3.26 10.26 4.85 5.38 2.39 10.8 4.72 16.21 7.04-2.62 0.59-5.17 1.48-7.82 1.94-2.35 0.41-4.71 0.82-7.05 1.27-2.62 0.51-5.29 0.56-7.92 1-2.36 0.39-4.7 0.91-7.07 1.25 0.43-2.31 0.81-4.65 1.28-6.97z"/>
				<path class="st25" d="m150.95 478.06c1.05 0 0.8 1.43 0.75 2.14-0.42-0.57-0.93-1.42-0.75-2.14zm0.51-4.06c-0.14 1.11-0.08 2.23-0.25 3.33-0.85 0.34-1.75 0.54-2.65 0.73 0.79 0.2 1.6 0.04 2.4 0 1.05 0 0.8 1.43 0.75 2.14-0.02 0.31-0.05 0.93-0.06 1.24 0.41 0.23 0.83 0.44 1.27 0.62-0.1 1.19-0.55 2.4-1.31 3.32-1.22 0.33-2.65 0.14-3.65 1.04-2.07 1.86-3.09 4.83-2.48 7.56 0.26 1.15 0.81 2.48 1.76 3.42 0.37 0.37 0.5 0.54 1 0.84 0.71 0.42 1.64 0.58 2.29 0.51 0.23-0.05 0.69-0.13 0.92-0.19 0.75-0.17 1.61-0.69 2.16-1.34 1.08-1.25 1.72-2.87 1.82-4.53 0.09-1.51-0.09-2.64-0.73-4.15-0.34-1.02-1.29-1.66-1.9-2.5 0.07-1.34 0.75-2.64 1.52-3.72 1.09 0.01 2.18 0.29 3.27 0.17 1.69-1.07 2.81-2.81 4.35-4.09 0.25-0.24 0.51-0.47 0.77-0.69 0.8-0.84 1.54-1.75 2.17-2.72-1.99-0.86-4.22-0.58-6.33-0.79-2.37-0.04-4.74-0.6-7.09-0.2z"/>
				<path class="st24" d="m378.84 445.13c2.15-0.78 4.18-1.83 6.28-2.73 0.44 3.55 1.31 7.03 1.96 10.54 0.25 1.43 0.69 2.82 1.2 4.19 0.11 1.17 0.19 2.36 0.46 3.52 0.46 2.42 0.91 4.84 1.48 7.23 0.7 2.95 1.33 5.93 1.88 8.93 0.55 3.39 1.33 6.74 2.17 10.08 0.43 2.02 0.51 4.15 1.31 6.08 1.04 0.6 2.24 0.85 3.39 1.18 1.69 0.87 3.14 2.12 4.51 3.43 3.85 4.69 5.47 11.01 4.74 17.01-0.53 5.39-2.92 10.8-7.2 14.23-3.66 3.03-9.22 3.82-13.4 1.39-4.4-2.58-7.27-7.36-8.04-12.34-1.69-7.65 0.54-16.39 6.51-21.65 0.76-0.5 1.55-0.98 2.22-1.6 0.05-1.68-0.6-3.27-1.04-4.87-0.85-3.25-1.68-6.5-2.6-9.73-0.74-2.95-1.5-5.89-2.38-8.79-0.87-3.23-1.75-6.46-2.57-9.71-0.42-1.95-0.97-3.86-1.64-5.73-0.27-1-0.5-2.01-0.76-3.01-0.39-1.78-0.8-3.56-1.26-5.33 0-0.21 0.01-0.64 0.01-0.86 0.76-0.75 1.81-1.05 2.77-1.46z"/>
				<path class="st26" d="m295.51 368.63c1.03-0.17 2.07-0.14 3.11-0.16-0.12 1.51-0.4 3.02-1.05 4.4-1.32 2.87-2.45 5.86-2.87 9.01-0.33 2.5 0.17 5.02 0.72 7.46-1.47-1.25-2.58-2.93-3.1-4.79-1.01-3.5-0.4-7.24 0.9-10.58 0.73-1.8 1.53-3.56 2.29-5.34z"/>
				<path class="st27" d="m411.86 356.62c0.59 0.47 1.25 0.87 2.01 1.02 1.79 0.41 3.59 0.74 5.35 1.3 0.81 0.41 1.63 0.82 2.46 1.21 1.92 1.23 3.85 2.47 5.52 4.03 1.31 1.34 2.42 2.89 3.9 4.08 0.59 2.19 1.74 4.17 2.3 6.37-0.79-0.98-1.64-1.96-2.71-2.64-1.25-0.79-2.92-0.82-4.23-0.15-0.89 0.48-1.53 1.27-2.17 2.02-0.73-3.54-2.65-6.82-5.19-9.35-1.13-1.33-2.98-0.83-4.49-1.06-0.57-0.39-0.85-1.04-1.11-1.64-0.68-1.7-1.08-3.47-1.64-5.19z"/>
				<path class="st27" d="m407.26 362.67c1.02-1.37 3.23-1.66 4.49-0.46 1.55 1.53 1.88 3.91 3.43 5.43 1.47 0.85 3.47 0.27 4.78 1.48 1.62 1.5 2.77 3.41 4.2 5.08-0.34 1.24-0.76 2.5-0.66 3.82s0.52 2.58 0.95 3.82c-2.24 0.69-4.42 1.79-6.79 1.92-2.23-0.31-3.77-2.32-5.96-2.75-1.5-0.16-2.72 1.14-3.12 2.48-0.78 2.47 0.03 5.05-0.09 7.56-0.04 0.95-0.48 2-1.42 2.36-0.88 0.32-1.82-0.07-2.53-0.58-1.96-1.44-3.11-3.68-4.88-5.33-0.61-0.54-1.38-1.1-2.24-0.92-1.01 0.14-1.24 1.3-1.66 2.05-0.2-1.86-0.68-3.67-0.93-5.52-0.48-3.33-0.06-6.74 0.89-9.95 0.36-1.21 0.66-2.43 0.73-3.69 0.51 1.17 1.03 2.51 2.2 3.19 1.29 0.68 2.95 0.12 3.86-0.95 2.23-2.65 2.62-6.33 4.75-9.04z"/>
				<path class="st27" d="m421.57 386.68c1.17-1.28 2.26-2.64 3.49-3.86 0.76 0.6 1.52 1.25 2.42 1.66 0.93 0.41 1.98 0.43 2.98 0.53-0.04 2.06 0.31 4.09 0.38 6.14 0.05 1.8-0.6 3.52-1.24 5.17-1.44 1.53-2.99 2.94-4.48 4.42-4.01 2.53-8.45 4.73-13.29 4.84-0.91-0.01-1.69-0.54-2.43-1-1.94-1.33-3.8-2.79-5.48-4.44-0.84-0.84-1.79-1.57-2.79-2.23 0.46-0.37 1-0.85 1.64-0.68 1.18 0.65 2.08 1.7 3.26 2.37 0.89 0.52 2.02 0.61 3 0.28 1.01-0.39 1.55-1.44 1.9-2.41 0.87-2.6 0.8-5.44 1.88-7.98 0.39-0.91 1.09-1.9 2.17-1.97 1.2 0.2 2.29 0.83 3.51 0.98 1.25-0.05 2.25-0.96 3.08-1.82z"/>
				<path class="st27" d="m430.83 384.85c0.95-0.78 1.83-1.62 2.67-2.52 0.42 0.14 0.84 0.28 1.27 0.42-0.6 2.16-0.74 4.43-1.54 6.54-0.35 1-0.8 1.98-1 3.03 0.13 0.05 0.39 0.16 0.52 0.22-0.19 0.56-0.36 1.13-0.54 1.69-0.73-3.08-0.52-6.31-1.38-9.38z"/>
				<path class="st27" d="m341.87 492.2c0.55-1.04 1.44-1.83 2.32-2.58 5.15 4.32 5.15 13.32 0.06 17.67-1.07-1.07-2.13-2.2-2.76-3.6-1.65-3.61-1.52-8 0.38-11.49z"/>
				<path class="st28" d="m142.45 414.86c1.67-0.64 3.37-1.22 5.14-1.5 0.37 1.3 0.41 2.28 0.51 3.5-0.38 0.14-0.38 0.14-1.07 0.29-2.25 0.72-4.52 1.4-6.78 2.09-0.02-0.98 0.03-1.95 0.15-2.92 0.56-0.67 1.25-1.17 2.05-1.46z"/>
				<path class="st29" d="m140.26 419.23c2.26-0.69 4.53-1.37 6.78-2.09 0.28-0.04 0.79-0.24 1.07-0.29 0.33 1.02 0.56 2.19 0.74 3.24-2.91 0.92-6.08 1.92-9.05 2.65 0.03-1.44 0.19-2.39 0.46-3.51z"/>
				<path class="st30" d="m140.06 422.67c2.97-0.74 5.88-1.65 8.79-2.57 0.16 0.99 0.45 2.51 0.5 3.54-0.64 0.12-0.64 0.12-1.08 0.2-1.12 0.35-2.24 0.73-3.37 1.06-1.72 0.46-3.43 0.98-5.15 1.41-0.09-1.19-0.08-2.38 0.06-3.56z"/>
				<path class="st31" d="m424.27 373.85c0.64-0.75 1.29-1.54 2.17-2.02 1.3-0.67 2.97-0.64 4.23 0.15 1.08 0.68 1.92 1.66 2.71 2.64 0.39 1.43 0.65 2.89 0.9 4.36-0.27 1.11-0.52 2.23-0.78 3.34-0.83 0.9-1.72 1.74-2.67 2.52l-0.37 0.16c-1.01-0.11-2.05-0.12-2.98-0.53-0.9-0.41-1.65-1.05-2.42-1.66-0.21-0.33-0.41-0.66-0.61-0.99-0.43-1.24-0.85-2.5-0.95-3.82-0.1-1.31 0.32-2.57 0.66-3.82z"/>
				<path class="st31" d="m335.79 490.04c2.22-2.16 6-2.47 8.4-0.42-0.88 0.75-1.77 1.55-2.32 2.58-1.9 3.49-2.03 7.88-0.38 11.49 0.63 1.4 1.69 2.53 2.76 3.6-1.45 1.28-3.45 1.98-5.38 1.72-1.71-0.27-3.25-1.3-4.32-2.64-3.69-4.72-3.11-12.23 1.24-16.33z"/>
				<path class="st32" d="m139.49 430.32c3.51-1.14 7.02-2.3 10.58-3.28 0.2 1.15 0.45 2.31 0.45 3.48-3.62 1.22-7.32 2.24-10.96 3.4-0.26-1.19-0.31-2.42-0.07-3.6z"/>
				<path class="st33" d="m126.68 448.63c2.91-2.28 6.05-4.23 9.24-6.09 1.24-0.36 2.55-0.43 3.82-0.57 10.19-0.78 20.42-0.92 30.63-0.47 3.8 0.21 7.59 0.57 11.39 0.82 1.36 0.09 2.71 0.26 4.04 0.58-7.61 4.47-15.32 8.77-22.62 13.75-2.63-0.85-5.38-1.17-8.08-1.7-4.9-1.03-9.85-1.84-14.71-3.04-4.56-1.12-9.19-2-13.71-3.28z"/>
				<path class="st34" d="m163.18 456.65c7.29-4.98 15.01-9.28 22.62-13.75l0.27 0.07c-3.29 4.44-6.48 8.95-9.54 13.55-3.13 4.92-6.07 9.97-9.07 14.98-0.38 0.68-0.73 1.38-1 2.11 1.86 0.44 3.79 0.23 5.69 0.27 20.9 0.16 41.8-1.3 62.52-4.07 2.37-0.33 4.71-0.86 7.07-1.25 2.62-0.44 5.3-0.5 7.92-1 2.35-0.45 4.7-0.86 7.05-1.27 2.65-0.46 5.2-1.35 7.82-1.94 5.61 2.18 11.2 4.4 16.85 6.45l0.17 0.33c-8.55 1.62-17.28 1.86-25.9 2.94-6.14 0.56-12.28 1.05-18.44 1.43-3.14 0.01-6.26 0.28-9.39 0.58-6.33 0.33-12.66 0.76-18.99 0.89-6.97 0.29-13.94 0.58-20.91 0.77l-9.76 0.12c-1.65-0.04-3.12-0.02-4.76 0.01l-4.85 0.07c-1.98-0.13-3.74 0.05-5.85-0.19 0.8-0.84 1.54-1.75 2.17-2.72-1.99-0.86-4.22-0.58-6.33-0.79-2.36-0.07-4.73-0.63-7.09-0.23-0.14 1.11 0.03 3.06-0.5 4.06-1.49 0.29-3.05 0.01-4.58 0.03-0.37-0.24-0.74-0.49-1.1-0.75 0.53-1 1.26-1.88 1.98-2.74 2.2-2.58 4.29-5.25 6.49-7.84 2.04-2.48 4.21-4.87 6.13-7.45 1.05-0.96 2.16-1.84 3.31-2.67z"/>
				<path class="st34" d="m365.52 430.73c6.55-3.09 13.01-6.36 19.39-9.79 1.52 2.33 3.57 4.23 5.21 6.46 0.26 0.82 1.06 1.34 1.21 2.22-0.37-2.45-1.39-4.87-1.1-7.37 0.03-0.98 1.1-1.04 1.81-1.31 0.75 1.56 2.37 2.35 3.81 3.15 3.38 1.8 7.32 2.83 11.15 2.19 2.62-0.37 4.89-1.84 7.38-2.65-0.73 0.7-1.44 1.42-2.15 2.14-2.76 2.25-5.64 4.36-8.56 6.39-1.76 1.08-3.52 2.16-5.27 3.26-1.29 0.72-2.53 1.52-3.69 2.43-3.31 1.29-6.29 3.25-9.59 4.58-2.1 0.9-4.13 1.95-6.28 2.73-0.96 0.4-2.02 0.7-2.78 1.45 0 0.21-0.01 0.64-0.01 0.86-0.52-0.14-1.07-0.31-1.59-0.12-1.85 0.61-3.57 1.56-5.42 2.15-3.12-1.32-6.24-2.61-9.36-3.92 0.22-3.33 0.71-6.63 0.97-9.95 0.11-0.91 0.16-1.86 0.54-2.7 1.31-1.01 2.89-1.49 4.33-2.2z"/>
				<path class="st35" d="m438.14 400.47c3.27-0.89 6.54-1.93 9.95-2.13 2.84-0.23 5.67 0.24 8.43 0.87 0.02 1.16-0.35 2.28-0.64 3.4-2.42 9.8-6.43 19.26-12.19 27.58-3.63 4.95-7.93 9.55-13.24 12.73-5.11 3.1-11.19 4.85-17.18 4.13l-0.14-0.27c-1.27-3.06-2.72-6.16-2.74-9.54-0.25-3.93 0.9-7.71 1.82-11.48 0.71-0.72 1.42-1.44 2.15-2.14 2.13-1.78 3.94-3.94 5.44-6.28 1.47-2.31 2.49-4.88 3.59-7.38 2.33-1.59 4.47-3.46 6.89-4.92-0.75 3.08-1.91 6.03-2.82 9.06-0.48 1.84-1.04 3.8-0.54 5.69 0.23 0.92 1.25 1.55 2.17 1.24 1.72-0.54 3.05-1.92 4.8-2.41 0.6-0.13 0.95 0.39 0.88 0.95-0.34 3.24-3.59 5.46-3.61 8.77 0.61 0.72 1.69 0.47 2.52 0.74 0.27 1.34-0.21 2.7-0.79 3.9-1.07 2.22-2.79 4.02-4.11 6.09 1.54-0.51 3.02-1.21 4.35-2.13 2.97-2.02 5.68-4.41 8.08-7.09 2.23-2.55 4.36-5.33 5.43-8.58 0.33-0.95 0.35-1.97 0.22-2.96-1.23 0.64-1.82 1.96-2.66 2.98-1.1 1.53-2.71 2.84-4.65 3.02-1.22-3.59 2.36-6.67 1.71-10.26-0.16-0.89-0.72-1.96-1.74-1.96-1.55 0.38-2.86 1.39-4.38 1.84-0.6-2.52 0.47-4.99 1.29-7.33 0.79-1.98 1.31-4.05 1.71-6.13z"/>
				<path class="st36" d="m405.47 497.04c1.12-0.19 2.25-0.28 3.39-0.33-1.1 0.27-2.25 0.55-3.39 0.33z"/>
				<path class="st37" d="m414.11 495.76c1.21-0.37 2.44-0.67 3.68-0.95-1.11 0.66-2.41 0.81-3.68 0.95z"/>
			
		
		<path class="st38" d="m400.48 525.71c1.34-0.38 2.72-0.7 4.09-0.96-1.27 0.68-2.72 0.8-4.09 0.96z"/>
	</g>
</g>

</svg>
