<?xml version="1.0" encoding="utf-8"?>
<!-- Generator: Adobe Illustrator 26.0.3, SVG Export Plug-In . SVG Version: 6.00 Build 0)  -->
<svg version="1.1" xmlns="http://www.w3.org/2000/svg" xmlns:xlink="http://www.w3.org/1999/xlink" x="0px" y="0px"
	 viewBox="0 0 400 300" style="enable-background:new 0 0 400 300;" xml:space="preserve">
<style type="text/css">
	.st0{fill:url(#SVGID_1_);}
	.st1{filter:url(#Adobe_OpacityMaskFilter);}
	.st2{fill:url(#SVGID_00000139291351509710945370000011356387362190880916_);}
	.st3{mask:url(#SVGID_00000062154394698295712030000000913001669346279564_);}
	.st4{fill:#FFE97B;}
	.st5{filter:url(#Adobe_OpacityMaskFilter_00000064339372144820543970000011423056092924967585_);}
	.st6{fill:url(#SVGID_00000066484784214128525620000000798856821638156696_);}
	.st7{mask:url(#SVGID_00000151510122431911845560000010704830451869536907_);fill:#FF295D;}
	.st8{filter:url(#Adobe_OpacityMaskFilter_00000027571258836241520850000005881271210402663048_);}
	.st9{fill:url(#SVGID_00000139253924388658100070000005427389673215548065_);}
	.st10{mask:url(#SVGID_00000059278966011205746410000007129081125892654012_);fill:#FF295D;}
	.st11{fill:url(#SVGID_00000181064215508589246460000017484073771823861405_);}
	.st12{fill:#8F4268;}
	.st13{fill:#A94963;}
	.st14{fill:#B94E62;}
	.st15{fill:#B95162;}
	.st16{filter:url(#Adobe_OpacityMaskFilter_00000087384742941217498310000005207753410721811883_);}
	.st17{fill:url(#SVGID_00000146487694411730553560000000428544103565344384_);}
	.st18{mask:url(#SVGID_00000152955049259897675910000009745901500492539550_);}
	.st19{fill:#FC9F5F;}
	.st20{fill:url(#SVGID_00000150785536171626655460000004009677464941352865_);}
	.st21{fill:url(#SVGID_00000158010901411435174090000016501355415279183239_);}
	.st22{fill:url(#SVGID_00000129890499348570043250000013128293793016968325_);}
	.st23{filter:url(#Adobe_OpacityMaskFilter_00000181071534841794829260000003243567458151522469_);}
	.st24{fill:url(#SVGID_00000019675294369634119680000012441488807671785892_);}
	.st25{mask:url(#SVGID_00000093150151240452187000000017855679754056213172_);fill:#FC955F;}
	.st26{filter:url(#Adobe_OpacityMaskFilter_00000043447493563793368950000011565447419868895670_);}
	.st27{fill:url(#SVGID_00000050656450556318273690000002165252320824308415_);}
	.st28{mask:url(#SVGID_00000163064464954082253150000013486000165337334665_);fill:#FFF17E;}
	.st29{filter:url(#Adobe_OpacityMaskFilter_00000096055908860388227360000017806304753547002010_);}
	.st30{fill:url(#SVGID_00000025429097733397351860000011329729831641830548_);}
	.st31{mask:url(#SVGID_00000175308962167205311980000013268888168466827439_);fill:#FC955F;}
	.st32{filter:url(#Adobe_OpacityMaskFilter_00000099640377407552282220000015985521558835506586_);}
	.st33{fill:url(#SVGID_00000141432355242192918000000007641587679864735662_);}
	.st34{mask:url(#SVGID_00000147207674507408983350000014279072406918358959_);fill:#FF295D;}
	.st35{fill:url(#SVGID_00000149365000010987070940000009732301664521211309_);}
	.st36{fill:#6C335D;}
	.st37{filter:url(#Adobe_OpacityMaskFilter_00000070110847026743637450000003584417541063217577_);}
	.st38{fill:url(#SVGID_00000137821274341777209090000004098034504588093338_);}
	.st39{mask:url(#SVGID_00000119078637904681282450000009994998591248676010_);fill:#FC955F;}
	.st40{fill:url(#SVGID_00000169548082237186631530000011578802798098988967_);}
	.st41{fill:url(#SVGID_00000006671358937609370630000016182936092195669930_);}
	.st42{fill:url(#SVGID_00000176730314746605740490000004802590679497175453_);}
	.st43{filter:url(#Adobe_OpacityMaskFilter_00000044175957078819878050000012818775774647497647_);}
	.st44{fill:url(#SVGID_00000126307264266845306140000015729811128455253413_);}
	.st45{mask:url(#SVGID_00000099637535823351779380000012245299045635636112_);fill:#B14755;}
	.st46{fill:url(#SVGID_00000141445158581080565050000010409692078799430825_);}
	.st47{fill:url(#SVGID_00000121976098419164155890000002493653976067534747_);}
	.st48{fill:url(#SVGID_00000006686742488140337680000000792844252565881791_);}
	.st49{fill:url(#SVGID_00000112627166997233782960000014876060889964943527_);}
	.st50{filter:url(#Adobe_OpacityMaskFilter_00000162319950188934620730000007732660519255229623_);}
	.st51{fill:url(#SVGID_00000108292494256989523330000006051126712950983615_);}
	.st52{mask:url(#SVGID_00000024691955680609884770000017375258391650465969_);}
	.st53{fill:#B14755;}
	.st54{filter:url(#Adobe_OpacityMaskFilter_00000147900719101996712740000006540643857188140933_);}
	.st55{fill:url(#SVGID_00000134236148419073030180000002885361875296970419_);}
	.st56{mask:url(#SVGID_00000125585991934413787930000003453922728321405342_);fill:#B14755;}
	.st57{filter:url(#Adobe_OpacityMaskFilter_00000091730707087214706100000009040298684945843116_);}
	.st58{fill:url(#SVGID_00000066485592574411043380000015357816204094730154_);}
	.st59{mask:url(#SVGID_00000075851638180831146660000002764636581445209734_);fill:#FC4E5F;}
	.st60{filter:url(#Adobe_OpacityMaskFilter_00000114034495424863249960000015999356951952950695_);}
	.st61{fill:url(#SVGID_00000140007021295115877510000007093282775601410481_);}
	.st62{mask:url(#SVGID_00000020379195392252662310000007628732530855560867_);fill:#FC4E5F;}
	.st63{filter:url(#Adobe_OpacityMaskFilter_00000108291392955208284640000011134109431244825731_);}
	.st64{fill:url(#SVGID_00000154390710353194349330000014420319097705221273_);}
	.st65{mask:url(#SVGID_00000168821515152369130010000012700739993333665158_);fill:#FC4E5F;}
	.st66{fill:#FFFCBC;}
	.st67{fill:#AA4D55;}
	.st68{fill:url(#SVGID_00000021093689086398047630000016933408513914058128_);}
	.st69{fill:#FFFCB8;}
	.st70{fill:#E1C5AF;}
	.st71{fill:url(#SVGID_00000039121571487505946720000011218883315277108391_);}
	.st72{fill:#531939;}
	.st73{filter:url(#Adobe_OpacityMaskFilter_00000145757778829828177300000010525519657051614593_);}
	.st74{fill:url(#SVGID_00000082363594651299504880000012709086945316178055_);}
	.st75{mask:url(#SVGID_00000079463848070766068770000011122487627747573900_);}
	.st76{filter:url(#Adobe_OpacityMaskFilter_00000045592072894011491580000012394357238520910746_);}
	.st77{fill:url(#SVGID_00000004545715172977431990000011677763961594713499_);}
	.st78{mask:url(#SVGID_00000002386272910239798130000009806873886620709551_);fill:#B14755;}
	.st79{display:none;}
	.st80{display:inline;}
	.st81{fill-rule:evenodd;clip-rule:evenodd;fill:#1A1A18;stroke:#1A1A18;stroke-width:0.1015;stroke-miterlimit:22.9256;}
	.st82{fill-rule:evenodd;clip-rule:evenodd;fill:#1A1A18;}
	.st83{fill-rule:evenodd;clip-rule:evenodd;fill:#F6F6F6;}
	
		.st84{fill-rule:evenodd;clip-rule:evenodd;fill:#D2CC00;stroke:#1A1A18;stroke-width:0.3801;stroke-linejoin:round;stroke-miterlimit:22.9256;}
	
		.st85{fill-rule:evenodd;clip-rule:evenodd;fill:#999621;stroke:#1A1A18;stroke-width:0.3801;stroke-linejoin:round;stroke-miterlimit:22.9256;}
	
		.st86{fill-rule:evenodd;clip-rule:evenodd;fill:#FCE915;stroke:#1A1A18;stroke-width:0.3801;stroke-linejoin:round;stroke-miterlimit:22.9256;}
	.st87{opacity:0.3;fill-rule:evenodd;clip-rule:evenodd;fill:#0F0E09;}
	
		.st88{fill-rule:evenodd;clip-rule:evenodd;fill:#C91214;stroke:#1A1A18;stroke-width:0.3801;stroke-linejoin:round;stroke-miterlimit:22.9256;}
	
		.st89{fill-rule:evenodd;clip-rule:evenodd;fill:#86140D;stroke:#1A1A18;stroke-width:0.3801;stroke-linejoin:round;stroke-miterlimit:22.9256;}
	
		.st90{fill-rule:evenodd;clip-rule:evenodd;fill:#E2110F;stroke:#1A1A18;stroke-width:0.3801;stroke-linejoin:round;stroke-miterlimit:22.9256;}
	
		.st91{fill-rule:evenodd;clip-rule:evenodd;fill:#435CA6;stroke:#1A1A18;stroke-width:0.3801;stroke-linejoin:round;stroke-miterlimit:22.9256;}
	
		.st92{fill-rule:evenodd;clip-rule:evenodd;fill:#3B4998;stroke:#1A1A18;stroke-width:0.3801;stroke-linejoin:round;stroke-miterlimit:22.9256;}
	
		.st93{fill-rule:evenodd;clip-rule:evenodd;fill:#4370B5;stroke:#1A1A18;stroke-width:0.3801;stroke-linejoin:round;stroke-miterlimit:22.9256;}
	
		.st94{fill-rule:evenodd;clip-rule:evenodd;fill:#D5D3D3;stroke:#1A1A18;stroke-width:0.3801;stroke-linejoin:round;stroke-miterlimit:22.9256;}
	
		.st95{fill-rule:evenodd;clip-rule:evenodd;fill:#A29E9D;stroke:#1A1A18;stroke-width:0.3801;stroke-linejoin:round;stroke-miterlimit:22.9256;}
	
		.st96{fill-rule:evenodd;clip-rule:evenodd;fill:#F8F8F8;stroke:#1A1A18;stroke-width:0.3801;stroke-linejoin:round;stroke-miterlimit:22.9256;}
	
		.st97{fill-rule:evenodd;clip-rule:evenodd;fill:#262422;stroke:#1A1A18;stroke-width:0.3801;stroke-linejoin:round;stroke-miterlimit:22.9256;}
	
		.st98{fill-rule:evenodd;clip-rule:evenodd;fill:#0F0E09;stroke:#1A1A18;stroke-width:0.3801;stroke-linejoin:round;stroke-miterlimit:22.9256;}
	
		.st99{fill-rule:evenodd;clip-rule:evenodd;fill:#3E3A38;stroke:#1A1A18;stroke-width:0.3801;stroke-linejoin:round;stroke-miterlimit:22.9256;}
	.st100{display:inline;fill:#FFFFFF;stroke:#000000;stroke-width:0.25;stroke-miterlimit:10;}
	.st101{font-family:'Roboto-Bold';}
	.st102{font-size:10px;}
</style>
<g id="Layer_2">
	<g>
		<linearGradient id="SVGID_1_" gradientUnits="userSpaceOnUse" x1="210.8911" y1="173.7563" x2="188.9689" y2="0.1345">
			<stop  offset="0" style="stop-color:#FFFFC9"/>
			<stop  offset="0.2727" style="stop-color:#FFF17E"/>
			<stop  offset="0.7884" style="stop-color:#FC955F"/>
			<stop  offset="1" style="stop-color:#FC785F"/>
		</linearGradient>
		<rect class="st0" width="400" height="175"/>
		<defs>
			<filter id="Adobe_OpacityMaskFilter" filterUnits="userSpaceOnUse" x="0" y="0" width="400" height="167.5">
				<feColorMatrix  type="matrix" values="1 0 0 0 0  0 1 0 0 0  0 0 1 0 0  0 0 0 1 0"/>
			</filter>
		</defs>
		
			<mask maskUnits="userSpaceOnUse" x="0" y="0" width="400" height="167.5" id="SVGID_00000011713947223196346130000003431844997914141575_">
			<g class="st1">
				
					<linearGradient id="SVGID_00000109725245635073385750000018435582188098368400_" gradientUnits="userSpaceOnUse" x1="0" y1="83.7337" x2="400" y2="83.7337">
					<stop  offset="0.1912" style="stop-color:#000000"/>
					<stop  offset="0.3931" style="stop-color:#101010"/>
					<stop  offset="0.7875" style="stop-color:#3B3B3B"/>
					<stop  offset="1" style="stop-color:#545454"/>
				</linearGradient>
				<path style="fill:url(#SVGID_00000109725245635073385750000018435582188098368400_);" d="M0,132.6v-4.4L400,9.3v4
					C299,40.7,43.8,120.8,0,132.6z M0,115.4C84.8,92.7,323.2,19.6,395.9,0h-75.2L0,94.7V115.4z M57.5,167.5
					c0,0,342.5-99.2,342.5-99.9V23.7l-363.5,111L57.5,167.5z"/>
			</g>
		</mask>
		<g style="mask:url(#SVGID_00000011713947223196346130000003431844997914141575_);">
			<path class="st4" d="M0,132.6v-4.4L400,9.3v4C299,40.7,43.8,120.8,0,132.6z M0,115.4C84.8,92.7,323.2,19.6,395.9,0h-75.2L0,94.7
				V115.4z M57.5,167.5c0,0,342.5-99.2,342.5-99.9V23.7l-363.5,111L57.5,167.5z"/>
		</g>
		<defs>
			
				<filter id="Adobe_OpacityMaskFilter_00000081621939837673726050000002205777447694005391_" filterUnits="userSpaceOnUse" x="87.1" y="129.1" width="110.7" height="58.6">
				<feColorMatrix  type="matrix" values="1 0 0 0 0  0 1 0 0 0  0 0 1 0 0  0 0 0 1 0"/>
			</filter>
		</defs>
		
			<mask maskUnits="userSpaceOnUse" x="87.1" y="129.1" width="110.7" height="58.6" id="SVGID_00000040571883776249182830000002962804550799759030_">
			<g style="filter:url(#Adobe_OpacityMaskFilter_00000081621939837673726050000002205777447694005391_);">
				
					<linearGradient id="SVGID_00000004517324690451280050000013429051281918784139_" gradientUnits="userSpaceOnUse" x1="87.1035" y1="158.4122" x2="197.7942" y2="158.4122">
					<stop  offset="0.3103" style="stop-color:#000000"/>
					<stop  offset="1" style="stop-color:#252525"/>
				</linearGradient>
				<polygon style="fill:url(#SVGID_00000004517324690451280050000013429051281918784139_);" points="197.8,129.1 87.1,162.7 
					87.1,187.7 197.8,187.7 				"/>
			</g>
		</mask>
		<polygon style="mask:url(#SVGID_00000040571883776249182830000002962804550799759030_);fill:#FF295D;" points="197.8,129.1 
			87.1,162.7 87.1,187.7 197.8,187.7 		"/>
		<defs>
			
				<filter id="Adobe_OpacityMaskFilter_00000083057077851751319720000018069240842173408145_" filterUnits="userSpaceOnUse" x="130.4" y="139.1" width="110.7" height="58.6">
				<feColorMatrix  type="matrix" values="1 0 0 0 0  0 1 0 0 0  0 0 1 0 0  0 0 0 1 0"/>
			</filter>
		</defs>
		
			<mask maskUnits="userSpaceOnUse" x="130.4" y="139.1" width="110.7" height="58.6" id="SVGID_00000090973179644147494580000016405410971704012453_">
			<g style="filter:url(#Adobe_OpacityMaskFilter_00000083057077851751319720000018069240842173408145_);">
				
					<linearGradient id="SVGID_00000055709420649081056020000011483711382565113790_" gradientUnits="userSpaceOnUse" x1="130.4405" y1="168.4147" x2="241.1311" y2="168.4147">
					<stop  offset="0.3103" style="stop-color:#000000"/>
					<stop  offset="1" style="stop-color:#252525"/>
				</linearGradient>
				<polygon style="fill:url(#SVGID_00000055709420649081056020000011483711382565113790_);" points="241.1,139.1 130.4,172.7 
					130.4,197.7 241.1,197.7 				"/>
			</g>
		</mask>
		<polygon style="mask:url(#SVGID_00000090973179644147494580000016405410971704012453_);fill:#FF295D;" points="241.1,139.1 
			130.4,172.7 130.4,197.7 241.1,197.7 		"/>
		
			<linearGradient id="SVGID_00000042720242623433934290000012210266167054855356_" gradientUnits="userSpaceOnUse" x1="75.5558" y1="233.7733" x2="330.5479" y2="181.6753">
			<stop  offset="0" style="stop-color:#454264"/>
			<stop  offset="0.2915" style="stop-color:#7B426D"/>
			<stop  offset="0.5078" style="stop-color:#874264"/>
			<stop  offset="1" style="stop-color:#B95062"/>
		</linearGradient>
		<polygon style="fill:url(#SVGID_00000042720242623433934290000012210266167054855356_);" points="328.5,153.4 325.5,175.7 
			309.6,191.1 305.3,207.2 259.7,275.9 136.6,275.9 117.6,227.8 96.5,200.2 68.2,173.1 76.9,163.4 93.2,166 98.8,160.9 109.6,158.2 
			115.9,161.9 141.4,150.3 155.1,156.1 173.8,139.1 197.5,129.1 207.8,139.1 226,153.4 232,141.7 242.1,139.1 246.7,144.8 
			254.9,146.6 267.7,158.7 276.6,154.3 284.5,159.5 289.8,161.5 303.7,157.7 310.2,151.7 321.7,150 		"/>
		<path class="st12" d="M141.4,150.3l2.1,2.7c0,0-6.5,2.8-5.8,2.8s6.8,0,6.8,0l0.2,2.5l6.2,0.2l4.1-2.4L141.4,150.3z"/>
		<polygon class="st13" points="226,153.4 222.1,157.1 201.5,154.5 208.6,144.8 195.5,141.8 185.4,142.5 198.1,136.5 189.7,136.9 
			197.5,129.1 207.8,139.1 		"/>
		<polygon class="st14" points="279.5,171 267.5,168.8 260.8,169.1 256.3,162.4 249.1,162.4 251,157.1 246.9,147.8 244.6,153 
			241.3,146.3 242.1,139.1 246.7,144.8 254.9,146.6 267.7,158.7 		"/>
		<path class="st15" d="M276.6,154.3c-0.1,0.9-1.1,4.4-1.1,4.4l7.2,3l4.8,5l9.8,3.5l8.8-1.8l-12.5-4l-3.7-3L276.6,154.3z"/>
		<defs>
			
				<filter id="Adobe_OpacityMaskFilter_00000180368211164104895950000005079718022697479862_" filterUnits="userSpaceOnUse" x="68.2" y="129.1" width="260.3" height="146.8">
				<feColorMatrix  type="matrix" values="1 0 0 0 0  0 1 0 0 0  0 0 1 0 0  0 0 0 1 0"/>
			</filter>
		</defs>
		
			<mask maskUnits="userSpaceOnUse" x="68.2" y="129.1" width="260.3" height="146.8" id="SVGID_00000106858008987654948130000007769427087581093566_">
			<g style="filter:url(#Adobe_OpacityMaskFilter_00000180368211164104895950000005079718022697479862_);">
				
					<linearGradient id="SVGID_00000099651937547435216560000008744459319821799588_" gradientUnits="userSpaceOnUse" x1="216.256" y1="272.9789" x2="195.254" y2="144.2834">
					<stop  offset="0" style="stop-color:#FFFFFF"/>
					<stop  offset="0.7837" style="stop-color:#000000"/>
				</linearGradient>
				<polygon style="fill:url(#SVGID_00000099651937547435216560000008744459319821799588_);" points="321.7,150 310.2,151.7 
					303.7,157.7 289.8,161.5 284.5,159.5 276.6,154.3 267.7,158.7 254.9,146.6 246.7,144.8 242.1,139.1 232,141.7 226,153.4 
					207.8,139.1 197.5,129.1 173.8,139.1 155.1,156.1 141.4,150.3 115.9,161.9 109.6,158.2 98.8,160.9 93.2,166 76.9,163.4 
					68.2,173.1 96.5,200.2 117.6,227.8 136.6,275.9 259.7,275.9 305.3,207.2 309.6,191.1 325.5,175.7 328.5,153.4 				"/>
			</g>
		</mask>
		<g style="mask:url(#SVGID_00000106858008987654948130000007769427087581093566_);">
			<polygon class="st19" points="328.5,153.4 325.5,175.7 309.6,191.1 305.3,207.2 259.7,275.9 136.6,275.9 117.6,227.8 96.5,200.2 
				68.2,173.1 76.9,163.4 93.2,166 98.8,160.9 109.6,158.2 115.9,161.9 141.4,150.3 155.1,156.1 173.8,139.1 197.5,129.1 
				207.8,139.1 226,153.4 232,141.7 242.1,139.1 246.7,144.8 254.9,146.6 267.7,158.7 276.6,154.3 284.5,159.5 289.8,161.5 
				303.7,157.7 310.2,151.7 321.7,150 			"/>
		</g>
		
			<linearGradient id="SVGID_00000084516988949921629280000007587901268710262439_" gradientUnits="userSpaceOnUse" x1="152.4162" y1="226.6467" x2="307.389" y2="247.2802">
			<stop  offset="0" style="stop-color:#313B64"/>
			<stop  offset="0.6708" style="stop-color:#874264"/>
			<stop  offset="1" style="stop-color:#B95062"/>
		</linearGradient>
		<polygon style="fill:url(#SVGID_00000084516988949921629280000007587901268710262439_);" points="306.7,188.5 307,183.5 
			289.5,182.6 283,185.6 257.9,182.6 243.1,188.5 227.9,201 216.8,204 203.6,220.9 191.6,230.1 178.1,250 160.8,253.5 150.6,264.6 
			206.4,297.6 267.3,291.2 298.9,244.4 		"/>
		
			<linearGradient id="SVGID_00000072246745556251681910000005008464922668980371_" gradientUnits="userSpaceOnUse" x1="204.5505" y1="270.0802" x2="279.6628" y2="288.7661">
			<stop  offset="3.134800e-03" style="stop-color:#3E3964"/>
			<stop  offset="0.6646" style="stop-color:#6C4064"/>
			<stop  offset="1" style="stop-color:#925062"/>
		</linearGradient>
		<polygon style="fill:url(#SVGID_00000072246745556251681910000005008464922668980371_);" points="202,272.1 216.8,265.4 
			232.4,266.9 243.1,263.1 259.2,263.1 279.4,270.2 265.1,286.4 250.5,297.6 232.4,297.6 		"/>
		
			<linearGradient id="SVGID_00000083084562826334022000000016000074250526800297_" gradientUnits="userSpaceOnUse" x1="179.4086" y1="299.75" x2="179.4086" y2="220.6787">
			<stop  offset="0" style="stop-color:#925062"/>
			<stop  offset="0.3354" style="stop-color:#6C4064"/>
			<stop  offset="1" style="stop-color:#313B64"/>
		</linearGradient>
		<polygon style="fill:url(#SVGID_00000083084562826334022000000016000074250526800297_);" points="119.4,220.7 136.7,236.6 
			158.7,240.1 170.3,250.1 193.4,269.9 223.5,276.5 236.7,289.5 254.8,299.8 147.6,299.8 104.1,229.9 		"/>
		<defs>
			
				<filter id="Adobe_OpacityMaskFilter_00000103956906595288941810000004840261688180656306_" filterUnits="userSpaceOnUse" x="144.6" y="254.2" width="126.2" height="41.9">
				<feColorMatrix  type="matrix" values="1 0 0 0 0  0 1 0 0 0  0 0 1 0 0  0 0 0 1 0"/>
			</filter>
		</defs>
		
			<mask maskUnits="userSpaceOnUse" x="144.6" y="254.2" width="126.2" height="41.9" id="SVGID_00000071551711566455468160000000455302995523672718_">
			<g style="filter:url(#Adobe_OpacityMaskFilter_00000103956906595288941810000004840261688180656306_);">
				
					<linearGradient id="SVGID_00000150818680353555112240000001676354130751250098_" gradientUnits="userSpaceOnUse" x1="222.801" y1="297.3372" x2="222.801" y2="251.3942" gradientTransform="matrix(0.9992 -3.940000e-02 3.940000e-02 0.9992 -25.7279 9.4352)">
					<stop  offset="0" style="stop-color:#474747"/>
					<stop  offset="0.1499" style="stop-color:#3B3B3B"/>
					<stop  offset="0.7122" style="stop-color:#101010"/>
					<stop  offset="1" style="stop-color:#000000"/>
				</linearGradient>
				<path style="fill:url(#SVGID_00000150818680353555112240000001676354130751250098_);" d="M158.5,258.5c2.7,0.9,5.8,0.7,8.4-0.4
					c1.9-0.8,3.7-2.2,5.8-2.3c1.6-0.1,3.2,0.7,4.8,1c4,0.9,8.3-0.4,12.3,0.2c6,0.9,11.4,6.1,17.2,4.4c2.3-0.6,4.7-2.3,6.9-1.3
					c1.6,0.8,2.4,3,4.1,3.6c2.3,0.8,4.3-1.5,6.5-2.5c4-1.9,8.6,0.6,12.3,2.9c2.8,1.8,6.4,2.1,9.4,3.6c4.2,2,3.8,5.3,6.9,7.9
					c2.1,1.7,4.6,3,7.2,3.7c0.9,0.2,1.8,0.4,2.5,1c0.8,0.6,1.3,1.6,1.8,2.4c1.5,2.6,3.6,4.9,6,6.8c-4.2,1.6-8.3,3.2-12.5,4.8
					c-2.3,0.9-4.8,1.8-7.3,1.4c-3.4-0.6-6.1-3.7-9.6-3.9c-2.3-0.1-4.5,1.1-6.8,1.2c-2.4,0.2-4.8-0.7-7.1-1.5
					c-8.8-3.2-18.4-5.5-27.5-3c-2.9,0.8-5.6,2.1-8.5,2.6c-4.1,0.7-8.5-0.2-12-2.5c-2.5-1.7-4.6-4-7.3-5.3c-3.6-1.7-7.8-1.4-11.8-1.1
					c-0.9,0.1-1.9,0.1-2.6-0.4c-1.2-0.8-1.3-2.5-1.8-3.8c-1.3-3.6-5.5-5.2-7.8-8.2c-1.8-2.4-5-11.7-3-14.4
					C148.1,251.6,155.4,257.5,158.5,258.5z"/>
			</g>
		</mask>
		<path style="mask:url(#SVGID_00000071551711566455468160000000455302995523672718_);fill:#FC955F;" d="M158.5,258.5
			c2.7,0.9,5.8,0.7,8.4-0.4c1.9-0.8,3.7-2.2,5.8-2.3c1.6-0.1,3.2,0.7,4.8,1c4,0.9,8.3-0.4,12.3,0.2c6,0.9,11.4,6.1,17.2,4.4
			c2.3-0.6,4.7-2.3,6.9-1.3c1.6,0.8,2.4,3,4.1,3.6c2.3,0.8,4.3-1.5,6.5-2.5c4-1.9,8.6,0.6,12.3,2.9c2.8,1.8,6.4,2.1,9.4,3.6
			c4.2,2,3.8,5.3,6.9,7.9c2.1,1.7,4.6,3,7.2,3.7c0.9,0.2,1.8,0.4,2.5,1c0.8,0.6,1.3,1.6,1.8,2.4c1.5,2.6,3.6,4.9,6,6.8
			c-4.2,1.6-8.3,3.2-12.5,4.8c-2.3,0.9-4.8,1.8-7.3,1.4c-3.4-0.6-6.1-3.7-9.6-3.9c-2.3-0.1-4.5,1.1-6.8,1.2
			c-2.4,0.2-4.8-0.7-7.1-1.5c-8.8-3.2-18.4-5.5-27.5-3c-2.9,0.8-5.6,2.1-8.5,2.6c-4.1,0.7-8.5-0.2-12-2.5c-2.5-1.7-4.6-4-7.3-5.3
			c-3.6-1.7-7.8-1.4-11.8-1.1c-0.9,0.1-1.9,0.1-2.6-0.4c-1.2-0.8-1.3-2.5-1.8-3.8c-1.3-3.6-5.5-5.2-7.8-8.2c-1.8-2.4-5-11.7-3-14.4
			C148.1,251.6,155.4,257.5,158.5,258.5z"/>
		<defs>
			
				<filter id="Adobe_OpacityMaskFilter_00000010284586018963846530000016697516485223652244_" filterUnits="userSpaceOnUse" x="104.3" y="234.6" width="186.1" height="59.6">
				<feColorMatrix  type="matrix" values="1 0 0 0 0  0 1 0 0 0  0 0 1 0 0  0 0 0 1 0"/>
			</filter>
		</defs>
		
			<mask maskUnits="userSpaceOnUse" x="104.3" y="234.6" width="186.1" height="59.6" id="SVGID_00000144296001518482576280000006805171868193770909_">
			<g style="filter:url(#Adobe_OpacityMaskFilter_00000010284586018963846530000016697516485223652244_);">
				
					<linearGradient id="SVGID_00000121964511430253177250000014605850197974090635_" gradientUnits="userSpaceOnUse" x1="2101.2126" y1="1372.0093" x2="2101.2126" y2="1301.7617" gradientTransform="matrix(-0.9945 0.1044 -0.1044 -0.9945 2424.405 1376.2373)">
					<stop  offset="0" style="stop-color:#0A0A0A"/>
					<stop  offset="0.2778" style="stop-color:#1A1A1A"/>
					<stop  offset="0.8207" style="stop-color:#454545"/>
					<stop  offset="1" style="stop-color:#545454"/>
				</linearGradient>
				<path style="fill:url(#SVGID_00000121964511430253177250000014605850197974090635_);" d="M269.6,286.2c-4.1-1-8.7-0.3-12.6,2.1
					c-2.8,1.7-5.5,4.4-8.6,4.9c-2.4,0.4-4.8-0.6-7.2-0.9c-6-0.9-12.3,2.1-18.4,1.7c-9-0.6-17.4-8.5-26-4.7
					c-3.4,1.5-6.9,4.8-10.2,3.4c-2.5-1.1-3.7-4.7-6.3-5.5c-3.4-1-6.4,3.2-9.6,5.4c-5.9,3.9-12.8,0.5-18.5-3
					c-4.2-2.6-9.7-2.5-14.3-4.5c-6.3-2.8-5.9-8.5-10.7-12.4c-3.2-2.6-7-4.4-11-5.2c-1.3-0.3-2.7-0.4-3.9-1.2c-1.3-0.9-2-2.4-2.9-3.9
					c-2.4-4.2-5.6-7.9-9.2-10.7c6.2-3.5,12.3-6.9,18.5-10.4c3.4-1.9,7.1-3.9,10.8-3.6c5.2,0.5,9.3,5.4,14.6,5.1
					c3.5-0.2,6.7-2.6,10.2-3.3c3.6-0.7,7.2,0.4,10.6,1.5c13.3,4,27.8,6.3,41.2,0.4c4.2-1.9,8.3-4.5,12.6-5.8
					c6.1-1.9,12.7-1.1,18,2.3c3.8,2.4,7,6,11.1,7.8c5.5,2.3,11.8,1,17.7-0.1c1.3-0.3,2.8-0.5,3.9,0.2c1.8,1.1,2.1,4,2.8,6.3
					c2,6,8.4,8,12,12.8c2.9,3.8,8.1,19.2,5.2,24.2C285.4,296.4,274.2,287.4,269.6,286.2z"/>
			</g>
		</mask>
		<path style="mask:url(#SVGID_00000144296001518482576280000006805171868193770909_);fill:#FFF17E;" d="M269.6,286.2
			c-4.1-1-8.7-0.3-12.6,2.1c-2.8,1.7-5.5,4.4-8.6,4.9c-2.4,0.4-4.8-0.6-7.2-0.9c-6-0.9-12.3,2.1-18.4,1.7c-9-0.6-17.4-8.5-26-4.7
			c-3.4,1.5-6.9,4.8-10.2,3.4c-2.5-1.1-3.7-4.7-6.3-5.5c-3.4-1-6.4,3.2-9.6,5.4c-5.9,3.9-12.8,0.5-18.5-3c-4.2-2.6-9.7-2.5-14.3-4.5
			c-6.3-2.8-5.9-8.5-10.7-12.4c-3.2-2.6-7-4.4-11-5.2c-1.3-0.3-2.7-0.4-3.9-1.2c-1.3-0.9-2-2.4-2.9-3.9c-1.4-2.5-5.4-5.9-5.2-9.2
			c0.4-7,10.2-9.2,14.5-11.8c3.4-1.9,7.1-3.9,10.8-3.6c5.2,0.5,9.3,5.4,14.6,5.1c3.5-0.2,6.7-2.6,10.2-3.3c3.6-0.7,7.2,0.4,10.6,1.5
			c13.3,4,27.8,6.3,41.2,0.4c4.2-1.9,8.3-4.5,12.6-5.8c6.1-1.9,12.7-1.1,18,2.3c3.8,2.4,7,6,11.1,7.8c5.5,2.3,11.8,1,17.7-0.1
			c1.3-0.3,2.8-0.5,3.9,0.2c1.8,1.1,2.1,4,2.8,6.3c2,6,8.4,8,12,12.8c2.9,3.8,8.1,19.2,5.2,24.2
			C285.4,296.4,274.2,287.4,269.6,286.2z"/>
		<defs>
			
				<filter id="Adobe_OpacityMaskFilter_00000003069285023324051240000006422430393953437593_" filterUnits="userSpaceOnUse" x="143.8" y="249" width="163" height="50.4">
				<feColorMatrix  type="matrix" values="1 0 0 0 0  0 1 0 0 0  0 0 1 0 0  0 0 0 1 0"/>
			</filter>
		</defs>
		
			<mask maskUnits="userSpaceOnUse" x="143.8" y="249" width="163" height="50.4" id="SVGID_00000131337912931367440070000014466207603041663109_">
			<g style="filter:url(#Adobe_OpacityMaskFilter_00000003069285023324051240000006422430393953437593_);">
				
					<linearGradient id="SVGID_00000183957318650888521220000005382314090855577776_" gradientUnits="userSpaceOnUse" x1="237.7803" y1="296.8643" x2="237.7803" y2="251.486" gradientTransform="matrix(0.9994 -3.440000e-02 3.440000e-02 0.9994 -21.9909 8.3037)">
					<stop  offset="0" style="stop-color:#474747"/>
					<stop  offset="0.1499" style="stop-color:#3B3B3B"/>
					<stop  offset="0.7122" style="stop-color:#101010"/>
					<stop  offset="1" style="stop-color:#000000"/>
				</linearGradient>
				<path style="fill:url(#SVGID_00000183957318650888521220000005382314090855577776_);" d="M300.1,250.1c-2-1.9-5.4-1.2-7.6,0.6
					c-2.1,1.8-3.4,4.3-5.2,6.5c-2.6,3.2-6.3,5.5-10.3,6.4c-1.1,0.2-2.2,0.4-3,1.1c-0.5,0.4-0.9,1.1-1.4,1.6c-1.2,1.6-3,2.7-4.7,3.8
					c-4.3,2.8-9.5,5.7-14.3,3.8c-2.9-1.1-5.3-3.9-8.4-3.9c-3.3,0-5,2.3-7.8,4.2c-3.7,2.4-8.6,0.7-12.6-1.2c-4-1.8-8.9-3.7-12.7-1.4
					c-2.5,1.5-4.6,4.7-7.4,3.8c-1.3-0.4-2.2-1.7-3.3-2.6c-2.3-1.9-5.8-2-8.6-1c-2.8,1-5.2,3-7.6,4.9c-3.9-1.5-8.1-2.5-12.3-2
					s-8.3,2.6-10.5,6.2c-0.8,1.3-1.4,2.9-2.4,4c-1.1,1.2-2.5,1.9-4,2.6c-4.1,1.9-8.2,3.9-12.3,5.8c-0.5,2.3,1.2,4.6,3.3,5.5
					c2.1,0.9,4.6,0.8,6.8,0.5c9.3-1.2,18.2-4.8,27.5-5.3c7.7-0.5,15.3,1,22.9,1.7c7.7,0.7,15.4,0.6,23.1,0.4
					c4.2-0.1,8.5-0.2,12.6-1.2c3.1-0.8,6-2,9.1-2.5c3.4-0.6,7-0.3,10.4-0.5c5.4-0.3,10.7-2,16.1-2.7c3.7-0.5,7.4-0.6,11.1-1.4
					c9.4-2.2,17.3-10,19.6-19.5C307.8,262.5,304.3,254.2,300.1,250.1z"/>
			</g>
		</mask>
		<path style="mask:url(#SVGID_00000131337912931367440070000014466207603041663109_);fill:#FC955F;" d="M300.1,250.1
			c-2-1.9-5.4-1.2-7.6,0.6c-2.1,1.8-3.4,4.3-5.2,6.5c-2.6,3.2-6.3,5.5-10.3,6.4c-1.1,0.2-2.2,0.4-3,1.1c-0.5,0.4-0.9,1.1-1.4,1.6
			c-1.2,1.6-3,2.7-4.7,3.8c-4.3,2.8-9.5,5.7-14.3,3.8c-2.9-1.1-5.3-3.9-8.4-3.9c-3.3,0-5,2.3-7.8,4.2c-3.7,2.4-8.6,0.7-12.6-1.2
			c-4-1.8-8.9-3.7-12.7-1.4c-2.5,1.5-4.6,4.7-7.4,3.8c-1.3-0.4-2.2-1.7-3.3-2.6c-2.3-1.9-5.8-2-8.6-1c-2.8,1-5.2,3-7.6,4.9
			c-3.9-1.5-8.1-2.5-12.3-2s-8.3,2.6-10.5,6.2c-0.8,1.3-1.4,2.9-2.4,4c-1.1,1.2-2.5,1.9-4,2.6c-4.1,1.9-8.2,3.9-12.3,5.8
			c-0.5,2.3,1.2,4.6,3.3,5.5c2.1,0.9,4.6,0.8,6.8,0.5c9.3-1.2,18.2-4.8,27.5-5.3c7.7-0.5,15.3,1,22.9,1.7c7.7,0.7,15.4,0.6,23.1,0.4
			c4.2-0.1,8.5-0.2,12.6-1.2c3.1-0.8,6-2,9.1-2.5c3.4-0.6,7-0.3,10.4-0.5c5.4-0.3,10.7-2,16.1-2.7c3.7-0.5,7.4-0.6,11.1-1.4
			c9.4-2.2,17.3-10,19.6-19.5C307.8,262.5,304.3,254.2,300.1,250.1z"/>
		<defs>
			
				<filter id="Adobe_OpacityMaskFilter_00000090295701338702950570000001785183559268547251_" filterUnits="userSpaceOnUse" x="250.2" y="105" width="149.8" height="195">
				<feColorMatrix  type="matrix" values="1 0 0 0 0  0 1 0 0 0  0 0 1 0 0  0 0 0 1 0"/>
			</filter>
		</defs>
		
			<mask maskUnits="userSpaceOnUse" x="250.2" y="105" width="149.8" height="195" id="SVGID_00000117664699907627070670000017762694389482798765_">
			<g style="filter:url(#Adobe_OpacityMaskFilter_00000090295701338702950570000001785183559268547251_);">
				
					<linearGradient id="SVGID_00000005255030012390230140000010992671696847697312_" gradientUnits="userSpaceOnUse" x1="250.25" y1="202.4996" x2="400" y2="202.4996">
					<stop  offset="0" style="stop-color:#000000"/>
					<stop  offset="1" style="stop-color:#434343"/>
				</linearGradient>
				<path style="fill:url(#SVGID_00000005255030012390230140000010992671696847697312_);" d="M362.2,105l-111.9,33.9V300H400
					c0,0,0-192.3,0-193.1C400,107.8,362.2,105,362.2,105z"/>
			</g>
		</mask>
		<path style="mask:url(#SVGID_00000117664699907627070670000017762694389482798765_);fill:#FF295D;" d="M362.2,105l-111.9,33.9V300
			H400c0,0,0-192.3,0-193.1C400,107.8,362.2,105,362.2,105z"/>
		
			<linearGradient id="SVGID_00000145033064687665605600000007553911510758388653_" gradientUnits="userSpaceOnUse" x1="291.549" y1="194.0361" x2="376.3912" y2="249.6208">
			<stop  offset="0" style="stop-color:#482C5C"/>
			<stop  offset="0.4796" style="stop-color:#65365D"/>
			<stop  offset="1" style="stop-color:#9A445D"/>
		</linearGradient>
		<polygon style="fill:url(#SVGID_00000145033064687665605600000007553911510758388653_);" points="390.5,117.8 395.2,102.2 
			380.8,103.9 371.6,99.6 362.2,105 357,114.2 330.4,140.4 321.7,153.4 313.1,164.1 301.6,184.6 283,233.9 275.5,267.8 256.6,281.6 
			225.7,287.1 209.4,300 369.9,300 		"/>
		<polygon class="st36" points="384.9,109.9 376.5,106.9 372.8,104 363.9,104 371.6,99.6 380.8,103.9 395.2,102.2 392.9,109.9 		"/>
		<defs>
			
				<filter id="Adobe_OpacityMaskFilter_00000100343117768925543340000000374406174850402719_" filterUnits="userSpaceOnUse" x="105.2" y="241.5" width="116" height="55.4">
				<feColorMatrix  type="matrix" values="1 0 0 0 0  0 1 0 0 0  0 0 1 0 0  0 0 0 1 0"/>
			</filter>
		</defs>
		
			<mask maskUnits="userSpaceOnUse" x="105.2" y="241.5" width="116" height="55.4" id="SVGID_00000169542593833460504780000010899023994112568214_">
			<g style="filter:url(#Adobe_OpacityMaskFilter_00000100343117768925543340000000374406174850402719_);">
				
					<linearGradient id="SVGID_00000075139485857202249900000003284762754269060261_" gradientUnits="userSpaceOnUse" x1="956.5578" y1="1084.0587" x2="956.5578" y2="1042.9849" gradientTransform="matrix(-0.9893 -0.146 0.146 -0.9893 954.3206 1459.941)">
					<stop  offset="0" style="stop-color:#000000"/>
					<stop  offset="0.2878" style="stop-color:#101010"/>
					<stop  offset="0.8501" style="stop-color:#3B3B3B"/>
					<stop  offset="1" style="stop-color:#474747"/>
				</linearGradient>
				<path style="fill:url(#SVGID_00000075139485857202249900000003284762754269060261_);" d="M207.7,291.2c-2.5-1.3-5.4-1.6-8.2-1.1
					c-2,0.4-4,1.3-6,1c-1.6-0.2-3-1.1-4.4-1.7c-3.7-1.5-8-1-11.8-2.3c-5.6-1.9-9.9-7.4-15.8-6.9c-2.3,0.2-5,1.3-6.8,0
					c-1.4-1-1.7-3.1-3.3-3.9c-2-1.1-4.4,0.6-6.7,1.1c-4.2,1-8.1-2-11.3-4.7c-2.3-2-5.8-3-8.4-4.8c-3.6-2.5-2.7-5.4-5.2-8.2
					c-1.7-1.9-3.9-3.5-6.3-4.6c-0.8-0.4-1.7-0.7-2.3-1.3c-0.7-0.7-1-1.6-1.3-2.5c-1-2.6-2.5-5-4.5-7.1c4.3-0.7,8.6-1.5,12.9-2.2
					c2.4-0.4,4.9-0.8,7.2,0c3.2,1.1,5.2,4.4,8.5,5.2c2.2,0.5,4.5-0.2,6.8,0c2.4,0.2,4.5,1.5,6.5,2.6c7.9,4.4,16.8,8,25.9,7.3
					c2.9-0.2,5.7-0.9,8.6-0.8c4.1,0.1,8.1,1.6,11.1,4.3c2.1,1.9,3.7,4.3,6.1,6c3.2,2.2,7.3,2.6,11.2,3c0.9,0.1,1.8,0.2,2.5,0.8
					c1,0.9,0.8,2.4,1,3.7c0.6,3.4,4.3,5.6,6,8.7c1.3,2.5,2.7,11.3,0.3,13.4C216.4,299.1,210.5,292.6,207.7,291.2z"/>
			</g>
		</mask>
		<path style="mask:url(#SVGID_00000169542593833460504780000010899023994112568214_);fill:#FC955F;" d="M207.7,291.2
			c-2.5-1.3-5.4-1.6-8.2-1.1c-2,0.4-4,1.3-6,1c-1.6-0.2-3-1.1-4.4-1.7c-3.7-1.5-8-1-11.8-2.3c-5.6-1.9-9.9-7.4-15.8-6.9
			c-2.3,0.2-5,1.3-6.8,0c-1.4-1-1.7-3.1-3.3-3.9c-2-1.1-4.4,0.6-6.7,1.1c-4.2,1-8.1-2-11.3-4.7c-2.3-2-5.8-3-8.4-4.8
			c-3.6-2.5-2.7-5.4-5.2-8.2c-1.7-1.9-3.9-3.5-6.3-4.6c-0.8-0.4-1.7-0.7-2.3-1.3c-0.7-0.7-1-1.6-1.3-2.5c-1-2.6-2.5-5-4.5-7.1
			c4.3-0.7,8.6-1.5,12.9-2.2c2.4-0.4,4.9-0.8,7.2,0c3.2,1.1,5.2,4.4,8.5,5.2c2.2,0.5,4.5-0.2,6.8,0c2.4,0.2,4.5,1.5,6.5,2.6
			c7.9,4.4,16.8,8,25.9,7.3c2.9-0.2,5.7-0.9,8.6-0.8c4.1,0.1,8.1,1.6,11.1,4.3c2.1,1.9,3.7,4.3,6.1,6c3.2,2.2,7.3,2.6,11.2,3
			c0.9,0.1,1.8,0.2,2.5,0.8c1,0.9,0.8,2.4,1,3.7c0.6,3.4,4.3,5.6,6,8.7c1.3,2.5,2.7,11.3,0.3,13.4
			C216.4,299.1,210.5,292.6,207.7,291.2z"/>
		
			<linearGradient id="SVGID_00000074426657618675353020000008491467770916238211_" gradientUnits="userSpaceOnUse" x1="178.8383" y1="300" x2="178.8383" y2="260.4643">
			<stop  offset="0" style="stop-color:#3C2B57"/>
			<stop  offset="0.6646" style="stop-color:#6C4064"/>
			<stop  offset="1" style="stop-color:#925062"/>
		</linearGradient>
		<polygon style="fill:url(#SVGID_00000074426657618675353020000008491467770916238211_);" points="135.5,260.5 166.6,269.4 
			178.1,280.3 187.7,286.5 202,280.3 211.5,286.5 216.8,289.4 224.9,292.7 228.8,300 154.9,300 128.9,263.1 		"/>
		
			<linearGradient id="SVGID_00000021842169579089804230000007589500789075545237_" gradientUnits="userSpaceOnUse" x1="89.8187" y1="300" x2="89.8187" y2="106.9">
			<stop  offset="6.269590e-03" style="stop-color:#352957"/>
			<stop  offset="0.6991" style="stop-color:#C35455"/>
			<stop  offset="1" style="stop-color:#CD7955"/>
		</linearGradient>
		<polygon style="fill:url(#SVGID_00000021842169579089804230000007589500789075545237_);" points="170.2,300 65.5,300 9.4,106.9 
			30.7,106.9 55.3,119.4 62.5,124.5 62.2,130.7 78.5,147.5 96.7,181 119.4,220.9 125.9,238 132.8,255.9 145.4,276.8 159.4,288.2 		
			"/>
		
			<linearGradient id="SVGID_00000010300080924799908400000016087611155387788463_" gradientUnits="userSpaceOnUse" x1="57.7334" y1="180.2179" x2="57.7334" y2="106.9">
			<stop  offset="1.880880e-02" style="stop-color:#C86157"/>
			<stop  offset="1" style="stop-color:#E29855"/>
		</linearGradient>
		<path style="fill:url(#SVGID_00000010300080924799908400000016087611155387788463_);" d="M88.8,174.8l0.3,3.5
			c1.8,0.2,3.5,0.8,4.9,2c0.4-0.7,0.8-1.4,1.2-2.1l-16.7-30.7l-16.3-16.7l0.2-6.2l-7.2-5.2l-24.6-12.5H20.3c0.4,2,0.7,3.3,0.7,3.3
			c1,0.2,20,8.8,20.2,9.5S48,132,48,132l12.2,4.2c0,0,3.2,3.5,4,4.5s0,5.8,0,5.8s6.8,1.2,7.2,2s9,11.2,9,11.2l-1.2,9.2l2.5,1.8
			l3.2-2.2L88.8,174.8z"/>
		<defs>
			
				<filter id="Adobe_OpacityMaskFilter_00000147915975824433586120000010996585986261440924_" filterUnits="userSpaceOnUse" x="104.3" y="282.6" width="189.7" height="17.4">
				<feColorMatrix  type="matrix" values="1 0 0 0 0  0 1 0 0 0  0 0 1 0 0  0 0 0 1 0"/>
			</filter>
		</defs>
		
			<mask maskUnits="userSpaceOnUse" x="104.3" y="282.6" width="189.7" height="17.4" id="SVGID_00000178180145590158575450000000255099779393613452_">
			<g style="filter:url(#Adobe_OpacityMaskFilter_00000147915975824433586120000010996585986261440924_);">
				
					<linearGradient id="SVGID_00000000911289009560149340000013251408341931692680_" gradientUnits="userSpaceOnUse" x1="199.14" y1="300" x2="199.14" y2="282.5658">
					<stop  offset="0" style="stop-color:#474747"/>
					<stop  offset="0.1499" style="stop-color:#3B3B3B"/>
					<stop  offset="0.7122" style="stop-color:#101010"/>
					<stop  offset="1" style="stop-color:#000000"/>
				</linearGradient>
				<path style="fill:url(#SVGID_00000000911289009560149340000013251408341931692680_);" d="M292.6,300H104.5
					c-0.9-4.5,1.6-9.1,4.7-12.6c2.1-2.3,7.3-3.6,10.3-4.4c3.9-1.1,8.4-0.1,11.6,2.5c1.2,1,2.2,2.2,3.5,3c2.3,1.4,5.2,1.3,8,1.2
					c3.9-0.2,7.7-0.4,11.6-0.6c0.5,0,1.1-0.1,1.6-0.1c3.8-0.2,7.5-0.4,11.3-0.6c2.5-0.1,4.4-1.3,6.7-0.1c2.2,1.2,4.1,3,6.5,3.8
					c6.4,2.2,13.4-2.7,20.1-1.7c4.3,0.7,8.8,3.8,12.7,1.8c1.3-0.7,2.2-1.8,3.3-2.7c4-3.6,10.1-4.6,15.1-2.5c1.6,0.7,3.1,1.6,4.8,1.9
					c2.7,0.3,5.1-1.2,7.4-2.6c3.9-2.3,9.5-3.9,12.5-0.6c0.8,0.9,1.3,2,2.2,2.7c0.9,0.7,2,0.9,3.1,1.1c3.3,0.6,6.7,1.2,10,1.7
					c1.1,0.2,2.3,0.4,3.4,0.3c1-0.1,1.9-0.3,2.9-0.5c5.3-1.1,10.9-0.6,16,1.3C294.4,295,293.9,297.6,292.6,300z"/>
			</g>
		</mask>
		<path style="mask:url(#SVGID_00000178180145590158575450000000255099779393613452_);fill:#B14755;" d="M292.6,300H104.5
			c-0.9-4.5,1.6-9.1,4.7-12.6c2.1-2.3,7.3-3.6,10.3-4.4c3.9-1.1,8.4-0.1,11.6,2.5c1.2,1,2.2,2.2,3.5,3c2.3,1.4,5.2,1.3,8,1.2
			c3.9-0.2,7.7-0.4,11.6-0.6c0.5,0,1.1-0.1,1.6-0.1c3.8-0.2,7.5-0.4,11.3-0.6c2.5-0.1,4.4-1.3,6.7-0.1c2.2,1.2,4.1,3,6.5,3.8
			c6.4,2.2,13.4-2.7,20.1-1.7c4.3,0.7,8.8,3.8,12.7,1.8c1.3-0.7,2.2-1.8,3.3-2.7c4-3.6,10.1-4.6,15.1-2.5c1.6,0.7,3.1,1.6,4.8,1.9
			c2.7,0.3,5.1-1.2,7.4-2.6c3.9-2.3,9.5-3.9,12.5-0.6c0.8,0.9,1.3,2,2.2,2.7c0.9,0.7,2,0.9,3.1,1.1c3.3,0.6,6.7,1.2,10,1.7
			c1.1,0.2,2.3,0.4,3.4,0.3c1-0.1,1.9-0.3,2.9-0.5c5.3-1.1,10.9-0.6,16,1.3C294.4,295,293.9,297.6,292.6,300z"/>
		
			<linearGradient id="SVGID_00000181770153252529917010000004284502442180738189_" gradientUnits="userSpaceOnUse" x1="99.9411" y1="300" x2="99.9411" y2="175.1997">
			<stop  offset="6.269590e-03" style="stop-color:#312351"/>
			<stop  offset="0.9185" style="stop-color:#9C4055"/>
		</linearGradient>
		<polygon style="fill:url(#SVGID_00000181770153252529917010000004284502442180738189_);" points="61.4,175.2 83.7,186.5 
			90.1,197.3 110,244.7 121.2,263.1 125.1,283 132.8,287.5 144,294.2 147.6,300 52.3,300 		"/>
		
			<linearGradient id="SVGID_00000064326615367597122340000008376447949446534573_" gradientUnits="userSpaceOnUse" x1="261.9449" y1="300" x2="261.9449" y2="243.9862">
			<stop  offset="0" style="stop-color:#39244F"/>
			<stop  offset="1" style="stop-color:#582D58"/>
		</linearGradient>
		<polygon style="fill:url(#SVGID_00000064326615367597122340000008376447949446534573_);" points="303.4,244 291,255.9 
			278.1,264.6 269.8,280.5 257.9,289.5 243.1,289.7 223.5,295.8 219,300 304.9,300 		"/>
		
			<linearGradient id="SVGID_00000003787858168377901310000016115521995499633333_" gradientUnits="userSpaceOnUse" x1="59.5025" y1="300" x2="59.5025" y2="72.9025">
			<stop  offset="0" style="stop-color:#2A1C4B"/>
			<stop  offset="0.5" style="stop-color:#93354E"/>
			<stop  offset="1" style="stop-color:#B15D4E"/>
		</linearGradient>
		<path style="fill:url(#SVGID_00000003787858168377901310000016115521995499633333_);" d="M119,300H0V72.9L8,81l4.7,8.1l6.1,6.8
			l9.1,15.8l3.3,10.6l6.2,8.2l0,7.8L53,153.6l6.8,17.4l2.6,6.6c0,0,10,22,11.4,23.1c1.4,1.1,16.4,55.5,16.4,55.5l7,22.7l14.8,15.9
			L119,300z"/>
		
			<linearGradient id="SVGID_00000052814979750421903740000013707534504405692823_" gradientUnits="userSpaceOnUse" x1="277.0549" y1="193.3254" x2="399.6184" y2="193.3254">
			<stop  offset="9.404390e-03" style="stop-color:#302555"/>
			<stop  offset="1" style="stop-color:#56365D"/>
		</linearGradient>
		<path style="fill:url(#SVGID_00000052814979750421903740000013707534504405692823_);" d="M400,86.7l-9.6,8.8l-2.8,11l-2.6,3.4
			l-3.5,21l-11.1,11.6l-15.9,15.7l-11.2,15.4l-9.4,6l-7.8,9.8c0,0-1.5,7.7-1.5,8.6c0,0.8-3.4,7.8-3.4,7.8l-6.4,5.9l-9.4,27.2
			c0,0-3.8,9.8-4.5,10.9c-0.7,1.1-10.9,19.9-10.9,19.9l-3.2,18l-9.6,12.4H400V86.7z"/>
		<defs>
			
				<filter id="Adobe_OpacityMaskFilter_00000072243251179591092240000000197130416462414768_" filterUnits="userSpaceOnUse" x="224" y="231.1" width="176" height="68.9">
				<feColorMatrix  type="matrix" values="1 0 0 0 0  0 1 0 0 0  0 0 1 0 0  0 0 0 1 0"/>
			</filter>
		</defs>
		
			<mask maskUnits="userSpaceOnUse" x="224" y="231.1" width="176" height="68.9" id="SVGID_00000107567059740310104230000007054403589500961679_">
			<g style="filter:url(#Adobe_OpacityMaskFilter_00000072243251179591092240000000197130416462414768_);">
				
					<linearGradient id="SVGID_00000090999645679490712470000010398983526220168581_" gradientUnits="userSpaceOnUse" x1="312.0107" y1="300" x2="312.0107" y2="231.1265">
					<stop  offset="0" style="stop-color:#474747"/>
					<stop  offset="0.1499" style="stop-color:#3B3B3B"/>
					<stop  offset="0.7122" style="stop-color:#101010"/>
					<stop  offset="1" style="stop-color:#000000"/>
				</linearGradient>
				<path style="fill:url(#SVGID_00000090999645679490712470000010398983526220168581_);" d="M400,231.1c0,0-27.4,3.9-35.4,8.3
					c-3.3,1.8-9.2,7.1-10.9,10.5c-1.2,2.4-0.8,8-1.5,10.6c-0.8,2.6-2.5,8.1-4.5,9.9c-2.6,2.3-10.4,2.4-13.1,4.6
					c-3.2,2.5-5,11.8-8.6,13.6c-4.9,2.5-20.6-1.3-21.7-1.7c-1.1-0.4-15.9,0.4-21,1.7c-4,1-11,5.6-15,6.5c-5.3,1.1-16.4-0.6-21.8,0
					c-5.7,0.6-22.5,5-22.5,5h176V231.1z"/>
			</g>
		</mask>
		<g style="mask:url(#SVGID_00000107567059740310104230000007054403589500961679_);">
			<path class="st53" d="M400,231.1c0,0-27.4,3.9-35.4,8.3c-3.3,1.8-9.2,7.1-10.9,10.5c-1.2,2.4-0.8,8-1.5,10.6
				c-0.8,2.6-2.5,8.1-4.5,9.9c-2.6,2.3-10.4,2.4-13.1,4.6c-3.2,2.5-5,11.8-8.6,13.6c-4.9,2.5-20.6-1.3-21.7-1.7
				c-1.1-0.4-15.9,0.4-21,1.7c-4,1-11,5.6-15,6.5c-5.3,1.1-16.4-0.6-21.8,0c-5.7,0.6-22.5,5-22.5,5h176V231.1z"/>
		</g>
		<defs>
			
				<filter id="Adobe_OpacityMaskFilter_00000066498071556903776710000005693605570887425189_" filterUnits="userSpaceOnUse" x="0" y="202.3" width="146.9" height="97.7">
				<feColorMatrix  type="matrix" values="1 0 0 0 0  0 1 0 0 0  0 0 1 0 0  0 0 0 1 0"/>
			</filter>
		</defs>
		
			<mask maskUnits="userSpaceOnUse" x="0" y="202.3" width="146.9" height="97.7" id="SVGID_00000088813446824711096240000013303535990775623817_">
			<g style="filter:url(#Adobe_OpacityMaskFilter_00000066498071556903776710000005693605570887425189_);">
				
					<linearGradient id="SVGID_00000008855905807329117070000001320386509571421583_" gradientUnits="userSpaceOnUse" x1="73.4628" y1="300" x2="73.4628" y2="202.2679">
					<stop  offset="0" style="stop-color:#474747"/>
					<stop  offset="0.1499" style="stop-color:#3B3B3B"/>
					<stop  offset="0.7122" style="stop-color:#101010"/>
					<stop  offset="1" style="stop-color:#000000"/>
				</linearGradient>
				<path style="fill:url(#SVGID_00000008855905807329117070000001320386509571421583_);" d="M0,202.5c4.6-1.1,10.3,2,12.7,6
					c2.4,4,2.9,8.8,3.5,13.5c0.6,4.6,1.2,9.5,3.8,13.4c3.9,6,11.1,8.6,17.8,10.9c4.7,1.6,10.1,1.8,14.1,4.8
					c6,4.4,9.9,11.3,14.3,17.3c3.1,4.3,6.7,8.8,11.8,10.1c4.3,1.1,8.9-0.4,13.4-0.3c4.4,0.1,8.6,1.9,12.7,3.6
					c7.2,3.1,14.4,6.1,21.6,9.2c7.1,3,14.2,6,21.3,9H0V202.5z"/>
			</g>
		</mask>
		<path style="mask:url(#SVGID_00000088813446824711096240000013303535990775623817_);fill:#B14755;" d="M0,202.5
			c4.6-1.1,10.3,2,12.7,6c2.4,4,2.9,8.8,3.5,13.5c0.6,4.6,1.2,9.5,3.8,13.4c3.9,6,11.1,8.6,17.8,10.9c4.7,1.6,10.1,1.8,14.1,4.8
			c6,4.4,9.9,11.3,14.3,17.3c3.1,4.3,6.7,8.8,11.8,10.1c4.3,1.1,8.9-0.4,13.4-0.3c4.4,0.1,8.6,1.9,12.7,3.6
			c7.2,3.1,14.4,6.1,21.6,9.2c7.1,3,14.2,6,21.3,9H0V202.5z"/>
		<g>
			<defs>
				
					<filter id="Adobe_OpacityMaskFilter_00000034064673098897673750000015182583512751410355_" filterUnits="userSpaceOnUse" x="126.8" y="162.9" width="112.4" height="49.5">
					<feColorMatrix  type="matrix" values="1 0 0 0 0  0 1 0 0 0  0 0 1 0 0  0 0 0 1 0"/>
				</filter>
			</defs>
			
				<mask maskUnits="userSpaceOnUse" x="126.8" y="162.9" width="112.4" height="49.5" id="SVGID_00000007412087438349388110000004891645257295759778_">
				<g style="filter:url(#Adobe_OpacityMaskFilter_00000034064673098897673750000015182583512751410355_);">
					
						<linearGradient id="SVGID_00000086677163985675413490000007013481595313091738_" gradientUnits="userSpaceOnUse" x1="126.6901" y1="212.2453" x2="227.0247" y2="154.3171">
						<stop  offset="8.150470e-02" style="stop-color:#000000"/>
						<stop  offset="0.431" style="stop-color:#101010"/>
						<stop  offset="1" style="stop-color:#333333"/>
					</linearGradient>
					<polygon style="fill:url(#SVGID_00000086677163985675413490000007013481595313091738_);" points="197.5,162.9 126.8,184.3 
						126.8,212.4 239.1,175.3 					"/>
				</g>
			</mask>
			<polygon style="mask:url(#SVGID_00000007412087438349388110000004891645257295759778_);fill:#FC4E5F;" points="197.5,162.9 
				126.8,184.3 126.8,212.4 239.1,175.3 			"/>
			<defs>
				
					<filter id="Adobe_OpacityMaskFilter_00000036940163501500822120000017451375559384865195_" filterUnits="userSpaceOnUse" x="98.9" y="161.1" width="112.4" height="49.5">
					<feColorMatrix  type="matrix" values="1 0 0 0 0  0 1 0 0 0  0 0 1 0 0  0 0 0 1 0"/>
				</filter>
			</defs>
			
				<mask maskUnits="userSpaceOnUse" x="98.9" y="161.1" width="112.4" height="49.5" id="SVGID_00000138557975694921765140000015626609146102251428_">
				<g style="filter:url(#Adobe_OpacityMaskFilter_00000036940163501500822120000017451375559384865195_);">
					
						<linearGradient id="SVGID_00000051377896548609095620000014155238880332886440_" gradientUnits="userSpaceOnUse" x1="98.8167" y1="210.471" x2="199.1513" y2="152.5428">
						<stop  offset="8.150470e-02" style="stop-color:#000000"/>
						<stop  offset="0.431" style="stop-color:#101010"/>
						<stop  offset="1" style="stop-color:#333333"/>
					</linearGradient>
					<polygon style="fill:url(#SVGID_00000051377896548609095620000014155238880332886440_);" points="169.6,161.1 98.9,182.5 
						98.9,210.6 211.2,173.5 					"/>
				</g>
			</mask>
			<polygon style="mask:url(#SVGID_00000138557975694921765140000015626609146102251428_);fill:#FC4E5F;" points="169.6,161.1 
				98.9,182.5 98.9,210.6 211.2,173.5 			"/>
			<defs>
				
					<filter id="Adobe_OpacityMaskFilter_00000170985680305495688540000004804751598671050129_" filterUnits="userSpaceOnUse" x="159.5" y="173.6" width="112.4" height="50">
					<feColorMatrix  type="matrix" values="1 0 0 0 0  0 1 0 0 0  0 0 1 0 0  0 0 0 1 0"/>
				</filter>
			</defs>
			
				<mask maskUnits="userSpaceOnUse" x="159.5" y="173.6" width="112.4" height="50" id="SVGID_00000072259560086743318700000013140049715958945201_">
				<g style="filter:url(#Adobe_OpacityMaskFilter_00000170985680305495688540000004804751598671050129_);">
					
						<linearGradient id="SVGID_00000132078390337977265430000012080311735843874689_" gradientUnits="userSpaceOnUse" x1="159.3864" y1="223.4516" x2="259.7209" y2="165.5234">
						<stop  offset="8.150470e-02" style="stop-color:#000000"/>
						<stop  offset="0.431" style="stop-color:#101010"/>
						<stop  offset="1" style="stop-color:#333333"/>
					</linearGradient>
					<polyline style="fill:url(#SVGID_00000132078390337977265430000012080311735843874689_);" points="230.2,174.1 159.5,195.5 
						159.5,223.6 271.8,186.5 					"/>
				</g>
			</mask>
			<polygon style="mask:url(#SVGID_00000072259560086743318700000013140049715958945201_);fill:#FC4E5F;" points="230.5,173.6 
				159.7,195 159.5,223.6 271.8,186.5 			"/>
		</g>
		<path class="st66" d="M272.4,191h-2.3c0,0,0.1-0.6-0.2-1.4c-0.5-0.1-0.8-0.6-0.7-1.2c-0.5,0.2-1.1,0.1-1.5-0.2
			c-0.3-0.3-0.4-0.7-0.3-1c0-0.1,0-0.3,0.1-0.4c-0.1,0-0.2,0.1-0.3,0.1c-0.6,0.2-1.4,0.2-1.9-0.1c-0.6-0.3-1-0.9-1.2-1.5
			c0,0-0.1,0-0.1,0c-0.3,0.9-1.1,1.9-2,2c-0.6,0.1-1.3,0-1.8-0.4c-0.3,0.1-0.6,0.2-1,0.2c-0.2,0.6-0.7,1.2-1.2,1.5
			c-0.8,0.4-1.8,0.2-2.5-0.3c-0.5-0.3-0.8-0.8-1.1-1.3c-0.1,0-0.3,0-0.4-0.1c-0.2,0.5-0.5,0.9-1,1.1c-0.8,0.3-1.7,0.1-2.2-0.5
			c-0.3-0.4-0.5-0.9-0.5-1.5c-0.3-0.1-0.6-0.3-0.9-0.4c-0.7,0.1-1.5,0-2.2-0.3c-0.7-0.3-1.3-0.9-1.4-1.6c-0.1-0.4,0-0.9,0.2-1.3
			c-0.1-0.1-0.2-0.3-0.3-0.4c-1.5,0-2.9-0.6-3.8-1.7c-0.5-0.6-0.8-1.4-0.9-2.1c-1.2-0.3-2.3-0.9-3.1-1.8c-0.3-0.3-0.7-0.7-1-1.1
			c-0.9-0.4-1.6-0.9-2.4-1.5c-0.8,0.6-1.8,1.1-2.8,1.2c-1.1,0.2-2.2-0.2-3.1-0.7c-0.5,0.4-1.1,0.8-1.9,1c-0.3,0.1-0.9-0.1-1.7-0.2
			c-1.3,1.2-3.2,1.8-5,1.5c-1.1-0.1-2.1-0.5-3-1.2c-1.5,0.3-3,0.4-4.3,0.3c-2.2-0.1-4.3-1.2-5.8-2.9c-1,0.6-2.2,0.9-3.4,0.9
			c-0.8,0-1.6-0.1-2.4-0.4c-1.7,2.5-4.6,4.1-7.9,4.1c-4.5,0-8.2-3.1-9.2-7.2c-1.4,1-3.2,0.8-4.5,1.8c-1.3,1.1-2.7,2.1-4.4,2.3
			c-0.2,0-0.4,0-0.6,0c-0.7,0.3-1.5,0.4-2.3,0.4c-3,0-5.6-1.9-6.5-4.6c-0.9,0.3-1.7,0.8-2.7,1c-1,0.2-2.1,0.1-2.8-0.6
			c-0.6-0.8-0.3-2.2,0.7-2.3c-0.1-1.4-2.1-1.2-3.5-1s-2.6,0.9-4,0.8c-1.6-0.9-2.8-2.5-3.3-4.2c-0.1-0.3-0.2-0.6-0.1-1
			c0-0.1,0-0.2,0.1-0.3c0.2-0.4,0.6-0.7,1-0.5c3.1,1.5,7.4,0.8,10.6-0.2c1.3-0.4,2.5-0.9,3.8-1.5c0.8-2.8,3.4-4.8,6.4-4.9
			c1.7-2.5,4.6-4.1,7.8-4.1c3.2,0,6,1.5,7.7,3.9c2.2-1.1,4.5-2.1,6.9-2c0.6,0,1.2,0.2,1.8,0.4c0.1,0,0.2,0.1,0.3,0.1
			c0.1-0.3,0.3-0.5,0.5-0.8c1.7-2.5,4.6-4.1,7.9-4.1c4.6,0,8.4,3.2,9.3,7.6c1.3,0.8,2.4,1.9,3.2,3.2c0.3,0.5,0.5,1,0.8,1.5
			c0.7,0.5,1.2,1.2,1.4,2c1.2-1,3-1.4,4.5-1c1.6,0.4,2.6,2,3.3,3.5c0.4-1.1,1.4-1.9,2.6-2.1c1.1-0.2,2.1,0,2.9,0.9
			c1.4-1.2,3.5-1.4,5.1-0.4c1.4,0.9,2.1,2.6,1.9,4.2c0.1,0.1,0.2,0.2,0.3,0.3c0.5-0.3,1.2-0.3,1.7-0.3c0.9,0.1,1.7,0.4,2.5,0.9
			c1.7,0.3,3.3,1.3,4.4,2.7c1.4,1.6,2,3.7,2.5,5.8c0.6,0.3,1.1,1,1.2,1.7c0.7-0.7,1.9-0.7,2.7-0.2c0.8-0.7,1.9-1,3-0.7
			c0.8,0.2,1.6,0.8,2,1.5c0.2,0.1,0.3,0.1,0.5,0.2c0.4-0.6,1.2-0.8,1.9-0.6c0.8,0.2,1.8,1,2.4,1.6c1-0.2,2.1,0.1,2.8,0.8
			c0.6,0.6,0.9,1.5,0.9,2.4c0.2,0.1,0.4,0.3,0.5,0.4c0.7,0,1.4,0.4,1.8,1c0.4,0.5,0.5,1.1,0.7,1.8C272.7,188.5,273,189.8,272.4,191z
			"/>
		<path class="st67" d="M16.4,197.3h-1.2v3.8h1.2c0.4,0,0.7-0.3,0.7-0.7v-2.4C17.1,197.6,16.8,197.3,16.4,197.3z"/>
		
			<linearGradient id="SVGID_00000180362724942043569810000003140900087419831959_" gradientUnits="userSpaceOnUse" x1="29.8862" y1="177.75" x2="29.8862" y2="72.9025">
			<stop  offset="0" style="stop-color:#A23A4E"/>
			<stop  offset="1" style="stop-color:#C5634E"/>
		</linearGradient>
		<path style="fill:url(#SVGID_00000180362724942043569810000003140900087419831959_);" d="M59.8,171c0,0.5,0,0.7,0,0.7l-5.2,6
			l-15-8l1.2-8.5l-4-4.2l-4.5-5l3.5-6.2l-1-6c0,0-4-6.5-4.8-6.5s-7,0.2-7,0.2l-2.8-5.5c0,0-5.5-4.2-6.2-5s-6.8-0.8-6.8-1.5
			s-1.5-7-2-8s-1.2-10-1.2-10l-4-9.2V72.9L8,81l4.7,8.1l6.1,6.8l9.1,15.8l3.3,10.6l6.2,8.2l0,7.8L53,153.6L59.8,171z"/>
		<path class="st69" d="M169.9,167.2c-0.1,0-0.2,0.1-0.3,0.1c-0.3,0-0.5,0-0.7,0C169.2,167.2,169.6,167.2,169.9,167.2z"/>
		<path class="st69" d="M222.5,168.9c-0.3-0.3-0.4-0.6-0.3-1C222.4,168.2,222.5,168.6,222.5,168.9z"/>
		<path class="st70" d="M267.2,186.7c0,0,0,0.1,0.1,0.1c-0.6,0.2-1.4,0.2-1.9-0.1c-0.6-0.3-1-0.9-1.2-1.5c0,0-0.1,0-0.1,0
			c-0.3,0.9-1.1,1.9-2,2c-0.6,0.1-1.3,0-1.8-0.4c-0.3,0.1-0.6,0.2-1,0.2c-0.2,0.6-0.7,1.2-1.2,1.5c-0.8,0.4-1.8,0.2-2.5-0.3
			c-0.5-0.3-0.8-0.8-1.1-1.3c-0.1,0-0.3,0-0.4-0.1c-0.2,0.5-0.5,0.9-1,1.1c-0.8,0.3-1.7,0.1-2.2-0.5c-0.3-0.4-0.5-0.9-0.5-1.5
			c-0.3-0.1-0.6-0.3-0.9-0.4c-0.7,0.1-1.5,0-2.2-0.3c-0.7-0.3-1.3-0.9-1.4-1.6c-0.1-0.4,0-0.9,0.2-1.3c-0.1-0.1-0.2-0.3-0.3-0.4
			c-1.5,0-2.9-0.6-3.8-1.7c-0.5-0.6-0.8-1.4-0.9-2.1c-1.2-0.3-2.3-0.9-3.1-1.8c-0.3-0.3-0.7-0.7-1-1.1c-0.9-0.4-1.6-0.9-2.4-1.5
			c-0.8,0.6-1.8,1.1-2.8,1.2c-1.1,0.2-2.2-0.2-3.1-0.7c-0.5,0.4-1.1,0.8-1.9,1c-0.3,0.1-0.9-0.1-1.7-0.2c-1.3,1.2-3.2,1.8-5,1.5
			c-1.1-0.1-2.1-0.5-3-1.2c-1.5,0.3-3,0.4-4.3,0.3c-2.2-0.1-4.3-1.2-5.8-2.9c-1,0.6-2.2,0.9-3.4,0.9c-0.8,0-1.6-0.1-2.4-0.4
			c-1.7,2.5-4.6,4.1-7.9,4.1c-4.5,0-8.2-3.1-9.2-7.2c-1.4,1-3.2,0.8-4.5,1.8c-1.3,1.1-2.7,2.1-4.4,2.3c-0.2,0-0.4,0-0.6,0
			c-0.7,0.3-1.5,0.4-2.3,0.4c-3,0-5.6-1.9-6.5-4.6c-0.9,0.3-1.7,0.8-2.7,1c-1,0.2-2.1,0.1-2.8-0.6c-0.6-0.8-0.3-2.2,0.7-2.3
			c-0.1-1.4-2.1-1.2-3.5-1s-2.6,0.9-4,0.8c-1.6-0.9-2.8-2.5-3.3-4.2c-0.1-0.3-0.2-0.6-0.1-1c0.6,0.8,1.5,1.4,2.5,1.7
			c1.5,0.3,3.1,0,4.7-0.3c2.6-0.6,6.3-0.3,8.4-1.8c-0.7,1.2-0.6,2.9,0.3,4c0.8,1,2.3,1.5,3.5,1c1.5-0.1,3.5-0.9,3.6-2.2
			c0.5,1.9,2.5,3.2,4.4,3.1c1.9-0.2,3.6-1.9,3.8-3.8c0.2,1.8,4.4,1.8,5.6,0.5c-0.5,2.8,2.5,6.1,5.3,6.6c2.8,0.5,5.8-1.6,6.3-4.4
			c-3.2,0.2-5.4-3.1-5.6-6.4c-0.1-2.7,1.3-5.3,3.3-7c0.3-0.2,0.5-0.4,0.8-0.6c0.2-0.1,0.4-0.2,0.5-0.4c0.5,0.5,1-0.5,0.9,0.2
			c-0.2,2.5,0.8,5.2,2.7,6.9c1.9,1.7,4.7,2.4,7.2,1.8c0,2.2,3.2,3.7,5.3,3.3c-1.9,0.6-2.7,2-2.6,4c0.1,1.9,2.5,3.6,4.1,2.4
			c1.3,1.5,4.3,0.9,5.9-0.2c0.6-0.4,1.1-1.2,1.2-1.9c0.4,0.4,0.9,0.8,1.4,1c0.8,0.4,1.8,0.3,2.5-0.3c1,1.6,4.7,0.6,5.2-1.2
			c0.3,2,4.3,1.6,5.5,0c-0.6,2.1,1.8,4.5,4,4.6c0.6,0,1.2-0.1,1.7,0.1c1.4,0.4,1.6,2.2,1.6,3.6c0,2,2.4,3.1,4.4,2.6
			c-0.7,1.1,0.1,3.5,1.1,4.3c1,0.8,2.6,0.6,3.5-0.4c0.9,1.5,3.6,1.2,4.4-0.4c-0.3,0.7,1,0.7,1.7,1.2c0.6,0.6,1.7,0.6,2.4,0.1
			c-0.2,0.6,2,0.8,2.6,0.9c0.6,0,1.3-0.1,1.9,0.2C266.8,185.4,266.9,186.1,267.2,186.7z"/>
		<path class="st69" d="M270.2,191c0,0,0.1-0.6-0.2-1.4c-0.5-0.1-0.8-0.6-0.7-1.2c-0.5,0.2-1.1,0.1-1.5-0.2c-0.3-0.3-0.4-0.7-0.3-1
			c0.3,0.4,0.8,0.6,1.2,0.4c1.6,0.1,2.8,1.7,3.2,3.6H270.2z"/>
		
			<linearGradient id="SVGID_00000168820114497369023750000016484198826041526975_" gradientUnits="userSpaceOnUse" x1="93.6311" y1="136.1931" x2="356.5565" y2="359.9072">
			<stop  offset="3.134800e-03" style="stop-color:#4A0B39"/>
			<stop  offset="1" style="stop-color:#16133E"/>
		</linearGradient>
		<path style="fill:url(#SVGID_00000168820114497369023750000016484198826041526975_);" d="M389.4,153.4c-2.3,0-4.1,1.8-4.1,4.1
			v54.4H15.4v-1.4c0.1-0.1,0.1-0.3,0.1-0.4h0.4c0.3,0,0.5-0.2,0.5-0.5v-1.5h4.8c-0.1,0-0.2,0.1-0.2,0.2v1.1c0,0.1,0.1,0.2,0.2,0.2
			h5.3c0.1,0,0.2-0.1,0.2-0.2v-1.1c0-0.1-0.1-0.2-0.2-0.2h4.8v1.5c0,0.3,0.2,0.5,0.5,0.5h0.4c0.2,1,1.1,1.8,2.2,1.8
			c1.1,0,2-0.8,2.2-1.8h2.9c0.2,1,1.1,1.8,2.2,1.8c1.1,0,2-0.8,2.2-1.8h0.4c0.3,0,0.5-0.2,0.5-0.5v-0.1h2.8v-0.7h2.1v0.5h0.8h0.8
			v-0.5h2.1v0.7h2.8v0.1c0,0.3,0.2,0.5,0.5,0.5h0.4c0.2,1,1.1,1.8,2.2,1.8s2-0.8,2.2-1.8h2.9c0.2,1,1.1,1.8,2.2,1.8
			c1.1,0,2-0.8,2.2-1.8h0.4c0.3,0,0.5-0.2,0.5-0.5v-1.5h4.8c-0.1,0-0.2,0.1-0.2,0.2v1.1c0,0.1,0.1,0.2,0.2,0.2h5.3
			c0.1,0,0.2-0.1,0.2-0.2v-1.1c0-0.1-0.1-0.2-0.2-0.2h4.8v1.5c0,0.3,0.2,0.5,0.5,0.5h0.4c0.2,1,1.1,1.8,2.2,1.8c1.1,0,2-0.8,2.2-1.8
			h2.9c0.2,1,1.1,1.8,2.2,1.8c1.1,0,2-0.8,2.2-1.8h0.4c0.3,0,0.5-0.2,0.5-0.5v-0.1h2.8v-0.7h2.1v0.5h0.8h0.8v-0.5h2.1v0.7h2.8v0.1
			c0,0.3,0.2,0.5,0.5,0.5h0.4c0.2,1,1.1,1.8,2.2,1.8c1.1,0,2-0.8,2.2-1.8h2.9c0.2,1,1.1,1.8,2.2,1.8c1.1,0,2-0.8,2.2-1.8h0.4
			c0.3,0,0.5-0.2,0.5-0.5v-1.5h4.8c-0.1,0-0.2,0.1-0.2,0.2v1.1c0,0.1,0.1,0.2,0.2,0.2h5.3c0.1,0,0.2-0.1,0.2-0.2v-1.1
			c0-0.1-0.1-0.2-0.2-0.2h4.8v1.5c0,0.3,0.2,0.5,0.5,0.5h0.4c0.2,1,1.1,1.8,2.2,1.8c1.1,0,2-0.8,2.2-1.8h2.9c0.2,1,1.1,1.8,2.2,1.8
			s2-0.8,2.2-1.8h0.4c0.3,0,0.5-0.2,0.5-0.5v-0.1h2.8v-0.7h2.1v0.5h0.8h0.8v-0.5h2.1v0.7h2.8v0.1c0,0.3,0.2,0.5,0.5,0.5h0.4
			c0.2,1,1.1,1.8,2.2,1.8c1.1,0,2-0.8,2.2-1.8h2.9c0.2,1,1.1,1.8,2.2,1.8c1.1,0,2-0.8,2.2-1.8h0.4c0.3,0,0.5-0.2,0.5-0.5v-1.5h4.8
			c-0.1,0-0.2,0.1-0.2,0.2v1.1c0,0.1,0.1,0.2,0.2,0.2h5.3c0.1,0,0.2-0.1,0.2-0.2v-1.1c0-0.1-0.1-0.2-0.2-0.2h4.8v1.5
			c0,0.3,0.2,0.5,0.5,0.5h0.4c0.2,1,1.1,1.8,2.2,1.8c1.1,0,2-0.8,2.2-1.8h2.9c0.2,1,1.1,1.8,2.2,1.8c1.1,0,2-0.8,2.2-1.8h0.4
			c0.3,0,0.5-0.2,0.5-0.5v-0.1h2.8v-0.7h2.1v0.5h0.8h0.8v-0.5h1.3v1.3h3.2c0.2,1,1.1,1.8,2.2,1.8c1.1,0,2-0.8,2.2-1.8h4.5
			c0.2,1,1.1,1.8,2.2,1.8c1.1,0,2-0.8,2.2-1.8h4.5c0.2,1,1.1,1.8,2.2,1.8c1.1,0,2-0.8,2.2-1.8h0.2c0.6-0.6,0.9-0.9,1.4-1.4h1.2v1.4
			h1.7v-1.4h1.5v1.4h1.8c0.4,1,1.4,1.8,2.5,1.8c1.2,0,2.2-0.7,2.5-1.8h0.9c0.4,1,1.4,1.8,2.5,1.8c1.2,0,2.2-0.7,2.5-1.8h0.9
			c0.4,1,1.4,1.8,2.5,1.8c1.2,0,2.2-0.7,2.5-1.8h0.9c0.4,1,1.4,1.8,2.5,1.8c1.2,0,2.2-0.7,2.5-1.8h0.5v0.6h3.3v1H283V211
			c-2,0-3.6-1.6-3.6-3.6v-0.7h-2.9c0.3-0.9,0.5-2.4,0.5-4.2c0-1.1-0.1-2.1-0.2-2.9h0.5h0.5c0.1,0,0.2-0.1,0.2-0.2v-1.9
			c0-0.1-0.1-0.2-0.2-0.2h-0.5v0.3h-1.4h-0.6h-2.2l-0.1-1.1v-3.6v-1.6c0-0.2-0.1-0.3-0.3-0.3h-2.2c-0.2,0-0.3,0.1-0.3,0.3v1.6v3.6
			l-0.1,1.1h-2.7v-1.1c0-1.2-1-2.2-2.2-2.2c-1.2,0-2.2,1-2.2,2.2v1.1H261v-0.7c0-1.4-1.2-2.6-2.6-2.6h-1c-1.4,0-2.6,1.2-2.6,2.6v0.7
			h-2v-4.5h0.6v-0.8h-2.1c-0.1-0.8-0.8-1.4-1.6-1.4c-0.8,0-1.5,0.6-1.6,1.4h-10.2v0.8h0.6v2.1h-23.4c-1.4,1.4-2.1,2.1-3.5,3.5v8.9
			v0.7h-1.3v-0.5h-0.8h-0.8v0.5h-2.1v-0.7h0.6l0,0h0.6h0.4h0.6v-3.9h-0.6h-0.4h-0.6V194c0-0.5-0.4-0.9-0.9-0.9h-46.6
			c-0.5,0-0.9,0.4-0.9,0.9v9.6h-0.6h-0.4h-0.6v3.9h0.6h0.4h0.6l0,0h0.6v0.7h-2.1v-0.5h-0.8h-0.8v0.5h-2.1v-0.7h0.6l0,0h0.6h0.4h0.6
			v-3.9h-0.6h-0.4h-0.6V194c0-0.5-0.4-0.9-0.9-0.9h-46.6c-0.5,0-0.9,0.4-0.9,0.9v9.6h-0.6h-0.4h-0.6v3.9h0.6h0.4h0.6l0,0h0.6v0.7
			h-2.1v-0.5h-0.8h-0.8v0.5h-2.1v-0.7h0.6l0,0h0.6h0.4h0.6v-3.9h-0.6h-0.4h-0.6V194c0-0.5-0.4-0.9-0.9-0.9H53.6
			c-0.5,0-0.9,0.4-0.9,0.9v9.6h-0.6h-0.4H51v3.9h0.6h0.4h0.6l0,0h0.6v0.7h-2.1v-0.5h-0.8h-0.8v0.5h-2.1v-0.7h0.6l0,0h0.6h0.4h0.6
			v-3.9h-0.6h-0.4h-0.6V194c0-0.5-0.4-0.9-0.9-0.9H15.4v-34.9c0-2.7-2.2-4.8-4.8-4.8H0V300h13.8h49.8h0.6h11.8h2.4H88
			c11.4-11.4,25-21.1,40.2-28.5c0.5-0.2,1-0.5,1.5-0.7c0.1,0,0.2-0.1,0.3-0.1c0.5-0.2,1-0.5,1.6-0.7c0.1,0,0.1-0.1,0.2-0.1
			c0.6-0.3,1.1-0.5,1.7-0.8c0,0,0.1,0,0.1,0c3-1.3,6.1-2.6,9.3-3.7v0c15.6-5.7,32.5-9.1,50.3-9.9c0.3,0,0.7,0,1,0c0.3,0,0.7,0,1,0
			c0.3,0,0.6,0,0.9,0c0.5,0,0.9,0,1.4,0c0.2,0,0.4,0,0.5,0c0.7,0,1.3,0,2,0c0.7,0,1.3,0,2,0c0.2,0,0.4,0,0.5,0c0.5,0,0.9,0,1.4,0
			c0.3,0,0.6,0,0.9,0c0.3,0,0.7,0,1,0c0.3,0,0.7,0,1,0c17.7,0.7,34.7,4.1,50.3,9.9v0c3.2,1.2,6.3,2.4,9.3,3.7c0,0,0.1,0,0.1,0
			c0.6,0.2,1.1,0.5,1.7,0.8c0.1,0,0.1,0.1,0.2,0.1c0.5,0.2,1.1,0.5,1.6,0.7c0.1,0,0.2,0.1,0.3,0.1c0.5,0.2,1,0.5,1.5,0.7
			c15.2,7.4,28.9,17.1,40.2,28.5h9.7h14.2h0.6h49.8H400v-46.5v-41.6v-58.5H389.4z M208.2,204h0.2v3h-0.2V204z M207.5,204h0.2v3h-0.2
			V204z M157.7,207.1h-0.2v-3h0.2V207.1z M158.3,207.1h-0.2v-3h0.2V207.1z M155.1,204h0.2v3h-0.2V204z M154.5,204h0.2v3h-0.2V204z
			 M104.7,207.1h-0.2v-3h0.2V207.1z M105.3,207.1h-0.2v-3h0.2V207.1z M102.1,204h0.2v3h-0.2V204z M101.5,204h0.2v3h-0.2V204z
			 M51.7,207.1h-0.2v-3h0.2V207.1z M52.3,207.1h-0.2v-3h0.2V207.1z M49.1,204h0.2v3h-0.2V204z M48.5,204h0.2v3h-0.2V204z
			 M232.3,231.8L232.3,231.8c10.3,0,19.2,6.3,23,15.3c-13-4-26.7-6.6-40.9-7.7C218.9,234.7,225.2,231.8,232.3,231.8z M167.7,231.8
			L167.7,231.8c7.1,0,13.4,2.9,17.9,7.6c-14.2,1.1-27.9,3.7-40.9,7.7C148.5,238.1,157.4,231.8,167.7,231.8z M59.5,285.8l-8.5-5.2
			l-16.7-3.8l-15.3-13.9l-5.3-7.7c0.7-13.1,11.6-23.5,24.8-23.5h0c13.7,0,24.9,11.1,24.9,24.9v31.9L59.5,285.8z M78.3,284.9v-28.3
			c0-13.7,11.1-24.9,24.9-24.9h0c12.6,0,23,9.3,24.7,21.4C109.2,261.1,92.4,271.9,78.3,284.9z M272.2,253.2
			c1.7-12.1,12.1-21.4,24.7-21.4h0c13.7,0,24.9,11.1,24.9,24.9v28.3C307.6,271.9,290.8,261.1,272.2,253.2z M372.9,271.5l-9.4,4.1
			l-8.2,9.4l-10.5,6.4l-8.3,3.6v-38.4c0-13.7,11.1-24.9,24.9-24.9h0c13.7,0,24.9,11.1,24.9,24.9L372.9,271.5z"/>
		<g>
			<path class="st67" d="M246,199.2h-2.4c-0.3,0-0.5-0.2-0.5-0.5v-2.9c0-0.3,0.2-0.5,0.5-0.5h2.4c0.3,0,0.5,0.2,0.5,0.5v2.9
				C246.5,198.9,246.3,199.2,246,199.2z"/>
			<path class="st72" d="M196.1,201h2.4c0.4,0,0.7-0.3,0.7-0.7v-2.4c0-0.4-0.3-0.7-0.7-0.7h-2.4c-0.4,0-0.7,0.3-0.7,0.7v2.4
				C195.5,200.7,195.8,201,196.1,201z"/>
			<path class="st72" d="M190.3,201h2.4c0.4,0,0.7-0.3,0.7-0.7v-2.4c0-0.4-0.3-0.7-0.7-0.7h-2.4c-0.4,0-0.7,0.3-0.7,0.7v2.4
				C189.7,200.7,190,201,190.3,201z"/>
			<path class="st72" d="M184.6,201h2.4c0.4,0,0.7-0.3,0.7-0.7v-2.4c0-0.4-0.3-0.7-0.7-0.7h-2.4c-0.4,0-0.7,0.3-0.7,0.7v2.4
				C183.9,200.7,184.2,201,184.6,201z"/>
			<path class="st67" d="M178.8,201h2.4c0.4,0,0.7-0.3,0.7-0.7v-2.4c0-0.4-0.3-0.7-0.7-0.7h-2.4c-0.4,0-0.7,0.3-0.7,0.7v2.4
				C178.1,200.7,178.4,201,178.8,201z"/>
			<path class="st72" d="M173,201h2.4c0.4,0,0.7-0.3,0.7-0.7v-2.4c0-0.4-0.3-0.7-0.7-0.7H173c-0.4,0-0.7,0.3-0.7,0.7v2.4
				C172.4,200.7,172.7,201,173,201z"/>
			<path class="st67" d="M167.2,201h2.4c0.4,0,0.7-0.3,0.7-0.7v-2.4c0-0.4-0.3-0.7-0.7-0.7h-2.4c-0.4,0-0.7,0.3-0.7,0.7v2.4
				C166.6,200.7,166.9,201,167.2,201z"/>
			<path class="st72" d="M202.5,200.2h1.9c0.3,0,0.5-0.2,0.5-0.5v-1.9c0-0.3-0.2-0.5-0.5-0.5h-1.9c-0.3,0-0.5,0.2-0.5,0.5v1.9
				C202,200,202.2,200.2,202.5,200.2z"/>
			<path class="st67" d="M161.4,200.2h1.9c0.3,0,0.5-0.2,0.5-0.5v-1.9c0-0.3-0.2-0.5-0.5-0.5h-1.9c-0.3,0-0.5,0.2-0.5,0.5v1.9
				C160.9,200,161.2,200.2,161.4,200.2z"/>
			<path class="st67" d="M143.1,201h2.4c0.4,0,0.7-0.3,0.7-0.7v-2.4c0-0.4-0.3-0.7-0.7-0.7h-2.4c-0.4,0-0.7,0.3-0.7,0.7v2.4
				C142.4,200.7,142.7,201,143.1,201z"/>
			<path class="st72" d="M137.3,201h2.4c0.4,0,0.7-0.3,0.7-0.7v-2.4c0-0.4-0.3-0.7-0.7-0.7h-2.4c-0.4,0-0.7,0.3-0.7,0.7v2.4
				C136.7,200.7,137,201,137.3,201z"/>
			<path class="st67" d="M131.6,201h2.4c0.4,0,0.7-0.3,0.7-0.7v-2.4c0-0.4-0.3-0.7-0.7-0.7h-2.4c-0.4,0-0.7,0.3-0.7,0.7v2.4
				C130.9,200.7,131.2,201,131.6,201z"/>
			<path class="st67" d="M125.8,201h2.4c0.4,0,0.7-0.3,0.7-0.7v-2.4c0-0.4-0.3-0.7-0.7-0.7h-2.4c-0.4,0-0.7,0.3-0.7,0.7v2.4
				C125.1,200.7,125.4,201,125.8,201z"/>
			<path class="st72" d="M120,201h2.4c0.4,0,0.7-0.3,0.7-0.7v-2.4c0-0.4-0.3-0.7-0.7-0.7H120c-0.4,0-0.7,0.3-0.7,0.7v2.4
				C119.3,200.7,119.6,201,120,201z"/>
			<path class="st72" d="M114.2,201h2.4c0.4,0,0.7-0.3,0.7-0.7v-2.4c0-0.4-0.3-0.7-0.7-0.7h-2.4c-0.4,0-0.7,0.3-0.7,0.7v2.4
				C113.6,200.7,113.9,201,114.2,201z"/>
			<path class="st67" d="M149.5,200.2h1.9c0.3,0,0.5-0.2,0.5-0.5v-1.9c0-0.3-0.2-0.5-0.5-0.5h-1.9c-0.3,0-0.5,0.2-0.5,0.5v1.9
				C149,200,149.2,200.2,149.5,200.2z"/>
			<path class="st67" d="M108.4,200.2h1.9c0.3,0,0.5-0.2,0.5-0.5v-1.9c0-0.3-0.2-0.5-0.5-0.5h-1.9c-0.3,0-0.5,0.2-0.5,0.5v1.9
				C107.9,200,108.2,200.2,108.4,200.2z"/>
			<path class="st67" d="M90.1,201h2.4c0.4,0,0.7-0.3,0.7-0.7v-2.4c0-0.4-0.3-0.7-0.7-0.7h-2.4c-0.4,0-0.7,0.3-0.7,0.7v2.4
				C89.4,200.7,89.7,201,90.1,201z"/>
			<path class="st67" d="M84.3,201h2.4c0.4,0,0.7-0.3,0.7-0.7v-2.4c0-0.4-0.3-0.7-0.7-0.7h-2.4c-0.4,0-0.7,0.3-0.7,0.7v2.4
				C83.7,200.7,84,201,84.3,201z"/>
			<path class="st72" d="M78.6,201H81c0.4,0,0.7-0.3,0.7-0.7v-2.4c0-0.4-0.3-0.7-0.7-0.7h-2.4c-0.4,0-0.7,0.3-0.7,0.7v2.4
				C77.9,200.7,78.2,201,78.6,201z"/>
			<path class="st72" d="M72.8,201h2.4c0.4,0,0.7-0.3,0.7-0.7v-2.4c0-0.4-0.3-0.7-0.7-0.7h-2.4c-0.4,0-0.7,0.3-0.7,0.7v2.4
				C72.1,200.7,72.4,201,72.8,201z"/>
			<path class="st67" d="M67,201h2.4c0.4,0,0.7-0.3,0.7-0.7v-2.4c0-0.4-0.3-0.7-0.7-0.7H67c-0.4,0-0.7,0.3-0.7,0.7v2.4
				C66.3,200.7,66.6,201,67,201z"/>
			<path class="st72" d="M61.2,201h2.4c0.4,0,0.7-0.3,0.7-0.7v-2.4c0-0.4-0.3-0.7-0.7-0.7h-2.4c-0.4,0-0.7,0.3-0.7,0.7v2.4
				C60.6,200.7,60.9,201,61.2,201z"/>
			<path class="st72" d="M96.5,200.2h1.9c0.3,0,0.5-0.2,0.5-0.5v-1.9c0-0.3-0.2-0.5-0.5-0.5h-1.9c-0.3,0-0.5,0.2-0.5,0.5v1.9
				C96,200,96.2,200.2,96.5,200.2z"/>
			<path class="st67" d="M55.4,200.2h1.9c0.3,0,0.5-0.2,0.5-0.5v-1.9c0-0.3-0.2-0.5-0.5-0.5h-1.9c-0.3,0-0.5,0.2-0.5,0.5v1.9
				C54.9,200,55.1,200.2,55.4,200.2z"/>
			<path class="st72" d="M37.1,201h2.4c0.4,0,0.7-0.3,0.7-0.7v-2.4c0-0.4-0.3-0.7-0.7-0.7h-2.4c-0.4,0-0.7,0.3-0.7,0.7v2.4
				C36.4,200.7,36.7,201,37.1,201z"/>
			<path class="st72" d="M31.3,201h2.4c0.4,0,0.7-0.3,0.7-0.7v-2.4c0-0.4-0.3-0.7-0.7-0.7h-2.4c-0.4,0-0.7,0.3-0.7,0.7v2.4
				C30.7,200.7,31,201,31.3,201z"/>
			<path class="st67" d="M25.5,201H28c0.4,0,0.7-0.3,0.7-0.7v-2.4c0-0.4-0.3-0.7-0.7-0.7h-2.4c-0.4,0-0.7,0.3-0.7,0.7v2.4
				C24.9,200.7,25.2,201,25.5,201z"/>
			<path class="st72" d="M19.8,201h2.4c0.4,0,0.7-0.3,0.7-0.7v-2.4c0-0.4-0.3-0.7-0.7-0.7h-2.4c-0.4,0-0.7,0.3-0.7,0.7v2.4
				C19.1,200.7,19.4,201,19.8,201z"/>
			<path class="st67" d="M43.5,200.2h1.9c0.3,0,0.5-0.2,0.5-0.5v-1.9c0-0.3-0.2-0.5-0.5-0.5h-1.9c-0.3,0-0.5,0.2-0.5,0.5v1.9
				C42.9,200,43.2,200.2,43.5,200.2z"/>
		</g>
		<defs>
			
				<filter id="Adobe_OpacityMaskFilter_00000152250547939683872180000000794216423325340834_" filterUnits="userSpaceOnUse" x="0" y="214.8" width="121.8" height="85.2">
				<feColorMatrix  type="matrix" values="1 0 0 0 0  0 1 0 0 0  0 0 1 0 0  0 0 0 1 0"/>
			</filter>
		</defs>
		
			<mask maskUnits="userSpaceOnUse" x="0" y="214.8" width="121.8" height="85.2" id="SVGID_00000163767066208043076210000013394606298407343807_">
			<g style="filter:url(#Adobe_OpacityMaskFilter_00000152250547939683872180000000794216423325340834_);">
				
					<linearGradient id="SVGID_00000030470848362339228460000018079342328628326078_" gradientUnits="userSpaceOnUse" x1="60.875" y1="300" x2="60.875" y2="214.7872">
					<stop  offset="0" style="stop-color:#474747"/>
					<stop  offset="0.1499" style="stop-color:#3B3B3B"/>
					<stop  offset="0.7122" style="stop-color:#101010"/>
					<stop  offset="1" style="stop-color:#000000"/>
				</linearGradient>
				<path style="fill:url(#SVGID_00000030470848362339228460000018079342328628326078_);" d="M104,290.9c-0.8-0.4-1.7-0.8-2.6-0.6
					c-0.7,0.1-1.3,0.6-1.9,0.6c-0.7,0.1-1.4-0.3-2-0.7c-2.8-1.6-5.6-3.6-8.8-3.7c-2.2-0.1-4.4,0.8-6.6,1c-4.8,0.5-9.4-2-13.3-4.7
					c-4.3-2.9-8.4-6.2-12.2-9.8c-3.1-3-6.2-6.3-10.3-7.7c-3.1-1.1-6.7-1-9.8-2.1c-1.1-0.4-2.1-0.9-3-1.6c-2.2-1.9-3.2-4.9-5.4-6.7
					c-2.5-2.1-6.4-2.6-8.4-5.1c-3.2-3.9-0.3-9.8-1.4-14.8c-0.8-3.7-4.3-6.6-7.6-8.1c-4.3-2-5.9-2.1-6.8-7.2c-0.4-2.4-1.7-3.9-3.8-5
					c0,0,0,85.2,0,85.2c0,0,94.4,0,121.8,0C115.8,296.9,110.1,293.7,104,290.9z"/>
			</g>
		</mask>
		<g style="mask:url(#SVGID_00000163767066208043076210000013394606298407343807_);">
			<path class="st53" d="M104,290.9c-0.8-0.4-1.7-0.8-2.6-0.6c-0.7,0.1-1.3,0.6-1.9,0.6c-0.7,0.1-1.4-0.3-2-0.7
				c-2.8-1.6-5.6-3.6-8.8-3.7c-2.2-0.1-4.4,0.8-6.6,1c-4.8,0.5-9.4-2-13.3-4.7c-4.3-2.9-8.4-6.2-12.2-9.8c-3.1-3-6.2-6.3-10.3-7.7
				c-3.1-1.1-6.7-1-9.8-2.1c-1.1-0.4-2.1-0.9-3-1.6c-2.2-1.9-3.2-4.9-5.4-6.7c-2.5-2.1-6.4-2.6-8.4-5.1c-3.2-3.9-0.3-9.8-1.4-14.8
				c-0.8-3.7-4.3-6.6-7.6-8.1c-4.3-2-5.9-2.1-6.8-7.2c-0.4-2.4-1.7-3.9-3.8-5c0,0,0,85.2,0,85.2c0,0,94.4,0,121.8,0
				C115.8,296.9,110.1,293.7,104,290.9z"/>
		</g>
		<defs>
			
				<filter id="Adobe_OpacityMaskFilter_00000015321198788879125070000016339165562940959376_" filterUnits="userSpaceOnUse" x="269.3" y="241" width="130.7" height="59">
				<feColorMatrix  type="matrix" values="1 0 0 0 0  0 1 0 0 0  0 0 1 0 0  0 0 0 1 0"/>
			</filter>
		</defs>
		
			<mask maskUnits="userSpaceOnUse" x="269.3" y="241" width="130.7" height="59" id="SVGID_00000176739118338242607880000004078429423426317489_">
			<g style="filter:url(#Adobe_OpacityMaskFilter_00000015321198788879125070000016339165562940959376_);">
				
					<linearGradient id="SVGID_00000053510035628000399440000004211650106036808362_" gradientUnits="userSpaceOnUse" x1="334.6486" y1="300" x2="334.6486" y2="240.9594">
					<stop  offset="0" style="stop-color:#474747"/>
					<stop  offset="0.1499" style="stop-color:#3B3B3B"/>
					<stop  offset="0.7122" style="stop-color:#101010"/>
					<stop  offset="1" style="stop-color:#000000"/>
				</linearGradient>
				<path style="fill:url(#SVGID_00000053510035628000399440000004211650106036808362_);" d="M400,300v-59c-2,1.2-3.5,3.3-3.3,5.6
					c0.2,3.2,1.4,4.9-1,7.4c-1.2,1.3-2.8,2-3.8,3.5c-1.3,1.9-1.1,3.9-1.4,6c-0.4,2.7-2,3.2-3.1,5.5c-0.5,1.1-0.4,2.4-0.8,3.5
					c-0.8,2.5-3.7,3.5-6.1,4.2c-1.5,0.4-3.1,1.2-3.4,2.7c-0.1,0.5,0,1-0.2,1.5c-0.4,0.8-1.5,0.8-2.4,0.6c-2.3-0.5-5.9,0.4-7.8,1.8
					c-1.2,0.8-1.7,2.2-2.9,3c-1,0.8-2.8,1.3-4,1.9c-1.3,0.7-2.9,1.1-4.2,0.6c-0.4-0.2-0.8-0.4-1.3-0.5c-1.9-0.2-2.8,2.8-4.5,3.5
					c-1.9,0.7-3.7-0.1-5.6,0.9c-4.5,2.5-7.5,5.7-13.2,3.5c-1.9-0.7-3.6-1.9-5.6-1.9c-2.9,0-5.5,2.3-8.3,1.8
					c-1.2-0.2-2.3-0.9-3.5-0.8c-1.1,0.1-2,0.9-3.1,1.3c-3.3,1.3-6.8-1-9.8-2.9c-3-1.9-7.4-3.3-9.7-0.6c-0.6,0.7-1,1.5-1.8,1.9
					c-0.8,0.3-1.7,0-2.6-0.1c-4.9-0.7-9.5,5.2-14.1,3.3c-1.3,0.3-2.2,1-3.2,1.8H400z"/>
			</g>
		</mask>
		<path style="mask:url(#SVGID_00000176739118338242607880000004078429423426317489_);fill:#B14755;" d="M400,300v-59
			c-2,1.2-3.5,3.3-3.3,5.6c0.2,3.2,1.4,4.9-1,7.4c-1.2,1.3-2.8,2-3.8,3.5c-1.3,1.9-1.1,3.9-1.4,6c-0.4,2.7-2,3.2-3.1,5.5
			c-0.5,1.1-0.4,2.4-0.8,3.5c-0.8,2.5-3.7,3.5-6.1,4.2c-1.5,0.4-3.1,1.2-3.4,2.7c-0.1,0.5,0,1-0.2,1.5c-0.4,0.8-1.5,0.8-2.4,0.6
			c-2.3-0.5-5.9,0.4-7.8,1.8c-1.2,0.8-1.7,2.2-2.9,3c-1,0.8-2.8,1.3-4,1.9c-1.3,0.7-2.9,1.1-4.2,0.6c-0.4-0.2-0.8-0.4-1.3-0.5
			c-1.9-0.2-2.8,2.8-4.5,3.5c-1.9,0.7-3.7-0.1-5.6,0.9c-4.5,2.5-7.5,5.7-13.2,3.5c-1.9-0.7-3.6-1.9-5.6-1.9c-2.9,0-5.5,2.3-8.3,1.8
			c-1.2-0.2-2.3-0.9-3.5-0.8c-1.1,0.1-2,0.9-3.1,1.3c-3.3,1.3-6.8-1-9.8-2.9c-3-1.9-7.4-3.3-9.7-0.6c-0.6,0.7-1,1.5-1.8,1.9
			c-0.8,0.3-1.7,0-2.6-0.1c-4.9-0.7-9.5,5.2-14.1,3.3c-1.3,0.3-2.2,1-3.2,1.8H400z"/>
	</g>
</g>
<g id="Layer_1" class="st79">
	<g class="st80">
		<path class="st81" d="M47.4,141.7v9.3l9.2-2.2l3.7,1.3l0,0.5l7.2-1.7l3.7,1.3l0,0.5l7.2-1.7l3.7,1.3l0,0.6l7.6-1.8l3.7,1.3l0,0.5
			l7.2-1.7l3.5,1.2v-8.3c0-0.1-0.2-0.2-0.4-0.2H47.8C47.5,141.5,47.4,141.6,47.4,141.7z"/>
		<g>
			<path class="st82" d="M50.4,119.3h-1v2.3h1c0.4,0,0.7,0,0.9-0.1c0.2-0.1,0.4-0.2,0.6-0.4c0.1-0.2,0.2-0.4,0.2-0.7
				c0-0.3-0.1-0.6-0.3-0.8C51.6,119.4,51.1,119.3,50.4,119.3L50.4,119.3z M50.8,123.1L50.8,123.1h-1.4v2.3c0,0.4-0.1,0.7-0.3,0.9
				c-0.2,0.2-0.4,0.3-0.7,0.3c-0.3,0-0.5-0.1-0.7-0.3c-0.2-0.2-0.3-0.5-0.3-0.8v-6.5c0-0.4,0.1-0.7,0.3-0.9c0.2-0.2,0.5-0.3,0.9-0.3
				h2.2c0.6,0,1.1,0.1,1.5,0.2c0.4,0.1,0.7,0.3,0.9,0.5c0.3,0.2,0.5,0.5,0.6,0.8c0.1,0.3,0.2,0.7,0.2,1.1c0,0.9-0.3,1.6-0.8,2
				C52.7,122.9,51.9,123.1,50.8,123.1z"/>
			<path class="st82" d="M57.6,122.8h2.2l-1.1-3.2L57.6,122.8L57.6,122.8z M60.8,125.4L60.8,125.4l-0.4-1h-3.2l-0.4,1
				c-0.2,0.4-0.3,0.7-0.4,0.9c-0.1,0.2-0.3,0.2-0.6,0.2c-0.2,0-0.5-0.1-0.6-0.3c-0.2-0.2-0.3-0.4-0.3-0.6c0-0.1,0-0.3,0.1-0.4
				c0-0.1,0.1-0.3,0.2-0.5l2.1-5.4l0.2-0.6c0.1-0.2,0.2-0.4,0.3-0.6c0.1-0.2,0.2-0.3,0.4-0.4c0.2-0.1,0.4-0.2,0.6-0.2
				c0.3,0,0.5,0.1,0.6,0.2c0.2,0.1,0.3,0.2,0.4,0.4c0.1,0.2,0.2,0.3,0.2,0.5c0.1,0.2,0.1,0.4,0.2,0.6l2.2,5.5
				c0.2,0.4,0.3,0.7,0.3,0.9c0,0.2-0.1,0.4-0.3,0.6c-0.2,0.2-0.4,0.3-0.7,0.3c-0.2,0-0.3,0-0.4-0.1c-0.1-0.1-0.2-0.1-0.3-0.2
				c-0.1-0.1-0.1-0.2-0.2-0.4C60.8,125.6,60.8,125.4,60.8,125.4z"/>
			<path class="st82" d="M67.5,119.3H66v2.1h1.4c0.4,0,0.7,0,1-0.1c0.3-0.1,0.5-0.2,0.6-0.3c0.1-0.1,0.2-0.4,0.2-0.6
				c0-0.2-0.1-0.4-0.2-0.5c-0.1-0.2-0.2-0.3-0.4-0.4C68.4,119.3,68,119.3,67.5,119.3L67.5,119.3z M66.5,122.8L66.5,122.8H66v2.6
				c0,0.4-0.1,0.7-0.3,0.9c-0.2,0.2-0.4,0.3-0.7,0.3c-0.3,0-0.5-0.1-0.7-0.3c-0.2-0.2-0.3-0.5-0.3-0.9v-6.4c0-0.4,0.1-0.7,0.3-0.9
				c0.2-0.2,0.5-0.3,0.9-0.3H68c0.4,0,0.7,0,1,0.1c0.3,0,0.5,0.1,0.8,0.2c0.2,0.1,0.5,0.3,0.7,0.5c0.2,0.2,0.4,0.5,0.5,0.8
				c0.1,0.3,0.2,0.6,0.2,0.9c0,0.7-0.2,1.2-0.6,1.6c-0.4,0.4-0.9,0.7-1.6,0.8c0.3,0.1,0.5,0.3,0.8,0.6c0.3,0.3,0.5,0.7,0.7,1
				c0.2,0.4,0.4,0.7,0.5,1c0.1,0.3,0.2,0.5,0.2,0.6c0,0.1,0,0.3-0.1,0.4c-0.1,0.1-0.2,0.2-0.3,0.3c-0.1,0.1-0.3,0.1-0.5,0.1
				c-0.2,0-0.4-0.1-0.5-0.2c-0.1-0.1-0.3-0.2-0.4-0.4c-0.1-0.1-0.2-0.3-0.4-0.6l-0.7-1.3c-0.2-0.3-0.4-0.6-0.6-0.8
				c-0.2-0.2-0.4-0.3-0.5-0.4C67,122.8,66.8,122.8,66.5,122.8z"/>
			<path class="st82" d="M78.4,119.3h-3.7v1.8h3.4c0.3,0,0.5,0.1,0.7,0.2c0.1,0.1,0.2,0.3,0.2,0.5c0,0.2-0.1,0.4-0.2,0.5
				c-0.1,0.1-0.4,0.2-0.7,0.2h-3.4v2.2h3.8c0.3,0,0.5,0.1,0.7,0.2c0.2,0.1,0.2,0.3,0.2,0.6c0,0.2-0.1,0.4-0.2,0.6
				c-0.2,0.1-0.4,0.2-0.7,0.2H74c-0.4,0-0.7-0.1-0.9-0.3c-0.2-0.2-0.3-0.5-0.3-0.9v-6.3c0-0.3,0-0.5,0.1-0.6
				c0.1-0.2,0.2-0.3,0.4-0.4c0.2-0.1,0.4-0.1,0.6-0.1h4.4c0.3,0,0.5,0.1,0.7,0.2c0.2,0.1,0.2,0.3,0.2,0.5c0,0.2-0.1,0.4-0.2,0.6
				C78.9,119.2,78.7,119.3,78.4,119.3z"/>
			<path class="st82" d="M82.7,119.3v5.5h1.2c0.3,0,0.5,0,0.6,0c0.1,0,0.3-0.1,0.5-0.1c0.2-0.1,0.3-0.1,0.4-0.2
				c0.6-0.5,0.8-1.3,0.8-2.4c0-0.8-0.1-1.4-0.4-1.8c-0.2-0.4-0.5-0.6-0.9-0.7c-0.3-0.1-0.8-0.2-1.3-0.2H82.7L82.7,119.3z
				 M81.9,117.8L81.9,117.8h2.2c0.6,0,1.1,0.1,1.5,0.2c0.4,0.1,0.8,0.4,1.2,0.7c0.9,0.7,1.3,1.8,1.3,3.4c0,0.5,0,1-0.1,1.4
				c-0.1,0.4-0.2,0.8-0.4,1.2c-0.2,0.3-0.4,0.6-0.7,0.9c-0.3,0.3-0.5,0.4-0.8,0.6c-0.3,0.1-0.6,0.2-0.9,0.3c-0.3,0-0.7,0.1-1.1,0.1
				h-2.2c-0.3,0-0.6-0.1-0.8-0.2c-0.2-0.1-0.3-0.3-0.3-0.4c-0.1-0.2-0.1-0.4-0.1-0.7v-6.1c0-0.4,0.1-0.7,0.3-0.9
				C81.2,117.8,81.5,117.8,81.9,117.8z"/>
			<path class="st82" d="M95.3,119.3h-3.7v1.8H95c0.3,0,0.5,0.1,0.7,0.2c0.2,0.1,0.2,0.3,0.2,0.5c0,0.2-0.1,0.4-0.2,0.5
				c-0.1,0.1-0.4,0.2-0.7,0.2h-3.4v2.2h3.8c0.3,0,0.5,0.1,0.7,0.2c0.2,0.1,0.2,0.3,0.2,0.6c0,0.2-0.1,0.4-0.2,0.6
				c-0.2,0.1-0.4,0.2-0.7,0.2h-4.6c-0.4,0-0.7-0.1-0.9-0.3c-0.2-0.2-0.3-0.5-0.3-0.9v-6.3c0-0.3,0-0.5,0.1-0.6
				c0.1-0.2,0.2-0.3,0.4-0.4c0.2-0.1,0.4-0.1,0.6-0.1h4.4c0.3,0,0.5,0.1,0.7,0.2c0.2,0.1,0.2,0.3,0.2,0.5c0,0.2-0.1,0.4-0.2,0.6
				C95.8,119.2,95.6,119.3,95.3,119.3z"/>
			<path class="st82" d="M104.1,123.7c0,0.5-0.1,1-0.4,1.4c-0.3,0.4-0.7,0.8-1.2,1c-0.5,0.2-1.1,0.4-1.8,0.4c-0.8,0-1.5-0.2-2.1-0.5
				c-0.4-0.2-0.7-0.5-1-0.9c-0.2-0.4-0.4-0.8-0.4-1.2c0-0.2,0.1-0.4,0.2-0.6c0.2-0.2,0.4-0.3,0.6-0.3c0.2,0,0.4,0.1,0.5,0.2
				c0.1,0.1,0.3,0.3,0.3,0.6c0.1,0.3,0.2,0.5,0.3,0.6c0.1,0.2,0.3,0.3,0.5,0.4c0.2,0.1,0.5,0.2,0.8,0.2c0.5,0,0.8-0.1,1.1-0.3
				c0.3-0.2,0.4-0.5,0.4-0.8c0-0.2-0.1-0.4-0.2-0.6c-0.2-0.2-0.4-0.3-0.6-0.4c-0.3-0.1-0.6-0.2-1-0.3c-0.6-0.1-1.1-0.3-1.5-0.5
				c-0.4-0.2-0.7-0.5-1-0.8c-0.2-0.3-0.4-0.8-0.4-1.3c0-0.5,0.1-0.9,0.4-1.3c0.3-0.4,0.6-0.7,1.1-0.9c0.5-0.2,1.1-0.3,1.7-0.3
				c0.5,0,1,0.1,1.4,0.2c0.4,0.1,0.7,0.3,1,0.5c0.3,0.2,0.4,0.5,0.6,0.7c0.1,0.2,0.2,0.5,0.2,0.7c0,0.2-0.1,0.4-0.2,0.6
				c-0.2,0.2-0.4,0.3-0.6,0.3c-0.2,0-0.4-0.1-0.5-0.2c-0.1-0.1-0.2-0.3-0.4-0.5c-0.1-0.3-0.3-0.5-0.5-0.7c-0.2-0.2-0.5-0.2-0.9-0.2
				c-0.4,0-0.7,0.1-1,0.3c-0.2,0.2-0.4,0.4-0.4,0.6c0,0.1,0,0.3,0.1,0.4c0.1,0.1,0.2,0.2,0.3,0.3c0.1,0.1,0.3,0.1,0.5,0.2
				c0.2,0,0.4,0.1,0.8,0.2c0.5,0.1,0.9,0.2,1.3,0.4c0.4,0.1,0.7,0.3,1,0.5c0.3,0.2,0.5,0.5,0.7,0.8
				C104.1,122.9,104.1,123.3,104.1,123.7z"/>
		</g>
		<g>
			<path class="st83" d="M51.6,144.2H50v1.1h1.4c0.1,0,0.2,0,0.3,0.1c0.1,0.1,0.1,0.1,0.1,0.2c0,0.1,0,0.2-0.1,0.2
				c-0.1,0.1-0.2,0.1-0.3,0.1H50v1.5c0,0.2,0,0.3-0.1,0.4c-0.1,0.1-0.2,0.1-0.3,0.1c-0.1,0-0.2,0-0.3-0.1c-0.1-0.1-0.1-0.2-0.1-0.4
				V144c0-0.1,0-0.2,0.1-0.3c0-0.1,0.1-0.1,0.2-0.2c0.1,0,0.2-0.1,0.3-0.1h2c0.1,0,0.2,0,0.3,0.1c0.1,0.1,0.1,0.1,0.1,0.2
				c0,0.1,0,0.2-0.1,0.3C51.9,144.1,51.8,144.2,51.6,144.2z"/>
			<path class="st83" d="M54.7,146.2h1.3l-0.6-1.8L54.7,146.2L54.7,146.2z M56.3,147.4L56.3,147.4l-0.2-0.6h-1.7l-0.2,0.6
				c-0.1,0.2-0.1,0.4-0.2,0.4c-0.1,0.1-0.1,0.1-0.3,0.1c-0.1,0-0.2,0-0.3-0.1c-0.1-0.1-0.1-0.2-0.1-0.3c0-0.1,0-0.1,0-0.2
				c0-0.1,0.1-0.2,0.1-0.3l1.1-2.9l0.1-0.3c0-0.1,0.1-0.2,0.1-0.3c0.1-0.1,0.1-0.1,0.2-0.2c0.1,0,0.2-0.1,0.3-0.1
				c0.1,0,0.2,0,0.3,0.1c0.1,0,0.1,0.1,0.2,0.2c0,0.1,0.1,0.2,0.1,0.2c0,0.1,0.1,0.2,0.1,0.3l1.1,2.8c0.1,0.2,0.1,0.4,0.1,0.5
				c0,0.1,0,0.2-0.1,0.3c-0.1,0.1-0.2,0.1-0.3,0.1c-0.1,0-0.1,0-0.2,0c0,0-0.1-0.1-0.1-0.1c0,0-0.1-0.1-0.1-0.2L56.3,147.4z"/>
			<path class="st83" d="M60,143.9l1.6,2.6v-2.6c0-0.2,0-0.3,0.1-0.4c0.1-0.1,0.2-0.1,0.3-0.1c0.1,0,0.2,0,0.3,0.1
				c0.1,0.1,0.1,0.2,0.1,0.4v3.5c0,0.4-0.2,0.6-0.5,0.6c-0.1,0-0.1,0-0.2,0c-0.1,0-0.1-0.1-0.2-0.1c-0.1-0.1-0.1-0.1-0.1-0.2
				l-0.1-0.2l-1.6-2.6v2.6c0,0.2,0,0.3-0.1,0.4c-0.1,0.1-0.2,0.1-0.3,0.1c-0.1,0-0.2,0-0.3-0.1c-0.1-0.1-0.1-0.2-0.1-0.4v-3.4
				c0-0.1,0-0.3,0-0.3c0-0.1,0.1-0.2,0.2-0.2c0.1-0.1,0.2-0.1,0.3-0.1c0.1,0,0.1,0,0.2,0c0.1,0,0.1,0.1,0.1,0.1c0,0,0.1,0.1,0.1,0.2
				L60,143.9z"/>
			<path class="st83" d="M69.9,147.2l-0.7-2.6l-0.7,2.6c-0.1,0.2-0.1,0.3-0.1,0.4c0,0.1-0.1,0.2-0.2,0.2c-0.1,0.1-0.2,0.1-0.3,0.1
				c-0.1,0-0.2,0-0.3-0.1c-0.1,0-0.1-0.1-0.2-0.2c0-0.1-0.1-0.2-0.1-0.3l-0.1-0.3l-0.7-3c0-0.2-0.1-0.3-0.1-0.4c0-0.1,0-0.2,0.1-0.3
				c0.1-0.1,0.2-0.1,0.3-0.1c0.2,0,0.3,0.1,0.3,0.2c0.1,0.1,0.1,0.3,0.1,0.5l0.6,2.6l0.6-2.4c0-0.2,0.1-0.3,0.1-0.4
				c0-0.1,0.1-0.2,0.2-0.2c0.1-0.1,0.2-0.1,0.3-0.1c0.1,0,0.3,0,0.3,0.1c0.1,0.1,0.1,0.2,0.2,0.2c0,0.1,0.1,0.2,0.1,0.4l0.6,2.4
				l0.6-2.6c0-0.1,0.1-0.2,0.1-0.3c0-0.1,0.1-0.1,0.1-0.2c0.1-0.1,0.1-0.1,0.3-0.1c0.1,0,0.2,0,0.3,0.1c0.1,0.1,0.1,0.2,0.1,0.3
				c0,0.1,0,0.2-0.1,0.4l-0.7,3c0,0.2-0.1,0.3-0.1,0.4c0,0.1-0.1,0.2-0.2,0.2c-0.1,0.1-0.2,0.1-0.3,0.1c-0.1,0-0.2,0-0.3-0.1
				c-0.1-0.1-0.1-0.1-0.2-0.2C70,147.5,70,147.4,69.9,147.2z"/>
			<path class="st83" d="M76.3,144.2h-1.9v1.1h1.8c0.1,0,0.2,0,0.3,0.1c0.1,0.1,0.1,0.1,0.1,0.2c0,0.1,0,0.2-0.1,0.2
				c-0.1,0.1-0.2,0.1-0.3,0.1h-1.8v1.3h2c0.1,0,0.2,0,0.3,0.1c0.1,0.1,0.1,0.2,0.1,0.3c0,0.1,0,0.2-0.1,0.3
				c-0.1,0.1-0.2,0.1-0.3,0.1H74c-0.2,0-0.3,0-0.4-0.1c-0.1-0.1-0.1-0.2-0.1-0.4V144c0-0.1,0-0.2,0.1-0.3c0-0.1,0.1-0.1,0.2-0.2
				c0.1,0,0.2-0.1,0.3-0.1h2.2c0.1,0,0.2,0,0.3,0.1c0.1,0.1,0.1,0.1,0.1,0.2c0,0.1,0,0.2-0.1,0.3C76.5,144.1,76.4,144.2,76.3,144.2z
				"/>
			<path class="st83" d="M81.3,144.2h-1.9v1.1h1.8c0.1,0,0.2,0,0.3,0.1c0.1,0.1,0.1,0.1,0.1,0.2c0,0.1,0,0.2-0.1,0.2
				c-0.1,0.1-0.2,0.1-0.3,0.1h-1.8v1.3h2c0.1,0,0.2,0,0.3,0.1c0.1,0.1,0.1,0.2,0.1,0.3c0,0.1,0,0.2-0.1,0.3
				c-0.1,0.1-0.2,0.1-0.3,0.1h-2.3c-0.2,0-0.3,0-0.4-0.1c-0.1-0.1-0.1-0.2-0.1-0.4V144c0-0.1,0-0.2,0.1-0.3c0-0.1,0.1-0.1,0.2-0.2
				c0.1,0,0.2-0.1,0.3-0.1h2.2c0.1,0,0.2,0,0.3,0.1c0.1,0.1,0.1,0.1,0.1,0.2c0,0.1,0,0.2-0.1,0.3C81.5,144.1,81.4,144.2,81.3,144.2z
				"/>
			<path class="st83" d="M84.4,143.9v1.5l1.7-1.8c0.1-0.1,0.1-0.2,0.2-0.2c0.1,0,0.1-0.1,0.2-0.1c0.1,0,0.2,0,0.3,0.1
				c0.1,0.1,0.1,0.2,0.1,0.3c0,0.1-0.1,0.3-0.2,0.4l-1,1l1.2,1.8c0.1,0.1,0.1,0.2,0.2,0.3c0,0.1,0.1,0.2,0.1,0.3
				c0,0.1,0,0.2-0.1,0.3c-0.1,0.1-0.2,0.1-0.3,0.1c-0.1,0-0.2,0-0.3-0.1c-0.1-0.1-0.1-0.1-0.2-0.2l-0.1-0.2l-1-1.6l-0.7,0.7v0.9
				c0,0.2,0,0.3-0.1,0.4c-0.1,0.1-0.2,0.1-0.3,0.1c-0.1,0-0.1,0-0.2-0.1c-0.1,0-0.1-0.1-0.2-0.2c0-0.1,0-0.1,0-0.2
				c0-0.1,0-0.2,0-0.3v-3.3c0-0.2,0-0.3,0.1-0.4c0.1-0.1,0.2-0.1,0.3-0.1c0.1,0,0.2,0,0.3,0.1C84.4,143.6,84.4,143.8,84.4,143.9z"/>
			<path class="st83" d="M91.6,144.2h-1.9v1.1h1.8c0.1,0,0.2,0,0.3,0.1c0.1,0.1,0.1,0.1,0.1,0.2c0,0.1,0,0.2-0.1,0.2
				c-0.1,0.1-0.2,0.1-0.3,0.1h-1.8v1.3h2c0.1,0,0.2,0,0.3,0.1c0.1,0.1,0.1,0.2,0.1,0.3c0,0.1,0,0.2-0.1,0.3
				c-0.1,0.1-0.2,0.1-0.3,0.1h-2.3c-0.2,0-0.3,0-0.4-0.1c-0.1-0.1-0.1-0.2-0.1-0.4V144c0-0.1,0-0.2,0.1-0.3c0-0.1,0.1-0.1,0.2-0.2
				c0.1,0,0.2-0.1,0.3-0.1h2.2c0.1,0,0.2,0,0.3,0.1c0.1,0.1,0.1,0.1,0.1,0.2c0,0.1,0,0.2-0.1,0.3C91.8,144.1,91.7,144.2,91.6,144.2z
				"/>
			<path class="st83" d="M95,143.9l1.6,2.6v-2.6c0-0.2,0-0.3,0.1-0.4c0.1-0.1,0.2-0.1,0.3-0.1c0.1,0,0.2,0,0.3,0.1
				c0.1,0.1,0.1,0.2,0.1,0.4v3.5c0,0.4-0.2,0.6-0.5,0.6c-0.1,0-0.1,0-0.2,0c-0.1,0-0.1-0.1-0.2-0.1c-0.1-0.1-0.1-0.1-0.1-0.2
				l-0.1-0.2l-1.6-2.6v2.6c0,0.2,0,0.3-0.1,0.4c-0.1,0.1-0.2,0.1-0.3,0.1c-0.1,0-0.2,0-0.3-0.1c-0.1-0.1-0.1-0.2-0.1-0.4v-3.4
				c0-0.1,0-0.3,0-0.3c0-0.1,0.1-0.2,0.2-0.2c0.1-0.1,0.2-0.1,0.3-0.1c0.1,0,0.1,0,0.2,0c0.1,0,0.1,0.1,0.1,0.1c0,0,0.1,0.1,0.1,0.2
				L95,143.9z"/>
			<path class="st83" d="M100.3,144.2v3h0.6c0.1,0,0.3,0,0.3,0c0.1,0,0.2,0,0.2-0.1c0.1,0,0.2-0.1,0.2-0.1c0.3-0.3,0.4-0.7,0.4-1.3
				c0-0.4-0.1-0.8-0.2-1c-0.1-0.2-0.3-0.4-0.5-0.4c-0.2-0.1-0.4-0.1-0.7-0.1H100.3L100.3,144.2z M99.9,143.5L99.9,143.5h1.1
				c0.3,0,0.5,0,0.7,0.1c0.2,0.1,0.4,0.2,0.6,0.3c0.4,0.4,0.7,1,0.7,1.8c0,0.3,0,0.5-0.1,0.7c0,0.2-0.1,0.4-0.2,0.6
				c-0.1,0.2-0.2,0.3-0.4,0.5c-0.1,0.1-0.2,0.2-0.4,0.3c-0.1,0.1-0.3,0.1-0.4,0.1c-0.2,0-0.3,0-0.5,0h-1.1c-0.2,0-0.3,0-0.3-0.1
				c-0.1-0.1-0.1-0.1-0.2-0.2c0-0.1,0-0.2,0-0.3V144c0-0.2,0-0.3,0.1-0.4C99.6,143.5,99.7,143.5,99.9,143.5z"/>
		</g>
		<g>
			<path class="st82" d="M63.1,135.4c0,0.3-0.1,0.6-0.2,1c-0.1,0.4-0.4,0.7-0.7,1.1c-0.3,0.3-0.7,0.6-1.2,0.8
				c-0.5,0.2-1.1,0.3-1.7,0.3c-0.5,0-0.9,0-1.3-0.1c-0.4-0.1-0.8-0.2-1.1-0.4c-0.3-0.2-0.6-0.5-0.9-0.9c-0.2-0.2-0.4-0.5-0.6-0.9
				c-0.2-0.4-0.3-0.8-0.4-1.2c-0.1-0.4-0.1-0.9-0.1-1.3c0-0.8,0.1-1.4,0.3-2c0.2-0.6,0.5-1.1,0.9-1.5c0.4-0.4,0.9-0.8,1.4-1
				c0.5-0.2,1.1-0.3,1.7-0.3c0.8,0,1.4,0.2,2,0.5c0.6,0.3,1,0.7,1.4,1.2c0.3,0.5,0.5,0.9,0.5,1.3c0,0.3-0.1,0.5-0.3,0.7
				c-0.2,0.2-0.4,0.3-0.6,0.3c-0.3,0-0.5-0.1-0.6-0.2c-0.1-0.1-0.3-0.3-0.4-0.6c-0.2-0.4-0.5-0.8-0.8-1c-0.3-0.2-0.7-0.3-1.1-0.3
				c-0.7,0-1.3,0.3-1.7,0.8c-0.4,0.6-0.6,1.4-0.6,2.4c0,0.7,0.1,1.3,0.3,1.8c0.2,0.5,0.5,0.8,0.8,1c0.3,0.2,0.7,0.3,1.2,0.3
				c0.5,0,0.9-0.1,1.3-0.4c0.3-0.3,0.6-0.6,0.8-1.2c0.1-0.2,0.2-0.4,0.3-0.6c0.1-0.2,0.3-0.3,0.6-0.3c0.3,0,0.5,0.1,0.7,0.3
				C63,134.9,63.1,135.1,63.1,135.4z"/>
			<path class="st82" d="M71.7,133.7c0-0.7-0.1-1.2-0.3-1.7c-0.2-0.5-0.5-0.8-0.9-1.1c-0.4-0.2-0.8-0.4-1.3-0.4
				c-0.3,0-0.7,0.1-1,0.2c-0.3,0.1-0.5,0.3-0.8,0.6c-0.2,0.3-0.4,0.6-0.5,1c-0.1,0.4-0.2,0.9-0.2,1.4c0,0.5,0.1,1,0.2,1.4
				c0.1,0.4,0.3,0.8,0.5,1c0.2,0.3,0.5,0.5,0.8,0.6c0.3,0.1,0.6,0.2,1,0.2c0.4,0,0.9-0.1,1.2-0.3c0.4-0.2,0.7-0.6,0.9-1.1
				C71.6,135,71.7,134.4,71.7,133.7L71.7,133.7z M69.2,128.8L69.2,128.8c1,0,1.8,0.2,2.5,0.6c0.7,0.4,1.2,1,1.6,1.7
				c0.4,0.7,0.5,1.6,0.5,2.6c0,0.7-0.1,1.4-0.3,2c-0.2,0.6-0.5,1.1-0.9,1.6c-0.4,0.4-0.9,0.8-1.4,1c-0.6,0.2-1.2,0.3-1.9,0.3
				c-0.7,0-1.4-0.1-1.9-0.4c-0.6-0.2-1.1-0.6-1.4-1c-0.4-0.4-0.7-1-0.9-1.6c-0.2-0.6-0.3-1.3-0.3-2c0-0.7,0.1-1.4,0.3-2
				c0.2-0.6,0.5-1.1,0.9-1.6c0.4-0.4,0.9-0.8,1.4-1C67.9,128.9,68.5,128.8,69.2,128.8z"/>
			<path class="st82" d="M75.9,134.5V130c0-0.4,0.1-0.7,0.3-0.9c0.2-0.2,0.4-0.3,0.7-0.3c0.3,0,0.6,0.1,0.8,0.3
				c0.2,0.2,0.3,0.5,0.3,0.9v4.6c0,0.5,0.1,0.9,0.2,1.3c0.1,0.3,0.3,0.6,0.6,0.8c0.3,0.2,0.6,0.3,1.1,0.3c0.7,0,1.1-0.2,1.4-0.5
				c0.3-0.4,0.4-0.9,0.4-1.7V130c0-0.4,0.1-0.7,0.3-0.9c0.2-0.2,0.4-0.3,0.8-0.3c0.3,0,0.6,0.1,0.8,0.3c0.2,0.2,0.3,0.5,0.3,0.9v4.5
				c0,0.7-0.1,1.4-0.2,1.9c-0.1,0.5-0.4,0.9-0.8,1.3c-0.3,0.3-0.7,0.6-1.2,0.7c-0.5,0.1-1,0.2-1.6,0.2c-0.7,0-1.3-0.1-1.8-0.2
				c-0.5-0.2-0.9-0.4-1.3-0.7c-0.3-0.3-0.6-0.8-0.7-1.3C75.9,135.8,75.9,135.2,75.9,134.5z"/>
			<path class="st82" d="M89.7,130.6h-1.6v2.3h1.5c0.4,0,0.8,0,1.1-0.1c0.3-0.1,0.5-0.2,0.6-0.4c0.1-0.2,0.2-0.4,0.2-0.7
				c0-0.2-0.1-0.4-0.2-0.6c-0.1-0.2-0.3-0.3-0.5-0.4C90.7,130.6,90.3,130.6,89.7,130.6L89.7,130.6z M88.6,134.5L88.6,134.5h-0.5v2.8
				c0,0.4-0.1,0.7-0.3,1c-0.2,0.2-0.4,0.3-0.7,0.3c-0.3,0-0.6-0.1-0.8-0.3c-0.2-0.2-0.3-0.5-0.3-0.9v-7.1c0-0.4,0.1-0.8,0.3-1
				c0.2-0.2,0.5-0.3,0.9-0.3h3c0.4,0,0.8,0,1.1,0.1c0.3,0,0.6,0.1,0.9,0.2c0.3,0.1,0.5,0.3,0.7,0.5c0.2,0.2,0.4,0.5,0.5,0.8
				c0.1,0.3,0.2,0.6,0.2,1c0,0.7-0.2,1.3-0.6,1.7c-0.4,0.4-1,0.7-1.7,0.8c0.3,0.1,0.6,0.3,0.9,0.6c0.3,0.4,0.6,0.7,0.8,1.1
				c0.2,0.4,0.4,0.8,0.6,1.1c0.1,0.3,0.2,0.6,0.2,0.7c0,0.1,0,0.3-0.1,0.4c-0.1,0.1-0.2,0.3-0.4,0.3c-0.1,0.1-0.3,0.1-0.5,0.1
				c-0.2,0-0.4-0.1-0.6-0.2c-0.2-0.1-0.3-0.2-0.4-0.4c-0.1-0.2-0.2-0.4-0.4-0.7l-0.7-1.4c-0.2-0.3-0.5-0.6-0.7-0.9
				c-0.2-0.2-0.4-0.4-0.6-0.5C89.2,134.5,88.9,134.5,88.6,134.5z"/>
			<path class="st82" d="M98.2,134.6h2.4l-1.2-3.6L98.2,134.6L98.2,134.6z M101.6,137.4L101.6,137.4l-0.4-1.1h-3.5l-0.4,1.1
				c-0.2,0.5-0.3,0.8-0.5,1c-0.1,0.2-0.4,0.3-0.7,0.3c-0.3,0-0.5-0.1-0.7-0.3c-0.2-0.2-0.3-0.4-0.3-0.7c0-0.1,0-0.3,0.1-0.4
				c0-0.1,0.1-0.3,0.2-0.6l2.3-6L98,130c0.1-0.2,0.2-0.5,0.3-0.6c0.1-0.2,0.3-0.3,0.5-0.4c0.2-0.1,0.4-0.2,0.7-0.2
				c0.3,0,0.5,0.1,0.7,0.2c0.2,0.1,0.3,0.2,0.5,0.4c0.1,0.2,0.2,0.3,0.3,0.5c0.1,0.2,0.2,0.4,0.3,0.7l2.4,6c0.2,0.5,0.3,0.8,0.3,1
				c0,0.3-0.1,0.5-0.3,0.7c-0.2,0.2-0.4,0.3-0.7,0.3c-0.2,0-0.3,0-0.4-0.1c-0.1-0.1-0.2-0.1-0.3-0.2c-0.1-0.1-0.2-0.3-0.2-0.5
				C101.7,137.6,101.6,137.4,101.6,137.4z"/>
		</g>
		<g>
			<path class="st82" d="M48.1,137.4h3.7v-0.8c0-0.2,0-0.3,0-0.4c0-0.1,0-0.2-0.1-0.3c0-0.1-0.1-0.2-0.2-0.3
				c-0.3-0.4-0.8-0.6-1.6-0.6c-0.5,0-0.9,0.1-1.2,0.2c-0.3,0.2-0.4,0.4-0.5,0.6c-0.1,0.2-0.1,0.5-0.1,0.9V137.4L48.1,137.4z
				 M47.2,137.9L47.2,137.9v-1.4c0-0.4,0-0.7,0.1-1c0.1-0.3,0.2-0.5,0.4-0.7c0.5-0.6,1.2-0.9,2.2-0.9c0.3,0,0.6,0,0.9,0.1
				c0.3,0.1,0.5,0.1,0.7,0.3c0.2,0.1,0.4,0.3,0.6,0.5c0.1,0.1,0.2,0.3,0.3,0.5c0.1,0.2,0.1,0.4,0.2,0.6c0,0.2,0,0.4,0,0.7v1.4
				c0,0.2,0,0.4-0.1,0.5c-0.1,0.1-0.1,0.2-0.3,0.2c-0.1,0-0.2,0-0.4,0h-4c-0.2,0-0.4-0.1-0.5-0.2C47.3,138.3,47.2,138.1,47.2,137.9z
				"/>
			<path class="st82" d="M48.1,129.3v2.5h1.3v-2.3c0-0.2,0-0.3,0.1-0.4c0.1-0.1,0.2-0.1,0.3-0.1c0.1,0,0.2,0,0.3,0.1
				c0.1,0.1,0.1,0.2,0.1,0.4v2.3h1.5v-2.6c0-0.2,0-0.3,0.1-0.4c0.1-0.1,0.2-0.1,0.3-0.1c0.1,0,0.2,0,0.3,0.1
				c0.1,0.1,0.1,0.2,0.1,0.4v3c0,0.2-0.1,0.4-0.2,0.5c-0.1,0.1-0.3,0.2-0.5,0.2h-4.1c-0.2,0-0.3,0-0.4-0.1c-0.1,0-0.2-0.1-0.2-0.2
				c0-0.1-0.1-0.2-0.1-0.4v-2.9c0-0.2,0-0.3,0.1-0.4c0.1-0.1,0.2-0.1,0.3-0.1c0.1,0,0.2,0,0.3,0.1C48,129,48.1,129.2,48.1,129.3z"/>
		</g>
		<g>
			<path class="st84" d="M50.7,153.9c-0.1,0,9.6-2.2,9.6-2.2l0.3,11.5l-9.6,3.2C51.1,166.4,50.9,153.9,50.7,153.9z"/>
			<polygon class="st85" points="47.4,152.6 50.7,153.9 51.1,166.4 47.7,164.5 			"/>
			<polygon class="st86" points="47.4,152.6 56.6,150.4 60.3,151.7 50.7,153.9 			"/>
			<path class="st85" d="M52.9,158.3c0.3-2.1,1.7-3.6,3.1-3.4c0.1,0,1.4,0.5,1.5,0.5c1.2,0.4,0.9,1.6,0.6,3.6
				c-0.2,1.9-0.5,3.9-1.8,4c-0.1,0-1.2-0.4-1.3-0.5C53.5,162.4,52.6,160.4,52.9,158.3z"/>
			<path class="st84" d="M54.4,159c0.3-2.1,1.7-3.7,3.1-3.5c1.4,0.2,2.3,2.1,1.9,4.2c-0.3,2.1-1.7,3.6-3.1,3.4
				C55,162.9,54.1,161.1,54.4,159z"/>
		</g>
		<path class="st87" d="M61.9,166l-5.8-1.7l0.5-1.5c-0.2,0-0.5-0.3-0.5-0.3l1.3-7.2l0.5,0.1l0.3-2.5L61.9,166z"/>
		<g>
			<path class="st88" d="M61.7,153.9c-0.1,0,9.6-2.2,9.6-2.2l0.3,11.5l-9.6,3.2C62,166.4,61.8,153.9,61.7,153.9z"/>
			<polygon class="st89" points="58.3,152.6 61.7,153.9 62,166.4 58.6,164.5 			"/>
			<polygon class="st90" points="58.3,152.6 67.5,150.4 71.2,151.7 61.7,153.9 			"/>
			<path class="st89" d="M63.8,158.3c0.3-2.1,1.7-3.6,3.1-3.4c0.1,0,1.4,0.5,1.5,0.5c1.2,0.4,0.9,1.6,0.6,3.6
				c-0.2,1.9-0.5,3.9-1.8,4c-0.1,0-1.2-0.4-1.3-0.5C64.4,162.4,63.5,160.4,63.8,158.3z"/>
			<path class="st88" d="M65.3,159c0.3-2.1,1.7-3.7,3.1-3.5c1.4,0.2,2.3,2.1,2,4.2c-0.3,2.1-1.7,3.6-3.1,3.4
				C65.9,162.9,65,161.1,65.3,159z"/>
		</g>
		<path class="st87" d="M72.6,166l-5.8-1.7l0.5-1.5c-0.2,0-0.5-0.3-0.5-0.3l1.3-7.2l0.5,0.1l0.3-2.5L72.6,166z"/>
		<g>
			<path class="st91" d="M72.6,153.9c-0.1,0,9.6-2.2,9.6-2.2l0.3,11.5l-9.6,3.2C72.9,166.4,72.7,153.9,72.6,153.9z"/>
			<polygon class="st92" points="69.2,152.6 72.6,153.9 72.9,166.4 69.5,164.5 			"/>
			<polygon class="st93" points="69.2,152.6 78.4,150.4 82.1,151.7 72.6,153.9 			"/>
			<path class="st92" d="M74.8,158.3c0.3-2.1,1.7-3.6,3.1-3.4c0.1,0,1.4,0.5,1.5,0.5c1.2,0.4,0.9,1.6,0.6,3.6
				c-0.2,1.9-0.5,3.9-1.8,4c-0.1,0-1.2-0.4-1.3-0.5C75.3,162.4,74.4,160.4,74.8,158.3z"/>
			<path class="st91" d="M76.2,159c0.3-2.1,1.7-3.7,3.1-3.5c1.4,0.2,2.3,2.1,2,4.2c-0.3,2.1-1.7,3.6-3.1,3.4
				C76.8,162.9,75.9,161.1,76.2,159z"/>
		</g>
		<path class="st87" d="M84,166l-5.8-1.7l0.5-1.5c-0.2,0-0.5-0.3-0.5-0.3l1.3-7.2l0.5,0.1l0.3-2.5L84,166z"/>
		<g>
			<path class="st94" d="M83.9,153.9c-0.1,0,9.5-2.2,9.5-2.2l0.3,11.5l-9.6,3.2C84.2,166.4,84,153.9,83.9,153.9z"/>
			<polygon class="st95" points="80.5,152.6 83.9,153.9 84.2,166.4 80.8,164.5 			"/>
			<polygon class="st96" points="80.5,152.6 89.7,150.4 93.4,151.7 83.9,153.9 			"/>
			<path class="st95" d="M86.1,158.3c0.3-2.1,1.7-3.6,3.1-3.4c0.1,0,1.4,0.5,1.5,0.5c1.2,0.4,0.9,1.6,0.6,3.6
				c-0.2,1.9-0.5,3.9-1.8,4c-0.1,0-1.2-0.4-1.3-0.5C86.7,162.4,85.7,160.4,86.1,158.3z"/>
			<path class="st94" d="M87.6,159c0.3-2.1,1.7-3.7,3.1-3.5c1.4,0.2,2.3,2.1,1.9,4.2c-0.3,2.1-1.7,3.6-3.1,3.4
				C88.1,162.9,87.2,161.1,87.6,159z"/>
		</g>
		<path class="st87" d="M95.1,166l-5.8-1.7l0.5-1.5c-0.2,0-0.5-0.3-0.5-0.3l1.3-7.2l0.5,0.1l0.3-2.5L95.1,166z"/>
		<g>
			<path class="st97" d="M94.8,153.9c-0.1,0,9.6-2.2,9.6-2.2l0.3,11.5l-9.6,3.2C95.1,166.4,94.9,153.9,94.8,153.9z"/>
			<polygon class="st98" points="91.4,152.6 94.8,153.9 95.1,166.4 91.7,164.5 			"/>
			<polygon class="st99" points="91.4,152.6 100.6,150.4 104.3,151.7 94.8,153.9 			"/>
			<path class="st98" d="M97,158.3c0.3-2.1,1.7-3.6,3.1-3.4c0.1,0,1.4,0.5,1.5,0.5c1.2,0.4,0.9,1.6,0.6,3.6c-0.2,1.9-0.5,3.9-1.8,4
				c-0.1,0-1.2-0.4-1.3-0.5C97.6,162.4,96.6,160.4,97,158.3z"/>
			<path class="st97" d="M98.5,159c0.3-2.1,1.7-3.7,3.1-3.5c1.4,0.2,2.3,2.1,2,4.2c-0.3,2.1-1.7,3.6-3.1,3.4
				C99,162.9,98.1,161.1,98.5,159z"/>
		</g>
	</g>
	<text transform="matrix(1 0 0 1 47.1067 178.9914)" class="st100 st101 st102">10-12 June 2022</text>
</g>
</svg>
