<?xml version="1.0" encoding="utf-8"?>
<!-- Generator: Adobe Illustrator 26.5.0, SVG Export Plug-In . SVG Version: 6.00 Build 0)  -->
<svg version="1.1" id="Camada_1" xmlns="http://www.w3.org/2000/svg" xmlns:xlink="http://www.w3.org/1999/xlink" x="0px" y="0px"
	 viewBox="0 0 1190.5 841.9" style="enable-background:new 0 0 1190.5 841.9;" xml:space="preserve">
<style type="text/css">
	.st0{clip-path:url(#SVGID_00000102523762896838242030000005308605634396135298_);fill:#64C1C5;}
	
		.st1{clip-path:url(#SVGID_00000102523762896838242030000005308605634396135298_);fill:url(#sky_00000078724453889760502010000007422941575526597553_);}
	.st2{filter:url(#Adobe_OpacityMaskFilter);}
	
		.st3{clip-path:url(#SVGID_00000102523762896838242030000005308605634396135298_);fill:url(#SVGID_00000074434295649015965760000009743519748644543898_);}
	
		.st4{clip-path:url(#SVGID_00000102523762896838242030000005308605634396135298_);mask:url(#reflect_00000169530077327589878360000008814187973211436969_);fill:url(#reflect_00000109017724534364138260000003280486021385255857_);}
	
		.st5{clip-path:url(#SVGID_00000102523762896838242030000005308605634396135298_);fill-rule:evenodd;clip-rule:evenodd;fill:#FFE5B4;}
	.st6{clip-path:url(#SVGID_00000102523762896838242030000005308605634396135298_);}
	.st7{fill-rule:evenodd;clip-rule:evenodd;fill:#C8E8F5;}
	.st8{fill-rule:evenodd;clip-rule:evenodd;fill:#FFFFFF;}
	.st9{fill-rule:evenodd;clip-rule:evenodd;fill:#81B87B;}
	.st10{fill-rule:evenodd;clip-rule:evenodd;fill:#579552;}
	.st11{fill-rule:evenodd;clip-rule:evenodd;fill:#E5C695;}
	.st12{fill-rule:evenodd;clip-rule:evenodd;fill:#772523;}
	.st13{fill-rule:evenodd;clip-rule:evenodd;fill:#4A752D;}
	.st14{fill-rule:evenodd;clip-rule:evenodd;fill:#324F22;}
	.st15{fill-rule:evenodd;clip-rule:evenodd;fill:#48762E;}
	.st16{fill-rule:evenodd;clip-rule:evenodd;fill:#2F4C20;}
	.st17{fill-rule:evenodd;clip-rule:evenodd;fill:#5F9731;}
	.st18{fill-rule:evenodd;clip-rule:evenodd;fill:#4A7B2F;}
	.st19{fill-rule:evenodd;clip-rule:evenodd;fill:#74B633;}
	.st20{fill-rule:evenodd;clip-rule:evenodd;fill:#45702C;}
	.st21{fill-rule:evenodd;clip-rule:evenodd;fill:#74B43C;}
	.st22{fill-rule:evenodd;clip-rule:evenodd;fill:#5C9931;}
	.st23{fill-rule:evenodd;clip-rule:evenodd;fill:#6BAA2E;}
	.st24{fill-rule:evenodd;clip-rule:evenodd;fill:#D1694B;}
	.st25{fill-rule:evenodd;clip-rule:evenodd;fill:#CC8C68;}
	.st26{fill-rule:evenodd;clip-rule:evenodd;fill:#886547;}
	.st27{fill-rule:evenodd;clip-rule:evenodd;fill:#D0A271;}
	.st28{fill-rule:evenodd;clip-rule:evenodd;fill:#AB7751;}
	.st29{fill-rule:evenodd;clip-rule:evenodd;fill:#906650;}
	.st30{fill-rule:evenodd;clip-rule:evenodd;fill:#009FE3;}
	.st31{fill-rule:evenodd;clip-rule:evenodd;fill:#EFEEEE;}
	.st32{fill-rule:evenodd;clip-rule:evenodd;fill:#FCCE8E;}
	.st33{fill-rule:evenodd;clip-rule:evenodd;fill:#A7774F;}
	
		.st34{opacity:0.5;clip-path:url(#SVGID_00000132076448430215190420000007830177614076157061_);fill-rule:evenodd;clip-rule:evenodd;fill:#1E1E1D;}
	.st35{fill-rule:evenodd;clip-rule:evenodd;fill:#D8A774;}
	.st36{fill:url(#SVGID_00000103971201250555728950000008287764902339677618_);}
	.st37{fill:url(#SVGID_00000114794554646045463940000017506521314882747800_);}
	.st38{fill-rule:evenodd;clip-rule:evenodd;fill:#E62928;}
	.st39{fill-rule:evenodd;clip-rule:evenodd;fill:#EA4F52;}
	.st40{fill-rule:evenodd;clip-rule:evenodd;fill:#B21917;}
	.st41{fill-rule:evenodd;clip-rule:evenodd;fill:#CC2225;}
	.st42{fill-rule:evenodd;clip-rule:evenodd;fill:#333333;}
	.st43{fill-rule:evenodd;clip-rule:evenodd;fill:#010202;}
	.st44{fill-rule:evenodd;clip-rule:evenodd;fill:#0C0C0C;}
	.st45{fill-rule:evenodd;clip-rule:evenodd;fill:#FFDF2D;}
	.st46{fill-rule:evenodd;clip-rule:evenodd;fill:#F49821;}
	.st47{fill:#95C11F;}
	.st48{fill:#114727;}
	.st49{fill:#FFE5B4;}
	.st50{fill-rule:evenodd;clip-rule:evenodd;fill:#B38256;}
	.st51{fill-rule:evenodd;clip-rule:evenodd;fill:#020303;}
	.st52{fill-rule:evenodd;clip-rule:evenodd;fill:#4168B0;}
	.st53{fill-rule:evenodd;clip-rule:evenodd;fill:#FFCC07;}
	.st54{fill:#333333;}
	.st55{fill-rule:evenodd;clip-rule:evenodd;fill:#5DB130;}
	.st56{fill-rule:evenodd;clip-rule:evenodd;fill:#DADADA;}
	.st57{fill-rule:evenodd;clip-rule:evenodd;fill:#BE3A8D;}
	.st58{fill-rule:evenodd;clip-rule:evenodd;fill:#EC6282;}
	.st59{fill-rule:evenodd;clip-rule:evenodd;fill:#E82E83;}
	.st60{fill:#706F6F;}
	.st61{fill-rule:evenodd;clip-rule:evenodd;fill:#EDEDED;}
	.st62{fill:#010202;}
	.st63{fill:url(#SVGID_00000050623653406826683570000018272151283862600839_);}
	.st64{fill:url(#SVGID_00000052799171898425008030000011090527273218266807_);}
	.st65{fill:url(#SVGID_00000177483665058770196170000015508735685057988539_);}
	.st66{fill:url(#SVGID_00000062157770768982779550000001695932625640361382_);}
	.st67{fill-rule:evenodd;clip-rule:evenodd;fill:#304E85;}
	
		.st68{clip-path:url(#SVGID_00000018226462660892161960000016101655969082771097_);fill:url(#SVGID_00000052822299576857802540000000685337934019461017_);}
	
		.st69{clip-path:url(#SVGID_00000162333252059795367560000004016662047707753868_);fill:url(#SVGID_00000160873675520262278510000010807701031546132923_);}
	
		.st70{clip-path:url(#SVGID_00000098913226573139777130000008361548586397982870_);fill:url(#SVGID_00000080195882063516863650000008481054534145907587_);}
	
		.st71{clip-path:url(#SVGID_00000064340201170924918080000011626716814770620598_);fill:url(#SVGID_00000129198103010443857500000008928424079363065516_);}
	
		.st72{clip-path:url(#SVGID_00000151507478553146711270000004233720704627801734_);fill:url(#SVGID_00000043432394149118273680000018161205613885483193_);}
	
		.st73{clip-path:url(#SVGID_00000113343470295838911050000003393536432733356725_);fill:url(#SVGID_00000005957910994122448920000005103550681554693778_);}
	.st74{fill-rule:evenodd;clip-rule:evenodd;fill:#182743;}
	
		.st75{clip-path:url(#SVGID_00000106146149621723925330000001595782786779454132_);fill:url(#SVGID_00000003796359231530817200000016841493411321287315_);}
	.st76{fill-rule:evenodd;clip-rule:evenodd;fill:#CDCCCC;}
	.st77{fill-rule:evenodd;clip-rule:evenodd;fill:#8C1812;}
	.st78{fill-rule:evenodd;clip-rule:evenodd;fill:#DDDDDD;}
	.st79{fill-rule:evenodd;clip-rule:evenodd;fill:#E52620;}
	.st80{fill-rule:evenodd;clip-rule:evenodd;fill:#E41713;}
</style>
<g>
	<defs>
		<rect id="SVGID_1_" width="1190.5" height="841.9"/>
	</defs>
	<clipPath id="SVGID_00000099627705862164075490000012280249907250535857_">
		<use xlink:href="#SVGID_1_"  style="overflow:visible;"/>
	</clipPath>
	
		<rect id="sea" y="537.6" style="clip-path:url(#SVGID_00000099627705862164075490000012280249907250535857_);fill:#64C1C5;" width="1190.5" height="150.2"/>
	
		<linearGradient id="sky_00000039841806095168802870000011152612174524408244_" gradientUnits="userSpaceOnUse" x1="5.177818e-04" y1="841.8898" x2="1.0003" y2="841.8898" gradientTransform="matrix(0 -543.69 -543.69 0 458322.3438 569.6201)">
		<stop  offset="0" style="stop-color:#A1D9EF"/>
		<stop  offset="5.291010e-03" style="stop-color:#A1D9EF"/>
		<stop  offset="1" style="stop-color:#5AC4E9"/>
	</linearGradient>
	
		<rect id="sky" y="0" style="clip-path:url(#SVGID_00000099627705862164075490000012280249907250535857_);fill:url(#sky_00000039841806095168802870000011152612174524408244_);" width="1190.5" height="573.6"/>
	<defs>
		<filter id="Adobe_OpacityMaskFilter" filterUnits="userSpaceOnUse" x="923.7" y="573.7" width="198.4" height="34.3">
			<feColorMatrix  type="matrix" values="1 0 0 0 0  0 1 0 0 0  0 0 1 0 0  0 0 0 1 0"/>
		</filter>
	</defs>
	
		<mask maskUnits="userSpaceOnUse" x="923.7" y="573.7" width="198.4" height="34.3" id="reflect_00000043427850827880901420000002966060220940081537_">
		<g class="st2">
			
				<linearGradient id="SVGID_00000010993797197231786570000004947972072701110442_" gradientUnits="userSpaceOnUse" x1="-3.957681e-03" y1="881.9511" x2="0.996" y2="881.9511" gradientTransform="matrix(0 16.002 16.002 0 -13090.1328 572.4337)">
				<stop  offset="0" style="stop-color:#CCCCCC"/>
				<stop  offset="4.761900e-02" style="stop-color:#CCCCCC"/>
				<stop  offset="1" style="stop-color:#000000"/>
			</linearGradient>
			
				<rect x="923.7" y="573.7" style="clip-path:url(#SVGID_00000099627705862164075490000012280249907250535857_);fill:url(#SVGID_00000010993797197231786570000004947972072701110442_);" width="198.4" height="34.3"/>
		</g>
	</mask>
	
		<linearGradient id="reflect_00000029766353042646751320000009278089937109516680_" gradientUnits="userSpaceOnUse" x1="-3.957681e-03" y1="881.9511" x2="0.996" y2="881.9511" gradientTransform="matrix(0 16.002 16.002 0 -13090.1328 572.4337)">
		<stop  offset="0" style="stop-color:#82B87B"/>
		<stop  offset="4.761900e-02" style="stop-color:#82B87B"/>
		<stop  offset="1" style="stop-color:#82B87B"/>
	</linearGradient>
	
		<rect id="reflect" x="923.7" y="573.7" style="clip-path:url(#SVGID_00000099627705862164075490000012280249907250535857_);mask:url(#reflect_00000043427850827880901420000002966060220940081537_);fill:url(#reflect_00000029766353042646751320000009278089937109516680_);" width="198.4" height="34.3"/>
	
		<path id="sand" style="clip-path:url(#SVGID_00000099627705862164075490000012280249907250535857_);fill-rule:evenodd;clip-rule:evenodd;fill:#FFE5B4;" d="
		M936,636.5c-177.4,6.6-276.1,45.6-476.4,27.6c-200.3-18-356.9-15.4-459.7-13.5c-6.9,0.1-13.4,1.3-19.6,3.4v235.2L1209.1,902V678.8
		C1177.2,666.4,963.3,635.5,936,636.5"/>
	<g id="cloud3" style="clip-path:url(#SVGID_00000099627705862164075490000012280249907250535857_);">
		<path class="st7" d="M869.3,260.6h233.9c0,0,32.7-6.7,31.8-40.3c-1-33.6-15.4-42.3-43.3-43.2c0,0-10.6-56.7-66.4-54.8
			c-55.8,1.9-69.3,46.1-69.3,46.1s-15.2-12.6-40.1-3.2c-24.9,9.4-23.5,32.1-23.5,32.1s-40.4-1.9-43.3,31.7
			C846.2,262.6,869.3,260.6,869.3,260.6"/>
		<path class="st8" d="M1077.3,274.4H961.4c0,0-16.2-3.4-15.7-20.2c0.5-16.8,7.6-21.1,21.5-21.6c0,0,5.2-28.4,32.9-27.4
			c27.7,1,34.3,23.1,34.3,23.1s7.5-6.3,19.9-1.6c12.3,4.7,11.6,16,11.6,16s20-1,21.5,15.9C1088.7,275.4,1077.3,274.4,1077.3,274.4"
			/>
	</g>
	<g id="cloud2" style="clip-path:url(#SVGID_00000099627705862164075490000012280249907250535857_);">
		<path class="st7" d="M608.2,220.9H458.6c0,0-20.9-4.3-20.3-25.7c0.6-21.4,9.9-26.9,27.7-27.5c0,0,6.8-36.1,42.5-34.9
			c35.7,1.2,44.3,29.4,44.3,29.4s9.7-8,25.6-2.1c15.9,6,15,20.4,15,20.4s25.9-1.2,27.7,20.2C623,222.1,608.2,220.9,608.2,220.9"/>
		<path class="st8" d="M581.9,237.5h74.1c0,0,10.4-2.1,10.1-12.9c-0.3-10.7-4.9-13.5-13.7-13.8c0,0-3.4-18.1-21.1-17.4
			c-17.7,0.6-22,14.7-22,14.7s-4.8-4-12.7-1c-7.9,3-7.4,10.2-7.4,10.2s-12.8-0.6-13.7,10.1C574.6,238.1,581.9,237.5,581.9,237.5"/>
	</g>
	<g id="cloud1" style="clip-path:url(#SVGID_00000099627705862164075490000012280249907250535857_);">
		<path class="st7" d="M75.4,142.1h205.4c0,0,28.7-5.9,27.9-35.2c-0.8-29.4-13.5-36.9-38-37.8c0,0-9.3-49.5-58.3-47.8
			c-49,1.7-60.9,40.3-60.9,40.3s-13.3-11-35.2-2.8c-21.9,8.2-20.6,28-20.6,28s-35.5-1.7-38,27.7C55.1,143.8,75.4,142.1,75.4,142.1"
			/>
		<path class="st8" d="M168.3,172.7H14.9c0,0-21.5-4.4-20.8-26.4c0.6-22,10.1-27.7,28.4-28.3c0,0,6.9-37.2,43.6-35.9
			c36.6,1.3,45.5,30.2,45.5,30.2s9.9-8.3,26.3-2.1c16.3,6.1,15.4,21,15.4,21s26.5-1.3,28.4,20.8C183.5,174,168.3,172.7,168.3,172.7"
			/>
	</g>
	<g id="island" style="clip-path:url(#SVGID_00000099627705862164075490000012280249907250535857_);">
		<path class="st9" d="M923.7,573.6c0,0,3.9-10.3,28.9-12.8c25-2.6,27.9-6.4,28.9-7.1c1-0.6,8-3.9,14.1-5.8c6.1-1.9,24.4-8,25-8.3
			c0.6-0.3,11.2,1,17.3,3.2c6.1,2.2,18.6,7.1,25,10.9c6.4,3.9,25.7,8.3,30.2,9.6c4.5,1.3,15.4,6.7,16.7,7.1c1.3,0.3,10,3.2,12.2,3.2
			H923.7z"/>
		<path class="st10" d="M1061.7,573.6h60.3c-2.2,0-10.9-2.9-12.2-3.2c-1.3-0.3-12.2-5.8-16.7-7.1c-4.5-1.3-23.8-5.8-30.2-9.6
			c-6.4-3.9-18.9-8.7-25-10.9c-4.4-1.6-11.2-2.7-14.8-3.1c2.8,2.9,7.9,8,9.7,8.3c2.6,0.3,19.9,10.3,19.9,10.3s2.6,5.6,3.9,6.4
			C1057.8,565.4,1061.7,573.6,1061.7,573.6"/>
	</g>
	<g id="palm_trees" style="clip-path:url(#SVGID_00000099627705862164075490000012280249907250535857_);">
		<path class="st11" d="M63.5,776.2c10.4-4.8,45.1-19.6,99.6-36.1c-8.9-0.1-17.6-0.3-26.1-0.4c-26.4,7.1-54.3,15.3-81.8,24.3
			C55.2,764,46.7,783.9,63.5,776.2"/>
		<path class="st11" d="M130.2,782.7c16.4-5,90.2-25.6,202.9-35.4c0.9,0.5,2.2,0.7,3.9,0.6c1.6-0.1,3.8-0.3,6.2-0.5
			c-12.2-0.8-24.1-1.5-35.9-2.2c-42.6,3.8-114.3,11.4-183.7,24.7c0,0-68.3,13.2-82.2,17.7c-8.9,2.9,16.7,8.3,46.3,5.8
			C105.3,792,112.7,788.1,130.2,782.7 M375.8,749.7c7.3,4.7,28.2,14.7,47.2,18.1c0,0,14.7-6.8,6.8-13.6
			C411.4,752.4,393.4,751,375.8,749.7 M445.1,755.4c1.5,0.3,2.9,0.7,4.3,1c32.9,7.8,52.2,9.4,52.2,9.4c-1-2.2-4.8-4.9-10.4-7.7
			C476.4,757.5,461.1,756.6,445.1,755.4 M229.8,741.7c-4,0.7-6.4,1.2-6.4,1.2c7.6,0.4,28,1,52.1,0.7
			C259.9,742.9,244.6,742.3,229.8,741.7"/>
		<path class="st12" d="M82.2,695.1c-1-38.2,3.1-217.8,104.2-377.2l-12.8-31.8c0,0-106.4,145.2-144,347.4c0,0-20.5,113.7-17.9,144.3
			c1.7,19.1,45.1,27.6,65.2-3C89,756.6,83.3,733.4,82.2,695.1"/>
		<path class="st13" d="M195.8,283.3c0,0,13.8,1.2,35.8,25.4c21.9,24.2,84.7,78.5,119.3,84.8c0,0-3.8-59.9-38.3-100
			c-34.5-40.1-81-41.4-81-41.4l-43.4,15.2L195.8,283.3z"/>
		<path class="st14" d="M195.8,283.3c0,0,13.8,1.2,35.8,25.4c21.7,23.9,83.1,77,117.9,84.5c-7.3-18.7-27.6-64.7-62.5-98.5
			c-25.4-24.6-55.7-32.6-77.1-35l-21.7,7.6L195.8,283.3z"/>
		<path class="st15" d="M168.7,280.7c0,0-41,47.7-69,73c-27.9,25.3-56.6,39.2-67.3,43.3c0,0,10-62.6,35.7-99.4
			c25.7-36.7,37.9-40.7,37.9-40.7l56-1.2L168.7,280.7z"/>
		<path class="st16" d="M167.9,277.5l-5.9-21.9l-56,1.2c0,0-12.2,4-37.9,40.7c-5.2,7.4-9.8,15.9-13.7,24.7
			C81.1,308.7,133.8,283.5,167.9,277.5"/>
		<path class="st17" d="M148,268.3c-1.6-0.5-19.9-7.6-76.2,9C15.6,293.8-59.9,296-59.9,296s37.5-56.9,86-73.7
			c48.5-16.8,107.1-2,132,16C158.2,238.2,149.7,268.7,148,268.3"/>
		<path class="st18" d="M155,249.4c1.8-6,3.2-11.1,3.2-11.1c-25-18-83.5-32.9-132-16c-45.2,15.7-80.9,66.2-85.5,73
			c14.9-4.4,47.3-14.1,99-30.3C95.3,247.6,137.2,248,155,249.4"/>
		<path class="st19" d="M157.6,263.1c0,0-156.2-113.8-155.3-114.5c0.8-0.7,86.9-35.6,128.7-0.1c41.8,35.5,57.7,71.1,60.1,88.7
			C193.5,254.8,157.6,263.1,157.6,263.1"/>
		<path class="st17" d="M157.6,263.1c0,0,11.5-2.7,21-8.2c-1.5-3.5-3.6-7.9-6.2-13.5c-8.1-17.2-57.2-66.2-90.8-78.3
			c-24.9-9-61.3-12.4-78.4-13.6C16.6,160.4,157.6,263.1,157.6,263.1"/>
		<path class="st20" d="M188.6,238.2c0,0,32.1-71.9,53.4-94.6c21.3-22.7,49.6-31,87.5-32.2c37.9-1.1,128.7-0.1,128.7-0.1
			s-25.7,34.9-88,68.7c-62.3,33.8-164,70.3-164,70.3L188.6,238.2z"/>
		<path class="st17" d="M188.6,238.2l17.7,12.1l3.3-1.2c10.3-11.9,34-34,86.1-63.7c60.1-34.2,130.2-62.2,161.9-74.1
			c-8.6-0.1-92.1-0.9-128,0.2c-37.9,1.1-66.2,9.5-87.5,32.2C220.7,166.3,188.6,238.2,188.6,238.2"/>
		<path class="st21" d="M194.9,254.6c0,0,88.9-40.7,126.4-32.6c37.5,8.1,96.5,55.4,117.2,94.3c0,0-28,5.3-91.6-19.9
			c-63.6-25.3-140.3-24.4-141-24.2C205.3,272.4,194.9,254.6,194.9,254.6"/>
		<path class="st22" d="M346.9,296.3c62.6,24.8,90.7,20.1,91.6,20c-28.2-26.7-99.1-75.6-145-76.3c-38.7-0.7-77.5,14.2-94.2,22
			c2.9,4.9,6.4,10.4,6.7,10.2C206.6,271.9,283.3,271.1,346.9,296.3"/>
		<path class="st23" d="M183.6,334.5c8.6-13.5,32.4-51.3,30.6-78.6c-1.8-27.3-32.9-30.2-47.8-26.6c-14.9,3.6-22.5,6.5-26.4,21.8
			C136.1,266.3,175,347.9,183.6,334.5"/>
		<path class="st24" d="M135.4,349.4l-2.5,2.3C98.7,413.1,52,513.2,29.6,633.6c0,0-20.5,113.7-17.9,144.3
			c1.4,15.9,31.9,24.5,53.6,9.1c-0.7-23.6-1.4-78.9,1.8-166.3C71.7,500.9,129,399,129,399L135.4,349.4z"/>
		<path class="st13" d="M337.4,447.7c0,0,10.9,2.9,25,25.3c14.1,22.4,56.5,74.5,83.2,84.3c0,0,5.4-48.2-16.5-85
			c-21.9-36.8-58.8-44.4-58.8-44.4l-36.7,6L337.4,447.7z"/>
		<path class="st14" d="M337.4,447.7c0,0,10.9,2.9,25,25.3c13.9,22.1,55.4,73.1,82.2,83.9c-3.2-15.9-12.9-55.4-36-87.3
			c-16.8-23.2-39.8-33.8-56.5-38.7l-18.4,3L337.4,447.7z"/>
		<path class="st11" d="M163.1,740c28-8.5,61.2-17.4,99-25.6c1,0.4,2.3,0.5,4,0.1c6.1-1.3,18.9-4,29.2-6.8c2.6,0.5,5.8,1.4,8.5,3
			c6.5,3.6,30.4,12,51.2,13.1c0,0,14.7-9.3,4-15.3c-1.1-0.6-2.3-1.1-3.6-1.6c8.5,0.5,16.9,1.1,24.6,2c34.1,3.8,53.6,3,53.6,3
			c-3.5-5.8-28.6-12.5-49.7-13.6c-9-0.5-26.4,0.3-43.2,1.4c24.9-1.9,58.3-4.7,84-7.3c46.2-4.7,69.7-9.3,69.7-9.3s-54.7,0.1-77.7,0.4
			c-22.8,0.2-41.6,1.4-60.1,4.4c-14.8,2.4-42.6,9-53.6,11.7c-0.5,0-1-0.1-1.5-0.1c2.3-2.6,1.2-6.8-11.2-10.7
			c-13.9-4.4-73.1,0.2-73.8,0.3c-0.4,0.1,16.4,4.6,31.8,8.7c-12-0.3-26.1-0.1-41.1,0.9c-33.6,2.3-74.9,10.3-74.9,10.3
			s45.2-0.3,84.1-2.7c3.8-0.2,7.3-0.4,10.5-0.6c-5,0.8-11.4,2-19.4,3.5c-27.8,5.3-56,14.8-56,14.8c8.1-0.6,30.7-2.7,56.6-6.5
			c15.9-2.3,37.6-5.9,51.6-8.3c-0.1,0.5-0.1,1-0.1,1.5c-22.8,4.7-69.4,14.8-122.5,29.1C145.5,739.8,154.2,739.9,163.1,740"/>
		<path class="st12" d="M132.2,727.8c9.8-29.4,62.7-164.9,183.8-258.1l-0.9-27.7c0,0-121.3,81-206,224.4c0,0-47.2,80.8-53.6,104.8
			c-4,15,26.7,33.5,50.5,15.8C120.3,776.5,122.4,757.2,132.2,727.8"/>
		<path class="st24" d="M268.5,479.5l-2.5,1C222.9,517.8,159.5,581,109.1,666.4c0,0-55.7,94.5-62.1,118.5
			c-0.9,3.5-16.4,6.7-13.2,8.6c8.4,4.8,45,3.6,60.1-0.5c6-18.1,20.8-60.4,47.5-126c36.6-89.9,108.5-151.5,108.5-151.5L268.5,479.5z"
			/>
		<path class="st15" d="M316.2,441.8c0,0-39.4,32.2-65.2,48.4c-25.8,16.2-50.6,23.3-59.8,25c0,0,16.8-48.5,42.4-74.2
			c25.7-25.7,36-27.1,36-27.1l44.8,6.9L316.2,441.8z"/>
		<path class="st16" d="M316,439.2l-1.6-18.3l-44.8-6.9c0,0-10.3,1.5-36,27.1c-5.2,5.2-10,11.3-14.4,17.8
			C242.4,451.8,288,439.1,316,439.2"/>
		<path class="st17" d="M301.5,429c-1.2-0.6-14.8-8.8-62-3.6c-47.2,5.3-107.7-3.6-107.7-3.6s37.9-40,79-46.6
			c41.1-6.6,85.6,13.5,103,31.3C313.8,406.5,302.7,429.6,301.5,429"/>
		<path class="st18" d="M309.6,414.9c2.3-4.5,4.2-8.4,4.2-8.4c-17.4-17.8-62-37.9-103-31.3c-38.3,6.2-73.8,41.4-78.4,46.1
			c12.5-1.4,39.7-4.6,83.2-10.2C262.3,405.1,295.7,411.3,309.6,414.9"/>
		<path class="st19" d="M309.8,426.2c0,0-108.5-112.6-107.8-113.1c0.8-0.4,74.3-16.1,102.7,18c28.4,34.1,36,64.8,35.4,79.1
			C339.6,424.6,309.8,426.2,309.8,426.2"/>
		<path class="st17" d="M309.8,426.2c0,0,9.5-0.5,17.9-3.6c-0.7-3-1.7-6.8-3-11.6c-4-14.9-36.3-60.8-61.4-75.2
			c-18.6-10.7-47.1-18.5-60.6-21.8C211.8,324.5,309.8,426.2,309.8,426.2"/>
		<path class="st20" d="M338,410.7c0,0,35.7-52.8,55.9-67.9c20.2-15.1,43.9-17.8,74.3-13.3c30.4,4.4,102.7,18,102.7,18
			s-25.4,24.2-79.8,42.3c-54.4,18.1-140.7,33-140.7,33L338,410.7z"/>
		<path class="st17" d="M338,410.7l12.4,12.1l2.8-0.5c9.9-8,31.9-22.3,77.6-38.6c52.7-18.8,112.5-31.2,139.5-36.3
			c-6.8-1.3-73.3-13.7-102.1-17.9c-30.4-4.4-54.1-1.8-74.3,13.3C373.7,358,338,410.7,338,410.7"/>
		<path class="st21" d="M340.7,424.7c0,0,76.6-19.9,105.4-8.2c28.7,11.7,69.2,57.7,80.2,91.6c0,0-23.1,0.3-70.2-28.8
			c-47.2-29.1-108.5-39.2-109-39.1C346.6,440.3,340.7,424.7,340.7,424.7"/>
		<path class="st22" d="M456.1,479.3c46.4,28.6,69.4,28.8,70.2,28.8c-18.7-25.2-68.4-74.1-104.9-81.2c-30.7-6-63.8,0.4-78.2,4.2
			c1.7,4.3,3.6,9.2,3.9,9.1C347.6,440.1,408.9,450.2,456.1,479.3"/>
		<path class="st23" d="M320.5,486.7c8.7-9.5,33.1-36.3,35.5-58.3c2.4-22-22-28.7-34.4-27.9c-12.4,0.7-18.8,2-24.1,13.6
			C292.2,425.8,311.7,496.3,320.5,486.7"/>
		<path class="st11" d="M343.2,747.4c6.7-0.6,15.7-1.4,23.4-2.5c2.5,0.8,5.4,2.1,8,3.9c0.3,0.3,0.7,0.5,1.2,0.8
			c17.6,1.3,35.6,2.8,54,4.4c-0.2-0.2-0.5-0.4-0.8-0.6c-1-0.7-2.1-1.4-3.4-2c6.7,1.2,13.3,2.5,19.6,3.9c16,1.3,31.3,2.2,46.1,2.8
			c-9.4-4.6-23.6-9.3-36.5-11.6c-8.8-1.6-25.9-2.9-42.5-3.9c24.7,1.2,57.8,2.6,83.3,3.2c45.9,1.1,69.6-0.5,69.6-0.5
			s-53.7-6.6-76.2-9.1c-22.4-2.5-41-3.7-59.5-3.1c-14.9,0.5-43,3.5-54.1,4.8c-0.5-0.1-1-0.2-1.5-0.3c2.6-2.2,2.1-6.4-9.6-11.7
			c-13.1-6-71.8-8.8-72.4-8.8c-0.4,0,15.5,6.4,30,12.3c-11.7-1.8-25.6-3.3-40.5-4.1c-33.3-1.9-74.9,0.8-74.9,0.8s44.4,5.2,82.9,7.7
			c3.7,0.2,7.2,0.5,10.4,0.7c-5,0.2-11.4,0.5-19.5,1c-20,1.2-40.4,4.5-50.5,6.3c14.9,0.5,30.1,1.1,45.7,1.9l4.2-0.1
			c15.9-0.3,37.7-1.1,51.7-1.7c-0.2,0.5-0.3,1-0.3,1.4c-6.2,0.5-14.3,1.1-23.7,2C319.1,745.9,331.1,746.6,343.2,747.4"/>
	</g>
	<g id="shadow" style="clip-path:url(#SVGID_00000099627705862164075490000012280249907250535857_);">
		<path class="st11" d="M805.9,798.7c0,0,42.4-21.3,43.5-22.9c1.2-1.7,1.4-10,1.4-10s-45.7,24.2-50.1,26.3
			C797.2,793.8,805.9,798.7,805.9,798.7"/>
		<path class="st11" d="M1041.9,766.6c-2.6,21.5-79.6,30.1-172.1,19.1c-92.5-11-165.4-37.4-162.8-58.9
			c2.6-21.5,79.6-30.1,172.1-19.1C971.6,718.7,1044.5,745.1,1041.9,766.6"/>
		<path class="st11" d="M607,822.7c0,0,23-5,29.9-12.1c6.9-7.1,19.7-10,26.3-12.1c6.6-2.1,28.4-10.2,36.3-8.5
			c7.8,1.7,15.9-2.1,21.3-4.3c5.5-2.1,14.9-9.2,17.8-9.2c2.8,0,15.6-3.6,15.6-3.6s8.1-7.3,16.3-12.8c8.3-5.5,20.1-4,29.1-5.7
			c9-1.7,11.4-2.6,14.9-3.6c3.6-0.9,10-3.6,10-3.6s-8.3-4-15.6-7.1c-7.3-3.1-16.8,1.2-24.2-1.4c-7.3-2.6-22-6.4-25.6-7.1
			c-3.6-0.7-16.8-1.7-22-1.4c-5.2,0.2-16.3,0-16.3,0s-14.5,3.6-27,5.7c-12.6,2.1-13.5,7.8-17.8,8.5c-4.3,0.7-11.4,4.5-22.7,4.3
			c-11.4-0.2-56.9,5.7-56.9,5.7l-94.5,33.4L607,822.7z"/>
	</g>
	<g id="chair" style="clip-path:url(#SVGID_00000099627705862164075490000012280249907250535857_);">
		<polygon class="st25" points="762.7,577.4 748.5,576 744.2,583.8 759.8,586 		"/>
		<path class="st26" d="M521.7,661.3c0.7-0.2,81.8-9.2,81.8-9.2l5,0.7l-73.2,13.5C535.2,666.3,521,661.5,521.7,661.3"/>
		<path class="st27" d="M521.7,668.4c0,0,13.3,2.1,18.5,2.1c5.2,0,69-12.8,69-12.8l-0.7-5.7c0,0-61.3,10.3-69,10.7
			c-7.6,0.4-17.8-1.4-17.8-1.4V668.4z"/>
		<polygon class="st28" points="657.5,749.5 739.9,764.4 713.6,663.4 721.4,658.5 749.2,773.6 743.5,775 650.4,757.3 		"/>
		<polygon class="st29" points="652.5,755.1 745.3,772.1 746.3,776.5 649.7,759.4 		"/>
		<path class="st30" d="M662.4,566.1c0,0-64,146-96.9,175.4l72.7,17.3c0,0,20.4,3.5,48.9-32.4c28.4-35.9,56.8-102.4,68.4-150.3
			L662.4,566.1z"/>
		<path class="st31" d="M620,754.4l8.6,2c3.7-0.9,18.1-6.2,42.4-36.8c28.2-35.7,61.9-97,73.7-144.8l-11.7-1.3
			c-12.7,48.1-45.1,108.4-72.5,143.8C639.3,744.7,625.6,752.3,620,754.4"/>
		<path class="st8" d="M596.7,748.8l10.1,2.4c7.7-4.2,20.1-13.4,37-33.3c30.2-35.3,66.6-96.2,81.5-145.2l-12.4-1.3
			c-15.7,49.2-50.9,108.7-80.1,143.8C616.6,734.8,604.5,744.3,596.7,748.8"/>
		<polygon class="st32" points="725,651.4 754.1,772.2 746.3,776.5 717.9,660.6 		"/>
		<polygon class="st29" points="496.1,782.2 500.4,791.4 606.3,824.8 602,815.6 		"/>
		<polygon class="st33" points="510.3,781.4 663.2,568.9 658.2,562.5 501.8,777.2 		"/>
		<g id="shadow_00000067942363049179336030000018301076457991725493_">
			<defs>
				<rect id="SVGID_00000094596965985116454460000017689298020239606949_" x="600.6" y="570.2" width="144.4" height="167.2"/>
			</defs>
			<clipPath id="SVGID_00000013187499866590977040000016480072027544945062_">
				<use xlink:href="#SVGID_00000094596965985116454460000017689298020239606949_"  style="overflow:visible;"/>
			</clipPath>
			
				<path style="opacity:0.5;clip-path:url(#SVGID_00000013187499866590977040000016480072027544945062_);fill-rule:evenodd;clip-rule:evenodd;fill:#1E1E1D;" d="
				M745,574.9l-44.1-4.7L600.6,737.4c0,0,17.1-0.2,29.1-2.1c12.1-1.9,28.4-15.2,32.7-19.9c4.3-4.7,45.3-48.8,46.2-50.5
				c0.9-1.7,26.8-41.2,26.3-43.4c-0.5-2.1-8.3-12.6-9.2-18.5c-0.9-5.9-5.7-11.4-2.1-15.6C726.7,583.6,741.7,576.4,745,574.9"/>
		</g>
		<polygon class="st28" points="638.3,755.1 596.3,743.8 593.5,754.4 632.6,765.1 		"/>
		<polygon class="st35" points="766.9,568.9 774.1,569.6 601.3,816.3 496.1,782.2 653.2,561.8 658.2,561.8 505.3,776.5 599.2,807.7 
					"/>
		<polygon class="st32" points="774.1,570.3 601.3,816.3 606.3,824.8 779.7,575.3 		"/>
		<polygon class="st30" points="526.6,725.5 629,752.4 625.1,763.3 523.7,736.2 		"/>
		<polygon class="st8" points="611.4,759.6 595.2,755.2 598.9,744.4 615,748.7 		"/>
		<polygon class="st8" points="580.6,751.3 564.4,747 568,736.2 584.2,740.4 		"/>
		<polygon class="st8" points="551.6,743.7 535.4,739.4 539,728.6 555.2,732.8 		"/>
		<polygon class="st33" points="536.6,670.5 542,724.9 545.6,719.9 545.2,669.8 		"/>
		<polygon class="st27" points="531.5,668.8 535.9,726.3 542,724.9 537.9,668.1 		"/>
	</g>
	<g id="right_wing" style="clip-path:url(#SVGID_00000099627705862164075490000012280249907250535857_);">
		
			<linearGradient id="SVGID_00000172423204320825179640000001747323507771482517_" gradientUnits="userSpaceOnUse" x1="561.3373" y1="650.1534" x2="616.5198" y2="595.3406" gradientTransform="matrix(0.9965 -8.320000e-02 8.320000e-02 0.9965 -50.2996 55.6813)">
			<stop  offset="0.1217" style="stop-color:#0B0B0A"/>
			<stop  offset="1" style="stop-color:#333333"/>
			<stop  offset="1" style="stop-color:#000000"/>
		</linearGradient>
		<path style="fill:url(#SVGID_00000172423204320825179640000001747323507771482517_);" d="M660.2,591.7c0,0-10.6-5.9-27.8-4.8
			c-17.2,1.1-73.5,21.8-78,30.9c-4.5,9,8.9,45.5,18.7,58.2C582.9,688.8,660.2,591.7,660.2,591.7z"/>
		
			<linearGradient id="SVGID_00000041296324711746293990000004509118238329812100_" gradientUnits="userSpaceOnUse" x1="597.8768" y1="631.4893" x2="499.5116" y2="619.8626" gradientTransform="matrix(0.9965 -8.320000e-02 8.320000e-02 0.9965 -50.2996 55.6813)">
			<stop  offset="0.1323" style="stop-color:#0B0B0A"/>
			<stop  offset="1" style="stop-color:#333333"/>
			<stop  offset="1" style="stop-color:#000000"/>
		</linearGradient>
		<path style="fill:url(#SVGID_00000041296324711746293990000004509118238329812100_);" d="M660.5,595.2c0,0-10.6-5.9-27.8-4.8
			c-17.2,1.1-73.5,21.8-78,30.9c-4.5,9,8.9,45.5,18.7,58.2C583.3,692.3,660.5,595.2,660.5,595.2z"/>
	</g>
	<g id="head" style="clip-path:url(#SVGID_00000099627705862164075490000012280249907250535857_);">
		<path class="st38" d="M780.3,504c-1.3-6.6-3.3-12.5-5.7-17.7l-7.4,2.8l4.6-8.3c-9.7-17.6-23.5-27-28.4-29.9L733,464.6l3.6-14.5
			l0.3-2.3c0,0-17.8-5.7-28.2-3.1c-12.1,3.1-30.8,16.3-45.2,50.5c-14.4,34.2-3.3,57.6-3.3,57.6l47.4,15.8c4.4-4,3.3-7.9,11.8-24.2
			c8.6-16.4,30.2-27.4,44.8-17.7c14.6,9.7,12.5,30.1,12.5,30.1S788.1,542.7,780.3,504"/>
		<path class="st39" d="M711.2,443.9c0,0-22.7,1.7-50.6,18.9c0,0-22,20.3-27.4,44.6l12-1.6c0,0,9.1-7.4,18.8-11.9
			c14.3-33.3,32.7-46.3,44.7-49.3c0.8-0.2,1.6-0.4,2.4-0.5L711.2,443.9z"/>
		<path class="st40" d="M736.6,527.1c2.2,0.5,18.2,5.2,24.5,28c0,0,0.3,4.3,3.5,3.9c3.3-0.3,11.8-2.6,11.8-2.6l0.3-1.6
			c0.1-5.3-0.6-20.3-12.6-28.2C756.1,521.1,745.7,522.2,736.6,527.1"/>
		<polygon class="st41" points="736.6,449.9 733,464.3 743.5,450.5 		"/>
		<polygon class="st41" points="770,483.9 767.2,488.9 774.6,486 		"/>
		<path class="st42" d="M660.2,552.7l47.4,15.8c4.2-3.8,3.4-7.5,10.7-22.1c2.1-10.3,1-33.8-17.7-47.5c-17.1-12.6-32.1-7.3-36.5-5.3
			l-0.6,1.5C649.1,529.3,660.2,552.7,660.2,552.7"/>
		<path class="st43" d="M660.8,552.9l-30.6,19.6l13.2,5l31.7-8.5c0.2-0.1,16.5,8.2,16.5,8.2l15.7-8.7L660.8,552.9z"/>
		<path class="st44" d="M648.2,505.7l-2.3,23.5l3.7,27.6l-0.7-0.1l0.3,0.1l-17.5,9.7l-2.3,0c0.3,1.9,0.6,3.9,0.9,5.9l30.6-19.6
			l-0.6-0.2c0,0-11.1-23.4,3.3-57.6l0.5-1.2c-11.5,3.8-22.8,10.7-19,12.2L648.2,505.7z"/>
	</g>
	<g id="body" style="clip-path:url(#SVGID_00000099627705862164075490000012280249907250535857_);">
		<path class="st43" d="M644,566.8l38.4,2.1c0,0-31.3,101.7-44.1,116.6c-12.8,14.9-27,5.7-27,5.7s-55-9-52.6-25.6
			C561,649,644,566.8,644,566.8"/>
		<path class="st43" d="M648.2,721c0,0-25.8,10.4-43.4,8.1c-17.5-2.4-40.5-56.4-40.5-56.4s88.1,25.6,88.1,29.9
			C652.5,706.8,648.2,721,648.2,721"/>
		<path class="st42" d="M628.1,648.5c2.6,0.1,7.4,1.3,10.2,1.2l27.6-60.1l-4.9-5.7l-0.5,0.1l0.4,0.1L628.1,648.5z"/>
		<path class="st42" d="M682.4,568.2l28.1,27.7c0,0-54.8,117.2-61.7,126.1l-30-25.3C618.7,696.7,669.4,614.2,682.4,568.2"/>
	</g>
	<g style="clip-path:url(#SVGID_00000099627705862164075490000012280249907250535857_);">
		<polygon class="st45" points="645.9,529.2 649.5,556.8 627.1,552.8 		"/>
		<polygon class="st45" points="621.9,541.1 599.9,567 627.6,552.9 627.1,552.8 644.8,530.6 645.7,529.2 644.9,529.5 		"/>
		<polygon class="st46" points="600.4,567.1 631.5,566.5 649,556.8 648.8,556.7 627.6,552.9 601.7,566.1 		"/>
	</g>
	<g style="clip-path:url(#SVGID_00000099627705862164075490000012280249907250535857_);">
		<path class="st47" d="M596.5,482.3c11.6-2.1,23.2-1.7,34.2,1.8c5.5,1.8,10.5,5.3,15.6,8.4c2.9,1.8,6.2,1.5,9.4,0.5
			c6.4-1.9,12.8-4.3,19.1-4.2c10.5,0.4,20.9,2.7,30.8,6.5l-0.1,0.5c-0.7,3.1-1.3,6.3-1.9,9.4c-1.8,0.6-3.3,2.9-3.9,5.5
			c-2.1,7.7-3.2,16.1-6.6,23c-2.2,4.8-5.6,8.3-9.3,9.8c-4.4,1.9-8.9,1.3-13-0.1c-4.6-1.7-9.3-4.2-12.3-9.6c-2.3-4.6-3.9-10.1-4.5-16
			c-0.6-4.2-0.6-8.8-1.8-12.7c-0.7-2.3-2.6-2.1-4.1-2.4c-1-0.3-1.8,0.9-2.4,2.1c-1.8,3.8-3,8-4.6,12c-1.6,4.1-3.5,8.1-5.8,11.4
			c-2.4,3.7-5.6,6.1-8.7,7.5c-5.2,2.2-10.5,2.4-15.5,1c-5.2-1.3-9.5-6.8-11.6-13.9c-1.8-7.1-0.8-15.1-0.8-22.8
			c0.2-3.4-0.9-6.5-2.8-7.9c0.1-3,0.4-6.1,0.5-9.2L596.5,482.3z M673.8,493.3c-3.3,0.3-6.7,0.3-9.9,2.4c-3.2,2.4-6,7.5-6,12.9
			c-0.2,2.9-0.1,5.8,0.1,8.6c0.2,1.4,0.3,2.9,0.5,4.3c0,0,0,0.1,0,0.1c0.1,0.6,0.2,1.2,0.3,1.8c0.1,1,0.3,1.9,0.6,2.8
			c0.1,0,0.3,0,0.4,0c-0.1,0.1-0.2,0.2-0.3,0.3c0.5,1.9,1.2,3.6,1.9,5.2l-0.1,0.1c3.6,5.8,8.8,8.9,14.2,9.3
			c5.5,0.7,11.6-3.2,15.1-10.4c2.9-6,4.6-13.1,5.2-20.2c0.5-6-1.7-11.8-5.3-13.8c-0.3-0.1-0.6-0.3-0.9-0.4c0,0,0,0-0.1,0
			c-1.1-0.7-2.3-0.9-3.4-1.3C682.2,493.6,678,493.3,673.8,493.3 M605.7,491.1c-2.6,3.5-3.7,8.7-3.8,13.5l-0.1,0.2
			c0,2.2-0.1,4.5-0.1,6.7c-0.1,1.6,0.2,3.1,0.3,4.6c0.3,1.8,0.6,3.6,1.1,5.4c2,7.4,7,11.9,12.3,12.4c5.4,0.6,11.4-1.1,16.1-6.5
			c4.3-5.5,6.8-13.4,8.4-21.2c1.3-6.3-1.1-13.1-4.9-15.2c-1.5-1-3.1-1.7-4.7-2.2c-0.8-0.1-1.5-0.5-2.3-0.7c-1.7-0.6-3.5-0.8-5.2-1
			c-1.9-0.2-3.9-0.5-5.8-0.5C613.2,486.3,608.8,486.6,605.7,491.1 M600,486.4c-0.5,0.2-1.5,0.3-1.5,1.3c0.7,1.1,1.9,1,2.9,1
			c0.1,0,0.3-0.1,0.5-0.2c0.6,0.2,1.3-0.2,1.9-0.6c0,0,0,0,0.1,0c0.1-0.1,0.3-0.4,0.4-0.5C603.1,485.9,601.4,486.3,600,486.4
			 M697.7,498.1c-0.6-0.1-0.7,0.9-0.2,1.2c1.5,1.2,3.4,1.8,5.1,0.8c0-0.1,0-0.4,0-0.5C701.3,498,699.4,497.7,697.7,498.1"/>
		<g>
			<path class="st48" d="M673.8,493.3c4.2,0,8.4,0.3,12.5,1.5c-0.3,0-0.6,0.2-0.8,0.5c-8.5,10.3-17.1,20.6-25.6,30.8
				c-0.1,0-0.3,0-0.4,0c-0.3-0.9-0.5-1.8-0.6-2.8c8.1-9.7,16.2-19.4,24.2-29.2c-1.9-0.3-3.8-0.5-5.7-0.7c-6.3,7.4-12.5,15-18.7,22.4
				c-0.3,0.3-0.5,0.7-0.7,1.2c-0.2-2.8-0.2-5.7-0.1-8.6c0-5.4,2.8-10.5,6-12.9C667.2,493.7,670.5,493.6,673.8,493.3"/>
			<path class="st48" d="M605.7,491.1c3.2-4.5,7.5-4.9,11.3-4.7c-5,6.1-10.1,12.2-15.1,18.2C602,499.8,603.1,494.6,605.7,491.1"/>
			<path class="st48" d="M622.9,487c1.7,0.2,3.5,0.4,5.2,1c-0.9,0.2-2-1.1-2.8,0.1c-7.7,9.4-15.5,18.6-23.2,28
				c-0.1-1.5-0.4-3-0.3-4.6c0,0.2,0.1,0.5,0.1,0.7C608.9,503.8,615.9,495.4,622.9,487"/>
			<path class="st48" d="M630.4,488.7c1.6,0.6,3.2,1.2,4.7,2.2c3.7,2.2,6.2,8.9,4.9,15.2c-1.5,7.8-4.1,15.8-8.4,21.2
				c-4.7,5.4-10.7,7.1-16.1,6.5c-5.3-0.4-10.3-5-12.3-12.4c0.1,0.1,0.3,0.2,0.4,0.3c9.1-10.9,18.2-21.8,27.2-32.7
				C630.6,488.9,630.4,488.8,630.4,488.7"/>
			<path class="st48" d="M690.7,496.6c3.5,2,5.8,7.8,5.3,13.8c-0.6,7.1-2.3,14.2-5.2,20.2c-3.5,7.3-9.6,11.1-15.1,10.4
				c-5.4-0.4-10.6-3.5-14.2-9.3l0.1-0.1C671.3,520.1,681,508.3,690.7,496.6"/>
		</g>
		<g>
			<path class="st49" d="M617,486.5c1.9-0.1,3.9,0.3,5.8,0.5c-7,8.5-14,16.9-21,25.3c0-0.2-0.1-0.5-0.1-0.7c-0.1-2.2,0-4.4,0.1-6.7
				l0.1-0.2C607,498.6,612,492.6,617,486.5"/>
			<path class="st49" d="M677.5,493.4c1.9,0.1,3.8,0.3,5.7,0.7c-8.1,9.7-16.3,19.6-24.4,29.3c-0.1-0.6-0.2-1.2-0.3-1.8
				c0,0,0-0.1,0-0.1c-0.2-1.4-0.3-2.9-0.5-4.3c0.2-0.5,0.4-0.9,0.7-1.2C664.9,508.5,671.3,500.8,677.5,493.4"/>
			<path class="st49" d="M625.8,487.4c1.6,0.2,3,0.7,5.1,1.5c-9.1,11-18.3,22-27.4,32.9c-0.1-0.1-0.3-0.2-0.4-0.3
				c-0.4-1.7-0.8-3.5-1.1-5.4C609.7,506.7,618.1,496.8,625.8,487.4"/>
			<path class="st49" d="M685.5,495.3c0.2-0.3,0.5-0.5,0.8-0.5c1.1,0.4,2.3,0.7,3.4,1.3c0,0,0,0,0.1,0c0.3,0.2,0.6,0.3,0.9,0.4
				c-9.7,11.7-19.4,23.5-29.2,35c-0.8-1.6-1.5-3.3-1.9-5.2c0.1-0.1,0.2-0.2,0.3-0.3C668.4,515.9,676.9,505.6,685.5,495.3"/>
			<path class="st49" d="M600,486.4c1.4-0.1,3.2-0.5,4.2,1c-0.1,0.1-0.3,0.4-0.4,0.5c0,0,0,0-0.1,0c-0.6,0.3-1.3,0.7-1.9,0.6
				c-0.1,0-0.3,0.1-0.4,0.2c-1,0-2.2,0.1-2.9-1C598.4,486.7,599.5,486.7,600,486.4"/>
			<path class="st49" d="M697.7,498.1c1.7-0.4,3.7-0.1,4.9,1.5c0,0.1,0,0.4,0,0.5c-1.8,0.9-3.6,0.3-5.1-0.8
				C696.9,499,697.1,498,697.7,498.1"/>
		</g>
	</g>
	<g style="clip-path:url(#SVGID_00000099627705862164075490000012280249907250535857_);">
		<path class="st45" d="M648.2,505.7l-2.3,23.5l-43.6-20.8c0,0,14.2,0.3,24.6-0.4C637.2,507.3,648.2,505.7,648.2,505.7"/>
		<polygon class="st46" points="602.7,508.7 587,522.2 621.8,541.1 645.4,529.2 645.2,528.9 602.9,508.7 		"/>
	</g>
	<g id="arm_chair" style="clip-path:url(#SVGID_00000099627705862164075490000012280249907250535857_);">
		<polygon class="st50" points="648.9,747.3 654.6,739.5 654.6,691.9 648.9,692.6 		"/>
		<polygon class="st27" points="643.3,691.2 642.5,745.9 649.7,747.3 649.7,690.5 		"/>
	</g>
	<g id="left_wing" style="clip-path:url(#SVGID_00000099627705862164075490000012280249907250535857_);">
		<path class="st26" d="M634.7,684.8c0.7-0.2,81.8-9.2,81.8-9.2l5,0.7l-73.2,13.5C648.2,689.7,634,684.9,634.7,684.8"/>
		<path class="st27" d="M634.7,691.9c0,0,13.3,2.1,18.5,2.1c5.2,0,69-12.8,69-12.8l-0.7-5.7c0,0-61.3,10.3-69,10.7
			c-7.6,0.4-17.8-1.4-17.8-1.4V691.9z"/>
		<path class="st51" d="M625.5,683.3c7,6.4,16.9,16.9,27.4,21.5c26.9,11.9,53.2,10.2,70.4,3.4l-0.6-0.5c-4.2,0.6-17.6,4.2-22.2,3.8
			c-46.8-4.5-62.2-25.2-66.7-29.5c-3.9-3.6-8.3-9.4-16.2-9.8C617.7,672.2,621,679.2,625.5,683.3"/>
		<path class="st51" d="M686.3,593c0,0,43,54.8,56,64.6c13,9.8,19.1,10.9,19.1,10.9s-20.6,45.4-67.5,43.5
			c-47-1.9-76.2-38.4-81.1-45.5C612.4,652.7,663.2,588.9,686.3,593"/>
		<path class="st42" d="M688.2,593.4c0,0,45.6,54.4,58.6,64.2c13,9.8,19.1,10.9,19.1,10.9s-20.6,45.4-67.5,43.5
			c-47-1.9-76.2-38.4-81.1-45.5C616.9,652.7,665.4,591.3,688.2,593.4"/>
		<path class="st38" d="M645.6,671c-0.9-1.9-3.1-2.7-5-1.8c-1.9,0.9-2.7,3.2-1.8,5.1c0.9,1.9,3.1,2.7,5,1.8
			C645.6,675.1,646.4,672.8,645.6,671"/>
		<path class="st38" d="M746.8,664.5c-0.9-1.9-3.1-2.7-5-1.8c-1.9,0.9-2.7,3.2-1.8,5c0.9,1.9,3.1,2.7,5,1.8
			C746.8,668.6,747.6,666.3,746.8,664.5"/>
		<path class="st8" d="M730.6,662.6c-0.9-1.9-3.1-2.7-5-1.8c-1.9,0.9-2.7,3.2-1.8,5c0.9,1.9,3.1,2.7,5,1.8
			C730.7,666.7,731.5,664.5,730.6,662.6"/>
		<path class="st8" d="M720.9,667.3c-0.9-1.9-3.1-2.7-5-1.8c-1.9,0.9-2.7,3.2-1.8,5c0.9,1.9,3.1,2.7,5,1.8
			C721,671.4,721.8,669.2,720.9,667.3"/>
		<path class="st8" d="M735.1,672.3c-0.9-1.9-3.1-2.7-4.9-1.8c-1.9,0.9-2.7,3.2-1.8,5c0.9,1.9,3.1,2.7,4.9,1.8
			C735.1,676.5,735.9,674.2,735.1,672.3"/>
		<path class="st8" d="M725.4,677c-0.9-1.9-3.1-2.7-5-1.8c-1.9,0.9-2.7,3.2-1.8,5c0.9,1.9,3.1,2.7,5,1.8
			C725.5,681.1,726.3,678.9,725.4,677"/>
		<path class="st52" d="M696.7,618c-0.5-2-2.6-3.2-4.6-2.6c-2,0.6-3.2,2.7-2.7,4.7c0.5,2,2.6,3.2,4.6,2.6
			C696,622.2,697.2,620,696.7,618"/>
		<path class="st52" d="M686.2,621c-0.5-2-2.6-3.2-4.6-2.6c-2,0.6-3.2,2.7-2.7,4.7c0.5,2,2.6,3.2,4.6,2.6
			C685.6,625.2,686.7,623.1,686.2,621"/>
		<path class="st52" d="M699.5,627.8c-0.5-2-2.6-3.2-4.6-2.6c-2,0.6-3.2,2.7-2.7,4.7c0.5,2,2.6,3.2,4.7,2.6
			C698.9,631.9,700.1,629.8,699.5,627.8"/>
		<path class="st52" d="M689,631.6c-0.6-2-2.6-3.2-4.6-2.6c-2,0.6-3.2,2.7-2.7,4.7c0.5,2,2.6,3.2,4.6,2.6
			C688.4,635.7,689.6,633.6,689,631.6"/>
		<path class="st53" d="M652.7,679.1c-1.1,1.8-0.6,4.1,1.1,5.2c1.7,1.1,4,0.6,5.2-1.2c1.1-1.8,0.6-4.1-1.1-5.2
			C656.2,676.8,653.9,677.3,652.7,679.1"/>
		<path class="st53" d="M661.7,684.9c-1.1,1.8-0.6,4.1,1.1,5.2c1.7,1.1,4,0.6,5.2-1.2c1.1-1.8,0.6-4.1-1.1-5.2
			C665.1,682.6,662.8,683.1,661.7,684.9"/>
		<path class="st53" d="M658.6,670c-1.1,1.8-0.6,4.1,1.1,5.2c1.7,1.1,4.1,0.6,5.2-1.2c1.1-1.8,0.6-4.1-1.1-5.2
			C662,667.7,659.7,668.2,658.6,670"/>
		<path class="st53" d="M667.5,675.8c-1.1,1.8-0.6,4.1,1.1,5.2c1.7,1.1,4,0.6,5.2-1.2c1.1-1.8,0.6-4.1-1.1-5.2
			C671,673.5,668.7,674,667.5,675.8"/>
		<path class="st8" d="M755.5,672.6c0.1-1.5-1-2.7-2.5-2.8c-1.5-0.1-2.7,1.1-2.8,2.6c-0.1,1.5,1,2.7,2.5,2.8
			C754.2,675.2,755.5,674.1,755.5,672.6"/>
		<path class="st8" d="M747.6,682.5c0.1-1.5-1-2.7-2.5-2.8c-1.5-0.1-2.7,1.1-2.8,2.6c-0.1,1.5,1,2.7,2.5,2.8
			C746.3,685.1,747.5,684,747.6,682.5"/>
		<path class="st8" d="M738.2,691.1c0.1-1.5-1-2.7-2.5-2.8c-1.5-0.1-2.7,1.1-2.8,2.6c-0.1,1.5,1,2.7,2.5,2.8
			C736.8,693.7,738.1,692.5,738.2,691.1"/>
		<path class="st8" d="M726,699.5c0.1-1.5-1-2.7-2.5-2.8c-1.5-0.1-2.7,1.1-2.8,2.6c-0.1,1.5,1,2.7,2.5,2.8
			C724.7,702.2,725.9,701,726,699.5"/>
		<path class="st8" d="M712.2,703.3c0.1-1.5-1-2.7-2.5-2.8c-1.5-0.1-2.7,1.1-2.8,2.6c-0.1,1.5,1,2.7,2.5,2.8
			C710.8,706,712.1,704.8,712.2,703.3"/>
		<path class="st8" d="M697.6,704c0.1-1.5-1-2.7-2.5-2.8c-1.5-0.1-2.7,1.1-2.8,2.6c-0.1,1.5,1,2.7,2.5,2.8
			C696.3,706.7,697.5,705.5,697.6,704"/>
		<path class="st8" d="M683.4,701.8c0.1-1.5-1-2.7-2.5-2.8c-1.5-0.1-2.7,1.1-2.8,2.6c-0.1,1.5,1,2.8,2.5,2.8
			C682,704.5,683.3,703.3,683.4,701.8"/>
		<path class="st8" d="M669.5,698.1c0.1-1.5-1-2.8-2.5-2.8c-1.5-0.1-2.7,1.1-2.8,2.6c-0.1,1.5,1,2.7,2.5,2.8
			C668.1,700.7,669.4,699.6,669.5,698.1"/>
		<path class="st8" d="M658.2,692.7c0.1-1.5-1-2.8-2.5-2.8c-1.5-0.1-2.7,1.1-2.8,2.6c-0.1,1.5,1,2.8,2.5,2.8
			C656.9,695.4,658.1,694.2,658.2,692.7"/>
		<path class="st8" d="M684.9,605.3c0.1,1.5,1.3,2.7,2.8,2.6c1.5-0.1,2.6-1.4,2.5-2.9c-0.1-1.5-1.3-2.7-2.8-2.6
			C686,602.5,684.8,603.8,684.9,605.3"/>
		<path class="st38" d="M698.4,647.6c0,0-3.2-9-11-5.8c-7.9,3.2-4.8,12.6-4.8,12.6s-6.1-5.9-11.6-2.7c-5.5,3.2-9.5,10.6-0.5,16
			c8.9,5.3,22.3-1.3,28.4,6.3c0,0-1-4.1-0.6-9.8C698.5,659.6,700.4,653.9,698.4,647.6"/>
		<path class="st53" d="M721.1,648.5c1.2,0.4,2.1,1.5,2.3,2.8c0.4,2-1,3.9-3,4.3c-1.4,0.3-2.8-0.3-3.6-1.3c0.6-0.3,1.2-0.6,1.8-1.1
			C720,652,720.9,650.3,721.1,648.5 M717.2,637.8c2-0.4,4,1,4.4,3c0.2,1.3-0.3,2.6-1.3,3.5c-0.2-0.4-0.5-0.9-0.9-1.3
			c-1.4-1.6-3.3-2.5-5.2-2.6C714.6,639.2,715.7,638.1,717.2,637.8 M712.8,654.8c-0.4,1.4-1.5,2.4-3,2.7c-2.1,0.4-4-1-4.4-3
			c-0.3-1.6,0.5-3.1,1.8-3.9c0.3,0.6,0.6,1.2,1.1,1.7C709.5,653.8,711.1,654.6,712.8,654.8 M706.6,639.7c1.6-0.3,3.1,0.4,3.9,1.7
			c-0.4,0.2-0.9,0.5-1.2,0.8c-1.5,1.3-2.4,3-2.6,4.9c-1.5-0.2-2.8-1.4-3.1-3C703.1,642,704.5,640,706.6,639.7"/>
		<path class="st53" d="M717.5,652c2.4-2,2.7-5.5,0.7-7.9c-2-2.4-5.6-2.7-8-0.7c-2.4,2-2.7,5.5-0.7,7.9
			C711.6,653.7,715.1,654,717.5,652"/>
		<path class="st8" d="M664.8,642.1c1.2,0.4,2.1,1.5,2.3,2.8c0.3,2-1,4-3,4.4c-1.4,0.3-2.7-0.3-3.6-1.3c0.6-0.3,1.2-0.7,1.8-1.1
			C663.7,645.6,664.5,643.9,664.8,642.1 M660.9,631.4c2-0.4,4,1,4.3,3c0.2,1.4-0.3,2.7-1.3,3.5c-0.2-0.4-0.5-0.9-0.8-1.3
			c-1.3-1.6-3.2-2.5-5.1-2.5C658.4,632.7,659.5,631.6,660.9,631.4 M656.5,648.5c-0.4,1.4-1.5,2.5-3,2.7c-2,0.4-3.9-1-4.3-3
			c-0.3-1.6,0.5-3.1,1.8-3.9c0.3,0.6,0.6,1.2,1.1,1.7C653.3,647.5,654.8,648.3,656.5,648.5 M650.5,633.3c1.5-0.3,3,0.4,3.8,1.7
			c-0.4,0.2-0.8,0.5-1.2,0.9c-1.5,1.3-2.4,3.1-2.5,4.9c-1.5-0.2-2.8-1.4-3-3C647.1,635.7,648.4,633.7,650.5,633.3"/>
		<path class="st8" d="M661.2,645.6c2.4-2,2.7-5.6,0.7-8c-2-2.4-5.5-2.6-7.9-0.6c-2.4,2-2.7,5.6-0.7,8
			C655.3,647.4,658.8,647.7,661.2,645.6"/>
		<path class="st52" d="M703,682c1.1-0.6,2.5-0.5,3.7,0.2c1.7,1.1,2.2,3.4,1.1,5.2c-0.8,1.2-2.1,1.8-3.5,1.7c0.4-1.2,0.6-2.6,0.3-4
			C704.3,683.9,703.7,682.8,703,682 M692.5,677.5c1.1-1.8,3.4-2.3,5.2-1.2c1.2,0.7,1.7,2,1.7,3.3c-1.1-0.3-2.2-0.3-3.4,0
			c-1.4,0.3-2.6,1-3.5,1.9C691.7,680.4,691.7,678.8,692.5,677.5 M701.9,692.4c0.7,1.2,0.8,2.8,0,4.1c-1.1,1.8-3.4,2.3-5.2,1.2
			c-1.4-0.9-1.9-2.5-1.6-4c1.2,0.4,2.5,0.5,3.9,0.2C700.1,693.6,701.1,693.1,701.9,692.4 M686.7,686.7c0.9-1.3,2.4-2,3.9-1.7
			c-0.3,1.1-0.3,2.2-0.1,3.4c0.3,1.3,0.8,2.4,1.6,3.3c-1.2,1-3,1.1-4.3,0.2C686,690.7,685.6,688.4,686.7,686.7"/>
		<path class="st52" d="M703.1,687c0.2-3.1-2.2-5.8-5.3-5.9c-3.1-0.1-5.7,2.3-5.9,5.4c-0.2,3.1,2.2,5.8,5.3,5.9
			C700.3,692.5,702.9,690.1,703.1,687"/>
	</g>
	<g id="right_hand" style="clip-path:url(#SVGID_00000099627705862164075490000012280249907250535857_);">
		<path class="st54" d="M542.9,619.2c-1.8-0.1-1.9-2.9-1.9-2.9c-4.3-1.4-10.9-4.6-30.4,0.1c-2.2,0.5-7.7-4-1.6-5.4
			c3.5-0.8,8-1.7,13.6-2.3c12.1-1.4,19.1,0.7,22,3c1.5,1.1,2,2.1,2,2.1l-0.1,2.3C545.9,617.4,544.7,619.2,542.9,619.2z"/>
		<g id="glass">
			<path class="st55" d="M547.7,655.1c0,0-1.2,5-19.2,6.4c-18,1.4-12.1-9.2-11.4-9.2s25.6-5,25.6-5L547.7,655.1z"/>
			<path class="st56" d="M498.8,590.1c0,0,2.8-4.3,17.7-6.8c15.1-2.5,20.3,0.9,20.3,0.9l11.2,72c0,0-4.1-3.2-15.1-1
				c-11,2.2-16.9,6.5-16.9,6.5L498.8,590.1z"/>
			<path class="st8" d="M498.8,590.1c0,0,5.2,2.2,20-0.6c15.5-2.9,18-5.3,18-5.3l11.2,72c0,0-2.7,3.7-13.7,5.9
				c-11,2.2-18.3-0.4-18.3-0.4L498.8,590.1z"/>
			<path class="st57" d="M535.9,606.1c-0.3-1.8-8.9-1.4-16.8,0c-7.8,1.4-12.1,3.2-11.8,5.1c0.3,1.8,7.1,2.9,15,1.5
				C530.2,611.2,536.3,607.9,535.9,606.1"/>
			<path class="st58" d="M507.4,611.2c0,0,1.6,1.6,14.2-0.3c13.2-2,14.4-4.8,14.4-4.8l8.4,48.4c0,0-2.3,2.5-11.7,4
				c-9.4,1.5-13.7,0.1-13.7,0.1L507.4,611.2z"/>
			<path class="st59" d="M507.4,611.2c0,0,2,2.8,14.6,0.9c13.2-2,13.9-6,13.9-6l8.4,48.4c0,0-2.3,2.5-11.7,4
				c-9.4,1.5-13.7,0.1-13.7,0.1L507.4,611.2z"/>
			<path class="st58" d="M524.3,654.4L524.3,654.4c-1.5,0.4-3.1-0.6-3.4-2.1l-6.8-29.2c-0.4-1.5,0.6-3.1,2.1-3.4
				c1.5-0.4,3.1,0.6,3.4,2.1l6.8,29.2C526.8,652.5,525.9,654.1,524.3,654.4"/>
			<path class="st8" d="M491.5,562c0,0-1.3-3.2,0-7.8c1.3-4.6,15.6-17.8,15.6-17.8s3.6,0.4,4.3,4.3c0,0-10.9,8.8-12.8,13.5
				c-1.9,4.7-1.9,3.2-1.4,5c0.5,1.8,13.9,29.5,13.9,29.5c-2.5,0.2-4.8,0.4-6.7,0.3L491.5,562z"/>
			<path class="st60" d="M497.4,557c-2.1-0.8-4-2-5.7-3.4C493.8,554.4,495.7,555.5,497.4,557"/>
			<path class="st60" d="M491.2,555.7c2,0.4,3.9,1.1,5.7,2.2C494.9,557.5,493,556.8,491.2,555.7"/>
			<path class="st60" d="M490.9,557.7c2.1-0.1,4.1,0.1,6,0.7C494.9,558.5,492.9,558.3,490.9,557.7"/>
			<path class="st60" d="M490.9,559.8c2-0.6,4.1-0.9,6.3-0.7C495.2,559.7,493.1,560,490.9,559.8"/>
			<path class="st60" d="M491.5,561.7c2-0.8,4-1.3,6.2-1.4C495.7,561.2,493.6,561.6,491.5,561.7"/>
			<path class="st61" d="M512.7,592.3l7.4,17.3c0,0.1,0,0.2-0.1,0.2c-2.7,0.4-4.9,0.6-6.2,0.2c-0.1,0-0.2-0.1-0.2-0.2l-7.4-17
				C507,592.9,509.5,592.7,512.7,592.3"/>
		</g>
		<path class="st51" d="M516,626.6l8.6,29.2c0,0,12.2,3.3,24.4-4.6c3.5-2.5,3.7-2.7,3.7-2.7c-0.7-4.2-5.3-32.8-5.3-32.8l-10.8,7
			L516,626.6z"/>
		<path class="st54" d="M541.8,616.1c0,0-0.2,4.1-8.5,5.8c-8.3,1.7-10,1.6-13.6,1.9c-3.6,0.3-4.4,3.5-3.1,3.6c0,0,10.2,0.6,18.7-1.7
			c8.5-2.4,14.3-7.2,11.3-11.9"/>
		<path class="st62" d="M548,624.2l5.9-2.4c0,0,2.2,2.3,4,11.5c1.7,8.9-0.3,13.2-0.3,13.2l-4.9,0.9c0,0-2.2-1-4.1-11
			C546.7,626.5,548,624.2,548,624.2z"/>
	</g>
	<g id="left_hand" style="clip-path:url(#SVGID_00000099627705862164075490000012280249907250535857_);">
		
			<linearGradient id="SVGID_00000090995920194538133380000007335787900266231966_" gradientUnits="userSpaceOnUse" x1="615.0748" y1="653.2668" x2="626.4245" y2="634.2592">
			<stop  offset="0.1323" style="stop-color:#0B0B0A"/>
			<stop  offset="1" style="stop-color:#333333"/>
			<stop  offset="1" style="stop-color:#000000"/>
		</linearGradient>
		<path style="fill:url(#SVGID_00000090995920194538133380000007335787900266231966_);" d="M614,659.4c0,0,4.8-0.4,8.3-6.8
			c3.5-6.5,2.6-13.1,2.6-13.1l-6.4-3.5c0,0,0.3,6.3-2.1,10.9c-2.6,4.9-4.7,7.5-7,8.6C607,656.6,614,659.4,614,659.4z"/>
		
			<linearGradient id="SVGID_00000142863939257242446010000013358561635061486495_" gradientUnits="userSpaceOnUse" x1="608.7105" y1="630.0419" x2="562.053" y2="627.189">
			<stop  offset="0.1323" style="stop-color:#0B0B0A"/>
			<stop  offset="1" style="stop-color:#333333"/>
			<stop  offset="1" style="stop-color:#000000"/>
		</linearGradient>
		<path style="fill:url(#SVGID_00000142863939257242446010000013358561635061486495_);" d="M604.3,614.7c0,0-12.7,22.5-13.2,23.2
			c-0.5,0.7,0.3,1.2,0.3,1.2s3.8,2.3,9.6,4.6c5.7,2.3,6.8,0.7,8.2,0.1c1.4-0.6,12.4-10.4,12.4-10.4l-4.8-12L604.3,614.7z"/>
		
			<linearGradient id="SVGID_00000183247028262073773620000005603714890054078085_" gradientUnits="userSpaceOnUse" x1="616.957" y1="645.301" x2="562.1259" y2="645.301">
			<stop  offset="0.1323" style="stop-color:#0B0B0A"/>
			<stop  offset="1" style="stop-color:#333333"/>
			<stop  offset="1" style="stop-color:#000000"/>
		</linearGradient>
		<path style="fill:url(#SVGID_00000183247028262073773620000005603714890054078085_);" d="M599.7,628.4c0,0-12.3,21.7-12.7,22.4
			c-0.5,0.7,0.3,1.2,0.3,1.2s6.2,6.7,11.9,8.9c5.7,2.3,6.8,0.7,8.2,0.1c1.4-0.6,16.3-24.4,16.3-24.4l-9,0.1L599.7,628.4z"/>
		
			<linearGradient id="SVGID_00000065764491529938512650000000321424532736390334_" gradientUnits="userSpaceOnUse" x1="642.6282" y1="633.2257" x2="592.0942" y2="623.3612">
			<stop  offset="0.1323" style="stop-color:#0B0B0A"/>
			<stop  offset="1" style="stop-color:#333333"/>
			<stop  offset="1" style="stop-color:#000000"/>
		</linearGradient>
		<path style="fill:url(#SVGID_00000065764491529938512650000000321424532736390334_);" d="M622.2,638.2c4.9-3.7,2.3-10.9-4-17.1
			c-6.4-6.2-12-7.3-12-7.3c-1.3-0.5-3.8,2.3-0.7,4.2c3,1.9,2.5,0.4,9.1,5.9c6.5,5.5,4,9.2,4,9.2c-0.9,1.4-3.1,2.3-6,1.3
			c-3.4-1.3-8.5-5.5-9.4-6.2c-0.8-0.7-3.7-0.9-3.3,1.3c0.3,2.2,6.2,6.8,10.3,9C614.2,640.8,618.7,640.9,622.2,638.2z"/>
	</g>
	<g id="base" style="clip-path:url(#SVGID_00000099627705862164075490000012280249907250535857_);">
		<path class="st52" d="M521.7,695.9c0,0,20.3-11.1,50-11.6c29.6-0.5,41.7,23.2,44.4,30.9c2.7,7.7,13.9,49.1-27.1,83L521.7,695.9z"
			/>
		<path class="st67" d="M508.7,776.3c-18.1-28.7-13.7-64.1,9.9-79.1c23.6-15.1,57.7-4,76.1,24.9c18.4,29,13.9,64.7-10,79.6
			C560.8,816.5,526.8,805.1,508.7,776.3"/>
		<g>
			<defs>
				<path id="SVGID_00000178925885744524520090000010387906531992688016_" d="M520.7,705.5c-20,12.8-23.6,43.1-8.2,67.8
					c15.5,24.7,44.4,34.6,64.6,21.9c20.3-12.7,24.1-43.3,8.4-68.2c-10.9-17.3-28.4-27.2-44.7-27.2
					C533.7,699.7,526.8,701.6,520.7,705.5"/>
			</defs>
			<clipPath id="SVGID_00000181802789016069019710000011389833445251540373_">
				<use xlink:href="#SVGID_00000178925885744524520090000010387906531992688016_"  style="overflow:visible;"/>
			</clipPath>
			
				<linearGradient id="SVGID_00000011004744407948282500000015824366213807451580_" gradientUnits="userSpaceOnUse" x1="-0.7123" y1="841.8846" x2="0.3949" y2="841.8846" gradientTransform="matrix(76.7911 -20.9838 -20.9838 -76.7911 18228.084 65399.4453)">
				<stop  offset="0" style="stop-color:#142036"/>
				<stop  offset="5.291010e-03" style="stop-color:#142036"/>
				<stop  offset="1" style="stop-color:#010102"/>
			</linearGradient>
			
				<polygon style="clip-path:url(#SVGID_00000181802789016069019710000011389833445251540373_);fill:url(#SVGID_00000011004744407948282500000015824366213807451580_);" points="
				469.6,707.2 594,673.3 628.7,800.3 504.3,834.3 			"/>
		</g>
		<g>
			<defs>
				<path id="SVGID_00000170271400897831309860000009666845677353535674_" d="M535.1,729.1l25.1,43.4l32.8-29.1
					c-1.6-5.6-4.1-11.2-7.5-16.6c-5.1-8.1-11.6-14.5-18.7-19.1L535.1,729.1z"/>
			</defs>
			<clipPath id="SVGID_00000131364825675782602280000016244414464952446389_">
				<use xlink:href="#SVGID_00000170271400897831309860000009666845677353535674_"  style="overflow:visible;"/>
			</clipPath>
			
				<linearGradient id="SVGID_00000140716004484002435490000012346226522355732400_" gradientUnits="userSpaceOnUse" x1="-1.1361" y1="841.9683" x2="-2.875121e-02" y2="841.9683" gradientTransform="matrix(45.3576 -12.3943 -12.3943 -45.3576 11026.9756 38922.375)">
				<stop  offset="0" style="stop-color:#142036"/>
				<stop  offset="5.291010e-03" style="stop-color:#142036"/>
				<stop  offset="1" style="stop-color:#010102"/>
			</linearGradient>
			
				<polygon style="clip-path:url(#SVGID_00000131364825675782602280000016244414464952446389_);fill:url(#SVGID_00000140716004484002435490000012346226522355732400_);" points="
				518.6,712.3 588.9,693.1 609.4,768.1 539.1,787.3 			"/>
		</g>
		<g>
			<defs>
				<polygon id="SVGID_00000173154077518662967960000000956931486059644041_" points="515.1,749.6 518.3,750.9 526.9,750 
					531.6,734.7 				"/>
			</defs>
			<clipPath id="SVGID_00000050653174441450249510000011182905378488028325_">
				<use xlink:href="#SVGID_00000173154077518662967960000000956931486059644041_"  style="overflow:visible;"/>
			</clipPath>
			
				<linearGradient id="SVGID_00000030461029867556717740000001609205452254001289_" gradientUnits="userSpaceOnUse" x1="-3.1039" y1="842.2222" x2="-1.9968" y2="842.2222" gradientTransform="matrix(17.241 -4.7112 -4.7112 -17.241 4535.3677 15251.4688)">
				<stop  offset="0" style="stop-color:#142036"/>
				<stop  offset="5.291010e-03" style="stop-color:#142036"/>
				<stop  offset="1" style="stop-color:#010102"/>
			</linearGradient>
			
				<polygon style="clip-path:url(#SVGID_00000050653174441450249510000011182905378488028325_);fill:url(#SVGID_00000030461029867556717740000001609205452254001289_);" points="
				511,735.8 530.4,730.5 535.7,749.7 516.3,755 			"/>
		</g>
		<g>
			<defs>
				<path id="SVGID_00000078026377958044962960000003205590456522655639_" d="M542.1,703.1l8.5,17.6l2.6,1.4l16.9-11.9
					c-8.1-6-17.2-9.6-26.1-10.3L542.1,703.1z"/>
			</defs>
			<clipPath id="SVGID_00000163067852658479372840000015111033738266300545_">
				<use xlink:href="#SVGID_00000078026377958044962960000003205590456522655639_"  style="overflow:visible;"/>
			</clipPath>
			
				<linearGradient id="SVGID_00000153681613657738784160000005804699139298547333_" gradientUnits="userSpaceOnUse" x1="-3.0769" y1="842.6517" x2="-1.9696" y2="842.6517" gradientTransform="matrix(14.4632 -6.8793 -6.8793 -14.4632 6392.6831 12879.4746)">
				<stop  offset="0" style="stop-color:#142036"/>
				<stop  offset="5.291010e-03" style="stop-color:#142036"/>
				<stop  offset="1" style="stop-color:#010102"/>
			</linearGradient>
			
				<polygon style="clip-path:url(#SVGID_00000163067852658479372840000015111033738266300545_);fill:url(#SVGID_00000153681613657738784160000005804699139298547333_);" points="
				533.5,703.9 564.9,689 578.7,717.9 547.3,732.9 			"/>
		</g>
		<g>
			<defs>
				<path id="SVGID_00000077309956226817763250000013234173484678378384_" d="M572.2,737.6l17-4c-1-2.1-2.2-4.2-3.4-6.3L572.2,737.6
					z"/>
			</defs>
			<clipPath id="SVGID_00000093895073287423113710000015577402192357547432_">
				<use xlink:href="#SVGID_00000077309956226817763250000013234173484678378384_"  style="overflow:visible;"/>
			</clipPath>
			
				<linearGradient id="SVGID_00000059268754444230541960000015930822827464657332_" gradientUnits="userSpaceOnUse" x1="-3.1361" y1="842.1165" x2="-2.029" y2="842.1165" gradientTransform="matrix(15.2119 -4.1568 -4.1568 -15.2119 4119.6831 13532.1484)">
				<stop  offset="0" style="stop-color:#142036"/>
				<stop  offset="5.291010e-03" style="stop-color:#142036"/>
				<stop  offset="1" style="stop-color:#010102"/>
			</linearGradient>
			
				<polygon style="clip-path:url(#SVGID_00000093895073287423113710000015577402192357547432_);fill:url(#SVGID_00000059268754444230541960000015930822827464657332_);" points="
				569.6,728.1 588,723 591.8,736.9 573.4,741.9 			"/>
		</g>
		<g>
			<path class="st67" d="M530,762c-7.3-11.8-5.6-26.2,3.7-32.2c9.4-6.1,23-1.5,30.4,10.3c7.4,11.9,5.7,26.4-3.8,32.4
				C550.9,778.5,537.3,773.7,530,762"/>
		</g>
		<g>
			<defs>
				<path id="SVGID_00000014623409796237428050000015956903911167208095_" d="M536.3,733.8c-7.5,4.9-8.9,16.5-3,26.1
					c5.9,9.5,16.9,13.4,24.5,8.6c7.7-4.9,9-16.6,3-26.2c-4.2-6.7-10.8-10.6-17.1-10.6C541.1,731.6,538.6,732.3,536.3,733.8"/>
			</defs>
			<clipPath id="SVGID_00000052785908804234464390000002799615484736484276_">
				<use xlink:href="#SVGID_00000014623409796237428050000015956903911167208095_"  style="overflow:visible;"/>
			</clipPath>
			
				<linearGradient id="SVGID_00000150060128006241827560000002052041212034407343_" gradientUnits="userSpaceOnUse" x1="-1.7722" y1="841.9433" x2="-0.6647" y2="841.9433" gradientTransform="matrix(29.0101 -7.9273 -7.9273 -29.0101 7257.1543 25167.5723)">
				<stop  offset="0" style="stop-color:#142036"/>
				<stop  offset="5.291010e-03" style="stop-color:#142036"/>
				<stop  offset="1" style="stop-color:#010102"/>
			</linearGradient>
			
				<polygon style="clip-path:url(#SVGID_00000052785908804234464390000002799615484736484276_);fill:url(#SVGID_00000150060128006241827560000002052041212034407343_);" points="
				516.9,734.5 564.1,721.6 577.4,770.4 530.2,783.3 			"/>
		</g>
		<g>
			<path class="st74" d="M515.1,749.6c0.6,2.8,1.4,5.5,2.3,8.3l9.8-1.7c-1-2.8-1.6-5.6-1.7-8.4L515.1,749.6z"/>
			<path class="st74" d="M572.2,737.6c1.4,2.7,2.3,5.4,2.8,8.2l17.2-4.5c-0.9-2.7-2-5.4-3.3-8L572.2,737.6z"/>
		</g>
		<g>
			<defs>
				<path id="SVGID_00000086683211991642022440000003893453885399538573_" d="M568,765.3l7.7,30.7c0.5-0.3,1-0.6,1.5-0.9
					c15.9-10,21.7-30.9,15.9-51.4L568,765.3z"/>
			</defs>
			<clipPath id="SVGID_00000089539753632210750810000016672255059814684342_">
				<use xlink:href="#SVGID_00000086683211991642022440000003893453885399538573_"  style="overflow:visible;"/>
			</clipPath>
			
				<linearGradient id="SVGID_00000098899084880008855500000013241051113811102604_" gradientUnits="userSpaceOnUse" x1="-1.8367" y1="841.8951" x2="-0.7295" y2="841.8951" gradientTransform="matrix(26.5769 -7.2624 -7.2624 -26.5769 6732.5454 23135.2305)">
				<stop  offset="0" style="stop-color:#142036"/>
				<stop  offset="5.291010e-03" style="stop-color:#142036"/>
				<stop  offset="1" style="stop-color:#010102"/>
			</linearGradient>
			
				<polygon style="clip-path:url(#SVGID_00000089539753632210750810000016672255059814684342_);fill:url(#SVGID_00000098899084880008855500000013241051113811102604_);" points="
				554.7,747.3 596.6,735.9 612.1,792.3 570.1,803.8 			"/>
		</g>
		<path class="st74" d="M568.4,765.3l-3.8,3.4c-0.4,0.6-0.9,1.1-1.4,1.6l9.5,27.2c1.5-0.7,3-1.5,4.5-2.4c0.5-0.3,0.9-0.6,1.4-0.9
			L568.4,765.3z"/>
		<path class="st74" d="M545.8,722c0,0,5.6-1.4,7.4,0.2l-7.3-22.1c-2.5-0.3-5-0.4-7.5-0.3L545.8,722z"/>
	</g>
	<g id="parasol" style="clip-path:url(#SVGID_00000099627705862164075490000012280249907250535857_);">
		<path class="st8" d="M901.4,395.9c-3.9-1.8-8.9-3.1-9.2-3.2c-28.6-6-64.9,8.4-64.9,8.4l0,0.1c-0.2,0.9-1.2,5.9,3.6,7
			c5.2,1.2,53.3,14.2,53.3,14.2s5.1,2.7,8.5-3.6C895.1,414.7,899,403.1,901.4,395.9"/>
		<polygon class="st76" points="709,388.6 778.1,315.7 726.6,287.4 625.6,323.1 705.1,387.3 		"/>
		<polygon class="st77" points="795.8,297.1 709,388.6 885.6,448.7 893.6,415.9 919.7,300.8 		"/>
		<path class="st76" d="M924,281.5l-37.9,167.4l178.7,27.6c-6.3-20.9-28.7-103-36.2-130.8C1007.8,333.2,924,281.5,924,281.5"/>
		<path class="st77" d="M1026.1,336.6c0,0,31,114.7,38.7,140l1,0.1l102.9-17c0.1-4.3-3.1-6.3-3.1-6.3l-98.2-104.3L1026.1,336.6z"/>
		<path class="st40" d="M1064.8,476.6c0.6,2.1,1.1,3.6,1.4,4.4c3.7,9.7,4.5,12.3,20,8.5c15.6-3.8,70.8-10.6,78.7-21
			c2.7-3.5,3.7-6.4,3.7-8.6l-102.9,17L1064.8,476.6z"/>
		<path class="st78" d="M886.1,448.9l-1.5,6.5c0,0-0.3,6.9,9.5,9.6c9.9,2.7,149.1,26.2,153.9,26.2c4.5,0,14.9-0.1,17.1-13.4
			l-0.4-1.3L886.1,448.9z"/>
		<path class="st40" d="M709,388.6l-1,1c0,0-4.5,12.7,7.9,19.9c12.5,7.2,145.3,50.5,152.1,49.8c6.8-0.7,16.4-6,16.4-6l1.1-4.6
			L709,388.6z"/>
		<path class="st78" d="M623.9,323.7c0,0-4.7,10.6,2,18.9c6.7,8.3,61.1,50.3,67.2,52.4c5.2,1.7,8.2,1.7,14.7-4.5
			c0.1-0.5,0.2-0.8,0.2-0.8l1-1l-3.9-1.3l-79.5-64.2L623.9,323.7z"/>
		<polygon class="st32" points="908.8,278.9 790.7,800.6 799.2,799.8 915.8,284.5 		"/>
		<polygon class="st27" points="797.1,800 805.5,799.1 919.7,301.1 912.3,291.2 		"/>
		<polygon class="st35" points="905.8,292.2 848.9,543.5 851.9,550.1 855.3,551.6 913.6,294.2 		"/>
		<polygon class="st50" points="861.6,554.2 919.7,301.1 914.7,294.5 911.7,293.7 853.5,550.8 		"/>
		<path class="st79" d="M905.1,254.6c-132-24.3-283.7,65.1-283.7,65.1l91.6-20.2C713,299.5,817.9,244.5,905.1,254.6"/>
		<path class="st8" d="M930.8,261c-12-4.1-27.4-6.5-28.2-6.6c-86.7-8.8-189.6,45.1-189.6,45.1l199,30l0.9,0.3
			C918.4,315.5,926.1,282.1,930.8,261"/>
		<path class="st79" d="M1100.1,396.8c-4.3-18.7-84.3-115-169.8-137.2c-0.9,0.1-11.6,54.3-17.4,70.2l187.1,66.9L1100.1,396.8z"/>
		<path class="st8" d="M975.5,277.9c66.6,36,121,103.5,124.5,118.9l74.1,61.8l0.1-0.2C1146.4,410.2,1085.1,326.8,975.5,277.9"/>
		<path class="st80" d="M621.4,319.7c0,0-2.2,12.2,9.7,11.7C643,331,700,317.8,700,317.8s10.7-1.9,13-18.3L621.4,319.7z"/>
		<path class="st31" d="M1160.3,464.6c5.2,2.5,12.5-2.1,13.9-6.1l-74.3-63.9c0.2,0.8,0.5,3.6,0.3,4.1c0,0,1.4,17.2,11.1,24.3
			C1120.9,430.2,1154.3,461.7,1160.3,464.6"/>
		<path class="st80" d="M911.7,332.8c-0.1,5.2,1.4,15.2,13.5,20.8c16.8,7.8,158.9,53.3,158.9,53.3s13.5,3.9,16.2-8.1
			c0.1-0.5,0.1-1.2-0.1-2l-0.1-0.1l-187.1-66.9c-0.2,0.7-0.5,1.3-0.7,1.8L911.7,332.8z"/>
		<path class="st31" d="M713,299.5l-0.1,0.4c-0.3,2.6-1.6,17.8,12.8,19.5c15.8,1.9,162.3,25.4,162.3,25.4s15.9,6.5,24.2-13.2
			l0.7-1.8l-1.2-2.4L713,299.5z"/>
	</g>
</g>
</svg>
