<svg version="1.1" id="Camada_1" x="0" y="0" xml:space="preserve" viewBox="0 0 595.3 595.3"
    xmlns:xlink="http://www.w3.org/1999/xlink" xmlns="http://www.w3.org/2000/svg">
    <style type="text/css" id="style2">
        .st2 {
            fill: #bce2f0
        }

        .st2,
        .st6,
        .st8,
        .st9 {
            fill-rule: evenodd;
            clip-rule: evenodd
        }

        .st6 {
            fill: #fbfcf9;
            stroke: #fefefe;
            stroke-width: 1.3215;
            stroke-linejoin: round;
            stroke-miterlimit: 22.9256
        }

        .st8 {
            fill: #56abb5
        }

        .st9 {
            fill: #fcf5c7
        }
    </style>
    <g id="g58">
        <defs id="defs5">
            <path id="SVGID_1_" d="M-.2 0h595.3v841.9H-.2z" />
        </defs>
        <clipPath id="SVGID_00000162348735284424825640000014540562433278785210_">
            <use xlink:href="#SVGID_1_" style="overflow:visible" id="use7" x="0" y="0" width="100%" height="100%" />
        </clipPath>
        <g clip-path="url(#SVGID_00000162348735284424825640000014540562433278785210_)" id="g56">
            <path id="rect10" style="fill-rule:evenodd;clip-rule:evenodd;fill:#80cde9" d="M-24-116.8h632v542.9H-24z" />
            <g id="g32">
                <path class="st2"
                    d="M-36.6 264.1c2.6 2.2 5.5 7.8 7.1 12.4 0 0-1.1 1.3 1.3 1.1 3.6-.3 6.7-5.4 10.3-5.7C-7.2 271-1.3 283.5-1 287c.3 3.5-1.3 12-1.8 19.2l14.3-.1c-1.1-11.8 13.7-20.3 20.8-20.9 10.7-1 30.6 7.9 32 22.1.2 2.4-3.7 12.2-5.4 19.5 3.6-.3 7.1-.6 10.9 1.4 1.8-6.1 7.5-10.2 12.5-7.1.2-10.7 7.8-19.7 18.4-20.7 14.3-1.3 31.2 13.9 30.5 31.8 7.1-.7 23.4 7.4 30.4 17.5-1.2.1-7.9 38.1-7.9 38.1L-58 402l1-151.6c6-.5 16.1 5.7 20.4 13.7z"
                    id="path12" />
                <path
                    d="m-33.2 351.2 151.9-8.1-.3-5.3c-9.4-11.9-9.4-11.9-19.9-11.4-5.3.3-7.1-1.4-18.8 9.9-8.9-35.1-26.4-35.9-45.6-34.9-24.3 1.4-53.3 15.3-67.3 49.8z"
                    id="path14"
                    style="fill-rule:evenodd;clip-rule:evenodd;fill:#fefefe;stroke:#fefefe;stroke-width:2.4245;stroke-linejoin:round;stroke-miterlimit:22.9256" />
                <path
                    d="M408 375.3c4.9 0 14.7 17.3 14.7 25v4.3h-98.9v-3.5c1.2-1.7 3.1-3.5 4.9-3.5 1.2 0 3.1 1.7 4.9 1.7 4.9 0 3.7-9.5 10.4-9.5 2.5 0 9.2 4.3 11.1 9.5 1.2-7.8 3.7-8.6 6.8-8.6 2.4 0 3.7 0 6.1 4.3 2.5-6.9 6.1-9.5 8.6-9.5 3.1 0 7.4 3.5 8.6 8.7 4.9-16.4 8.6-19 17.8-19h5z"
                    id="path16"
                    style="fill-rule:evenodd;clip-rule:evenodd;fill:#fefefe;stroke:#fefefe;stroke-width:.9533;stroke-linejoin:round;stroke-miterlimit:22.9256" />
                <path class="st2"
                    d="M643 98c18 0 54.1-50.9 54.1-73.8V11.5H334v10.2c4.5 5.1 11.3 10.2 18 10.2 4.5 0 11.3-5.1 18-5.1 18 0 13.5 28 38.3 28 9 0 33.8-12.7 40.6-28 4.5 22.9 13.5 25.4 24.8 25.4 9 0 13.5 0 22.6-12.7 9 20.4 22.5 28 31.6 28 11.3 0 27.1-10.2 31.6-25.4C577.6 90.3 591.1 98 625 98Z"
                    id="path18" />
                <path class="st2"
                    d="M515.5 360.8s-2.3-10.9 4.4-11.3c6.7-.4 11.4 4.3 14.5 1.7 3.1-2.6-2.8-5.8 1.6-14.7 4.4-8.9 11.1-8.1 16.5-5.6 5.4 2.4 6.6-4.7 10.9-5.1 4.3-.4 4.8-.6 4.8-.6s-9.5-12.8 4-23.2c13.5-10.4 22.9 9.6 22.9 9.6s-1.3-10.5 3.2-10.7c4.6-.2 4.8.6 4.8.6l4.8 81.9s-98.5 32.8-109.8 11.3c-11.1-21.4 17.4-33.9 17.4-33.9z"
                    id="path20" />
                <path
                    d="M467.5 67.3c9.6 0 28.8-24.1 28.8-34.9L542-19.3c-42.9 2.9-265.7-43.8-255.2 29.4.5 3.4 13.1 26.6 25.7 25.9 2.4 0 6-2.4 9.6-2.4 9.6 0 7.2 13.3 20.4 13.3 4.8 0 18-6 21.6-13.3 2.4 10.8 7.2 12 13.2 12 4.8 0 7.2 0 12-6 4.8 9.6 12 13.3 16.8 13.3 6 0 14.4-4.8 16.8-12 9.6 22.9 16.8 26.5 34.8 26.5h9.8z"
                    id="path22"
                    style="fill-rule:evenodd;clip-rule:evenodd;fill:#fefefe;stroke:#fefefe;stroke-width:1.3215;stroke-linejoin:round;stroke-miterlimit:22.9256" />
                <path class="st6"
                    d="M437.4 59.7 429 6.5c27.2 7.6 96.9-14.8 123.3-12 31.4 3.3 51.7-16.1 49.9 27.9-2.7 6.6-17.4 15.2-27.8 11.9.1 8.7-8.8 15-12.4 15.6-7.2 1.2-14.4-5.2-20.4-11.6.4 2.4-12.3 8.2-13.5 8.4-4.8.8-13.9-1.5-18.2-5.8-3.3 10.4-6.3 14.6-13.6 15.8-2.4.4-6.4-1.5-9.2-3.5-2.2 1.6-3.9 6.8-6.1 8.4-3 4.2-9.3 4-12.9 4.5-10.9 1.7-15.7 2.4-30.7-6.4z"
                    id="path24" />
                <path class="st2"
                    d="M179.9 40.8s2.5 17.3-11.9 15.9c-14.5-1.4-23.6-10-30.7-6.9-7.2 3.1 4.8 9.7-6.6 21.9-11.4 12.2-25.7 9-36.7 3.7-11-5.3-15.1 5.2-24.4 4.5-9.5-.6-10.6-.5-10.6-.5s17.7 22.4-13.7 34.1C14 125.3-1.9 92-1.9 92s.6 16.5-9.2 15.4c-9.8-1.1-10.3-2.3-10.3-2.3L-14-21.3 176.4 3.4Z"
                    id="path26" />
                <path
                    d="M-1 88.8c1.3-1.3 2.6-4.5 3.2-7.1 0 0-.6-.7.7-.7 1.9 0 3.9 2.6 5.8 2.6 5.8 0 8.4-7.1 8.4-9.1 0-1.9-1.3-6.5-1.9-10.3l7.8-.7C23 70.1 31.4 74 35.3 74c5.8 0 16.2-5.8 16.2-13.6 0-1.3-2.6-6.5-3.9-10.3 1.9 0 3.9 0 5.8-1.3C54.7 52 58 54 60.5 52c.6 5.8 5.2 10.4 11 10.4 7.8 0 16.2-9 14.9-18.8 3.9 0 12.3-5.2 15.6-11-.6 0-8.2-42.9-8.2-42.9L-8.6-7.8l-2.7 105c3.2 0 8.4-3.8 10.3-8.4z"
                    id="path28"
                    style="fill-rule:evenodd;clip-rule:evenodd;fill:#fefefe;stroke:#fefefe;stroke-width:.4405;stroke-linejoin:round;stroke-miterlimit:22.9256" />
                <path class="st6"
                    d="M89.3 42v-54c25.7 11.8 98.1.6 123.8 7.5 30.5 8.2 44.8-6.4 44.9 35.4-3.7 6.1-19.6 12.3-29.4 7.3-1.2 8.6-11 13.5-14.7 13.5-7.3 0-13.5-7.3-18.3-14.7 0 2.4-13.5 6.1-14.7 6.1-4.9 0-13.5-3.7-17.1-8.6-4.9 9.8-8.6 13.5-15.9 13.5-2.4 0-6.1-2.5-8.6-4.9-2.4 1.2-4.9 6.1-7.3 7.4-3.7 3.7-9.8 2.4-13.4 2.4-10.9.1-15.8.1-29.3-10.9Z"
                    id="path30" />
            </g>
            <g id="g40">
                <path class="st8"
                    d="M521.2 324c.5-.9 1.2-2.1 2.5-1.6 17.8 2.2 35.6 4.4 53.3 6.8 12.5 4 24.9 8.3 37.4 12.1-2.9-5.7-6-11.3-8.9-17 2.8-4.6 5.7-9.1 8.5-13.8l21.2 39.8c-17.1 1.8-34.2 3.9-51.1 6.9-10.2 15-137.2 62.7-177.3 43.1 13.4-9.3 27-18.5 40.6-27.5 19.1-6.2 37.9-13.3 56.9-19.7 1.4-.7 3.4-.8 4-2.5 4.4-8.8 8.6-17.7 12.9-26.6z"
                    id="path34" />
                <path class="st9"
                    d="M453.5 368.5c20.8-14.1 41.7-28.1 62.5-42.2 1.6-1 3.2-2.3 5.2-2.3-4.3 8.9-8.5 17.8-12.9 26.6-.6 1.7-2.6 1.8-4 2.5-19 6.4-37.8 13.5-56.9 19.7 2-1.5 4-3 6.1-4.3z"
                    id="path36" />
                <path class="st9"
                    d="M577.1 329.2c10.7-9.2 22-17.6 32.8-26.6l4.2 7.9c-2.8 4.6-5.7 9.1-8.5 13.8 2.9 5.7 6.1 11.3 8.9 17-12.5-3.9-24.9-8.1-37.4-12.1z"
                    id="path38" />
            </g>
            <g id="g48">
                <path class="st8"
                    d="M157.6 304.2c.4-.2 1.1-.7 1.4-.9 3.9 2.8 8 5.3 12 8l159.9 105c2.4 1.6 4.9 3.2 7.2 4.9-3-.5-6.1-1.1-9-1.8-41.3-8.9-83-15.9-125.1-20.4-76.8-8.1-155.1-8.6-233.2 3.6l15.8-54.2c3.4.6 6.9 1.2 10.4 1.4-2.7-2.7-5.7-5.1-8.6-7.6l15.3-52.6c1.4 1.2 3 2.2 4.4 3.2 24.6 17.1 49 34.5 73.6 51.5 16.8 10.1 33.7 19.8 50.5 29.9 1.1.6 2.2 1.1 3.4 1.6-8.4-10.7-17.3-20.8-25.8-31.4 10.1-1.9 20.2-2.4 30.3-4.3-1.3-4.1-2.7-8.2-3.7-12.4.9-1.9 2.6-3.1 3.9-4.6 5.7-6.3 11.8-12.3 17.3-18.9z"
                    id="path42" />
                <path class="st9"
                    d="M150.2 307.6c2.4-1.4 4.9-2.6 7.4-3.4-5.5 6.6-11.6 12.6-17.3 19-1.3 1.5-3 2.7-3.9 4.6 1.1 4.2 2.5 8.3 3.7 12.4-10.1 1.8-20.2 2.4-30.3 4.3 8.4 10.6 17.4 20.7 25.8 31.4-1.1-.5-2.3-1-3.4-1.6-16.8-10.1-33.7-19.8-50.5-29.9 1-.7 2-1.4 3-2 21.9-11.7 43.7-23.2 65.5-34.8z"
                    id="path44" />
                <path d="M-11.6 342.2c2.9 2.5 5.8 4.9 8.6 7.6-3.5-.3-6.9-.9-10.4-1.4z" id="path46"
                    style="fill-rule:evenodd;clip-rule:evenodd;fill:#fbf5c7" />
            </g>
            <g id="g54">
                <path d="M-8.9 395.2s157-35.7 311-1.8c154 33.9 319.9-62.8 319.9-62.8l-17 190.8-616-74z" id="path50"
                    style="fill-rule:evenodd;clip-rule:evenodd;fill:#bdd46b" />
                <path d="M-5.8 398.2s127.1-29.2 281 4.7c154 33.9 340.7-45 340.7-45L608 878.1H-14.4Z" id="path52"
                    style="fill-rule:evenodd;clip-rule:evenodd;fill:#96c456" />
            </g>
        </g>
    </g>
</svg>