<svg version="1" viewBox="0 0 891 694" xmlns="http://www.w3.org/2000/svg" xmlns:xlink="http://www.w3.org/1999/xlink" style="overflow:visible;">
 <style>
  .airport-label{
    font-size:1742.9831543px;
    -inkscape-font-specification:sans-serif;
    fill-opacity:1;
    font-weight:400;
    stroke:none;
    font-stretch:normal;
    font-variant:normal;
    font-family:sans-serif;
    font-size: 20px;
    font-style:normal;
    fill:black;
  }

  .country {
    stroke-width: 3;
    stroke: white;
  }

  #pt {
    fill: #cccccc;
  }

  #es {
    fill: #ececec;
  }

  .airport {
    fill: black;
    clip-rule: evenodd;
    fill-rule: evenodd;
  }

  #pdcfw path {
    fill: red;
    clip-rule: evenodd;
    fill-rule: evenodd;
  }

  #pdcfw ellipse {
    fill: white;
    clip-rule: evenodd;
    fill-rule: evenodd;
  }

  @media (prefers-color-scheme: dark) {
    .airport,
    .airport-label {
      fill: white;
    }

    .country {
      stroke: #121212;
    }

    #pt {
      fill: #383838;
    }

    #es {
      fill:#202020;
    }
  }
 </style>
 <path id="pt" class="country" d="m146 582c-3.7-28-11-31 7.6-54 3.5-4 1.5-11 5.2-14 1.2-0.9 34-7.3 24-19-2.6-3-8.5 3.5-12 2.1-3.9-2.1-4.2-7.5-6.3-11-2.1-3.7-2.9-8.4-6.3-11-0.92-1.2-4.8 0.82-5-0.5 1.2-5 5.4-9.1 6.6-14 2.6-8.6-7.8-0.69 2-12 8.8-9.7 23-11 21-28-0.24-1.3-15-7.7-18-13-5.7-7.9-3.4-23-3.7-24-0.8-0.54-15-19-16-20-0.92-1.2 2.2 0.31 3.5 0.08 6.5 0.93 11 0.89 17 1.2 16 1.3 20 2 25-15 6.2-20-2.9-12-7.4-25-4.3-12 18-9.9 17-19-0.52-6.7-6.9 0.51-4.3-8.1 0.44-1.4 3.2-1.9 3.5-4 1.2-5 0.35-9.6 0.19-14-0.28-5.4 2.8-11 1.2-17l-9-15c1.7-2.3 7.2 0.81 9.7-0.98l12-17c9.2-7 28-11 31-26 1.7-14-16-9.6-21-9.4-3.5-0.08-2-26-4.9-27-14-4.4-16 2-33-1.2-3-0.85-3.5-7.6-8.9-2.6-1.1 1.6 2.2 4.4 1.1 5.9-8.1 9.6-20 2.1-23 1.9-3-0.85-5.8 3-8 2.1-1.5-0.43 3.7-2.7 2.1-3.8-1.2-2.5-4.7-2.6-7.4-2.1-4.2 0.04-8.7 2.2-13 2.2-0.8-0.54 0.32-2.1 0.08-3.4-0.12-0.66 0.08-3.4-0.48-2.6-3.3 1.2-9.8 12-17 9-18-8.4 13-17 3.5-23-1.6-1.1-4.1 0.7-5.7-0.38-0.92-1.2 2-4.4 0.52-4.9-13-0.54-29 6.4-38 13-0.16 6.8-17 13-11 18 3.3 2.8 11 0.11 13 3.8 2 3.1-7.6 0.63-9.2 3.6-3 6.6 2.9 35 5.6 42 0.36 2 3.9 2.1 4.4 4.7 1.4 11-2.2 19-5.3 29-1.3 4.3-8.6 14-4 13 4.5-2.1 2.7-12 7.2-14 3.3-1.2 6.5 5 5.7 7.9-2.6 5.2-12 4.9-15 11-3.3 8.7-4.4 18-8.3 27-1.4 3.7-5.2 6.3-3.9 9.5 0.6 3.3 7 3.6 8.9 6.6 0.92 1.2-4.1-3.4-5.9-1.7-3 2.6-3.4 8.1-5.4 13-4.9 12-10 26-16 37-1.6 3-5.5 4.4-7.6 8.1-0.56 0.78 3.9 2.1 2.6 3-5.2 2.3-13-1.2-16 2.7-2.8 3.9 4.3 8.1 3.7 12-0.84 7-16 38-13 44 2.2 4.4 6.3 7.8 9.9 12 8.9 10 7.1 16 7.1 16 5.7 0.38 12-1.3 17-2.9 2.7-0.47 3.5-4 6.3-3.8 2.7-0.47 4.8 3.3 8.3 3.3 2.2 0.31 0.47-8.9 2.2-7.2 2.6 3 0.09 8.2 1.9 11 2.5 2.3 12 2 9.8 3.8-17 12-10-13-25-8-4 1.4 5.9 5.1 7.8 8.2 1.4 3.8 1.6 8.6 1.7 13 0.21 8.8-9.9 19-8.7 25 0.48 2.6 4.9 3.9 5.4 6.6 1.5 4.5-4.4 14 0.61 15 1.4-0.24 5.8-3 4.6-1.5-1 2.2-5.3 1.6-6.3 3.8-2.2 7.2 1.3 15-0.9 22-1.8 5.8-14 30-11 37 1.2 2.5 5-3.6 7.7-4 4-1.4 8.3-0.74 12-2.1 2-0.35 3.7-2.7 5.9-2.4 11 0.77 51 17 56 16 2-0.35 21-14 23-15z"/>
 <path id="es" class="country" d="m780 118c5.1 1.2 11 1.5 15 3.6 1.6 1.1 3.6 8.2 7.6 6.9 5.3-1.6 9.5-5.7 16-6.8 6.8-1.2 21 10 27 6.9 2.6-1.1-1.1-5.9 0.72-7.6 9-8.4 22-4.5 34-3.8l2.7-0.47c4 2.7 7.3 5.6 6.7 9.8-0.4 5.5-9.5 5.7-12 9.6-2.2 3.1 11 16 6.7 29-2.1 7.9-29 24-37 29-7 3.9-18 8.6-23 14-3.6 3.3-7.9 14-14 17-22 11-64 13-80 31-4 4.8-13 9.7-11 15 2.9 4.3 13 1.9 13 6.6 0.36 2-20 10-21 11-7.1 7.4-7.8 19-13 27-16 22-37 45-45 72-3.6 11 9.6 41 17 49 2.5 2.3 30 12 25 17-4 4.8-15 8.1-20 12-1.1 1.6-0.52 4.9-1.8 5.8-1.1 1.6-3.5-0.07-4.9 0.16-5.2 2.3-11 4-15 8.1-1.7 2.3 0.53 6.7-1.8 9.2-1.8 1.7-5.7-0.38-6.8 1.2-2.1 3.8 0.89 8.7-0.67 12-2.2 3.1-8.2 1.4-9.6 5.1-2 4.4 3.2 9.7 1.9 14-3 14-18 1.1-15 22 0.97 5.3 12 5.4 12 10-1.2 5-8.8 5.6-14 5.9-3.4 0.59-7.4-2.1-11-2.2-15-1.5-31 8-42 18-19 17-14 43-34 57-7.3 6-14-15-33-6.5-3.8 2-4.9 7.7-9.4 9.8-5.8 3-22-5.7-28-5.3-8.5-0.58-17 5.6-26 5.8-5-0.5-8.5-4-13-4.5-9.5-1.8-51-0.82-58 1.8-7.8 3.4-10 14-17 19-10 5.8-26-3.7-40 6.1-11 8.1-8.8 13-13 23-0.56 0.78-5.4-2.5-7.7-0.03-3.5 4-5.9 9.9-11 13-1.9 1-2.8-3.6-5-4.6-3.1-1.5-7.3-1.5-9.7-3.1-3.3-2.8-4.9-7.3-8.7-9.4-2.4-1.6-6.1 1.1-8.5-0.58-5.6-3.8-16-24-19-31-0.12-0.66 12 7.5 9.5 1.8-0.36-2-4.1 0.7-5-0.5-0.92-1.2 2.2-3.1 1.3-4.3-4.1-11-12 4.1-15-15 0 0 24-16 18-17-5.7-0.38-7 11-13 11-4.9 0.16-4.3-8.1-7.1-12s-6.1-6.4-9.4-9.3l-22-14-0.24-1.3c-0.44 1.4-1 2.2-2.4 2.4-4 1.4-7-3.6-11-5-3-0.85-16-0.73-24 0.8-3.7-28-11-31 7.6-54 3.5-4 1.5-11 5.2-14 1.2-0.9 34-7.3 24-19-2.6-3-8.5 3.5-12 2.1-3.9-2.1-4.2-7.5-6.3-11-2.1-3.7-2.9-8.4-6.3-11-0.92-1.2-4.8 0.82-5-0.5 1.2-5 5.4-9.1 6.6-14 2.6-8.6-7.8-0.7 2-12 8.8-9.7 23-11 21-28-0.24-1.3-15-7.7-18-13-5.7-7.9-3.4-23-3.7-24-0.8-0.54-15-19-16-20-0.92-1.2 2.2 0.31 3.5 0.08 6.5 0.93 11 0.89 17 1.2 16 1.3 20 2 25-15 6.2-20-2.9-12-7.4-25-4.3-12 18-9.9 17-19-0.52-6.7-6.9 0.51-4.3-8.1 0.44-1.4 3.2-1.9 3.5-4 1.2-5 0.35-9.6 0.19-14-0.28-5.4 2.8-11 1.2-17l-9-15c1.7-2.3 7.2 0.81 9.7-0.98l12-17c9.2-7 28-11 31-26 1.7-14-16-9.6-21-9.4-3.5-0.08-2-26-4.9-27-14-4.4-16 2-33-1.2-3-0.85-3.5-7.6-8.9-2.6-1.1 1.6 2.2 4.4 1.1 5.9-8.1 9.6-20 2.1-23 1.9-3-0.85-5.8 3-8 2.1-1.5-0.43 3.7-2.7 2.1-3.8-1.2-2.5-4.7-2.6-7.4-2.1-4.2 0.04-8.7 2.2-13 2.2-0.8-0.54 0.32-2.1 0.08-3.4-0.12-0.66 0.08-3.4-0.48-2.6-3.3 1.2-9.8 12-17 9-18-8.4 13-17 3.5-23-1.6-1.1-4.1 0.7-5.7-0.38-0.92-1.2 2-4.4 0.52-4.9-13-0.54-29 6.4-38 13 0.4-5.5-7.9-8.9-8.9-14-1-1.9 3.9 2.1 5 0.5 1.2-0.9-2-3.1-1.5-4.5 0.28-6.2 11-6 15-11 1.2-0.9 3.4-4.7 1.4-3.7-4 1.4-7.3 6-11 7.4-3.3 1.2-5.7-4.5-3.5-7.6 3.6-3.3 13-2.9 13-7.7-0.04-4.1-8.6 2.8-12 2.1-3-0.85-5.6-3.8-6.8-6.3-1.9-6.5 6.5 0.93 7 0.15 0.88-2.9-1.1-5.9 0.47-8.9 1.4-3.7 7.4-5.4 7.4-9.5-2.5-33-23 8.7-34-22-8.1-21 12-18 12-21 0.32-2.1-5.4 0.94-7.7-0.03-0.92-1.2 1.6-3 2.2-3.1 7.2-2.6 12-1.3 17-2.9 17-4.4 39-23 54-32 5.6-3.7 11-13 18-11 3.1 1.5-2.3 11 1.2 11 5.6-0.28 7.3-10 13-11 18-3.2 23 28 40 29 3.5 0.07 3.6-7.4 7.1-7.4 20 1.3 9.8 3.8 29 3.1 4.9-0.16 13-3.7 18-3.7 4.3 0.62 7.1 4.2 11 3.5 5.4-0.94 9-8.4 15-8 5 0.5 7.1 8.3 12 11 4.7 2.6 12-2.8 17 0.49 1.6 1.1-2.1 3.8-0.64 4.2 1.7 1.7 5-3.6 7.2-2.6 19 8.3 67 22 88 11 1.2-0.9 0.76-3.5 2-4.4 2.6-1.1 5.4-0.94 8.2-1.4 5.6-0.28 20-4.1 25 3.2 0.12 0.66-0.32 2.1-0.88 2.9 5.7 0.38 23 12 29 11 2-0.35-2.2-4.4-1.1-5.9 1-2.2 3.6-3.3 6.2-4.5 19-6 6.7-1.8 17 6 3.2 2.2 7.9-2.7 11-1.2 4.4 1.3 7.3 5.6 11 7 9.7 3.1 29-0.84 41-6.4 4.8 3.3 14 8.6 14 8.6 1.5 0.43 0.2-2.8 0.88-2.9 3.5 0.07 7.8 0.69 10 3 7.3 5.6-11 17-1.4 19 4.3 0.62 7.1-7.4 8.7-6.3 0.92 1.2-0.52 4.9 1.1 5.9 11 7 25 1.1 36 6.2 0.8 0.54 10 15 11 14 10 5.1 17-8.3 28-2 5.5 3.1 3.7 12 13 11 4.2-0.04 6.2-4.5 10-4.5 4.2-0.04 7.1 4.2 11 4.2 2-0.35 1.3-4.3 3.4-4.7 6.7-1.8 14 2.4 21 1.8 0 0-6.2-15 2.2-15 12 0 20 6.7 29 12 0.8 0.54 2.7-0.47 4.1-0.7 3.5 0.07 7.6-0.63 10 1 3.9 2.1 2.9 8.4 6.7 9.8l0.12 0.66c-2.2 7.2-1.9 17 18 7.1z"/>
 <text class="airport-label" x="99.304489" y="130.75391"><tspan y="130.75391">Vigo</tspan></text>
 <text class="airport-label" x="118.58064" y="68.170868"><tspan y="68.170868">Santiago de</tspan><tspan x="118.58064" y="93.710907">Compostela</tspan></text>
 <text class="airport-label" x="88.605072" y="226.61914"><tspan y="226.61914">Porto</tspan></text>
 <text class="airport-label" x="39.475182" y="438.94629"><tspan y="438.94629">Lisboa</tspan></text>
 <path id="airport" class="airport" d="m23 425a9 9 0 0 0-1.9e-4 13 9 9 0 0 0 13 0 9 9 0 0 0-1.9e-4 -13 9 9 0 0 0-13-1e-5zm-0.19 2.9 0.85-0.85c0.16-0.16 0.32-0.25 0.48-0.27 0.16-0.023 0.43 0.031 0.82 0.16 3.1 1 4.8 1.6 5 1.6 0.28 0.072 0.6-0.046 0.95-0.36 1.3-1.2 2.1-2 2.5-2.2 0.41-0.29 0.77-0.45 1.1-0.48 0.31-0.033 0.51-9e-3 0.59 0.071 0.09 0.09 0.13 0.27 0.12 0.54-0.013 0.27-0.13 0.58-0.35 0.94s-0.65 0.9-1.3 1.6c-0.66 0.73-1 1.1-1.1 1.2-0.16 0.16-0.27 0.31-0.33 0.46-0.057 0.15-0.067 0.31-0.029 0.47 0.037 0.17 0.23 0.79 0.58 1.9l1 3.2c0.15 0.44 0.2 0.73 0.16 0.88-0.043 0.15-0.13 0.29-0.27 0.42l-0.85 0.85c-0.13 0.13-0.25 0.14-0.37 0.022-0.075-0.075-0.17-0.32-0.28-0.73-0.25-0.88-0.59-1.8-1-2.6-0.45-0.89-0.83-1.5-1.2-1.8-0.075-0.075-0.16-0.099-0.24-0.071-0.087 0.027-0.21 0.1-0.36 0.23l-2.8 2.2c-0.14 0.095-0.25 0.19-0.35 0.29-0.09 0.09-0.14 0.18-0.14 0.27-3.5e-5 0.09 0.15 0.44 0.44 1.1 0.32 0.6 0.4 0.97 0.24 1.1-0.0053 5e-3 -0.15 0.12-0.42 0.35-0.28 0.23-0.44 0.36-0.5 0.39-0.052 0.033-0.11 0.046-0.16 0.041-0.055-5e-3 -0.11-0.03-0.15-0.075-0.075-0.075-0.2-0.28-0.36-0.6l-0.47-0.94-0.075-0.075c-0.11-0.11-0.27-0.075-0.48 0.11-0.31 0.25-0.52 0.31-0.65 0.18-0.12-0.12-0.058-0.33 0.19-0.64 0.17-0.23 0.2-0.39 0.11-0.48l-0.075-0.075c-0.96-0.49-1.5-0.77-1.6-0.85-0.045-0.045-0.069-0.094-0.071-0.15-0.0028-0.053 0.012-0.11 0.044-0.16 0.033-0.052 0.16-0.22 0.39-0.49s0.34-0.41 0.35-0.42c0.095-0.095 0.23-0.12 0.41-0.082 0.18 0.04 0.51 0.18 1 0.43 0.38 0.2 0.62 0.3 0.74 0.31 0.12 9e-3 0.22-0.036 0.32-0.14 0.03-0.03 0.32-0.39 0.86-1.1l1.3-1.6c0.31-0.39 0.47-0.64 0.5-0.75 0.03-0.12 0.013-0.21-0.052-0.27-0.4-0.4-1.1-0.84-2.2-1.3-1-0.47-1.9-0.79-2.5-0.97-0.3-0.08-0.48-0.15-0.55-0.22-0.1-0.1-0.085-0.22 0.045-0.35z" fill="#666" fill-rule="evenodd" style="clip-rule:evenodd"/>
 <g id="pdcfw">
  <path d="m92 167c-0.66-3.1-1.8-5.8-3.2-8.2-1-1.8-2.3-3.5-3.4-5.2-0.37-0.58-0.7-1.2-1.1-1.8-0.72-1.2-1.3-2.6-1.3-4.4 0.04-1.8 0.56-3.2 1.3-4.4 1.3-1.9 3.4-3.5 6.2-3.9 2.3-0.34 4.5 0.23 6 1.1 1.3 0.71 2.2 1.7 3 2.8 0.77 1.2 1.3 2.5 1.3 4.3 0.02 0.92-0.13 1.8-0.35 2.5-0.22 0.72-0.58 1.3-0.9 2-0.62 1.2-1.4 2.4-2.2 3.5-2.3 3.4-4.5 6.9-5.5 12z" />
  <ellipse cx="92" cy="148" rx="3" ry="3"/>
 </g>
 <use transform="translate(79,-358)" xlink:href="#airport"/>
 <use transform="translate(50,-212)" xlink:href="#airport"/>
 <use transform="translate(59,-306)" xlink:href="#airport"/>
</svg>
