<svg version="1.1" id="Layer_1" x="0" y="0" xml:space="preserve" viewBox="0 0 330.883 281.382"
    preserveAspectRatio="xMidYMid meet" xmlns="http://www.w3.org/2000/svg">
    <style type="text/css" id="style262">
        .st0,
        .st1,
        .st2 {
            fill-rule: evenodd;
            clip-rule: evenodd;
            fill: #fefefe
        }

        .st1,
        .st2 {
            fill: #d2cd0b;
            stroke: #fefefe;
            stroke-width: 1.165;
            stroke-linejoin: round;
            stroke-miterlimit: 22.9256
        }

        .st2 {
            fill: #9b982e
        }

        .st4,
        .st5,
        .st6 {
            fill-rule: evenodd;
            clip-rule: evenodd
        }

        .st5 {
            opacity: .3;
            fill: #252523
        }

        .st6 {
            fill: #ca2627
        }

        .st6,
        .st7,
        .st9 {
            stroke: #fefefe;
            stroke-width: 1.165;
            stroke-linejoin: round;
            stroke-miterlimit: 22.9256
        }

        .st7 {
            fill-rule: evenodd;
            clip-rule: evenodd;
            fill: #892723
        }

        .st9 {
            fill: #4a60a8
        }

        .st10,
        .st12,
        .st9 {
            fill-rule: evenodd;
            clip-rule: evenodd
        }

        .st10 {
            fill: #444f9b;
            stroke: #fefefe;
            stroke-width: 1.165;
            stroke-linejoin: round;
            stroke-miterlimit: 22.9256
        }

        .st12 {
            fill: #d6d5d4
        }

        .st12,
        .st13,
        .st15 {
            stroke: #fefefe;
            stroke-width: 1.165;
            stroke-linejoin: round;
            stroke-miterlimit: 22.9256
        }

        .st13,
        .st15,
        .st16 {
            fill-rule: evenodd;
            clip-rule: evenodd;
            fill: #a4a1a0
        }

        .st15,
        .st16 {
            fill: #33312f
        }

        .st16 {
            fill: #252523;
            stroke: #fefefe;
            stroke-width: 1.165;
            stroke-linejoin: round;
            stroke-miterlimit: 22.9256
        }
    </style>
    <g id="g428" transform="translate(-132.3 -252.1)">
        <g id="g392">
            <g id="g390">
                <path class="st0"
                    d="M133 391.1v53.5l53.2-12.9 21.3 7.3.1 2.7 41.4-10 21.3 7.3.1 2.7 41.4-10 21.3 7.3.1 3.2 43.8-10.6 21.3 7.3.1 2.7 41.4-10 20 6.9v-47.6c0-.9-.9-1.4-2.4-1.4h-322c-1.5.3-2.4.8-2.4 1.6z"
                    id="path264" />
                <g id="g276">
                    <path class="st1" d="M152.5 461.2c-.6 0 55-12.8 55-12.8l1.8 66.1-55 18.4c0-.1-1.2-71.7-1.8-71.7z"
                        id="path266" />
                    <path class="st2" id="polygon268" d="m154.3 532.8-19.5-11-1.8-68 19.5 7.4z" />
                    <path id="polygon270"
                        style="fill-rule:evenodd;clip-rule:evenodd;fill:#faea26;stroke:#fefefe;stroke-width:1.165;stroke-linejoin:round;stroke-miterlimit:22.9256"
                        d="m207.5 448.3-55 12.9-19.5-7.4 53.2-12.8z" />
                    <path class="st2"
                        d="M165.1 486.4c1.9-12 10-20.5 18.1-19.3.6.1 7.9 2.9 8.4 3.1 7.1 2.3 5 9.4 3.6 20.6-1.4 11.1-2.9 22.3-10.5 23-.8.1-6.9-2.5-7.7-2.7-8.4-1.2-13.8-12.4-11.9-24.7z"
                        id="path272" />
                    <path class="st1"
                        d="M173.7 490.1c1.8-12.2 9.9-21.3 18-20.1 8.1 1.2 13.1 12.1 11.2 24.3-1.9 12.1-9.9 20.9-17.9 19.8-8-1.2-13.1-11.8-11.3-24z"
                        id="path274" />
                </g>
                <g id="g292">
                    <path class="st0"
                        d="M150.6 261.7h-5.8v13.4h5.8c2.2 0 4-.2 5.4-.7 1.4-.4 2.5-1.2 3.2-2.1.7-1 1.1-2.3 1.1-3.9 0-1.9-.6-3.5-1.7-4.7-1.2-1.4-3.9-2-8-2zm2.3 22h-8.2v13c0 2.1-.5 3.8-1.5 4.9-1 1.2-2.3 1.7-3.9 1.7-1.7 0-3-.6-4-1.7s-1.5-2.8-1.5-4.9v-37.1c0-2.3.5-4 1.6-5 1.1-1.1 2.8-1.6 5.1-1.6h12.4c3.7 0 6.6.3 8.6.9 2.1.6 3.8 1.5 5.4 2.9 1.5 1.3 2.6 3 3.4 4.9.8 1.9 1.1 4 1.1 6.4 0 5.1-1.6 9-4.7 11.6-3.1 2.7-7.7 4-13.8 4z"
                        id="path278" />
                    <path class="st0"
                        d="M192.1 282.4H205l-6.5-18.5zm17.9 14.5-2.2-5.9h-18.4l-2.1 5.8c-.9 2.5-1.7 4.2-2.4 5.2s-1.9 1.4-3.5 1.4c-1.4 0-2.6-.5-3.7-1.5s-1.6-2.2-1.6-3.6c0-.7.1-1.4.3-2.1.2-.7.6-1.7 1.1-3l12.2-31.3 1.3-3.3c.5-1.3 1-2.4 1.6-3.2.6-.9 1.4-1.6 2.4-2.2 1-.6 2.2-.9 3.7-.9s2.7.3 3.7.9c1 .6 1.8 1.3 2.4 2.2.6.9 1.1 1.7 1.4 2.6.3.9.8 2.1 1.4 3.5l12.6 31.4c1 2.5 1.5 4.2 1.5 5.4 0 1.3-.5 2.5-1.6 3.6s-2.3 1.6-3.8 1.6c-.9 0-1.6-.2-2.3-.5-.6-.3-1.1-.7-1.6-1.3-.4-.5-.9-1.3-1.3-2.4-.5-1.2-.8-2-1.1-2.4z"
                        id="path280" />
                    <path class="st0"
                        d="M248.6 261.7h-8.3v11.9h8c2.3 0 4.1-.2 5.6-.6 1.5-.4 2.6-1 3.3-1.9.8-.9 1.1-2.1 1.1-3.6 0-1.2-.3-2.2-.9-3.1-.6-.9-1.4-1.6-2.5-2-.9-.5-3.1-.7-6.3-.7zm-5.5 20.2h-2.7v14.8c0 2.2-.5 3.9-1.5 5s-2.3 1.6-4 1.6c-1.8 0-3.1-.6-4.1-1.7-.9-1.2-1.4-2.8-1.4-4.9v-37.1c0-2.3.5-3.9 1.6-5s2.7-1.6 5-1.6h15.7c2.2 0 4.1.1 5.7.3 1.6.2 3.1.6 4.6 1.3 1.4.6 2.7 1.5 3.9 2.8 1.2 1.2 2.1 2.7 2.7 4.3.6 1.6.9 3.4.9 5.2 0 3.8-1.1 6.8-3.2 9.1s-5.1 3.7-9 4.4c1.6.4 3.2 1.5 4.7 3.4 1.6 1.8 3 3.8 4.2 5.8 1.2 2.1 2.2 3.9 2.9 5.6.7 1.7 1.1 2.9 1.1 3.6 0 .8-.2 1.5-.7 2.2-.5.7-1.1 1.3-1.9 1.7-.8.4-1.7.6-2.7.6-1.2 0-2.3-.3-3.1-.9-.8-.6-1.5-1.3-2.1-2.1-.5-.8-1.3-2-2.2-3.6l-4-7.3c-1.3-1.8-2.5-3.3-3.5-4.5-1-1.2-2.1-2-3.1-2.4-.9-.3-2.2-.6-3.8-.6z"
                        id="path282" />
                    <path class="st0"
                        d="M311.5 261.8h-21.1v10.6h19.4c1.7 0 2.9.4 3.8 1.2.9.8 1.3 1.8 1.3 3.1s-.4 2.3-1.3 3.2c-.9.8-2.1 1.2-3.8 1.2h-19.4v12.4h21.8c1.7 0 3 .4 3.9 1.3.9.8 1.4 1.9 1.4 3.3 0 1.3-.5 2.4-1.4 3.3-.9.8-2.2 1.3-3.9 1.3H286c-2.3 0-4-.5-5-1.6-1.1-1.1-1.6-2.8-1.6-5.1v-36.2c0-1.5.2-2.7.7-3.7.5-1 1.2-1.7 2.2-2.2 1-.5 2.2-.7 3.7-.7h25.5c1.7 0 3 .4 3.9 1.2.9.8 1.3 1.8 1.3 3.1s-.4 2.4-1.3 3.2c-.8.7-2.1 1.1-3.9 1.1z"
                        id="path284" />
                    <path class="st0"
                        d="M336.1 262v31.4h6.7c1.6 0 2.8 0 3.7-.1.9-.1 1.7-.3 2.6-.6.9-.3 1.6-.7 2.1-1.1 3.2-2.8 4.9-7.5 4.9-14.1 0-4.6-.7-8.1-2-10.3-1.4-2.2-3-3.7-5-4.3-2-.6-4.4-.9-7.3-.9zm-4.4-8.9h12.6c3.3 0 6.2.3 8.6 1 2.4.6 4.7 2 6.8 4.2 5 4 7.4 10.5 7.4 19.5 0 2.9-.3 5.6-.8 8.1s-1.3 4.7-2.4 6.7c-1.1 2-2.4 3.6-3.9 4.9-1.5 1.5-3 2.6-4.6 3.3-1.6.7-3.2 1.2-5 1.5-1.8.3-3.8.4-6.1.4h-12.6c-1.9 0-3.3-.3-4.3-.9-1-.6-1.7-1.5-2-2.5-.3-1.1-.4-2.4-.4-4.1v-35.3c0-2.3.5-3.9 1.6-5 1.1-1.3 2.8-1.8 5.1-1.8z"
                        id="path286" />
                    <path class="st0"
                        d="M408.6 261.8h-21.1v10.6h19.4c1.6 0 2.9.4 3.8 1.2.9.8 1.3 1.8 1.3 3.1s-.4 2.3-1.3 3.2c-.9.8-2.1 1.2-3.8 1.2h-19.4v12.4h21.8c1.7 0 3 .4 3.9 1.3.9.8 1.4 1.9 1.4 3.3 0 1.3-.5 2.4-1.4 3.3-.9.8-2.2 1.3-3.9 1.3H383c-2.3 0-4-.5-5-1.6-1.1-1.1-1.6-2.8-1.6-5.1v-36.2c0-1.5.2-2.7.7-3.7.5-1 1.2-1.7 2.2-2.2 1-.5 2.2-.7 3.7-.7h25.5c1.7 0 3 .4 3.9 1.2.9.8 1.3 1.8 1.3 3.1s-.5 2.4-1.3 3.2c-.7.7-2 1.1-3.8 1.1z"
                        id="path288" />
                    <path class="st0"
                        d="M459.7 287.4c0 3-.8 5.8-2.3 8.2-1.6 2.4-3.8 4.3-6.8 5.7-3 1.4-6.5 2-10.5 2-4.8 0-8.8-.9-12-2.8-2.3-1.4-4.1-3.2-5.5-5.4-1.4-2.3-2.1-4.5-2.1-6.7 0-1.3.5-2.5 1.4-3.5.9-1 2.1-1.5 3.6-1.5 1.2 0 2.2.4 3 1.1.8.8 1.5 1.8 2 3.2.6 1.5 1.2 2.7 1.9 3.7s1.6 1.8 2.8 2.4c1.2.6 2.7.9 4.7.9 2.7 0 4.9-.6 6.5-1.9 1.7-1.2 2.5-2.8 2.5-4.6 0-1.4-.4-2.6-1.3-3.4-.9-.9-2-1.6-3.5-2.1s-3.5-1.1-6-1.6c-3.5-.8-6.4-1.8-8.8-2.9-2.4-1.1-4.3-2.7-5.7-4.6-1.4-2-2.1-4.5-2.1-7.4 0-2.8.8-5.2 2.2-7.4 1.5-2.2 3.7-3.8 6.5-5 2.8-1.2 6.1-1.7 9.9-1.7 3 0 5.6.4 7.8 1.2 2.2.8 4.1 1.8 5.5 3.1 1.5 1.3 2.6 2.6 3.3 4 .7 1.4 1 2.8 1 4.2 0 1.3-.5 2.5-1.4 3.6-.9 1.1-2.1 1.6-3.5 1.6-1.3 0-2.3-.3-2.9-1-.7-.7-1.3-1.7-2.1-3-.8-1.7-1.8-3.1-2.9-4-1.1-.9-3-1.4-5.5-1.4-2.3 0-4.2.5-5.6 1.5-1.4 1-2.1 2.2-2.1 3.5 0 .9.2 1.6.7 2.2.4.6 1.1 1.2 2 1.6.9.5 1.7.8 2.6 1.1.9.3 2.5.7 4.7 1.3 2.6.6 5 1.3 7.2 2.1s4.1 1.7 5.7 2.9c1.6 1.1 2.8 2.6 3.7 4.4 1 1.8 1.4 3.9 1.4 6.4z"
                        id="path290" />
                </g>
                <g id="g314">
                    <path class="st4"
                        d="M157.6 405.1H148v6.5h8.1c.8 0 1.3.2 1.7.5.4.3.5.8.5 1.4 0 .6-.2 1.1-.5 1.4-.4.3-.9.5-1.7.5H148v8.3c0 1.1-.2 1.9-.7 2.4-.4.5-1 .8-1.8.8-.7 0-1.3-.3-1.8-.8-.4-.5-.7-1.3-.7-2.4v-19.5c0-.7.1-1.3.3-1.8.2-.5.5-.8 1-1 .4-.2 1-.3 1.7-.3h11.5c.8 0 1.4.2 1.7.5.4.4.6.8.6 1.4 0 .6-.2 1.1-.6 1.4-.3.5-.8.7-1.6.7z"
                        id="path294" />
                    <path class="st4"
                        d="M175 416.5h7.2l-3.6-10.5Zm9.6 7.1-1.2-3.2h-9.8l-1.2 3.3c-.4 1.3-.8 2.1-1.2 2.6-.3.5-.8.7-1.6.7-.6 0-1.2-.2-1.6-.7-.5-.5-.7-1-.7-1.6 0-.3.1-.7.2-1.1.1-.4.3-.9.5-1.5l6.2-16.5.6-1.7c.2-.7.5-1.2.8-1.7.3-.4.7-.8 1.1-1.1.4-.3 1-.4 1.7-.4s1.2.1 1.7.4c.4.3.8.6 1.1 1 .3.4.5.9.7 1.4.2.5.4 1.1.7 2l6.3 16.3c.5 1.2.8 2.2.8 2.7 0 .6-.2 1.1-.7 1.6-.5.5-1 .7-1.7.7-.4 0-.7-.1-1-.2-.3-.1-.5-.3-.7-.6-.2-.2-.4-.6-.6-1.1z"
                        id="path296" />
                    <path class="st4"
                        d="m205.9 403.8 9.4 14.9v-15.1c0-1 .2-1.7.6-2.2.4-.5.9-.7 1.6-.7.7 0 1.3.2 1.7.7.4.5.6 1.2.6 2.2v19.9c0 2.2-.9 3.3-2.6 3.3-.4 0-.8-.1-1.2-.2-.4-.1-.7-.3-1-.6-.3-.3-.6-.6-.9-1l-.8-1.2-9.2-14.8v14.8c0 1-.2 1.7-.6 2.2-.4.5-1 .7-1.6.7-.7 0-1.3-.2-1.7-.8-.4-.5-.6-1.2-.6-2.2v-19.5c0-.8.1-1.5.3-2 .2-.5.6-.9 1-1.3.5-.3 1-.5 1.6-.5.4 0 .8.1 1.1.2.3.2.6.4.8.6.2.3.5.6.7 1z"
                        id="path298" />
                    <path class="st4"
                        d="m262.9 422.4-3.9-15.2-4 15.2c-.3 1.2-.5 2-.7 2.5-.2.5-.5 1-.9 1.3-.4.4-1.1.6-1.8.6-.6 0-1.1-.1-1.5-.3-.4-.2-.7-.6-.9-1-.2-.4-.5-1-.6-1.6l-.4-1.6-4-17.1c-.2-1-.4-1.8-.4-2.3 0-.7.2-1.2.7-1.7.4-.4 1-.7 1.6-.7.9 0 1.5.3 1.8.9.3.6.6 1.5.8 2.6l3.2 14.8 3.6-13.8c.3-1.1.5-1.9.7-2.4.2-.5.6-1 1-1.4.5-.4 1.1-.6 1.9-.6.8 0 1.5.2 1.9.6.5.4.8.9.9 1.4.2.5.4 1.3.7 2.5l3.6 13.8 3.2-14.8c.1-.8.3-1.4.4-1.8.1-.4.4-.8.7-1.2.3-.4.8-.5 1.5-.5.6 0 1.2.2 1.6.7.4.4.7 1 .7 1.7 0 .5-.1 1.2-.4 2.3l-4 17.1c-.3 1.2-.5 2-.7 2.5-.2.5-.5 1-.9 1.4-.4.4-1 .6-1.8.6s-1.3-.2-1.8-.6c-.4-.4-.8-.8-.9-1.3-.3-.5-.5-1.4-.9-2.6z"
                        id="path300" />
                    <path class="st4"
                        d="M299.4 405.1h-11v6.2h10.1c.8 0 1.3.2 1.7.5.4.3.6.8.6 1.4 0 .6-.2 1.1-.5 1.4-.4.4-.9.5-1.7.5h-10.1v7.2h11.4c.8 0 1.3.2 1.7.6.4.4.6.9.6 1.5s-.2 1.1-.6 1.5c-.4.4-1 .6-1.7.6h-13.3c-1.1 0-1.8-.2-2.3-.7-.5-.5-.7-1.3-.7-2.4v-19c0-.7.1-1.3.3-1.8.2-.5.5-.8 1-1 .4-.2 1-.3 1.7-.3h12.9c.8 0 1.4.2 1.7.5.4.4.6.8.6 1.4 0 .6-.2 1.1-.6 1.4-.5.3-1.1.5-1.8.5z"
                        id="path302" />
                    <path class="st4"
                        d="M328.3 405.1h-11v6.2h10.2c.8 0 1.3.2 1.7.5.4.3.5.8.5 1.4 0 .6-.2 1.1-.5 1.4-.4.4-.9.5-1.7.5h-10.2v7.2h11.4c.8 0 1.3.2 1.7.6.4.4.6.9.6 1.5s-.2 1.1-.6 1.5c-.4.4-1 .6-1.7.6h-13.3c-1.1 0-1.8-.2-2.3-.7-.5-.5-.7-1.3-.7-2.4v-19c0-.7.1-1.3.3-1.8.2-.5.5-.8 1-1 .4-.2 1-.3 1.7-.3h12.9c.8 0 1.4.2 1.7.5.4.4.6.8.6 1.4 0 .6-.2 1.1-.6 1.4-.4.3-.9.5-1.7.5z"
                        id="path304" />
                    <path class="st4"
                        d="M346.2 403.8v8.9l9.6-10.5c.5-.5.8-.9 1.2-1.1.3-.2.8-.4 1.3-.4.7 0 1.3.2 1.7.6.4.4.7 1 .7 1.6 0 .8-.4 1.5-1.1 2.2l-6 5.9 6.9 10.3c.5.7.9 1.3 1.1 1.9.2.5.4 1.1.4 1.6 0 .6-.2 1.1-.6 1.5-.4.4-1 .6-1.7.6s-1.2-.1-1.7-.4c-.4-.3-.8-.7-1.1-1.2l-.8-1.4-5.8-9.3-4 4v5.2c0 1.1-.2 1.9-.7 2.4-.5.5-1.1.8-1.8.8-.4 0-.8-.1-1.2-.3-.4-.2-.7-.5-.9-.9-.1-.3-.2-.7-.3-1.1 0-.4-.1-1-.1-1.9V404c0-1 .2-1.8.7-2.3.4-.5 1-.8 1.8-.8.7 0 1.3.3 1.8.8.4.3.6 1 .6 2.1z"
                        id="path306" />
                    <path class="st4"
                        d="M387.6 405.1h-11v6.2h10.1c.8 0 1.3.2 1.7.5.4.3.5.8.5 1.4 0 .6-.2 1.1-.5 1.4-.4.4-.9.5-1.7.5h-10.1v7.2H388c.8 0 1.4.2 1.7.6.4.4.6.9.6 1.5s-.2 1.1-.6 1.5c-.4.4-1 .6-1.7.6h-13.3c-1.1 0-1.8-.2-2.3-.7-.5-.5-.7-1.3-.7-2.4v-19c0-.7.1-1.3.3-1.8.2-.5.5-.8 1-1 .4-.2 1-.3 1.7-.3h12.9c.8 0 1.4.2 1.7.5.4.4.6.8.6 1.4 0 .6-.2 1.1-.6 1.4-.4.3-.9.5-1.7.5z"
                        id="path308" />
                    <path class="st4"
                        d="m407 403.8 9.4 14.9v-15.1c0-1 .2-1.7.6-2.2.4-.5.9-.7 1.6-.7.7 0 1.3.2 1.7.7.4.5.6 1.2.6 2.2v19.9c0 2.2-.9 3.3-2.6 3.3-.5 0-.8-.1-1.2-.2-.4-.1-.7-.3-1-.6-.3-.3-.6-.6-.9-1l-.8-1.2-9.2-14.8v14.8c0 1-.2 1.7-.6 2.2-.4.5-1 .7-1.6.7-.7 0-1.3-.2-1.7-.8-.4-.5-.6-1.2-.6-2.2v-19.5c0-.8.1-1.5.3-2 .2-.5.6-.9 1-1.3.5-.3 1-.5 1.6-.5.4 0 .8.1 1.1.2.3.2.6.4.8.6.2.3.5.6.7 1z"
                        id="path310" />
                    <path class="st4"
                        d="M437.3 405.2v17.2h3.7c.8 0 1.4 0 1.9-.1.5 0 .9-.2 1.4-.4.5-.2.9-.4 1.3-.8 1.6-1.4 2.5-4 2.5-7.5 0-2.5-.3-4.4-1.1-5.6-.7-1.2-1.6-2-2.7-2.4-1.1-.3-2.3-.5-3.8-.5h-3.2zm-1.9-4.1h6.4c1.6 0 3.1.2 4.3.5 1.2.3 2.3.9 3.2 1.8 2.5 2.3 3.8 5.7 3.8 10.3 0 1.5-.1 2.9-.4 4.2-.3 1.3-.6 2.4-1.2 3.4-.5 1-1.2 1.9-2 2.7-.6.6-1.4 1.1-2.1 1.5-.8.4-1.6.6-2.5.8-.9.2-1.9.2-3 .2h-6.4c-.9 0-1.6-.1-2-.4-.5-.3-.8-.7-.9-1.2-.1-.5-.2-1.2-.2-2v-18.6c0-1.1.2-1.9.7-2.4.5-.6 1.3-.8 2.3-.8z"
                        id="path312" />
                </g>
                <g id="g326">
                    <path class="st0"
                        d="M223.4 354.5c0 1.8-.4 3.7-1.3 5.8-.9 2.1-2.2 4.1-4 6.1-1.8 2-4.1 3.6-6.9 4.8-2.8 1.2-6 1.8-9.8 1.8-2.8 0-5.4-.3-7.7-.8s-4.4-1.4-6.3-2.6c-1.9-1.2-3.7-3-5.4-5.4-1.3-1.2-2.4-2.8-3.4-5-1-2.1-1.7-4.4-2.2-6.8-.5-2.4-.7-4.9-.7-7.7 0-4.4.6-8.3 1.9-11.8 1.2-3.5 3-6.4 5.4-8.9 2.3-2.5 5.1-4.4 8.2-5.7 3.1-1.3 6.5-2 10-2 4.3 0 8.2.9 11.6 2.7 3.4 1.8 6 4 7.8 6.6 1.8 2.6 2.7 5.2 2.7 7.5 0 1.5-.5 2.7-1.5 3.8-1 1.1-2.2 1.6-3.6 1.6-1.5 0-2.7-.4-3.5-1.1-.8-.8-1.6-2-2.5-3.6-1.3-2.5-2.8-4.4-4.6-5.6-1.7-1.2-3.9-1.8-6.4-1.8-4.1 0-7.3 1.6-9.7 4.8-2.4 3.2-3.7 7.8-3.7 13.8 0 4.1.5 7.4 1.6 10.1 1.1 2.6 2.6 4.6 4.5 5.9 2 1.3 4.2 1.9 6.9 1.9 2.9 0 5.3-.7 7.2-2.2 2-1.4 3.5-3.7 4.5-6.7.4-1.3 1-2.5 1.8-3.5s2-1.5 3.7-1.5c1.4 0 2.7.5 3.7 1.6 1.2 1.2 1.7 2.4 1.7 3.9z"
                        id="path316" />
                    <path class="st0"
                        d="M272.9 344.6c0-3.8-.6-7-1.8-9.8-1.2-2.7-2.9-4.8-5-6.2-2.2-1.4-4.6-2.1-7.4-2.1-2 0-3.8.4-5.5 1.2-1.7.8-3.1 1.9-4.4 3.3-1.2 1.5-2.2 3.4-2.9 5.7-.7 2.3-1.1 5-1.1 7.9 0 3 .4 5.6 1.1 8 .7 2.4 1.7 4.3 3 5.9 1.3 1.5 2.8 2.7 4.4 3.4 1.7.8 3.5 1.1 5.5 1.1 2.6 0 4.9-.6 7-2 2.1-1.3 3.8-3.3 5.1-6.1 1.3-2.7 2-6.2 2-10.3zm-14.2-28.1c5.5 0 10.2 1.2 14.2 3.5s7 5.6 9 9.8c2 4.2 3.1 9.2 3.1 14.8 0 4.2-.6 8-1.7 11.5s-2.8 6.5-5 9c-2.2 2.6-5 4.5-8.2 5.9-3.3 1.3-7 2-11.1 2-4.2 0-7.9-.7-11.2-2.1-3.3-1.4-6-3.3-8.3-5.9-2.2-2.5-3.9-5.6-5-9.1s-1.7-7.3-1.7-11.4c0-4.2.6-8 1.8-11.5 1.2-3.5 2.9-6.5 5.1-8.9 2.2-2.5 5-4.4 8.2-5.7 3.1-1.2 6.7-1.9 10.8-1.9z"
                        id="path318" />
                    <path class="st0"
                        d="M296.9 349.3v-25.6c0-2.3.5-4.1 1.6-5.4 1.1-1.2 2.5-1.9 4.3-1.9 1.9 0 3.3.6 4.4 1.9 1.1 1.2 1.6 3 1.6 5.3v26.2c0 2.9.3 5.3.9 7.2.6 1.9 1.7 3.3 3.2 4.3 1.5 1 3.7 1.5 6.5 1.5 3.8 0 6.6-1 8.1-3.1 1.6-2.1 2.4-5.3 2.4-9.7v-26.4c0-2.4.5-4.1 1.6-5.4 1.1-1.2 2.5-1.8 4.3-1.8 1.8 0 3.2.6 4.3 1.8 1.1 1.2 1.7 3 1.7 5.4v25.6c0 4.2-.4 7.8-1.2 10.7-.8 2.9-2.4 5.4-4.6 7.7-2 1.9-4.3 3.2-6.8 4.1-2.6.9-5.6 1.3-9 1.3-4.1 0-7.6-.5-10.6-1.4-3-.9-5.4-2.3-7.3-4.3-1.9-1.9-3.3-4.4-4.2-7.4-.7-2.9-1.2-6.4-1.2-10.6z"
                        id="path320" />
                    <path class="st0"
                        d="M376.6 327h-9v13.2h8.7c2.5 0 4.5-.2 6.1-.6 1.6-.4 2.8-1.1 3.6-2.1.8-1 1.2-2.3 1.2-4 0-1.3-.3-2.5-1-3.5-.6-1-1.6-1.7-2.7-2.3-1.1-.5-3.4-.7-6.9-.7zm-6.1 22.4h-2.9v16.3c0 2.4-.6 4.3-1.7 5.5-1.1 1.2-2.5 1.8-4.3 1.8-1.9 0-3.4-.6-4.4-1.9-1-1.3-1.6-3.1-1.6-5.4v-41c0-2.5.6-4.3 1.7-5.5 1.2-1.2 3-1.8 5.5-1.8h17.1c2.3 0 4.4.1 6.2.3 1.8.2 3.4.7 5 1.4s3 1.7 4.3 3.1c1.3 1.4 2.3 3 3 4.8.7 1.8 1 3.7 1 5.7 0 4.2-1.2 7.5-3.5 10s-5.5 4.1-9.7 4.9c1.7.5 3.4 1.7 5.1 3.7 1.7 2 3.3 4.2 4.6 6.4 1.4 2.3 2.4 4.3 3.2 6.2.8 1.9 1.2 3.2 1.2 3.9 0 .9-.2 1.7-.8 2.5-.5.8-1.2 1.4-2.1 1.9-.9.5-1.9.7-3 .7-1.3 0-2.5-.3-3.4-1-.9-.6-1.6-1.4-2.2-2.3-.6-.9-1.4-2.2-2.4-4l-4.3-8.1c-1.4-2-2.7-3.6-3.9-4.9-1.1-1.3-2.3-2.2-3.4-2.7-1.1-.3-2.5-.5-4.3-.5z"
                        id="path322" />
                    <path class="st0"
                        d="M425.5 349.8h14l-7.1-20.5zm19.5 16.1-2.4-6.5h-20l-2.3 6.4c-1 2.7-1.9 4.7-2.6 5.7-.8 1.1-2.1 1.6-3.9 1.6-1.5 0-2.9-.6-4-1.7-1.2-1.1-1.7-2.4-1.7-3.9 0-.8.1-1.6.3-2.4.3-.8.7-1.9 1.2-3.4l13.3-34.6 1.4-3.6c.5-1.4 1.1-2.6 1.8-3.6.6-1 1.5-1.8 2.6-2.4 1.1-.6 2.4-1 4-1s2.9.3 4 1c1.1.6 2 1.4 2.6 2.4.6 1 1.2 1.9 1.5 2.9.4 1 .9 2.3 1.5 3.9l13.7 34.7c1.1 2.7 1.6 4.7 1.6 6 0 1.4-.6 2.8-1.7 3.9-1.1 1.2-2.5 1.8-4.1 1.8-1 0-1.8-.2-2.5-.5-.7-.4-1.3-.8-1.7-1.4-.5-.6-.9-1.5-1.4-2.7-.6-1.3-1-2.2-1.2-2.6z"
                        id="path324" />
                </g>
                <g id="g332">
                    <path class="st0"
                        d="M137.3 366.3h21.1v-4.8c0-1.1 0-1.9-.1-2.5 0-.6-.2-1.2-.4-1.9s-.5-1.2-1-1.7c-1.8-2.1-4.8-3.2-9.2-3.2-3.1 0-5.4.5-6.9 1.4-1.5.9-2.5 2.1-2.9 3.5-.4 1.4-.6 3-.6 5zm-5 2.5v-8.3c0-2.2.2-4 .6-5.6.4-1.5 1.1-3 2.2-4.2 2.8-3.3 7-4.9 12.6-4.9 1.9 0 3.6.2 5.1.5 1.5.3 2.9.8 4.2 1.5 1.2.7 2.3 1.6 3.3 2.6.7.9 1.4 1.8 1.8 2.8.4 1 .8 2.1 1 3.2.2 1.2.3 2.4.3 3.9v8.3c0 1.2-.2 2-.5 2.6-.3.6-.8 1-1.5 1.1-.6.2-1.4.3-2.4.3h-22.8c-1.4 0-2.3-.3-2.9-.9-.7-.6-1-1.6-1-2.9z"
                        id="path328" />
                    <path class="st0"
                        d="M137.2 319.7V334h7.6v-13.2c0-1 .2-1.7.7-2.2.4-.5 1-.7 1.7-.7s1.3.2 1.7.7c.4.5.7 1.2.7 2.2V334h8.9v-14.9c0-1 .2-1.7.7-2.3.5-.5 1.1-.8 1.8-.8s1.3.3 1.8.8.7 1.3.7 2.3v17.3c0 1.4-.3 2.4-.9 3-.6.6-1.6.9-2.9.9h-23.4c-.9 0-1.6-.1-2.2-.4-.6-.3-1-.7-1.2-1.3-.3-.6-.4-1.3-.4-2.2v-16.8c0-1 .2-1.8.7-2.3.4-.5 1-.7 1.8-.7.7 0 1.3.2 1.8.7.2.6.4 1.4.4 2.4z"
                        id="path330" />
                </g>
                <path class="st5" d="m216.9 530.5-33.2-9.9 2.7-8.4c-1.1-.2-3-1.5-3-1.5l7.6-41.3 2.8.4 1.7-14.2z"
                    id="path334" />
                <g id="g346">
                    <path class="st6" d="M215.2 461.2c-.6 0 55-12.8 55-12.8l1.8 66.1-55 18.4c0-.1-1.2-71.7-1.8-71.7z"
                        id="path336" />
                    <path class="st7" id="polygon338" d="m217 532.8-19.5-11-1.8-68 19.5 7.4z" />
                    <path id="polygon340"
                        style="fill-rule:evenodd;clip-rule:evenodd;fill:#e42424;stroke:#fefefe;stroke-width:1.165;stroke-linejoin:round;stroke-miterlimit:22.9256"
                        d="m270.2 448.3-55 12.9-19.5-7.4 53.2-12.8z" />
                    <path class="st7"
                        d="M227.9 486.4c1.9-12 10-20.5 18.1-19.3.6.1 7.9 2.9 8.5 3.1 7.1 2.3 5 9.4 3.6 20.6-1.4 11.1-2.9 22.3-10.5 23-.8.1-6.9-2.5-7.7-2.7-8.6-1.2-13.9-12.4-12-24.7z"
                        id="path342" />
                    <path class="st6"
                        d="M236.4 490.1c1.8-12.2 9.9-21.3 18-20.1 8.1 1.2 13.1 12.1 11.2 24.3-1.9 12.1-9.9 20.9-17.9 19.8-8-1.2-13.1-11.8-11.3-24z"
                        id="path344" />
                </g>
                <path class="st5" d="m277.9 530.5-33.2-9.9 2.7-8.4c-1.1-.2-3.1-1.5-3.1-1.5l7.6-41.3 2.8.4 1.7-14.2z"
                    id="path348" />
                <g id="g360">
                    <path class="st9" d="M278 461.2c-.6 0 55-12.8 55-12.8l1.8 66.1-55 18.4c-.1-.1-1.2-71.7-1.8-71.7z"
                        id="path350" />
                    <path class="st10" id="polygon352" d="m279.7 532.8-19.5-11-1.7-68 19.5 7.4z" />
                    <path id="polygon354"
                        style="fill-rule:evenodd;clip-rule:evenodd;fill:#4a74b8;stroke:#fefefe;stroke-width:1.165;stroke-linejoin:round;stroke-miterlimit:22.9256"
                        d="M332.9 448.3 278 461.2l-19.5-7.4 53.2-12.8z" />
                    <path class="st10"
                        d="M290.6 486.4c1.8-12 9.9-20.5 18.1-19.3.6.1 7.9 2.9 8.4 3.1 7.1 2.3 5 9.4 3.6 20.6-1.4 11.1-2.9 22.3-10.5 23-.8.1-6.9-2.5-7.7-2.7-8.5-1.2-13.8-12.4-11.9-24.7z"
                        id="path356" />
                    <path class="st9"
                        d="M299.1 490.1c1.8-12.2 9.9-21.3 18-20.1 8.1 1.2 13.1 12.1 11.2 24.3-1.9 12.1-9.9 20.9-17.9 19.8-7.9-1.2-13-11.8-11.3-24z"
                        id="path358" />
                </g>
                <path class="st5" d="m343.5 530.5-33.2-9.9 2.7-8.4c-1.1-.2-3.1-1.5-3.1-1.5l7.6-41.3 2.8.4 1.7-14.2z"
                    id="path362" />
                <g id="g374">
                    <path class="st12"
                        d="M343.1 461.2c-.6 0 54.9-12.8 54.9-12.8l1.8 66.1-55 18.4c.1-.1-1.1-71.7-1.7-71.7z"
                        id="path364" />
                    <path class="st13" id="polygon366" d="m344.9 532.8-19.5-11-1.8-68 19.5 7.4z" />
                    <path id="polygon368"
                        style="fill-rule:evenodd;clip-rule:evenodd;fill:#f8f8f9;stroke:#fefefe;stroke-width:1.165;stroke-linejoin:round;stroke-miterlimit:22.9256"
                        d="m398 448.3-54.9 12.9-19.5-7.4 53.2-12.8z" />
                    <path class="st13"
                        d="M355.7 486.4c1.8-12 9.9-20.5 18.1-19.3.6.1 7.9 2.9 8.5 3.1 7.1 2.3 5 9.4 3.6 20.6-1.4 11.1-2.9 22.3-10.5 23-.8.1-6.9-2.5-7.7-2.7-8.5-1.2-13.9-12.4-12-24.7z"
                        id="path370" />
                    <path class="st12"
                        d="M364.3 490.1c1.8-12.2 9.9-21.3 18-20.1 8.1 1.2 13.1 12.1 11.2 24.3-1.9 12.1-9.9 20.9-17.9 19.8-8-1.2-13.1-11.8-11.3-24z"
                        id="path372" />
                </g>
                <path class="st5" d="m407.6 530.5-33.2-9.9 2.7-8.4c-1.1-.2-3.1-1.5-3.1-1.5l7.6-41.3 2.8.4 1.7-14.2z"
                    id="path376" />
                <g id="g388">
                    <path class="st15" d="M405.8 461.2c-.6 0 55-12.8 55-12.8l1.8 66.1-55 18.4c0-.1-1.2-71.7-1.8-71.7z"
                        id="path378" />
                    <path class="st16" id="polygon380" d="m407.6 532.8-19.5-11-1.8-68 19.5 7.4z" />
                    <path id="polygon382"
                        style="fill-rule:evenodd;clip-rule:evenodd;fill:#464240;stroke:#fefefe;stroke-width:1.165;stroke-linejoin:round;stroke-miterlimit:22.9256"
                        d="m460.8 448.3-55 12.9-19.5-7.4 53.2-12.8z" />
                    <path class="st16"
                        d="M418.5 486.4c1.9-12 9.9-20.5 18.1-19.3.6.1 7.9 2.9 8.4 3.1 7.1 2.3 5 9.4 3.6 20.6-1.4 11.1-2.9 22.3-10.5 23-.8.1-6.9-2.5-7.7-2.7-8.5-1.2-13.8-12.4-11.9-24.7z"
                        id="path384" />
                    <path class="st15"
                        d="M427 490.1c1.8-12.2 9.8-21.3 18-20.1 8.1 1.2 13.1 12.1 11.2 24.3-1.9 12.1-9.9 20.9-17.9 19.8-8-1.2-13.1-11.8-11.3-24z"
                        id="path386" />
                </g>
            </g>
        </g>
    </g>
</svg>