<?xml version="1.0" encoding="UTF-8" standalone="no"?>
<svg
   xmlns:dc="http://purl.org/dc/elements/1.1/"
   xmlns:cc="http://creativecommons.org/ns#"
   xmlns:rdf="http://www.w3.org/1999/02/22-rdf-syntax-ns#"
   xmlns:svg="http://www.w3.org/2000/svg"
   xmlns="http://www.w3.org/2000/svg"
   xmlns:sodipodi="http://sodipodi.sourceforge.net/DTD/sodipodi-0.dtd"
   xmlns:inkscape="http://www.inkscape.org/namespaces/inkscape"
   inkscape:export-ydpi="854.16962"
   inkscape:export-xdpi="854.16962"
   inkscape:export-filename="/Users/tito/Projects/0937/fanweekend.pt/static/icon.png"
   inkscape:version="1.0 (4035a4f, 2020-05-01)"
   sodipodi:docname="icon.svg"
   viewBox="0 0 57.543648 57.543605"
   id="svg1629"
   height="57.543606"
   width="57.543648"
   version="1.1">
  <metadata
     id="metadata1635">
    <rdf:RDF>
      <cc:Work
         rdf:about="">
        <dc:format>image/svg+xml</dc:format>
        <dc:type
           rdf:resource="http://purl.org/dc/dcmitype/StillImage" />
        <dc:title></dc:title>
      </cc:Work>
    </rdf:RDF>
  </metadata>
  <defs
     id="defs1633" />
  <sodipodi:namedview
     inkscape:current-layer="svg1629"
     inkscape:window-maximized="1"
     inkscape:window-y="23"
     inkscape:window-x="0"
     inkscape:cy="27.139374"
     inkscape:cx="19.416761"
     inkscape:zoom="6.8517805"
     fit-margin-bottom="0"
     fit-margin-right="0"
     fit-margin-left="0"
     fit-margin-top="0"
     showgrid="false"
     id="namedview1631"
     inkscape:window-height="855"
     inkscape:window-width="1440"
     inkscape:pageshadow="2"
     inkscape:pageopacity="0"
     guidetolerance="10"
     gridtolerance="10"
     objecttolerance="10"
     borderopacity="1"
     bordercolor="#666666"
     pagecolor="#ffffff" />
  <path
     d="m 1.81135,38.5847 c 5.4194,14.8899 21.8833,22.5671 36.7733,17.1476 C 53.47455,50.3128 61.15185,33.849 55.73235,18.9591 50.31275,4.069 33.84895,-3.6082 18.95905,1.8113 4.06895,7.2308 -3.60825,23.6946 1.81135,38.5847 Z m 6.4386,-2.3863 v 0 C 4.12745,24.8721 9.96725,12.3485 21.29375,8.226 c 11.3264,-4.1225 23.8499,1.7174 27.9723,13.0437 4.1225,11.3266 -1.7173,23.85 -13.0436,27.9725 -11.3265,4.1225 -23.85,-1.7173 -27.9725,-13.0438 z"
     style="fill:#262626;fill-rule:evenodd;stroke:none;stroke-width:0.1468;stroke-linecap:butt;stroke-linejoin:miter;stroke-dasharray:none;fill-opacity:1"
     id="path1448" />
  <path
     d="m 35.24285,26.6033 c -1.2408,2.7903 -3.9428,7.1576 -6.3185,8.944 -2.3756,1.7866 -4.6994,2.054 -5.7437,2.132 -1.0446,0.0779 -1.7494,-0.2713 -2.5875,0.0338 -0.838,0.305 -1.348,1.3986 -1.6992,2.0213 -0.3505,0.623 -0.8493,1.9741 -1.1844,3.3204 -0.3354,1.3467 -1.2297,2.2909 -1.6892,2.3893 -0.4591,0.0983 -1.1078,1.1875 0.8323,1.2654 1.9398,0.078 3.4579,-1.8362 3.4579,-1.8362 -0.0445,1.9557 -1.1687,3.3275 -1.3769,3.4726 -0.2083,0.1447 -0.1886,0.2751 -0.1886,0.2751 3.2568,1.1255 5.7262,-4.5605 5.7262,-4.5605 0.3054,1.2922 -0.4661,3.7138 -0.4661,3.7138 0.4514,0.1533 0.9551,0.2091 1.4646,0.0499 1.6299,-0.5108 2.5133,-4.5466 2.5133,-4.5466 1.2785,-0.3418 2.266,0.3307 3.0612,0.7014 0.7942,0.3704 4.3261,3.405 12.0551,1.2632 3.3131,-2.883 5.6552,-6.6918 6.7688,-10.8724 -0.4737,-0.1136 -1.0397,-0.2738 -1.7058,-0.5005 -2.6375,-0.8971 -12.9195,-7.266 -12.9195,-7.266 z"
     style="fill:#373732;fill-rule:evenodd;stroke:#141711;stroke-width:0.0757;stroke-linecap:butt;stroke-linejoin:round;stroke-dasharray:none"
     id="path1450" />
  <g
     style="fill:#ffffff"
     transform="rotate(20,664.49084,-894.71561)"
     id="Layer1022">
    <path
       d="m 356.2685,192.3485 c 0.1176,-0.1266 0.2772,-0.1988 0.48,-0.2179 0.1701,-0.0153 0.3106,0.009 0.4211,0.0744 0.1117,0.0649 0.197,0.1668 0.2558,0.3048 0.0595,0.1377 0.0985,0.3128 0.1173,0.5244 l 0.0556,0.6036 -1.4062,0.1281 -0.0558,-0.604 c -0.0365,-0.4008 0.008,-0.6721 0.1322,-0.8134 z m 1.4504,-0.8028 v 0 c -0.2597,-0.2567 -0.6182,-0.3647 -1.0743,-0.3229 -0.2134,0.0194 -0.4027,0.0713 -0.5678,0.1553 -0.1643,0.0838 -0.2996,0.1979 -0.4062,0.341 -0.1051,0.1421 -0.1756,0.3067 -0.2105,0.4924 -0.0341,0.1893 -0.0356,0.4548 -0.004,0.7969 l 0.1053,1.1568 c 0.0181,0.1989 0.0741,0.3397 0.1677,0.4232 0.0944,0.0832 0.2405,0.1158 0.4398,0.0975 l 3.4481,-0.3145 c 0.1791,-0.0163 0.311,-0.0704 0.3954,-0.1623 0.0849,-0.0923 0.1215,-0.2065 0.1089,-0.3433 -0.0121,-0.1308 -0.0687,-0.2348 -0.1704,-0.3119 -0.1015,-0.0771 -0.2423,-0.1083 -0.4231,-0.0919 l -1.2674,0.1153 -0.0754,-0.8217 c -0.0496,-0.5503 -0.2049,-0.9535 -0.4657,-1.2099 z"
       style="fill:#ffffff;fill-rule:evenodd"
       id="path1452" />
    <path
       d="m 356.3401,188.1424 1.9231,-0.4914 -0.1264,1.3257 z m 3.445,-0.9074 v 0 c 0.0949,-0.0303 0.1659,-0.0608 0.2132,-0.0908 0.0472,-0.03 0.0859,-0.0689 0.1163,-0.1171 0.0308,-0.048 0.049,-0.1072 0.056,-0.1781 0.0116,-0.1209 -0.0223,-0.2282 -0.1005,-0.3224 -0.0792,-0.0942 -0.1708,-0.1464 -0.2746,-0.1564 -0.1003,-0.009 -0.265,0.0208 -0.4948,0.0903 l -3.0105,0.8829 c -0.1499,0.0413 -0.2706,0.075 -0.3608,0.1018 -0.0902,0.0269 -0.1754,0.0626 -0.2563,0.1067 -0.08,0.0444 -0.1482,0.106 -0.2048,0.1856 -0.0555,0.0787 -0.0896,0.1813 -0.1019,0.3058 -0.0113,0.1229 0.003,0.229 0.0423,0.3171 0.0407,0.0882 0.097,0.1616 0.169,0.2209 0.0734,0.0588 0.1669,0.117 0.2797,0.1735 l 0.291,0.1456 2.8107,1.4128 c 0.1123,0.0574 0.2002,0.0994 0.2634,0.1259 0.0638,0.0264 0.1263,0.0421 0.1871,0.0481 0.1067,0.0104 0.2063,-0.0237 0.2981,-0.1024 0.0914,-0.0787 0.1425,-0.1742 0.1535,-0.2876 0.013,-0.1329 -0.0173,-0.2329 -0.0909,-0.2989 -0.0731,-0.0661 -0.2182,-0.1513 -0.4354,-0.256 l -0.5567,-0.2671 0.1713,-1.8035 0.5848,-0.1579 c 0.0724,-0.0219 0.1557,-0.048 0.2508,-0.0788 z"
       style="fill:#ffffff;fill-rule:evenodd"
       id="path1454" />
    <path
       d="m 357.312,182.4185 c 0.0785,-0.0953 0.1725,-0.1603 0.2818,-0.1945 0.1114,-0.0346 0.2262,-0.0337 0.3468,0.002 0.1545,0.0451 0.2653,0.1192 0.3296,0.221 0.0659,0.1025 0.096,0.2309 0.0892,0.3872 -0.005,0.1554 -0.0395,0.3387 -0.1018,0.5502 l -0.2327,0.7907 -1.1966,-0.3525 0.2398,-0.8146 c 0.0895,-0.3026 0.1708,-0.4992 0.2439,-0.5895 z m 1.6035,1.2602 v 0 c 0.0729,-0.0907 0.1808,-0.1689 0.3248,-0.2357 0.1438,-0.0665 0.3435,-0.1307 0.5998,-0.1931 l 0.6966,-0.1703 c 0.1646,-0.0397 0.2894,-0.0724 0.376,-0.0987 0.0863,-0.0259 0.1628,-0.0644 0.2292,-0.1168 0.0666,-0.0521 0.1139,-0.1261 0.1426,-0.2233 0.0233,-0.0807 0.0277,-0.1566 0.013,-0.2286 -0.015,-0.0719 -0.0452,-0.1336 -0.092,-0.1862 -0.0468,-0.0521 -0.0988,-0.0867 -0.1569,-0.1044 -0.0563,-0.0163 -0.1679,-0.0162 -0.3348,5e-4 -0.1675,0.0165 -0.3597,0.0519 -0.5765,0.1056 -0.2178,0.0536 -0.4282,0.1259 -0.6335,0.2156 -0.2046,0.0907 -0.3716,0.1989 -0.5003,0.3252 0.0258,-0.3832 -0.0298,-0.692 -0.1682,-0.9258 -0.1384,-0.2334 -0.3665,-0.3974 -0.6847,-0.491 -0.1554,-0.0455 -0.31,-0.0628 -0.4655,-0.051 -0.1541,0.0112 -0.2987,0.0518 -0.4333,0.1222 -0.1346,0.0704 -0.2492,0.1629 -0.345,0.2776 -0.0807,0.0979 -0.1501,0.2137 -0.2068,0.3489 -0.0561,0.1345 -0.1137,0.2994 -0.1717,0.4957 l -0.4177,1.4204 c -0.0556,0.1886 -0.0525,0.3378 0.007,0.4471 0.0605,0.1088 0.1849,0.1913 0.3734,0.2466 l 3.3308,0.9798 c 0.175,0.0525 0.3191,0.0535 0.4319,0.004 0.1126,-0.049 0.1891,-0.1414 0.2296,-0.2792 0.0378,-0.127 0.024,-0.2438 -0.0407,-0.3489 -0.0652,-0.1052 -0.1909,-0.1851 -0.3772,-0.24 l -1.418,-0.4176 0.0906,-0.3086 c 0.0469,-0.1563 0.1058,-0.28 0.178,-0.3703 z"
       style="fill:#ffffff;fill-rule:evenodd"
       id="path1456" />
    <path
       d="m 359.6507,176.8803 c -0.0272,-0.0922 -0.0882,-0.1635 -0.1849,-0.2121 -0.0944,-0.0481 -0.1863,-0.0552 -0.2772,-0.0221 -0.0902,0.0328 -0.168,0.114 -0.2339,0.2427 l -1.0802,2.1298 c -0.0566,0.1113 -0.0864,0.211 -0.0893,0.2996 -0.002,0.0883 0.0242,0.1672 0.0798,0.238 0.0567,0.07 0.1427,0.1349 0.2581,0.1937 l 2.985,1.5151 c 0.174,0.0883 0.319,0.1142 0.4344,0.079 0.1152,-0.0355 0.2165,-0.1386 0.3038,-0.3097 l 1.1122,-2.1922 c 0.0643,-0.1277 0.0842,-0.2385 0.0583,-0.3333 -0.0253,-0.0941 -0.0846,-0.1653 -0.1783,-0.2128 -0.0978,-0.049 -0.1919,-0.0562 -0.2835,-0.0216 -0.0915,0.0354 -0.1692,0.1163 -0.2338,0.2441 l -0.9583,1.8884 -1.1775,-0.597 0.8535,-1.6819 c 0.0632,-0.1248 0.0827,-0.2309 0.0583,-0.3199 -0.0248,-0.0885 -0.081,-0.1548 -0.1677,-0.1992 -0.0882,-0.044 -0.1743,-0.0494 -0.2582,-0.0155 -0.0846,0.0342 -0.1581,0.1127 -0.2205,0.2358 l -0.8536,1.682 -0.9317,-0.4727 0.9261,-1.826 c 0.0657,-0.1286 0.0855,-0.2396 0.0591,-0.3322 z"
       style="fill:#ffffff;fill-rule:evenodd"
       id="path1458" />
    <path
       d="m 361.4789,174.3399 c 0.1686,-0.2187 0.3366,-0.3866 0.5033,-0.505 0.1664,-0.1178 0.3781,-0.1624 0.6343,-0.1338 0.2557,0.0291 0.5584,0.1787 0.9087,0.4482 0.4977,0.3837 0.7561,0.7731 0.7756,1.1693 0.006,0.0904 -0.007,0.1807 -0.0369,0.2732 -0.0296,0.0924 -0.0672,0.1749 -0.1129,0.2476 -0.0453,0.0725 -0.1145,0.1689 -0.2063,0.2879 l -0.4183,0.5437 -2.4117,-1.8571 z m -1.2972,0.7307 v 0 c 0.0163,0.1222 0.1018,0.2432 0.2561,0.3623 l 2.5974,1.9996 c 0.1143,0.0888 0.2151,0.1508 0.3019,0.1859 0.087,0.035 0.1754,0.0349 0.2663,-8e-4 0.0897,-0.0352 0.1851,-0.1186 0.2859,-0.2489 l 0.7184,-0.9332 c 0.1255,-0.1624 0.2268,-0.3164 0.3063,-0.4619 0.0788,-0.1449 0.136,-0.2939 0.1714,-0.4458 0.0358,-0.1518 0.0474,-0.3077 0.0361,-0.4678 -0.0206,-0.2047 -0.0717,-0.399 -0.1541,-0.5844 -0.0827,-0.1848 -0.1976,-0.3631 -0.3447,-0.5351 -0.1483,-0.1721 -0.328,-0.3396 -0.5406,-0.5036 -0.6459,-0.497 -1.2665,-0.6855 -1.8621,-0.5663 -0.2327,0.0472 -0.4383,0.14 -0.6166,0.2791 -0.1792,0.1392 -0.3616,0.3299 -0.5485,0.5723 l -0.7193,0.9331 c -0.1185,0.1547 -0.1699,0.2931 -0.1539,0.4155 z"
       style="fill:#ffffff;fill-rule:evenodd"
       id="path1460" />
    <path
       d="m 366.2668,169.171 c 0.0107,-0.0937 -0.0188,-0.1799 -0.0881,-0.2581 -0.0681,-0.0769 -0.1491,-0.1154 -0.244,-0.1163 -0.0949,-1e-4 -0.1964,0.0475 -0.3043,0.1428 l -1.7924,1.5903 c -0.0956,0.0852 -0.1619,0.1692 -0.1992,0.2524 -0.0359,0.0832 -0.0412,0.1684 -0.0157,0.2562 0.0267,0.0877 0.0826,0.1802 0.1684,0.2775 l 2.2407,2.5258 c 0.1304,0.1469 0.2569,0.2244 0.3798,0.2322 0.123,0.008 0.2585,-0.0531 0.4063,-0.1846 l 1.8447,-1.6369 c 0.1071,-0.0944 0.1648,-0.1906 0.1746,-0.2891 0.009,-0.098 -0.0225,-0.1875 -0.0935,-0.2686 -0.0744,-0.0835 -0.1613,-0.1263 -0.2597,-0.1289 -0.0985,-0.003 -0.2014,0.043 -0.3084,0.1375 l -1.582,1.404 -0.8603,-0.9689 1.4086,-1.2499 c 0.1049,-0.0932 0.1618,-0.1857 0.1692,-0.2795 0.007,-0.0932 -0.0234,-0.1781 -0.0918,-0.2554 -0.0677,-0.077 -0.1487,-0.1155 -0.2413,-0.1173 -0.0927,-9e-4 -0.1912,0.0444 -0.2947,0.1355 l -1.4087,1.2498 -0.7158,-0.8077 1.5298,-1.3577 c 0.108,-0.0952 0.1674,-0.1903 0.1778,-0.2851 z"
       style="fill:#ffffff;fill-rule:evenodd"
       id="path1462" />
    <path
       d="m 371.3684,168.2081 c -0.1508,-0.0929 -0.3139,-0.1464 -0.4896,-0.1598 -0.1759,-0.0134 -0.3697,0.002 -0.5817,0.0468 -0.2119,0.0446 -0.4419,0.1069 -0.6882,0.1864 -0.197,0.0597 -0.3396,0.1009 -0.4277,0.1231 -0.0879,0.0226 -0.1803,0.0353 -0.277,0.0384 -0.0976,0.004 -0.1834,-0.01 -0.259,-0.0411 -0.0754,-0.0312 -0.1371,-0.0856 -0.1843,-0.1633 -0.076,-0.1245 -0.0799,-0.2678 -0.0123,-0.4309 0.0669,-0.1624 0.1995,-0.3042 0.3974,-0.425 0.2131,-0.1297 0.3926,-0.1834 0.5378,-0.1624 0.1456,0.0217 0.2959,0.0825 0.4515,0.1835 0.1185,0.0731 0.2144,0.1185 0.2894,0.1365 0.0746,0.0182 0.156,5e-4 0.2453,-0.0537 0.0978,-0.06 0.1568,-0.1469 0.1767,-0.2614 0.0197,-0.1149 0.002,-0.2191 -0.0555,-0.3131 -0.0621,-0.1018 -0.1518,-0.1905 -0.2696,-0.2664 -0.1185,-0.0757 -0.2637,-0.128 -0.4365,-0.1568 -0.1728,-0.0295 -0.3627,-0.0211 -0.5704,0.0247 -0.2079,0.0453 -0.4291,0.1395 -0.6643,0.2823 -0.2949,0.1795 -0.5238,0.3795 -0.6878,0.6007 -0.1635,0.2219 -0.2519,0.4503 -0.2669,0.6861 -0.0137,0.2357 0.0438,0.4596 0.1736,0.6726 0.1363,0.2243 0.3042,0.3782 0.5058,0.4625 0.2016,0.0842 0.4218,0.1126 0.6616,0.086 0.2397,-0.0261 0.5176,-0.0913 0.8352,-0.1954 0.2315,-0.0757 0.4216,-0.1296 0.5684,-0.1616 0.1475,-0.0318 0.2839,-0.0307 0.4093,0.003 0.1247,0.0331 0.2265,0.1141 0.3046,0.2429 0.0985,0.1615 0.1094,0.3404 0.0333,0.5352 -0.0766,0.195 -0.2287,0.3614 -0.4562,0.4998 -0.1658,0.1006 -0.3157,0.1552 -0.4503,0.1635 -0.1344,0.009 -0.2549,-0.0114 -0.3608,-0.0606 -0.1063,-0.048 -0.2215,-0.1197 -0.3445,-0.2138 -0.1037,-0.0782 -0.2008,-0.1265 -0.291,-0.1446 -0.0906,-0.0173 -0.1772,-8e-4 -0.2602,0.0495 -0.1035,0.0633 -0.1677,0.1486 -0.1935,0.2563 -0.026,0.1082 -0.01,0.2091 0.0479,0.3031 0.0985,0.1624 0.2554,0.2953 0.4711,0.3997 0.2158,0.1044 0.4434,0.1545 0.6845,0.1488 0.3304,-0.008 0.6836,-0.127 1.06,-0.3564 0.3141,-0.1903 0.554,-0.4079 0.7199,-0.6517 0.1656,-0.2436 0.252,-0.4938 0.2591,-0.7502 0.007,-0.2563 -0.0608,-0.5001 -0.2011,-0.7315 -0.119,-0.1946 -0.2535,-0.3389 -0.404,-0.4315 z"
       style="fill:#ffffff;fill-rule:evenodd"
       id="path1464" />
    <path
       d="m 375.0359,164.7674 c 0.2664,-0.0794 0.5024,-0.1188 0.7077,-0.117 0.2057,0.001 0.4038,0.0864 0.5947,0.2574 0.1904,0.1709 0.3486,0.4658 0.4748,0.8857 0.1775,0.5968 0.1572,1.0611 -0.0623,1.3926 -0.0477,0.0755 -0.1111,0.1418 -0.1904,0.1989 -0.0795,0.0575 -0.1585,0.1025 -0.2383,0.1346 -0.0803,0.0326 -0.1927,0.0701 -0.3379,0.114 l -0.6618,0.1973 -0.8633,-2.8907 z m -1.5051,-0.1693 v 0 c -0.0601,0.1095 -0.063,0.2576 -0.007,0.4441 l 0.9375,3.1368 c 0.041,0.1388 0.0866,0.2474 0.1372,0.3265 0.0503,0.0795 0.1233,0.1307 0.2186,0.1541 0.0947,0.0232 0.2216,0.0117 0.3812,-0.0357 l 1.1438,-0.3424 c 0.1987,-0.0586 0.3736,-0.1253 0.525,-0.1975 0.1506,-0.0736 0.2855,-0.1621 0.4056,-0.2652 0.1192,-0.1035 0.2212,-0.2248 0.306,-0.3638 0.1075,-0.178 0.1826,-0.366 0.2259,-0.5643 0.0438,-0.1976 0.0562,-0.4089 0.0383,-0.6343 -0.0179,-0.2252 -0.0652,-0.4656 -0.1419,-0.7219 -0.2319,-0.7767 -0.6297,-1.2878 -1.1927,-1.5346 -0.2185,-0.099 -0.4418,-0.1446 -0.6709,-0.1361 -0.2284,0.008 -0.4913,0.0566 -0.7879,0.1445 l -1.1413,0.3406 c -0.1913,0.0578 -0.3167,0.1405 -0.3772,0.2492 z"
       style="fill:#ffffff;fill-rule:evenodd"
       id="path1466" />
    <path
       d="m 381.9724,163.337 c 0.0634,-0.0714 0.0892,-0.1602 0.0787,-0.2666 -0.0106,-0.1042 -0.054,-0.1846 -0.1307,-0.2413 -0.077,-0.057 -0.1869,-0.0781 -0.3304,-0.0639 l -2.383,0.2435 c -0.1288,0.0135 -0.2321,0.043 -0.3103,0.0889 -0.0786,0.0461 -0.1333,0.1127 -0.1633,0.1997 -0.0301,0.0871 -0.0386,0.1956 -0.0246,0.3255 l 0.3445,3.3757 c 0.0195,0.1968 0.0778,0.3345 0.173,0.4131 0.0953,0.0786 0.2414,0.1078 0.4393,0.0879 l 2.4534,-0.2506 c 0.1413,-0.0147 0.2449,-0.0576 0.3104,-0.1288 0.0651,-0.0725 0.0929,-0.1594 0.0821,-0.2615 -0.0107,-0.1073 -0.0561,-0.1894 -0.1339,-0.2457 -0.0787,-0.0577 -0.1885,-0.0792 -0.3301,-0.0644 l -2.1027,0.2144 -0.1345,-1.3185 1.8714,-0.1909 c 0.1399,-0.0134 0.2397,-0.0552 0.3001,-0.1238 0.0604,-0.069 0.0856,-0.1521 0.0759,-0.2507 -0.0104,-0.0979 -0.0519,-0.1729 -0.1259,-0.2259 -0.0741,-0.0534 -0.18,-0.0731 -0.3179,-0.0587 l -1.8713,0.191 -0.1139,-1.1123 2.0326,-0.2074 c 0.1438,-0.0143 0.2473,-0.0576 0.3111,-0.1287 z"
       style="fill:#ffffff;fill-rule:evenodd"
       id="path1468" />
    <path
       d="m 388.8049,166.1554 c -0.065,-0.0878 -0.1498,-0.1399 -0.2563,-0.1566 -0.1248,-0.02 -0.2203,0.003 -0.2885,0.0678 -0.0682,0.0649 -0.1304,0.1529 -0.1875,0.2644 -0.1307,0.2352 -0.2944,0.4032 -0.4926,0.504 -0.1988,0.0997 -0.4264,0.1296 -0.6831,0.0889 -0.2368,-0.0378 -0.4347,-0.1273 -0.593,-0.2688 -0.1585,-0.1419 -0.2679,-0.3359 -0.3278,-0.5812 -0.0597,-0.2453 -0.0618,-0.5411 -0.007,-0.8884 0.0823,-0.5184 0.2552,-0.9014 0.5179,-1.1482 0.2626,-0.2474 0.578,-0.3421 0.9458,-0.2836 0.2312,0.0372 0.4165,0.1227 0.5569,0.2571 0.14,0.1348 0.2508,0.3215 0.332,0.5611 0.0485,0.1452 0.0973,0.2496 0.146,0.3131 0.0484,0.064 0.1301,0.1052 0.2448,0.1233 0.102,0.0162 0.196,-0.009 0.2805,-0.0773 0.0851,-0.0678 0.1359,-0.1537 0.1527,-0.2577 0.0299,-0.1891 -0.0131,-0.402 -0.1269,-0.6389 -0.1149,-0.2368 -0.3008,-0.4494 -0.5564,-0.6388 -0.2561,-0.1888 -0.5632,-0.3121 -0.9203,-0.3688 -0.2932,-0.0463 -0.5777,-0.0377 -0.8532,0.0268 -0.2766,0.0647 -0.5278,0.1826 -0.7522,0.3536 -0.2247,0.1715 -0.4115,0.3916 -0.5607,0.6597 -0.1487,0.2677 -0.2514,0.5816 -0.3089,0.9417 -0.0356,0.2211 -0.0483,0.4343 -0.0384,0.6376 0.01,0.2033 0.0418,0.3988 0.0966,0.5857 0.0549,0.1872 0.1296,0.3596 0.2239,0.5179 0.1057,0.1765 0.2288,0.3257 0.3692,0.446 0.1405,0.1194 0.3022,0.2174 0.4862,0.2932 0.1832,0.0747 0.3914,0.1314 0.6245,0.1687 0.3074,0.0484 0.5848,0.0415 0.8316,-0.0214 0.247,-0.0634 0.4568,-0.1633 0.6311,-0.2994 0.1737,-0.1367 0.3085,-0.2819 0.4041,-0.4369 0.0962,-0.155 0.1551,-0.3042 0.1781,-0.4467 0.0173,-0.1119 -0.006,-0.2108 -0.0694,-0.2979 z"
       style="fill:#ffffff;fill-rule:evenodd"
       id="path1470" />
    <path
       d="m 392.8112,167.8305 c -0.1954,0.1843 -0.4063,0.2952 -0.6324,0.3335 -0.2268,0.0377 -0.4502,0.0146 -0.6715,-0.0689 -0.1726,-0.0654 -0.3195,-0.1567 -0.4405,-0.2741 -0.121,-0.1176 -0.2129,-0.261 -0.2769,-0.4288 -0.064,-0.1686 -0.0898,-0.36 -0.0782,-0.5753 0.011,-0.2147 0.0617,-0.4408 0.1521,-0.6788 0.0886,-0.2352 0.1993,-0.4358 0.3326,-0.6018 0.1324,-0.1657 0.2748,-0.2889 0.4264,-0.3711 0.152,-0.0813 0.313,-0.1258 0.4841,-0.1338 0.1707,-0.007 0.3417,0.0208 0.5144,0.0857 0.2427,0.0921 0.4358,0.2312 0.5796,0.4169 0.144,0.1855 0.2239,0.41 0.2401,0.6724 0.0161,0.2616 -0.0335,0.5455 -0.1489,0.8511 -0.1254,0.3303 -0.2857,0.5881 -0.4809,0.773 z m -0.8437,-3.5812 v 0 c -0.2903,0.006 -0.5587,0.07 -0.8061,0.1933 -0.2477,0.1236 -0.4695,0.3031 -0.6643,0.5384 -0.1946,0.235 -0.353,0.5148 -0.4757,0.8385 -0.1197,0.3171 -0.1873,0.6284 -0.2015,0.9343 -0.0144,0.3058 0.0284,0.5884 0.1289,0.8475 0.1004,0.2592 0.2601,0.4917 0.4796,0.6963 0.2193,0.2044 0.4937,0.369 0.8228,0.4938 0.33,0.1246 0.6425,0.1839 0.938,0.1772 0.2944,-0.007 0.5668,-0.0746 0.8174,-0.2034 0.2491,-0.1291 0.4683,-0.3107 0.6573,-0.5435 0.1888,-0.2337 0.3445,-0.5135 0.4684,-0.8388 0.1668,-0.4414 0.232,-0.8562 0.1951,-1.2436 -0.0371,-0.3877 -0.1775,-0.7298 -0.4226,-1.0252 -0.2451,-0.2953 -0.5855,-0.5252 -1.0209,-0.6908 -0.3206,-0.1208 -0.6263,-0.1792 -0.9164,-0.174 z"
       style="fill:#ffffff;fill-rule:evenodd"
       id="path1472" />
    <path
       d="m 394.6164,169.1275 c -0.0705,0.2453 -0.082,0.4755 -0.0349,0.6917 0.0471,0.2148 0.1546,0.421 0.322,0.6169 0.1673,0.1952 0.3961,0.3849 0.6847,0.5687 0.2415,0.154 0.4712,0.2601 0.6886,0.3185 0.2173,0.0569 0.4337,0.067 0.6501,0.0297 0.2559,-0.0483 0.4762,-0.1542 0.6616,-0.3155 0.1836,-0.1623 0.371,-0.3928 0.561,-0.6902 l 1.1665,-1.8296 c 0.1003,-0.1579 0.1391,-0.2976 0.1167,-0.4202 -0.0225,-0.123 -0.0919,-0.2212 -0.2068,-0.2947 -0.1159,-0.0741 -0.2327,-0.0944 -0.3507,-0.0609 -0.118,0.0331 -0.2274,0.129 -0.3273,0.287 l -1.2049,1.8902 c -0.2081,0.3254 -0.4241,0.5301 -0.6484,0.6129 -0.2244,0.083 -0.4829,0.0305 -0.777,-0.1568 -0.2136,-0.136 -0.3543,-0.2818 -0.422,-0.4353 -0.0685,-0.155 -0.0804,-0.3181 -0.0357,-0.4908 0.0443,-0.1722 0.1347,-0.3653 0.2704,-0.5793 l 1.1955,-1.8743 c 0.0994,-0.1567 0.1385,-0.2956 0.1189,-0.4179 -0.0199,-0.1223 -0.0895,-0.2217 -0.2087,-0.298 -0.1137,-0.0723 -0.2302,-0.0919 -0.3497,-0.0582 -0.1195,0.0333 -0.2288,0.1273 -0.3271,0.2819 l -1.1637,1.8255 c -0.1828,0.2871 -0.3097,0.5533 -0.3791,0.7987 z"
       style="fill:#ffffff;fill-rule:evenodd"
       id="path1474" />
    <path
       d="m 402.2639,171.4027 c 0.0482,0.1128 0.0619,0.2257 0.0415,0.3395 -0.0217,0.1134 -0.0759,0.2156 -0.1628,0.3066 -0.1124,0.1171 -0.2287,0.1808 -0.349,0.1933 -0.121,0.0112 -0.2486,-0.021 -0.3831,-0.0969 -0.1345,-0.0765 -0.2814,-0.1898 -0.4396,-0.3421 l -0.591,-0.5668 0.8675,-0.9038 0.6085,0.5837 c 0.2266,0.2174 0.3625,0.3795 0.408,0.4865 z m -1.8414,0.835 v 0 c 0.0465,0.1054 0.0651,0.2375 0.0573,0.3959 -0.009,0.1575 -0.0448,0.3649 -0.109,0.6216 l -0.1744,0.6994 c -0.0418,0.1647 -0.0708,0.2907 -0.0873,0.3804 -0.0174,0.0884 -0.0182,0.1742 -0.002,0.2574 0.0144,0.0819 0.0581,0.1584 0.1309,0.2279 0.0604,0.058 0.1261,0.0969 0.1961,0.1175 0.0699,0.0195 0.1398,0.0201 0.2082,0.003 0.0683,-0.0181 0.1234,-0.0488 0.1652,-0.0922 0.041,-0.0426 0.0922,-0.1416 0.1556,-0.298 0.0623,-0.1564 0.1205,-0.3439 0.1736,-0.5615 0.0524,-0.2187 0.0863,-0.4395 0.1017,-0.6626 0.0155,-0.224 -0.003,-0.4224 -0.0561,-0.5945 0.3284,0.1988 0.6282,0.291 0.8989,0.2749 0.2707,-0.0156 0.5211,-0.1436 0.7517,-0.3834 0.112,-0.1177 0.1988,-0.2476 0.2605,-0.3901 0.0611,-0.1424 0.0916,-0.2897 0.0923,-0.4416 0,-0.153 -0.0286,-0.2974 -0.0866,-0.434 -0.0479,-0.1179 -0.1182,-0.2334 -0.21,-0.3448 -0.0923,-0.1125 -0.2119,-0.2391 -0.3589,-0.3801 l -1.0627,-1.0199 c -0.1412,-0.1349 -0.2735,-0.2008 -0.3979,-0.1979 -0.1244,0.004 -0.2549,0.077 -0.3924,0.2197 l -2.4139,2.5157 c -0.1269,0.1318 -0.1954,0.2595 -0.2042,0.382 -0.009,0.1226 0.0376,0.2338 0.141,0.332 0.0954,0.0922 0.2051,0.133 0.3287,0.1235 0.1232,-0.0102 0.2528,-0.0852 0.3882,-0.2268 l 1.0298,-1.0726 0.2311,0.2219 c 0.1168,0.1121 0.1984,0.221 0.2451,0.3273 z"
       style="fill:#ffffff;fill-rule:evenodd"
       id="path1476" />
    <path
       d="m 405.0568,174.9575 -1.1415,1.6308 -0.7716,-1.0951 z m -2.0293,2.9428 v 0 c -0.0522,0.0856 -0.0872,0.1552 -0.1032,0.2097 -0.0168,0.0536 -0.0214,0.1086 -0.0127,0.1658 0.009,0.0562 0.033,0.1142 0.0744,0.1724 0.0701,0.1002 0.1661,0.1596 0.2877,0.1813 0.1207,0.0201 0.2236,6e-4 0.3093,-0.0602 0.0815,-0.0576 0.1873,-0.1876 0.3153,-0.3902 l 1.7025,-2.6315 c 0.0869,-0.1291 0.1559,-0.2332 0.2064,-0.3124 0.0505,-0.0799 0.0919,-0.162 0.1238,-0.248 0.0322,-0.0869 0.0439,-0.1779 0.0342,-0.2748 -0.009,-0.0966 -0.0505,-0.1973 -0.1226,-0.3006 -0.0717,-0.1022 -0.1522,-0.1737 -0.2397,-0.2145 -0.0887,-0.0416 -0.1791,-0.0617 -0.273,-0.0587 -0.0944,0.001 -0.2016,0.0178 -0.3243,0.0483 -0.1224,0.03 -0.2276,0.0564 -0.3154,0.0781 l -3.0525,0.7466 c -0.123,0.0292 -0.2163,0.0547 -0.2821,0.0761 -0.0659,0.021 -0.1232,0.0488 -0.173,0.0843 -0.0873,0.0609 -0.1404,0.1525 -0.1578,0.2724 -0.0188,0.1201 0.005,0.2265 0.0707,0.3199 0.0778,0.1102 0.166,0.1661 0.2658,0.1691 0.0991,0.002 0.2657,-0.0288 0.5005,-0.0911 l 0.6003,-0.1613 1.0502,1.4907 -0.3442,0.5039 c -0.0414,0.0637 -0.0884,0.1391 -0.1406,0.2247 z"
       style="fill:#ffffff;fill-rule:evenodd"
       id="path1478" />
  </g>
  <g
     style="fill:#ffffff"
     transform="rotate(0.9,16.182445,27.149276)"
     id="g1768">
    <path
       d="m 12.89345,46.5788 c 0.0812,10e-4 0.1555,-0.0317 0.2221,-0.0979 0.0649,-0.0659 0.097,-0.1395 0.0961,-0.2208 -0.002,-0.0815 -0.0447,-0.1646 -0.1287,-0.249 l -1.2564,-1.252 c -0.0754,-0.0754 -0.1494,-0.1249 -0.2212,-0.1497 -0.0726,-0.0244 -0.1459,-0.0227 -0.2202,0.007 -0.0741,0.029 -0.1524,0.0839 -0.2333,0.1656 l -2.1551,2.1622 c -0.1163,0.1153 -0.1775,0.2273 -0.185,0.3347 -0.008,0.1064 0.027,0.2 0.1067,0.279 0.0776,0.0773 0.1703,0.1124 0.2777,0.1047 0.1063,-0.009 0.2196,-0.0719 0.3378,-0.1907 l 0.9338,-0.9367 0.8774,0.8746 c 0.0799,0.0799 0.1582,0.1213 0.2357,0.1256 0.0771,0.004 0.1463,-0.0254 0.2087,-0.0878 0.0616,-0.0621 0.0913,-0.1319 0.089,-0.2086 -0.003,-0.0772 -0.0447,-0.1559 -0.1265,-0.2371 l -0.877,-0.8743 0.7196,-0.723 1.05,1.0463 c 0.0839,0.084 0.1672,0.1272 0.2488,0.1282 z"
       style="fill:#ffffff;fill-rule:evenodd"
       id="path1481" />
    <path
       d="m 14.61755,48.2512 -0.5132,1.6639 -0.8988,-0.6505 z m -0.8766,2.9573 v 0 c -0.0184,0.0806 -0.0272,0.1446 -0.0254,0.1921 10e-4,0.0472 0.0124,0.0916 0.0345,0.1336 0.0214,0.0419 0.0558,0.0805 0.104,0.1152 0.0816,0.0591 0.1733,0.0793 0.276,0.0609 0.1019,-0.0191 0.1792,-0.0652 0.2326,-0.138 0.0504,-0.0703 0.101,-0.2051 0.1526,-0.4047 l 0.6877,-2.6018 c 0.0366,-0.1283 0.065,-0.2321 0.0854,-0.3097 0.0205,-0.0778 0.0321,-0.1565 0.0355,-0.2351 0.004,-0.0781 -0.0108,-0.1541 -0.043,-0.2297 -0.0324,-0.0748 -0.091,-0.1429 -0.1753,-0.2045 -0.0835,-0.0602 -0.1658,-0.0939 -0.2471,-0.1011 -0.0813,-0.007 -0.1588,0.004 -0.2328,0.033 -0.075,0.0291 -0.1568,0.0739 -0.2477,0.1334 -0.09,0.0601 -0.1673,0.1118 -0.2318,0.1554 l -2.251,1.4889 c -0.0905,0.0593 -0.1596,0.1067 -0.2063,0.1425 -0.0473,0.0356 -0.0855,0.075 -0.117,0.1179 -0.0538,0.0749 -0.0735,0.163 -0.057,0.2646 0.0156,0.1003 0.0625,0.1786 0.1392,0.2345 0.0899,0.0649 0.1742,0.0852 0.2533,0.0606 0.0783,-0.0253 0.2016,-0.0942 0.3688,-0.2064 l 0.4284,-0.2902 1.2221,0.8848 -0.1357,0.489 c -0.0147,0.0618 -0.0317,0.1325 -0.05,0.2148 z"
       style="fill:#ffffff;fill-rule:evenodd"
       id="path1483" />
    <path
       d="m 17.80525,49.6258 c -0.006,-0.0728 -0.0154,-0.1338 -0.0298,-0.1848 -0.0146,-0.0507 -0.0375,-0.0962 -0.069,-0.1379 -0.0315,-0.0409 -0.0772,-0.0761 -0.1356,-0.1053 -0.0749,-0.0364 -0.1558,-0.0475 -0.2423,-0.0339 -0.0869,0.0137 -0.1616,0.0494 -0.224,0.1066 -0.055,0.0543 -0.1099,0.1384 -0.1658,0.2524 l -1.3156,2.6914 c -0.0649,0.1316 -0.0866,0.2456 -0.0648,0.3418 0.0207,0.0956 0.0769,0.1658 0.1679,0.21 0.0874,0.043 0.1767,0.0441 0.2662,0.004 0.0891,-0.0414 0.1666,-0.129 0.2323,-0.2623 l 1.0019,-2.05 0.284,2.6643 c 0.008,0.0727 0.0169,0.1443 0.0273,0.2158 0.009,0.0708 0.0256,0.1364 0.0479,0.1962 0.0218,0.06 0.0521,0.1106 0.0912,0.1522 0.0386,0.0415 0.0879,0.0771 0.1475,0.1061 0.2374,0.1166 0.4313,0.0212 0.5813,-0.2849 l 1.3407,-2.7444 c 0.0661,-0.1346 0.0886,-0.2488 0.0676,-0.3429 -0.0213,-0.0935 -0.0791,-0.1644 -0.1731,-0.21 -0.0908,-0.0443 -0.1803,-0.046 -0.2671,-0.004 -0.0866,0.0422 -0.1635,0.1307 -0.2302,0.2667 l -1.0247,2.097 -0.2972,-2.7189 c -0.006,-0.0773 -0.0108,-0.1526 -0.0166,-0.2251 z"
       style="fill:#ffffff;fill-rule:evenodd"
       id="path1485" />
    <path
       d="m 24.39645,55.4181 c 0.0124,0.0785 0.047,0.1539 0.1049,0.2263 0.0572,0.0711 0.143,0.1181 0.2564,0.1396 0.1204,0.0229 0.2197,0.0106 0.2976,-0.0371 0.0773,-0.0485 0.1381,-0.1103 0.1816,-0.1855 0.0427,-0.0763 0.1021,-0.1966 0.1773,-0.362 l 1.1066,-2.4539 c 0.067,-0.1497 0.1072,-0.2596 0.1214,-0.3313 0.0192,-0.1007 9e-4,-0.1911 -0.0535,-0.2713 -0.0552,-0.0798 -0.1311,-0.1291 -0.2282,-0.148 -0.0972,-0.0182 -0.1766,-0.006 -0.2373,0.036 -0.0609,0.0418 -0.108,0.0944 -0.1414,0.1561 -0.0336,0.0618 -0.0732,0.1488 -0.119,0.2603 l -0.9106,2.1357 -0.144,-2.1894 c -0.0122,-0.1805 -0.0249,-0.3106 -0.0365,-0.3904 -0.0123,-0.0798 -0.0474,-0.1576 -0.1047,-0.2347 -0.0572,-0.0764 -0.1492,-0.1272 -0.2744,-0.1518 -0.1234,-0.023 -0.2272,-0.0113 -0.311,0.0354 -0.0837,0.0473 -0.1493,0.109 -0.1973,0.1859 -0.0479,0.0773 -0.107,0.192 -0.1778,0.3438 l -0.9395,1.9811 -0.0542,-2.321 c -0.002,-0.1783 -0.0181,-0.3173 -0.0475,-0.4169 -0.0295,-0.0986 -0.1121,-0.1614 -0.2474,-0.1877 -0.0992,-0.0186 -0.1878,-4e-4 -0.2683,0.0544 -0.0801,0.0545 -0.1296,0.131 -0.1482,0.2301 -0.0156,0.079 -0.0186,0.1964 -0.0106,0.3525 l 0.1184,2.6896 c 0.003,0.0805 0.008,0.1681 0.0141,0.2621 0.006,0.093 0.0211,0.1765 0.0462,0.249 0.0241,0.0719 0.0624,0.1315 0.115,0.1789 0.0525,0.0463 0.1249,0.0789 0.2179,0.0971 0.1129,0.0214 0.2094,0.009 0.29,-0.037 0.0798,-0.0472 0.1409,-0.1048 0.1832,-0.174 0.041,-0.0705 0.1022,-0.1867 0.1828,-0.3512 l 1.0402,-2.1612 0.1573,2.3919 c 0.0139,0.1873 0.0277,0.3199 0.0405,0.3986 z"
       style="fill:#ffffff;fill-rule:evenodd"
       id="path1487" />
    <path
       d="m 30.14065,52.6429 c 0.0587,-0.0548 0.0881,-0.1274 0.0887,-0.2186 -3e-4,-0.0889 -0.0294,-0.1608 -0.0878,-0.2155 -0.059,-0.0552 -0.1483,-0.0823 -0.2686,-0.0827 l -1.9855,-0.003 c -0.103,3e-4 -0.1875,0.0171 -0.254,0.0494 -0.0663,0.0327 -0.1144,0.0847 -0.1459,0.1565 -0.0314,0.0712 -0.0463,0.1639 -0.0467,0.2767 l -0.005,2.9246 c -3e-4,0.1697 0.0348,0.2926 0.1035,0.3691 0.0692,0.0761 0.1828,0.1144 0.3417,0.1146 l 2.0443,0.003 c 0.1182,-2e-4 0.2075,-0.0296 0.2684,-0.0878 0.0601,-0.0591 0.0903,-0.1358 0.0906,-0.23 5e-4,-0.0984 -0.0301,-0.1764 -0.0901,-0.2346 -0.0602,-0.0597 -0.15,-0.0891 -0.2679,-0.0888 l -1.7631,-0.003 0.002,-1.1118 1.5691,0.002 c 0.1171,2e-4 0.2036,-0.0275 0.26,-0.0838 0.0558,-0.0558 0.0842,-0.128 0.0846,-0.2175 -3e-4,-0.0889 -0.0286,-0.1607 -0.0858,-0.2145 -0.0569,-0.0541 -0.143,-0.0818 -0.2583,-0.0826 l -1.5691,-0.002 0.001,-0.9406 1.7042,0.003 c 0.1207,3e-4 0.2098,-0.027 0.269,-0.0819 z"
       style="fill:#ffffff;fill-rule:evenodd"
       id="path1489" />
    <path
       d="m 33.84485,52.1103 c 0.0487,-0.0644 0.0659,-0.1428 0.0513,-0.2347 -0.014,-0.09 -0.0541,-0.1579 -0.1206,-0.2045 -0.0662,-0.047 -0.1588,-0.0605 -0.2777,-0.0417 l -1.9573,0.3103 c -0.103,0.0166 -0.1848,0.0464 -0.2462,0.0896 -0.0605,0.0435 -0.1012,0.1031 -0.1208,0.1796 -0.0196,0.0766 -0.0203,0.171 -0.002,0.2832 l 0.462,2.9153 c 0.0272,0.1696 0.081,0.2868 0.1626,0.3514 0.0811,0.0645 0.2011,0.0842 0.3596,0.0593 l 2.0148,-0.3191 c 0.1167,-0.0188 0.2007,-0.0608 0.2512,-0.1249 0.0503,-0.0658 0.0682,-0.1423 0.0545,-0.2318 -0.0148,-0.0924 -0.0566,-0.1624 -0.1242,-0.2077 -0.0684,-0.0466 -0.1609,-0.0602 -0.2777,-0.0417 l -1.7336,0.275 -0.1792,-1.1312 1.5427,-0.2452 c 0.115,-0.0177 0.1962,-0.0575 0.2428,-0.1198 0.047,-0.0619 0.0637,-0.1346 0.0504,-0.2192 -0.0134,-0.0838 -0.0522,-0.147 -0.1162,-0.1892 -0.0643,-0.0425 -0.1528,-0.0547 -0.2667,-0.0376 l -1.5426,0.2454 -0.1538,-0.9697 1.6758,-0.2659 c 0.1187,-0.0188 0.2023,-0.0604 0.251,-0.1252 z"
       style="fill:#ffffff;fill-rule:evenodd"
       id="path1491" />
    <path
       d="m 35.34565,51.2265 c -0.0886,-0.0532 -0.1854,-0.0628 -0.2882,-0.0289 -0.105,0.0348 -0.1751,0.1004 -0.2101,0.197 -0.0356,0.0968 -0.0276,0.2208 0.023,0.3729 l 0.9229,2.7672 c 0.0392,0.1195 0.0718,0.2089 0.0974,0.2698 0.0254,0.0616 0.057,0.1117 0.0945,0.1514 0.0481,0.0479 0.1044,0.0794 0.1707,0.0959 0.0651,0.0157 0.1274,0.0139 0.1856,-0.005 0.1009,-0.0338 0.1718,-0.0997 0.2115,-0.1962 0.0394,-0.0973 0.0324,-0.2243 -0.019,-0.3811 l -0.258,-0.7735 0.3893,-0.7899 1.3086,1.0945 c 0.0541,0.05 0.1155,0.105 0.184,0.1654 0.069,0.0603 0.1416,0.1023 0.22,0.1264 0.077,0.024 0.1666,0.0196 0.2664,-0.0136 0.1063,-0.0357 0.1802,-0.0943 0.2218,-0.1757 0.0416,-0.0822 0.0494,-0.1642 0.0217,-0.2471 -0.025,-0.0747 -0.0685,-0.1447 -0.1305,-0.2121 -0.0614,-0.0664 -0.145,-0.1397 -0.2505,-0.2219 l -1.5111,-1.1777 0.5832,-1.1593 c 0.0719,-0.144 0.0897,-0.2713 0.0526,-0.3814 -0.0302,-0.0911 -0.0878,-0.1578 -0.173,-0.2004 -0.0847,-0.0426 -0.1784,-0.0464 -0.2815,-0.0125 -0.0796,0.0274 -0.1369,0.0663 -0.1723,0.117 -0.0364,0.0513 -0.0754,0.1249 -0.1182,0.2221 l -0.8979,2.0054 -0.4331,-1.2982 c -0.051,-0.1529 -0.1207,-0.2566 -0.2098,-0.31 z"
       style="fill:#ffffff;fill-rule:evenodd"
       id="path1493" />
    <path
       d="m 41.16195,49.2306 c 0.0256,-0.0761 0.0169,-0.1555 -0.0261,-0.2371 -0.0422,-0.0795 -0.1021,-0.1305 -0.18,-0.153 -0.0772,-0.0219 -0.1694,-0.005 -0.2751,0.051 l -1.7484,0.9235 c -0.0915,0.0479 -0.1584,0.1023 -0.2021,0.1621 -0.0433,0.0602 -0.062,0.129 -0.0563,0.2068 0.006,0.0781 0.0361,0.1672 0.0886,0.2669 l 1.3657,2.5865 c 0.0792,0.1505 0.1677,0.2432 0.2648,0.2775 0.0968,0.0349 0.2157,0.015 0.3567,-0.0588 l 1.7994,-0.9512 c 0.1045,-0.0546 0.1706,-0.1206 0.198,-0.198 0.0266,-0.0772 0.0194,-0.1555 -0.0227,-0.235 -0.0434,-0.0815 -0.1049,-0.1331 -0.1832,-0.1546 -0.0792,-0.0215 -0.1714,-0.005 -0.2759,0.05 l -1.55,0.8188 -0.5302,-1.0035 1.3799,-0.7288 c 0.1034,-0.0542 0.1654,-0.1196 0.1885,-0.196 0.023,-0.0767 0.0135,-0.1544 -0.0294,-0.2344 -0.0423,-0.0799 -0.1013,-0.1315 -0.1766,-0.1541 -0.0762,-0.0216 -0.1645,-0.006 -0.2662,0.0469 l -1.38,0.7287 -0.4354,-0.8244 1.4986,-0.7911 c 0.1057,-0.056 0.1717,-0.1219 0.1974,-0.1987 z"
       style="fill:#ffffff;fill-rule:evenodd"
       id="path1495" />
    <path
       d="m 42.52685,47.8749 c -0.0676,-0.0263 -0.1274,-0.0446 -0.1796,-0.0543 -0.0512,-0.009 -0.1033,-0.009 -0.1549,0.002 -0.0509,0.0105 -0.1034,0.0354 -0.1559,0.0756 -0.0666,0.0516 -0.1135,0.12 -0.1401,0.2043 -0.0264,0.0845 -0.0274,0.1689 -0.003,0.2525 0.0239,0.0738 0.0755,0.1619 0.1539,0.2645 l 1.8543,2.4176 c 0.0907,0.1187 0.1842,0.1903 0.2807,0.2146 0.0958,0.0249 0.1843,0.006 0.265,-0.0559 0.0786,-0.0598 0.1189,-0.1395 0.122,-0.2392 0.002,-0.0998 -0.0423,-0.2099 -0.1338,-0.3301 l -1.4112,-1.8403 2.5593,0.943 c 0.0699,0.0254 0.1399,0.0499 0.2081,0.0731 0.0687,0.0231 0.1353,0.0393 0.1999,0.0464 0.0647,0.007 0.1244,0.002 0.1795,-0.0138 0.055,-0.0155 0.109,-0.0445 0.1624,-0.0855 0.2127,-0.1628 0.2135,-0.3823 0.002,-0.6571 l -1.8897,-2.465 c -0.0937,-0.121 -0.1875,-0.1929 -0.2819,-0.2166 -0.0947,-0.0229 -0.1834,-0.002 -0.2671,0.0613 -0.0808,0.062 -0.1221,0.1411 -0.1237,0.2378 -0.002,0.0966 0.0433,0.2046 0.1356,0.3241 l 1.4147,1.8451 -2.587,-0.9192 c -0.0721,-0.0298 -0.1424,-0.0576 -0.2094,-0.0845 z"
       style="fill:#ffffff;fill-rule:evenodd"
       id="path1497" />
    <path
       d="m 46.27565,45.1732 c 0.1604,-0.1758 0.3172,-0.3084 0.4688,-0.398 0.1523,-0.0885 0.3366,-0.1117 0.5543,-0.0678 0.2175,0.0434 0.468,0.194 0.7497,0.4513 0.4006,0.3665 0.5942,0.7204 0.5825,1.0627 -0.002,0.0774 -0.0189,0.1544 -0.0511,0.2315 -0.0326,0.0775 -0.0712,0.1463 -0.1152,0.2051 -0.0443,0.0589 -0.1107,0.1364 -0.1982,0.2315 l -0.3985,0.436 -1.9399,-1.7723 z m -1.1491,0.487 v 0 c 0.01,0.1035 0.0762,0.2117 0.2014,0.3264 l 2.1089,1.9275 c 0.0926,0.0851 0.1756,0.1463 0.2483,0.184 0.0723,0.0378 0.1483,0.0446 0.2279,0.0226 0.0787,-0.0221 0.1651,-0.0841 0.2585,-0.1864 l 0.6673,-0.7309 c 0.1162,-0.1265 0.212,-0.2488 0.287,-0.3656 0.0749,-0.1167 0.1318,-0.2389 0.1699,-0.3658 0.038,-0.1265 0.0565,-0.2592 0.0544,-0.3974 -0.009,-0.1708 -0.0439,-0.3366 -0.1057,-0.4986 -0.0621,-0.1607 -0.1521,-0.3199 -0.2696,-0.477 -0.1174,-0.1575 -0.2616,-0.3143 -0.4341,-0.4721 -0.522,-0.4761 -1.0343,-0.6956 -1.5373,-0.6582 -0.2045,0.0184 -0.3878,0.0793 -0.5507,0.1825 -0.1628,0.1032 -0.3318,0.2514 -0.5077,0.4437 l -0.6741,0.7377 c -0.105,0.1156 -0.1534,0.2245 -0.1444,0.3276 z"
       style="fill:#ffffff;fill-rule:evenodd"
       id="path1499" />
  </g>
  <path
     d="m 25.88455,24.8358 -3.1815,4.6804 2.2074,-0.0931 3.854,-3.8876 c 0.0183,-0.0197 0.0435,-0.027 0.0729,-0.0236 l -10e-5,-0.003 2.4196,1.696 2.2596,-2.9988 z"
     style="fill:#373732;fill-rule:evenodd;stroke:#141711;stroke-width:0.0757;stroke-linecap:butt;stroke-linejoin:round;stroke-dasharray:none"
     id="path1510" />
  <path
     d="m 32.02715,32.1425 -0.0326,-0.065 c 0,0 -2.323,-4.492 -2.619,-5.1549 -0.2963,-0.6625 -0.9051,-1.3904 -1.064,-1.2223 -0.1589,0.1682 -4.2258,4.2621 -4.2258,4.2621 0,0 0.6006,1.9139 0.8093,3.131 0.0653,0.3799 0.3749,1.9983 0.7702,4.127 0.9827,-0.3044 2.1151,-0.8127 3.2591,-1.6731 1.0217,-0.7679 2.103,-2.013 3.1028,-3.4048 z m 7.8326,15.5275 v 0 l -0.6095,-1.2084 c -1.7546,0.2609 -3.0602,0.1413 -4.0508,0.0912 -1.8915,-0.0959 -3.9859,-1.3145 -5.4137,-1.9503 -0.9215,-0.4103 -1.681,-0.3296 -2.1046,-0.2207 -0.1288,0.4127 -0.2988,0.8966 -0.508,1.3702 0.3627,2.2302 0.6303,4.1292 0.6606,5.0435 2.6965,0.1227 5.4612,-0.2742 8.1561,-1.255 1.377,-0.5012 2.6695,-1.131 3.8699,-1.8705 z"
     style="fill:#373732;fill-rule:evenodd;stroke:#141711;stroke-width:0.0757;stroke-linecap:butt;stroke-linejoin:round;stroke-dasharray:none"
     id="path1512" />
  <path
     d="m 39.99365,10.4704 c -0.5958,-0.8599 -1.2455,-1.5832 -1.9139,-2.1916 l -0.8829,0.8572 0.1525,-1.4729 c -2.4738,-1.928 -5.0239,-2.425 -5.9171,-2.5451 l -0.653,2.5981 -0.3728,-2.2936 -0.0916,-0.3435 c 0,0 -2.9124,0.2758 -4.2339,1.2931 -1.5464,1.1905 -3.4177,4.2291 -3.3689,10.017 0.0482,5.7881 3.0772,8.4545 3.0772,8.4545 l 7.7719,-0.6413 c 0.3817,-0.8405 -0.016,-1.3283 0.2037,-4.2011 0.2201,-2.8727 2.6431,-5.7771 5.3389,-5.2862 2.696,0.4909 3.6424,3.5444 3.6424,3.5444 0,0 0.7549,-2.7237 -2.7525,-7.789 z"
     style="fill:#e30919;fill-rule:evenodd;stroke:#141711;stroke-width:0.0757;stroke-linecap:butt;stroke-linejoin:round;stroke-dasharray:none"
     id="path1514" />
  <path
     d="m 26.40585,6.1303 c 0,0 -3.1449,1.6396 -6.0973,5.8097 0,0 -1.9038,4.2559 -1.1902,8.068 l 1.6296,-0.9644 c 0,0 0.8531,-1.6186 1.9629,-2.8596 -0.003,-5.655 1.8421,-8.6353 3.3701,-9.8119 0.0986,-0.0757 0.2058,-0.1476 0.3203,-0.2154 z"
     style="fill:#e30919;fill-rule:evenodd;stroke:#141711;stroke-width:0.0757;stroke-linecap:butt;stroke-linejoin:round;stroke-dasharray:none"
     id="path1516" />
  <path
     d="m 25.78925,24.8436 7.7719,-0.6413 c 0.3642,-0.8016 0.0188,-1.2831 0.177,-3.8213 -0.3337,-1.6096 -1.9385,-4.9035 -5.4676,-5.7262 -3.222,-0.751 -5.0501,0.9228 -5.5596,1.4873 0,0.082 0,0.1645 0.001,0.247 0.0482,5.7881 3.0772,8.4545 3.0772,8.4545 z"
     style="fill:#373732;fill-rule:evenodd;stroke:#141711;stroke-width:0.0757;stroke-linecap:butt;stroke-linejoin:round;stroke-dasharray:none"
     id="path1518" />
  <path
     d="m 21.17215,18.8482 1.1145,3.515 -7.5404,-0.3095 c 0,0 2.0566,-0.8289 3.497,-1.5677 1.4405,-0.7385 2.9289,-1.6378 2.9289,-1.6378 z"
     style="fill:#ffe000;fill-rule:evenodd;stroke:#141711;stroke-width:0.0757;stroke-linecap:butt;stroke-linejoin:round;stroke-dasharray:none"
     id="path1520" />
  <path
     d="m 14.83215,22.0634 -1.417,2.9095 6.1493,0.5681 2.6493,-3.1512 -0.0452,-0.0315 -7.3092,-0.3002 z"
     style="fill:#f59800;fill-rule:evenodd;stroke:#141711;stroke-width:0.0757;stroke-linecap:butt;stroke-linejoin:round;stroke-dasharray:none"
     id="path1522" />
  <path
     d="m 22.28665,22.3632 2.224,3.7298 -3.4618,0.8064 z"
     style="fill:#ffe000;fill-rule:evenodd;stroke:#141711;stroke-width:0.0757;stroke-linecap:butt;stroke-linejoin:round;stroke-dasharray:none"
     id="path1524" />
  <path
     d="m 19.57605,25.5273 -1.5539,5.074 3.1086,-3.7212 -0.0819,0.0193 1.1669,-4.2775 0.0463,-0.2497 -0.1059,0.0859 z"
     style="fill:#ffe000;fill-rule:evenodd;stroke:#141711;stroke-width:0.0757;stroke-linecap:butt;stroke-linejoin:round;stroke-dasharray:none"
     id="path1526" />
  <path
     d="m 18.09495,30.5747 4.4353,-1.9861 1.9076,-2.4691 -0.0423,0.001 -3.2648,0.7595 -2.9095,3.4824 z"
     style="fill:#f59800;fill-rule:evenodd;stroke:#141711;stroke-width:0.0757;stroke-linecap:butt;stroke-linejoin:round;stroke-dasharray:none"
     id="path1528" />
  <path
     d="m 24.94325,28.35 c 0.0618,0.1698 0.1647,0.3182 0.3024,0.4443 l 3.0659,-3.094 c 0.0184,-0.0196 0.0435,-0.027 0.073,-0.0236 l -10e-5,-0.003 3.1887,0.158 c -0.436,-0.9203 -2.1688,-1.148 -3.9525,-0.4988 -1.8411,0.6701 -3.0399,2.0209 -2.6774,3.017 z"
     style="fill:#373732;fill-rule:evenodd;stroke:#141711;stroke-width:0.0757;stroke-linecap:butt;stroke-linejoin:round;stroke-dasharray:none"
     id="path1530" />
  <path
     d="m 29.96975,34.6235 c 0.2827,-0.2842 0.5664,-0.5955 0.8484,-0.9267 l -1.6205,-3.8617 -1.1662,-0.0294 -0.0373,0.0734 0.0505,-0.0372 z"
     style="fill:#141711;fill-rule:evenodd;stroke:#141711;stroke-width:0.0757;stroke-linecap:butt;stroke-linejoin:round;stroke-dasharray:none"
     id="path1532" />
  <path
     d="m 29.96975,34.6235 -1.9251,-4.7816 -2.5734,1.8863 1.3272,5.0683 c 0.6805,-0.2999 1.401,-0.7036 2.1259,-1.2492 0.3435,-0.2582 0.6937,-0.5703 1.0454,-0.9238 z"
     style="fill:#373732;fill-rule:evenodd;stroke:#141711;stroke-width:0.0757;stroke-linecap:butt;stroke-linejoin:round;stroke-dasharray:none"
     id="path1534" />
  <path
     d="m 27.68975,49.2433 c -0.1185,-0.9543 -0.3005,-2.1639 -0.5166,-3.4913 -0.4159,0.9437 -0.9875,1.848 -1.7034,2.0722 -0.4817,0.1509 -0.9586,0.1086 -1.3908,-0.0259 -0.4749,0.0395 -0.5207,-0.3513 -0.5207,-0.3513 0.3356,-0.501 0.5587,-1.8795 0.6834,-2.9076 -0.5004,0.9846 -1.7816,3.208 -3.4788,3.968 2.0034,0.6305 4.3023,0.9382 6.9269,0.7359 z m -10.8059,-2.5328 v 0 c 0.5918,0.3722 1.2215,0.7178 1.8905,1.0273 0.0699,-0.0968 0.1465,-0.2056 0.232,-0.3264 0.4733,-0.6732 0.635,-1.3818 0.6818,-1.9014 -0.614,0.544 -1.6302,1.2351 -2.8043,1.2005 z m 7.5781,-15.4577 v 0 c -0.3897,0.9276 -1.4363,2.5781 -4.1217,3.4984 -3.8768,1.3285 -5.4342,0.2993 -6.7651,-0.2204 0,0 0.7253,-0.388 0.8545,-0.6 0,0 1.3783,0.007 2.4151,-0.5076 1.037,-0.5146 0.795,-1.2935 0.473,-1.9879 -0.3217,-0.6948 -1.0274,-1.6895 -1.0274,-1.6895 0,0 0.3215,0.0894 0.0991,-0.4075 -0.2223,-0.4971 -0.4189,-2.0213 -1.6542,-2.6174 0,0 0.1954,-0.1813 0.0164,-0.7486 -0.1789,-0.5678 -0.1946,-0.5347 -0.5326,-0.7189 l -1.2565,-0.1158 0.3606,-0.7409 c -0.3392,0.0158 -1.5658,0.3404 -2.501,0.9834 0,0 -0.5533,-1.7106 -1.4385,-2.3652 -0.8849,-0.6547 -1.2293,-0.6948 -1.5905,-0.742 -0.3608,-0.0473 -0.92,-0.1467 -1.2522,-0.0394 -0.3324,0.1073 -0.4771,0.8065 -0.3938,0.845 0.0828,0.0386 1.2262,1.4796 1.4153,2.4149 0.1892,0.9354 -0.0801,1.7077 -0.2143,2.4719 -0.1347,0.7643 0.2331,3.2858 0.3525,4.37 0.1196,1.0846 0.6547,3.311 1.3499,4.9567 0.3986,0.9424 2.2344,5.0799 6.1765,8.2384 0.1426,-0.1579 0.3643,-0.356 0.6809,-0.623 0.9473,-0.7987 1.4432,-2.0799 1.6854,-2.9658 0.2415,-0.8859 1.2407,-3.2032 1.6351,-3.4429 0.3943,-0.2396 1.1463,-0.7061 1.1463,-0.7061 l 0.0164,0.012 c 0.0648,-0.0355 0.1322,-0.0661 0.202,-0.0915 0.8381,-0.3051 1.5429,0.0441 2.5875,-0.0338 0.5414,-0.0401 1.4268,-0.1315 2.4846,-0.4589 -0.3953,-2.1287 -0.7049,-3.7471 -0.7702,-4.127 -0.0946,-0.5515 -0.2697,-1.2458 -0.4331,-1.8406 z"
     style="fill:#373732;fill-rule:evenodd;stroke:#141711;stroke-width:0.0757;stroke-linecap:butt;stroke-linejoin:round;stroke-dasharray:none"
     id="path1536" />
  <path
     d="m 27.68975,49.2433 c -2.6246,0.2023 -4.9235,-0.1054 -6.9269,-0.7359 -0.5666,0.2538 -1.1786,0.345 -1.8237,0.1729 -0.6264,0.1139 -0.8102,-0.0859 -0.8316,-0.1129 0.0128,0.005 0.0974,-0.0374 0.6668,-0.8296 -0.669,-0.3095 -1.2987,-0.6551 -1.8905,-1.0273 l -0.0312,-0.001 c -1.273,-0.0506 -1.4318,-0.5373 -1.2607,-0.8937 -0.1274,0.2661 -0.0713,0.6047 0.4952,0.7805 -0.2107,-0.0439 -0.6644,-0.1598 -0.9046,-0.3934 -0.2123,-0.2065 -0.2407,-0.3584 0.0445,-0.6725 -3.9421,-3.1585 -5.7779,-7.296 -6.1765,-8.2384 -0.6952,-1.6457 -1.2303,-3.8721 -1.3499,-4.9567 -0.1194,-1.0842 -0.4872,-3.6057 -0.3525,-4.37 0.1342,-0.7642 0.4035,-1.5365 0.2143,-2.4719 -0.1891,-0.9353 -1.3325,-2.3763 -1.4153,-2.4149 -0.0385,-0.0176 -0.0282,-0.1783 0.0276,-0.3563 -0.4956,0.5591 -0.3717,1.2246 -0.3717,1.2246 0.6659,0.5827 1.2099,2.5308 1.0775,3.0742 -0.1326,0.5435 -0.2149,1.5641 -0.1286,2.0279 0.0863,0.4638 0.3184,0.8746 0.0997,1.4081 -0.2181,0.5336 0.1077,3.469 0.6481,5.2945 0.5406,1.8257 2.2921,8.4518 8.6474,12.0813 5.2635,3.0062 10.1197,2.4809 11.6324,2.2116 -0.0234,-0.2403 -0.054,-0.5087 -0.0898,-0.8011 z"
     style="fill:#141711;fill-rule:evenodd;stroke:#141711;stroke-width:0.0757;stroke-linecap:butt;stroke-linejoin:round;stroke-dasharray:none"
     id="path1538" />
  <path
     d="m 35.16885,16.4843 c 0.3503,-0.0587 2.9274,-0.3787 5.2418,2.5012 0,0 0.2984,0.5932 0.7453,0.348 0.4473,-0.2457 1.5403,-1.0974 1.5403,-1.0974 l -0.051,-0.2515 c -0.3064,-0.7606 -1.3411,-2.8688 -3.5415,-3.2696 -1.5107,-0.2744 -2.9353,0.5158 -3.9349,1.7693 z"
     style="fill:#ca061a;fill-rule:evenodd;stroke:#141711;stroke-width:0.0757;stroke-linecap:butt;stroke-linejoin:round;stroke-dasharray:none"
     id="path1540" />
  <path
     d="m 14.22525,34.1267 c 0.926,0.0807 2.2387,0.1427 2.5863,-0.1138 0.4594,-0.338 0.64,-0.9735 0.688,-1.1797 -0.1057,0.2178 -0.309,0.4184 -0.6548,0.59 -1.0368,0.515 -2.4151,0.5076 -2.4151,0.5076 -0.0343,0.056 -0.1104,0.1251 -0.2044,0.1959 z"
     style="fill:#141711;fill-rule:evenodd;stroke:#141711;stroke-width:0.0757;stroke-linecap:butt;stroke-linejoin:round;stroke-dasharray:none"
     id="path1542" />
  <path
     d="m 24.24165,44.5394 c -0.1247,1.0281 -0.3478,2.4066 -0.6834,2.9076 0,0 0.0458,0.3908 0.5207,0.3513 -0.0247,-0.008 -0.0494,-0.0156 -0.0738,-0.024 0,0 0.7715,-2.4216 0.4661,-3.7138 0,0 -0.0797,0.1836 -0.2296,0.4789 z m -4.5535,0.9706 v 0 c -0.0468,0.5196 -0.2085,1.2282 -0.6818,1.9014 -0.7791,1.108 -0.8846,1.1612 -0.8988,1.156 0.0214,0.027 0.2052,0.2268 0.8316,0.1129 -0.0644,-0.0173 -0.1292,-0.0367 -0.1941,-0.0593 0,0 -0.0197,-0.1304 0.1886,-0.2751 0.2082,-0.1451 1.3324,-1.5169 1.3769,-3.4726 0,0 -0.2287,0.2883 -0.6224,0.6367 z m 0.6866,-7.7174 v 0 c 0,0 -0.752,0.4665 -1.1463,0.7061 -0.3944,0.2397 -1.3936,2.557 -1.6351,3.4429 -0.2422,0.8859 -0.7381,2.1671 -1.6854,2.9658 -0.9472,0.7986 -1.0446,0.9856 -0.7254,1.2955 0.2402,0.2336 0.6939,0.3495 0.9046,0.3934 -0.9644,-0.2994 -0.4497,-1.07 -0.0668,-1.1522 0.4595,-0.0984 1.3538,-1.0426 1.6892,-2.3893 0.3351,-1.3463 0.8339,-2.6974 1.1844,-3.3204 0.3217,-0.5709 0.7774,-1.5379 1.4972,-1.9298 z"
     style="fill:#141711;fill-rule:evenodd;stroke:#141711;stroke-width:0.0757;stroke-linecap:butt;stroke-linejoin:round;stroke-dasharray:none"
     id="path1544" />
  <path
     d="m 27.68115,44.3818 c 0.4236,-0.1089 1.1831,-0.1896 2.1046,0.2207 1.4278,0.6358 3.5222,1.8544 5.4137,1.9503 1.892,0.0954 4.9355,0.4457 10.051,-2.09 l -0.0585,-0.0163 c -0.6255,0.3113 -1.3088,0.5777 -2.0549,0.7855 -7.7549,2.1618 -11.2977,-0.8818 -12.0928,-1.253 -0.7952,-0.3707 -1.7827,-1.0432 -3.0612,-0.7014 0,0 -0.1025,0.4675 -0.3019,1.1042 z"
     style="fill:#141711;fill-rule:evenodd;stroke:#141711;stroke-width:0.0757;stroke-linecap:butt;stroke-linejoin:round;stroke-dasharray:none"
     id="path1546" />
  <path
     d="m 16.29035,29.7458 c 0,0 -0.5326,-0.3293 -1.4414,-0.2187 -0.9087,0.1109 -1.4406,0.6898 -1.4406,0.6898"
     style="fill:none;stroke:#141711;stroke-width:0.0757;stroke-linecap:round;stroke-linejoin:round;stroke-dasharray:none"
     id="path1548" />
  <path
     d="m 14.81055,33.0496 c 0,0 -0.1351,0.3589 -0.5098,0.6726 -0.2165,0.1814 -0.512,0.3475 -0.9077,0.4209"
     style="fill:none;stroke:#141711;stroke-width:0.0757;stroke-linecap:round;stroke-linejoin:round;stroke-dasharray:none"
     id="path1550" />
  <path
     d="m 45.79255,35.5417 c -0.2406,-0.2585 -0.6441,-0.269 -0.9013,-0.0237 -0.2572,0.2454 -0.2711,0.6537 -0.0311,0.9117 0.2401,0.2583 0.644,0.2686 0.9014,0.0237 0.2572,-0.2454 0.271,-0.6539 0.031,-0.9117 z"
     style="fill:#ffffff;fill-rule:evenodd"
     id="path1552" />
  <path
     d="m 32.39255,41.3847 c -0.24,-0.259 -0.6437,-0.2691 -0.901,-0.024 -0.2573,0.2454 -0.2709,0.6538 -0.031,0.9117 0.2408,0.2586 0.6435,0.2687 0.9013,0.0238 0.2574,-0.2449 0.2708,-0.6533 0.0307,-0.9115 z"
     style="fill:#e30919;fill-rule:evenodd"
     id="path1554" />
  <path
     d="m 48.52525,34.9828 c -0.2402,-0.2582 -0.6437,-0.2689 -0.9009,-0.0234 -0.2573,0.245 -0.2709,0.6534 -0.0308,0.9116 0.2406,0.2583 0.6434,0.2688 0.9012,0.0237 0.2573,-0.2456 0.2707,-0.6535 0.0305,-0.9119 z"
     style="fill:#e30919;fill-rule:evenodd"
     id="path1556" />
  <path
     d="m 44.46095,36.8108 c -0.2403,-0.2586 -0.6435,-0.269 -0.901,-0.0237 -0.2573,0.245 -0.2714,0.6535 -0.0308,0.9116 0.2403,0.2586 0.6436,0.2687 0.9009,0.0237 0.2572,-0.2453 0.2714,-0.6537 0.0309,-0.9116 z"
     style="fill:#ffffff;fill-rule:evenodd"
     id="path1558" />
  <path
     d="m 47.03505,36.8774 c -0.2401,-0.258 -0.6433,-0.2684 -0.9008,-0.0231 -0.2573,0.2449 -0.2713,0.6535 -0.0308,0.9116 0.2402,0.2584 0.6434,0.2688 0.9007,0.0238 0.2574,-0.2456 0.2715,-0.6538 0.0309,-0.9123 z"
     style="fill:#ffffff;fill-rule:evenodd"
     id="path1560" />
  <path
     d="m 45.70395,38.1464 c -0.24,-0.258 -0.6436,-0.2687 -0.901,-0.0228 -0.257,0.2448 -0.2709,0.6531 -0.0311,0.9116 0.2405,0.2581 0.644,0.2686 0.9013,0.0237 0.2571,-0.2458 0.2715,-0.654 0.0308,-0.9125 z"
     style="fill:#ffffff;fill-rule:evenodd"
     id="path1562" />
  <path
     d="m 37.91195,30.1315 c -0.1957,-0.3002 -0.596,-0.38 -0.8944,-0.1792 -0.2977,0.2011 -0.3799,0.6067 -0.1844,0.9065 0.1961,0.2994 0.5965,0.3798 0.8944,0.179 0.298,-0.2006 0.3805,-0.6067 0.1844,-0.9063 z"
     style="fill:#3664aa;fill-rule:evenodd"
     id="path1564" />
  <path
     d="m 36.37095,31.1705 c -0.1962,-0.2996 -0.5968,-0.3797 -0.8945,-0.1785 -0.2978,0.2007 -0.3805,0.6062 -0.1842,0.9062 0.1964,0.2999 0.5963,0.3799 0.8945,0.1787 0.2978,-0.2007 0.3803,-0.6069 0.1842,-0.9064 z"
     style="fill:#3664aa;fill-rule:evenodd"
     id="path1566" />
  <path
     d="m 38.89295,31.5555 c -0.1963,-0.2995 -0.5967,-0.3797 -0.8945,-0.1788 -0.2979,0.2008 -0.3805,0.6066 -0.1843,0.9061 0.1963,0.2999 0.5964,0.3802 0.8942,0.1791 0.2982,-0.2011 0.3807,-0.6068 0.1846,-0.9064 z"
     style="fill:#3664aa;fill-rule:evenodd"
     id="path1568" />
  <path
     d="m 33.98465,42.3204 c -0.0913,0.3444 0.1103,0.6962 0.4499,0.7853 0.3399,0.0897 0.6889,-0.1174 0.7803,-0.4617 0.0912,-0.3444 -0.1104,-0.6962 -0.45,-0.7853 -0.3394,-0.0896 -0.6888,0.1174 -0.7802,0.4617 z"
     style="fill:#ffce00;fill-rule:evenodd"
     id="path1570" />
  <path
     d="m 35.74175,42.783 c -0.0908,0.3442 0.1104,0.6961 0.4499,0.7853 0.3397,0.089 0.6893,-0.1175 0.7807,-0.4619 0.0909,-0.3442 -0.1103,-0.6962 -0.4505,-0.7855 -0.3393,-0.0895 -0.6887,0.1177 -0.7801,0.4621 z"
     style="fill:#ffce00;fill-rule:evenodd"
     id="path1572" />
  <path
     d="m 34.45665,40.5388 c -0.0913,0.3443 0.1101,0.6958 0.4496,0.7856 0.3401,0.089 0.6896,-0.1178 0.7805,-0.462 0.0911,-0.3449 -0.1103,-0.6962 -0.4501,-0.7857 -0.3391,-0.0892 -0.6888,0.1174 -0.78,0.4621 z"
     style="fill:#ffce00;fill-rule:evenodd"
     id="path1574" />
  <path
     d="m 36.21345,41.0006 c -0.0907,0.3446 0.1104,0.6962 0.4501,0.7857 0.3398,0.0892 0.6889,-0.1174 0.7801,-0.4622 0.0913,-0.3441 -0.11,-0.6955 -0.45,-0.7852 -0.3392,-0.0892 -0.6887,0.1173 -0.7802,0.4617 z"
     style="fill:#ffce00;fill-rule:evenodd"
     id="path1576" />
  <path
     d="m 44.93345,43.1022 c -0.0648,-0.2451 -0.3146,-0.3889 -0.5573,-0.3216 -0.243,0.068 -0.387,0.3217 -0.3222,0.5669 0.0651,0.2455 0.3142,0.389 0.5571,0.3215 0.2433,-0.0679 0.3874,-0.3212 0.3224,-0.5668 z"
     style="fill:#ffffff;fill-rule:evenodd"
     id="path1578" />
  <path
     d="m 42.59405,43.9835 c -0.0649,-0.2456 -0.3143,-0.3895 -0.5574,-0.3214 -0.2429,0.0678 -0.3874,0.3212 -0.3224,0.5668 0.065,0.2452 0.3147,0.3888 0.5575,0.3211 0.2432,-0.0677 0.3872,-0.3218 0.3223,-0.5665 z"
     style="fill:#ffffff;fill-rule:evenodd"
     id="path1580" />
  <path
     d="m 40.16425,44.3833 c -0.065,-0.2456 -0.3147,-0.3893 -0.5575,-0.3213 -0.2429,0.0677 -0.3877,0.3213 -0.3223,0.5669 0.0649,0.2451 0.3145,0.3887 0.5574,0.3209 0.2429,-0.0675 0.3873,-0.3214 0.3224,-0.5665 z"
     style="fill:#ffffff;fill-rule:evenodd"
     id="path1582" />
  <path
     d="m 37.70415,44.5056 c -0.0649,-0.2456 -0.3145,-0.3887 -0.5571,-0.3215 -0.2432,0.0679 -0.3872,0.3214 -0.3223,0.567 0.0648,0.2451 0.3143,0.389 0.5572,0.3214 0.2431,-0.0681 0.3872,-0.3216 0.3222,-0.5669 z"
     style="fill:#ffffff;fill-rule:evenodd"
     id="path1584" />
  <path
     d="m 35.59435,44.234 c -0.0649,-0.2452 -0.3143,-0.3891 -0.5571,-0.3216 -0.2432,0.068 -0.3873,0.3217 -0.3224,0.5668 0.0651,0.2455 0.3147,0.3889 0.5573,0.3217 0.243,-0.0681 0.3873,-0.3214 0.3222,-0.5669 z"
     style="fill:#ffffff;fill-rule:evenodd"
     id="path1586" />
  <path
     d="m 35.33315,28.6947 c 0.0922,0.2385 0.3572,0.357 0.5912,0.2651 0.2347,-0.0928 0.3495,-0.3605 0.2576,-0.599 -0.093,-0.2387 -0.3574,-0.3574 -0.5921,-0.265 -0.2348,0.0926 -0.3495,0.3607 -0.2567,0.5989 z"
     style="fill:#ffffff;fill-rule:evenodd"
     id="path1588" />
  <path
     d="m 39.76395,34.8234 c 0,0 -0.9868,-1.2827 -2.0949,-0.347 -1.1173,0.9434 -0.1223,2.2931 -0.1223,2.2931 0,0 -1.3081,-0.6319 -2.028,0.1784 -0.7238,0.8137 -0.9939,2.2121 0.7525,2.61 1.7237,0.3926 3.5669,-1.3857 4.9438,-0.4824 0,0 -0.3771,-0.6156 -0.6182,-1.5542 -0.1993,-0.7741 -0.1862,-1.7826 -0.8329,-2.6979 z"
     style="fill:#e30919;fill-rule:evenodd;stroke:#1b1918;stroke-width:0.0757;stroke-linecap:butt;stroke-linejoin:round;stroke-dasharray:none"
     id="path1590" />
  <path
     d="m 43.49885,33.7612 c 0.2156,0.011 0.4192,0.1292 0.5274,0.3299 0.1647,0.3071 0.0451,0.6912 -0.2676,0.8592 -0.2159,0.1163 -0.4666,0.0986 -0.6566,-0.0237 0.0874,-0.0771 0.1655,-0.1678 0.231,-0.2712 0.1753,-0.2788 0.226,-0.5985 0.1658,-0.8942 z m -1.1959,-1.5154 v 0 c 0.3147,-0.1661 0.7032,-0.0509 0.8686,0.257 0.1102,0.2042 0.0932,0.4426 -0.0218,0.6279 -0.0618,-0.0582 -0.1301,-0.1111 -0.2062,-0.1574 -0.3043,-0.1858 -0.6613,-0.2251 -0.9847,-0.137 -0.01,-0.2368 0.1162,-0.4708 0.3441,-0.5905 z m 0.1733,2.9803 v 0 c 0.0106,0.2384 -0.1159,0.4752 -0.3443,0.598 -0.317,0.1696 -0.7087,0.0572 -0.8752,-0.2514 -0.13,-0.2407 -0.0851,-0.5294 0.0907,-0.725 0.0763,0.083 0.166,0.1566 0.2674,0.2181 0.2674,0.1616 0.573,0.2099 0.8614,0.1603 z m -1.8103,-2.1182 v 0 c 0.2406,-0.1268 0.523,-0.0917 0.7187,0.0666 -0.0592,0.0605 -0.1125,0.1276 -0.1597,0.2013 -0.183,0.2871 -0.2329,0.6175 -0.1647,0.9213 -0.2644,0.0411 -0.5363,-0.0812 -0.6679,-0.3246 -0.1671,-0.3097 -0.0443,-0.6967 0.2736,-0.8646 z"
     style="fill:#ffce00;fill-rule:evenodd"
     id="path1592" />
  <path
     d="m 43.09935,34.514 c 0.2837,-0.4486 0.1483,-1.0343 -0.3025,-1.3091 -0.4519,-0.2753 -1.0506,-0.1356 -1.3369,0.314 -0.2872,0.4497 -0.151,1.0387 0.3032,1.3134 0.4539,0.2745 1.0517,0.1309 1.3362,-0.3183 z"
     style="fill:#ffce00;fill-rule:evenodd"
     id="path1594" />
  <path
     d="m 33.99215,35.7086 c 0.2132,0.0105 0.4145,0.1304 0.5219,0.3341 0.1643,0.3116 0.0468,0.7 -0.2618,0.8688 -0.2125,0.1161 -0.4603,0.0974 -0.6477,-0.0267 0.0862,-0.0775 0.1627,-0.169 0.2262,-0.2729 0.1728,-0.2814 0.2219,-0.6043 0.1614,-0.9033 z m -1.1831,-1.5319 v 0 c 0.309,-0.1686 0.692,-0.0533 0.856,0.2575 0.1091,0.2071 0.0938,0.448 -0.0193,0.6362 -0.0608,-0.059 -0.1285,-0.1126 -0.2033,-0.1593 -0.301,-0.1875 -0.6515,-0.2262 -0.9682,-0.1361 -0.0112,-0.2395 0.1116,-0.4761 0.3348,-0.5983 z m 0.1819,3.0079 v 0 c 0.0111,0.2395 -0.1122,0.4772 -0.3355,0.5995 -0.3092,0.1684 -0.6922,0.0531 -0.8562,-0.2577 -0.1278,-0.2419 -0.0851,-0.5309 0.0859,-0.7268 0.0743,0.0835 0.162,0.1576 0.2617,0.2202 0.2618,0.1626 0.561,0.2136 0.8441,0.1648 z m -1.7787,-2.1354 v 0 c 0.2335,-0.1271 0.5093,-0.0926 0.7016,0.067 -0.0578,0.0607 -0.1098,0.1278 -0.1554,0.2022 -0.1774,0.289 -0.2239,0.6213 -0.1563,0.9266 -0.2578,0.0411 -0.5228,-0.0825 -0.6521,-0.3273 -0.1639,-0.3108 -0.0465,-0.6996 0.2622,-0.8685 z"
     style="fill:#ffffff;fill-rule:evenodd"
     id="path1596" />
  <path
     d="m 33.60065,36.4682 c 0.2783,-0.453 0.1432,-1.0451 -0.3023,-1.3227 -0.4451,-0.2778 -1.0313,-0.1357 -1.3098,0.3169 -0.2784,0.4526 -0.1432,1.0449 0.3024,1.3227 0.4451,0.2777 1.0314,0.1358 1.3097,-0.3169 z"
     style="fill:#ffffff;fill-rule:evenodd"
     id="path1598" />
  <path
     d="m 42.30705,40.1327 c 0.1551,-0.1526 0.3828,-0.2222 0.6065,-0.1631 0.34,0.0892 0.5415,0.4408 0.4503,0.7851 -0.0636,0.2386 -0.2501,0.4111 -0.4713,0.4652 0.006,-0.2222 -0.047,-0.4482 -0.1649,-0.6537 -0.1062,-0.1848 -0.2519,-0.3303 -0.4206,-0.4335 z m -1.9309,-0.1639 v 0 c 0.0914,-0.3442 0.4409,-0.5509 0.7805,-0.4618 0.2269,0.0597 0.392,0.2363 0.4495,0.4505 -0.1888,0.0107 -0.3785,0.066 -0.5534,0.1703 -0.2081,0.123 -0.3675,0.2983 -0.4716,0.4993 -0.1832,-0.1543 -0.2712,-0.408 -0.205,-0.6583 z m 2.3095,1.9085 v 0 c 0.1835,0.1544 0.2727,0.4089 0.2061,0.659 -0.0912,0.3448 -0.4408,0.5514 -0.7801,0.4622 -0.2654,-0.0695 -0.4463,-0.3 -0.4694,-0.5617 0.2165,0.003 0.4369,-0.0525 0.6374,-0.1721 0.1683,-0.0996 0.3049,-0.2331 0.406,-0.3874 z m -2.781,-0.1267 v 0 c 0.0694,-0.2614 0.2873,-0.4434 0.5367,-0.4768 0.0103,0.189 0.0637,0.378 0.1639,0.5522 0.1094,0.1918 0.2628,0.3423 0.4403,0.4456 -0.1487,0.2209 -0.4226,0.3349 -0.6914,0.2644 -0.3396,-0.0891 -0.5407,-0.4406 -0.4495,-0.7854 z"
     style="fill:#3664aa;fill-rule:evenodd"
     id="path1600" />
  <path
     d="m 42.59005,40.9382 c -0.1367,-0.5147 -0.6606,-0.8168 -1.1704,-0.6748 -0.5105,0.1425 -0.8134,0.6755 -0.6774,1.1904 0.1366,0.5149 0.6607,0.8173 1.1709,0.6751 0.5102,-0.1425 0.8135,-0.6756 0.6769,-1.1907 z"
     style="fill:#3664aa;fill-rule:evenodd"
     id="path1602" />
  <path
     d="m 28.80315,38.8572 c 0.155,-0.1526 0.3827,-0.2222 0.6063,-0.1635 0.34,0.0894 0.5414,0.4415 0.45,0.7856 -0.0632,0.2384 -0.2496,0.411 -0.4709,0.4651 0.006,-0.2223 -0.0469,-0.4483 -0.1648,-0.6537 -0.1062,-0.1848 -0.2519,-0.3304 -0.4206,-0.4335 z m -1.931,-0.164 v 0 c 0.0914,-0.3441 0.4407,-0.5513 0.7802,-0.4617 0.2273,0.0597 0.3924,0.2362 0.4499,0.4505 -0.1889,0.0106 -0.3786,0.066 -0.5534,0.1702 -0.2082,0.1231 -0.3679,0.2984 -0.4716,0.4993 -0.1832,-0.1543 -0.2713,-0.408 -0.2051,-0.6583 z m 2.3095,1.9086 v 0 c 0.1836,0.1543 0.2728,0.4088 0.2061,0.659 -0.0912,0.3448 -0.4407,0.5516 -0.78,0.4621 -0.2655,-0.0697 -0.4464,-0.2999 -0.4694,-0.5616 0.2164,0.003 0.4369,-0.0526 0.6373,-0.1721 0.1682,-0.0996 0.3049,-0.2332 0.406,-0.3874 z m -2.7814,-0.1266 v 0 c 0.0698,-0.2616 0.2878,-0.4436 0.5372,-0.477 0.0101,0.1889 0.0632,0.3782 0.1634,0.5524 0.1098,0.1916 0.2634,0.3421 0.4407,0.4455 -0.1487,0.2208 -0.4225,0.3349 -0.6914,0.2644 -0.3396,-0.0891 -0.5409,-0.4406 -0.4499,-0.7853 z"
     style="fill:#3664aa;fill-rule:evenodd"
     id="path1604" />
  <path
     d="m 29.08565,39.6628 c -0.1362,-0.515 -0.6602,-0.817 -1.1704,-0.6748 -0.5101,0.1424 -0.813,0.6754 -0.6769,1.1903 0.1365,0.5149 0.6607,0.8172 1.1708,0.675 0.5101,-0.1424 0.8135,-0.6755 0.6765,-1.1905 z"
     style="fill:#3664aa;fill-rule:evenodd"
     id="path1606" />
  <path
     d="m 21.17215,18.8482 1.1145,3.515 2.224,3.7298 -0.1151,0.0276 0.0423,-0.001 -1.9076,2.4691 -0.3232,0.1446 c 0.1573,0.2623 0.3225,0.5236 0.496,0.783 l 3.1815,-4.6804 -0.0953,0.008 c 0,0 -3.029,-2.6664 -3.0772,-8.4545 -7e-4,-0.0686 -0.001,-0.1377 -0.001,-0.2051 -1.1098,1.241 -1.9629,2.8596 -1.9629,2.8596 z"
     style="fill:#373732;fill-rule:evenodd;stroke:#141711;stroke-width:0.0757;stroke-linecap:butt;stroke-linejoin:round;stroke-dasharray:none"
     id="path1608" />
  <path
     d="m 30.40645,5.4225 0.3728,2.2936 0.6591,-2.6213 z"
     style="fill:#ca061a;fill-rule:evenodd;stroke:#141711;stroke-width:0.0757;stroke-linecap:butt;stroke-linejoin:round;stroke-dasharray:none"
     id="path1610" />
  <path
     d="m 14.73525,26.7209 c 0,0 -1.5612,-0.2847 -3.9518,1.7273"
     style="fill:none;stroke:#141711;stroke-width:0.0757;stroke-linecap:round;stroke-linejoin:round;stroke-dasharray:none"
     id="path1612" />
  <path
     d="m 10.82215,25.3801 c 0,0 -0.5499,0.3027 -0.8876,0.7358"
     style="fill:none;stroke:#141711;stroke-width:0.0757;stroke-linecap:round;stroke-linejoin:round;stroke-dasharray:none"
     id="path1614" />
  <path
     d="m 14.39345,33.944 c 0,0 0.0718,-0.1705 -0.1029,-0.169"
     style="fill:none;stroke:#141711;stroke-width:0.0757;stroke-linecap:round;stroke-linejoin:round;stroke-dasharray:none"
     id="path1616" />
  <path
     d="m 24.34735,18.1711 c 0.4191,-1.1683 1.9167,-1.6933 3.3392,-1.1723 1.4175,0.5191 2.2193,1.8802 1.7966,3.0377 -0.4218,1.1553 -1.9051,1.6784 -3.319,1.1692 -1.4189,-0.5113 -2.2346,-1.8693 -1.8168,-3.0346 z"
     style="fill:#ffffff;fill-rule:evenodd;stroke:#141711;stroke-width:0.0757;stroke-linecap:butt;stroke-linejoin:round;stroke-dasharray:none"
     id="path1618" />
  <path
     d="m 37.28955,8.2563 -0.0927,0.8797 0.8842,-0.8585 z"
     style="fill:#ca061a;fill-rule:evenodd;stroke:#141711;stroke-width:0.0757;stroke-linecap:butt;stroke-linejoin:round;stroke-dasharray:none"
     id="path1620" />
  <path
     d="m 25.70705,19.9794 c 0.1035,0.1316 0.2314,0.2411 0.3732,0.3257 l 0.3916,0.1601 c 0.3292,0.0801 0.6761,0.0368 0.9397,-0.1609 0.498,-0.3739 0.507,-1.1593 0.0985,-1.6798 -0.4089,-0.5207 -1.1435,-0.6397 -1.6412,-0.2658 -0.1161,0.0871 -0.2835,0.26 -0.3146,0.4778 0.211,0.0898 0.6395,0.3586 0.6395,0.3586 0,0 -0.4645,0.0456 -0.7483,0.1185 0.017,0.2309 0.1031,0.4637 0.2616,0.6658 z"
     style="fill:#141711;fill-rule:evenodd;stroke:#141711;stroke-width:0.0757;stroke-linecap:butt;stroke-linejoin:round;stroke-dasharray:none"
     id="path1622" />
  <path
     d="m 39.25025,46.4616 0.4467,0.8859 0.175,0.3151 c 1.0139,-0.6259 1.9615,-1.3301 2.8381,-2.1021 -1.3153,0.4799 -2.4606,0.7524 -3.4598,0.9011 z M 28.38445,25.6738 v 0 l 10e-5,0.003 c 0.2242,0.0253 0.7294,0.6609 0.991,1.2459 0.296,0.6629 2.619,5.1549 2.619,5.1549 l 0.0326,0.065 c 1.3126,-1.8271 2.485,-3.9071 3.1942,-5.4921 l -0.4497,-0.6603 z"
     style="fill:#141711;fill-rule:evenodd;stroke:#141711;stroke-width:0.0757;stroke-linecap:butt;stroke-linejoin:round;stroke-dasharray:none"
     id="path1624" />
  <path
     d="m 37.38525,32.7213 c -0.1964,-0.3 -0.5964,-0.3803 -0.8942,-0.1791 -0.2982,0.2007 -0.3808,0.6069 -0.1849,0.9065 0.1961,0.2996 0.5967,0.3797 0.8949,0.1784 0.2978,-0.2005 0.38,-0.6061 0.1842,-0.9058 z"
     style="fill:#3664aa;fill-rule:evenodd"
     id="path1626" />
</svg>
